<svg width="154" height="196" viewBox="0 0 154 196" fill="none" xmlns="http://www.w3.org/2000/svg">
<path d="M151.801 59.9385L149.596 63.1509C147.046 66.8714 141.089 67.9649 134.237 65.4467C125.222 62.13 118.067 53.8041 118.262 46.8531C118.307 45.1834 118.774 43.7405 119.582 42.5654L121.787 39.353C120.98 40.5282 120.512 41.971 120.467 43.6407C120.272 50.5918 127.427 58.9176 136.442 62.2344C143.294 64.7571 149.251 63.659 151.801 59.9385Z" fill="#49FF86" stroke="black" stroke-width="0.874175" stroke-linecap="round" stroke-linejoin="round"/>
<path d="M120.467 43.6407C120.512 41.971 120.98 40.5282 121.787 39.353L119.582 42.5654C118.774 43.7405 118.307 45.1834 118.262 46.8531C118.144 51.0364 120.694 55.7189 124.709 59.5075L126.252 55.6508C122.622 51.9847 120.358 47.5881 120.467 43.6362V43.6407Z" fill="black"/>
<path d="M137.152 37.0531C146.172 40.3698 153.322 48.6957 153.127 55.6512C152.932 62.6023 145.468 65.5515 136.448 62.2348C127.433 58.9181 120.278 50.5922 120.473 43.6412C120.668 36.6856 128.136 33.7409 137.152 37.0576V37.0531Z" fill="white" stroke="black" stroke-width="0.874175" stroke-linecap="round" stroke-linejoin="round"/>
<path d="M137.151 37.0529C128.136 33.7362 120.668 36.6854 120.473 43.6365C120.364 47.5884 122.628 51.9805 126.257 55.6511L148.1 44.4305C145.25 41.3043 141.412 38.6228 137.151 37.0575V37.0529Z" fill="black" stroke="black" stroke-width="0.874175" stroke-linecap="round" stroke-linejoin="round"/>
<path d="M39.4134 73.8461C35.0486 73.7871 33.2201 76.818 35.3299 80.6156L63.3156 130.965C65.4254 134.763 70.6705 137.885 75.0398 137.944L132.921 138.724C137.286 138.783 139.115 135.752 137.005 131.955L109.019 81.6047C106.909 77.8071 101.66 74.6855 97.295 74.6265L39.4134 73.8461Z" fill="black" stroke="black" stroke-width="0.874175" stroke-linecap="round" stroke-linejoin="round"/>
<path d="M88.5122 124.22C88.7391 124.787 88.4759 125.658 87.9269 126.152L85.495 128.344L84.4877 125.821C84.2608 125.254 84.524 124.383 85.0775 123.884L87.5095 121.692L88.5122 124.215V124.22Z" fill="#EDFFF2" stroke="#EDFFF2" stroke-width="0.874175" stroke-linecap="round" stroke-linejoin="round"/>
<path d="M91.834 128.09C92.383 127.596 92.6462 126.725 92.4193 126.157L91.4166 123.635L87.5145 121.697L88.5173 124.22C88.7441 124.787 88.481 125.658 87.932 126.153L85.5 128.344L89.402 130.282L91.834 128.09Z" fill="#49FF86"/>
<path d="M97.7966 112.413L87.5061 121.697L86.5034 119.174C86.2765 118.602 86.5397 117.731 87.0887 117.237L95.3873 109.755C95.9363 109.26 96.5715 109.319 96.7984 109.895L97.8011 112.418L97.7966 112.413Z" fill="#EDFFF2" stroke="#EDFFF2" stroke-width="0.874175" stroke-linecap="round" stroke-linejoin="round"/>
<path d="M97.7983 112.412L101.7 114.345L91.4098 123.628L87.5078 121.691L97.7983 112.412Z" fill="#49FF86"/>
<path d="M100.697 111.825C100.62 111.63 100.497 111.498 100.347 111.421L96.4453 109.483C96.595 109.556 96.7175 109.692 96.7947 109.887L97.7974 112.41L101.699 114.347L100.697 111.825Z" fill="#49FF86"/>
<path d="M97.8014 112.413L100.233 110.221C100.782 109.722 101.418 109.786 101.644 110.353L102.647 112.875L100.211 115.072C99.6617 115.566 99.0265 115.503 98.7996 114.935L97.7969 112.413H97.8014Z" fill="#EDFFF2" stroke="#EDFFF2" stroke-width="0.874175" stroke-linecap="round" stroke-linejoin="round"/>
<path d="M102.645 112.876L106.547 114.813L104.283 117.141C104.052 117.381 103.616 117.459 103.317 117.313L99.2969 115.39C99.2969 115.39 99.6689 115.567 100.213 115.077L102.645 112.881V112.876Z" fill="#49FF86"/>
<path d="M105.54 112.286C105.463 112.095 105.341 111.959 105.191 111.887L101.289 109.949C101.439 110.022 101.561 110.158 101.638 110.348L102.641 112.871L106.543 114.809L105.54 112.286Z" fill="#49FF86"/>
<path d="M109.905 119.429C110.132 120 109.868 120.871 109.319 121.366L106.887 123.557L102.641 112.877L105.073 110.685C105.622 110.191 106.257 110.254 106.484 110.826L109.905 119.433V119.429Z" fill="#EDFFF2" stroke="#EDFFF2" stroke-width="0.874175" stroke-linecap="round" stroke-linejoin="round"/>
<path d="M113.228 123.298C113.777 122.803 114.04 121.932 113.813 121.36L110.392 112.753C110.315 112.558 110.192 112.427 110.043 112.35L106.141 110.412C106.29 110.485 106.413 110.621 106.49 110.816L109.911 119.423C110.138 119.995 109.875 120.866 109.326 121.36L106.894 123.552L110.796 125.489L113.228 123.298Z" fill="#49FF86"/>
<path d="M89.7408 139.029L87.3043 141.225C86.7553 141.719 86.1201 141.66 85.8932 141.084L82.4721 132.477C82.2453 131.905 82.5084 131.034 83.0574 130.54L85.4894 128.348L89.7408 139.029Z" fill="#EDFFF2" stroke="#EDFFF2" stroke-width="0.874175" stroke-linecap="round" stroke-linejoin="round"/>
<path d="M93.6457 140.962L89.7437 139.025L87.3072 141.221C86.9442 141.548 86.5449 141.634 86.25 141.484L90.152 143.421C90.4469 143.567 90.8462 143.485 91.2092 143.158L93.6457 140.962Z" fill="#49FF86"/>
<path d="M85.4922 128.349L89.3942 130.286L93.6456 140.962L89.7436 139.029L85.4922 128.349Z" fill="#49FF86"/>
<path d="M107.895 126.078C108.122 126.646 107.859 127.517 107.305 128.016L104.873 130.207L103.871 127.685C103.644 127.117 103.907 126.246 104.456 125.752L106.892 123.556L107.895 126.078Z" fill="#EDFFF2" stroke="#EDFFF2" stroke-width="0.874175" stroke-linecap="round" stroke-linejoin="round"/>
<path d="M111.217 129.953C111.766 129.454 112.034 128.582 111.807 128.015L110.804 125.493L106.902 123.555L107.905 126.078C108.131 126.645 107.868 127.516 107.315 128.015L104.883 130.207L108.785 132.144L111.217 129.953Z" fill="#49FF86"/>
<path d="M93.2344 136.569L97.1364 138.506C97.2861 138.579 97.4086 138.715 97.4858 138.906L93.5837 136.968C93.5066 136.778 93.3841 136.641 93.2344 136.569Z" fill="#49FF86"/>
<path d="M94.588 139.49L92.156 141.682C91.607 142.181 90.9718 142.118 90.7449 141.55L89.7422 139.028L92.1787 136.832C92.7277 136.337 93.3629 136.401 93.5898 136.968L94.5925 139.49H94.588Z" fill="#EDFFF2" stroke="#EDFFF2" stroke-width="0.874175" stroke-linecap="round" stroke-linejoin="round"/>
<path d="M98.4893 141.429L94.5873 139.491L92.1553 141.683C91.7878 142.014 91.3885 142.096 91.0936 141.95L94.9957 143.888C95.2906 144.033 95.6944 143.951 96.0574 143.62L98.4893 141.429Z" fill="#49FF86"/>
<path d="M93.5781 136.969L97.4802 138.906L98.4829 141.429L94.5809 139.491L93.5781 136.969Z" fill="#49FF86"/>
<path d="M105.884 132.737C106.111 133.304 105.847 134.176 105.298 134.67L96.9998 142.152C96.4507 142.647 95.8155 142.588 95.5887 142.016L94.5859 139.493L104.876 130.21L105.879 132.733L105.884 132.737Z" fill="#EDFFF2" stroke="#EDFFF2" stroke-width="0.874175" stroke-linecap="round" stroke-linejoin="round"/>
<path d="M109.2 136.607C109.749 136.112 110.012 135.241 109.785 134.674L108.782 132.151L104.88 130.214L105.883 132.737C106.11 133.304 105.847 134.175 105.298 134.669L96.9992 142.151C96.6362 142.478 96.2324 142.564 95.9375 142.415L99.8395 144.352C100.134 144.497 100.538 144.415 100.901 144.089L109.2 136.607Z" fill="#49FF86"/>
<path d="M104.691 77.1492C102.413 75.6383 99.7179 74.6582 97.295 74.6265L39.4134 73.8461C35.0486 73.7871 33.2201 76.818 35.3299 80.6156L51.2057 109.173L104.691 77.1492Z" fill="#49FF86"/>
<path d="M35.3354 80.616L63.3212 130.966C65.431 134.763 70.676 137.885 75.0454 137.944L132.927 138.724C135.123 138.756 136.675 138.003 137.41 136.764L103.952 193.04C103.217 194.278 101.665 195.032 99.4694 195L41.5878 194.22C37.2229 194.161 31.9733 191.034 29.8635 187.241L1.87779 136.891C0.829685 135.004 0.752552 133.307 1.47397 132.086L34.9316 75.811C34.2102 77.0361 34.2828 78.733 35.3354 80.616Z" fill="#EDFFF2"/>
<path d="M35.0541 192.232C32.8626 190.962 30.9524 189.192 29.868 187.246L1.87779 136.891C0.829686 135.004 0.752552 133.307 1.47397 132.086L34.9316 75.811C34.2102 77.0361 34.2828 78.733 35.3354 80.616L63.3211 130.966C64.4101 132.926 66.3339 134.7 68.5435 135.97L35.0541 192.228V192.232Z" fill="white"/>
<path d="M35.3354 80.616L63.3212 130.966C65.431 134.763 70.676 137.885 75.0454 137.944L132.927 138.724C135.123 138.756 136.675 138.003 137.41 136.764L103.952 193.04C103.217 194.278 101.665 195.032 99.4694 195L41.5878 194.22C37.2229 194.161 31.9733 191.034 29.8635 187.241L1.87779 136.891C0.829685 135.004 0.752552 133.307 1.47397 132.086L34.9316 75.811C34.2102 77.0361 34.2828 78.733 35.3354 80.616Z" stroke="black" stroke-width="0.874175" stroke-linecap="round" stroke-linejoin="round"/>
<path d="M137.003 131.955L109.018 81.6047C106.908 77.8071 101.658 74.6855 97.2934 74.6265L39.4117 73.8461C35.0469 73.7871 33.2184 76.818 35.3328 80.6156L63.3185 130.965C65.4283 134.763 70.6733 137.885 75.0427 137.944L132.924 138.724C137.289 138.783 139.118 135.752 137.008 131.955H137.003ZM129.399 133.828L73.1325 133.071C71.4265 133.048 69.353 131.809 68.5272 130.321L41.3355 81.4051C40.5052 79.9169 41.2221 78.7145 42.9281 78.7372L99.1945 79.4949C100.9 79.5176 102.974 80.7563 103.8 82.2445L130.991 131.161C131.822 132.649 131.105 133.851 129.399 133.828Z" fill="white" stroke="black" stroke-width="0.874175" stroke-linecap="round" stroke-linejoin="round"/>
<path d="M29.7931 55.5648L80.6873 56.2499C84.5259 56.2998 90.2836 54.5439 93.5504 52.3252L136.886 22.8921C140.152 20.6734 139.69 18.8313 135.856 18.7814L84.9614 18.0963C81.1229 18.0463 75.3652 19.8023 72.0983 22.021L28.7631 51.4541C25.4963 53.6728 25.9591 55.5149 29.7931 55.5648Z" fill="white" stroke="black" stroke-width="0.874175" stroke-linecap="round" stroke-linejoin="round"/>
<path d="M36.7894 53.0041L81.4541 53.603C84.2626 53.6393 88.4823 52.3552 90.8734 50.7309L129.263 24.6554C131.659 23.031 131.318 21.6835 128.505 21.6426L83.8407 21.0437C81.0321 21.0074 76.8125 22.2915 74.4214 23.9158L36.0317 49.9913C33.6406 51.6157 33.9764 52.9632 36.7894 53.0041Z" fill="#49FF86" stroke="black" stroke-width="0.874175" stroke-linecap="round" stroke-linejoin="round"/>
<path d="M129.267 24.6545C131.663 23.0302 131.322 21.6826 128.509 21.6418L117.833 21.4966L83.5859 42.4496L86.3219 52.7854C88.0279 52.2636 89.684 51.5377 90.8773 50.7255L129.267 24.65V24.6545Z" fill="black"/>
<path d="M74.4202 23.9203L38.2266 48.5031L80.3957 49.0703C83.2043 49.1066 87.4239 47.8225 89.815 46.1937L126.009 21.6109L83.8395 21.0437C81.0309 21.0074 76.8113 22.2915 74.4202 23.9203Z" fill="#49FF86" stroke="black" stroke-width="0.874175" stroke-linecap="round" stroke-linejoin="round"/>
<path d="M135.861 18.7825L84.967 18.0974C81.1285 18.0475 75.3708 19.8034 72.104 22.0221L28.7687 51.4552C27.1262 52.5713 26.423 53.5922 26.6226 54.3363L22.1035 37.24C21.9039 36.4959 22.6026 35.475 24.2496 34.3589L67.5803 4.92575C70.8471 2.70704 76.6094 0.951128 80.4434 1.00104L131.338 1.68616C133.243 1.71339 134.319 2.18072 134.514 2.91575L139.033 20.0121C138.838 19.2771 137.762 18.8097 135.857 18.7825H135.861Z" fill="white"/>
<path d="M76.7764 19.7393L72.2891 2.61572" stroke="#49FF86" stroke-width="0.874175" stroke-linecap="round" stroke-linejoin="round"/>
<path d="M73.6094 2.17177C75.996 1.42766 78.4688 0.973937 80.4379 1.00116L131.332 1.68628C133.238 1.71351 134.313 2.18084 134.508 2.91588L139.027 20.0122C138.832 19.2772 137.757 18.8098 135.851 18.7826L84.957 18.0975C82.9788 18.0703 80.4878 18.5285 78.0922 19.2772L73.6094 2.17177Z" fill="#49FF86"/>
<path d="M135.861 18.7825L84.967 18.0974C81.1285 18.0475 75.3708 19.8034 72.1039 22.0221L28.7687 51.4552C27.1262 52.5713 26.423 53.5922 26.6226 54.3363L22.1035 37.24C21.9039 36.4959 22.6026 35.475 24.2496 34.3589L67.5803 4.92575C70.8471 2.70704 76.6094 0.951128 80.4434 1.00104L131.338 1.68616C133.243 1.71339 134.319 2.18072 134.514 2.91575L139.033 20.0121C138.838 19.2771 137.762 18.8097 135.857 18.7825H135.861Z" stroke="black" stroke-width="0.874175" stroke-linecap="round" stroke-linejoin="round"/>
<path d="M109.581 81.9065C118.347 80.2005 123.337 81.2622 120.724 84.2795C118.111 87.2922 108.882 91.1171 100.116 92.8231C91.3454 94.5291 86.3544 93.4674 88.9679 90.4501C91.5813 87.4329 100.81 83.608 109.581 81.9065Z" fill="white" stroke="black" stroke-width="0.874175" stroke-linecap="round" stroke-linejoin="round"/>
<path d="M121.383 82.5498L122.667 86.96C122.803 87.4319 122.599 88.0081 122.014 88.6887C119.4 91.7014 110.172 95.5263 101.406 97.2323C94.6044 98.5527 90.0762 98.2124 89.6044 96.588L88.3203 92.1778C88.7922 93.8022 93.3204 94.1425 100.122 92.8221C108.888 91.1161 118.116 87.2912 120.73 84.2785C121.315 83.6024 121.519 83.0217 121.383 82.5498Z" fill="#49FF86" stroke="black" stroke-width="0.874175" stroke-linecap="round" stroke-linejoin="round"/>
<path d="M93.8401 93.613C90.6232 93.74 88.6132 93.2273 88.3047 92.1792L89.5887 96.5894C89.8882 97.6239 91.8437 98.1366 94.979 98.0322L93.8401 93.6175V93.613Z" fill="black"/>
<path d="M130.968 79.439L126.281 82.8994L129.742 87.5862L134.428 84.1257L130.968 79.439Z" fill="black"/>
<path d="M145.371 78.2754L141.039 74.3794L137.143 78.7109L141.475 82.6068L145.371 78.2754Z" fill="#49FF86"/>
<path d="M81.5737 92.4531L77.2422 88.5571L73.3462 92.8886L77.6777 96.7846L81.5737 92.4531Z" fill="#EDFFF2"/>
<path d="M88.677 62.095L83.3438 59.7505L80.9993 65.0838L86.3325 67.4282L88.677 62.095Z" fill="#49FF86"/>
</svg>
