<svg width="1920" height="540" viewBox="0 0 1920 540" fill="none" xmlns="http://www.w3.org/2000/svg">
<g opacity="0.5" clip-path="url(#clip0_17929_5916)">
<rect x="-27.5" y="0.5" width="79" height="79" stroke="#E8E8E8"/>
<rect x="51.5" y="0.5" width="79" height="79" stroke="#E8E8E8"/>
<rect x="130.5" y="0.5" width="79" height="79" stroke="#E8E8E8"/>
<rect x="209.5" y="0.5" width="79" height="79" stroke="#E8E8E8"/>
<rect x="288.5" y="0.5" width="79" height="79" stroke="#E8E8E8"/>
<rect x="367.5" y="0.5" width="79" height="79" stroke="#E8E8E8"/>
<rect x="446.5" y="0.5" width="79" height="79" stroke="#E8E8E8"/>
<rect x="525.5" y="0.5" width="79" height="79" stroke="#E8E8E8"/>
<rect x="604.5" y="0.5" width="79" height="79" stroke="#E8E8E8"/>
<rect x="683.5" y="0.5" width="79" height="79" stroke="#E8E8E8"/>
<rect x="762.5" y="0.5" width="79" height="79" fill="#E8E8E8"/>
<rect x="762.5" y="0.5" width="79" height="79" stroke="#E8E8E8"/>
<rect x="841.5" y="0.5" width="79" height="79" stroke="#E8E8E8"/>
<rect x="920.5" y="0.5" width="79" height="79" stroke="#E8E8E8"/>
<rect x="999.5" y="0.5" width="79" height="79" stroke="#E8E8E8"/>
<rect x="1078.5" y="0.5" width="79" height="79" stroke="#E8E8E8"/>
<rect x="1157.5" y="0.5" width="79" height="79" stroke="#E8E8E8"/>
<rect x="1236.5" y="0.5" width="79" height="79" stroke="#E8E8E8"/>
<rect x="1315.5" y="0.5" width="79" height="79" stroke="#E8E8E8"/>
<rect x="1394.5" y="0.5" width="79" height="79" stroke="#E8E8E8"/>
<rect x="1473.5" y="0.5" width="79" height="79" stroke="#E8E8E8"/>
<rect x="1552.5" y="0.5" width="79" height="79" stroke="#E8E8E8"/>
<rect x="1631.5" y="0.5" width="79" height="79" stroke="#E8E8E8"/>
<rect x="1710.5" y="0.5" width="79" height="79" stroke="#E8E8E8"/>
<rect x="1789.5" y="0.5" width="79" height="79" stroke="#E8E8E8"/>
<rect x="1868.5" y="0.5" width="79" height="79" stroke="#E8E8E8"/>
<rect x="-27.5" y="79.5" width="79" height="79" stroke="#E8E8E8"/>
<rect x="51.5" y="79.5" width="79" height="79" stroke="#E8E8E8"/>
<rect x="130.5" y="79.5" width="79" height="79" stroke="#E8E8E8"/>
<rect x="209.5" y="79.5" width="79" height="79" stroke="#E8E8E8"/>
<rect x="288.5" y="79.5" width="79" height="79" stroke="#E8E8E8"/>
<rect x="367.5" y="79.5" width="79" height="79" stroke="#E8E8E8"/>
<rect x="446.5" y="79.5" width="79" height="79" stroke="#E8E8E8"/>
<rect x="525.5" y="79.5" width="79" height="79" stroke="#E8E8E8"/>
<rect x="604.5" y="79.5" width="79" height="79" stroke="#E8E8E8"/>
<rect x="683.5" y="79.5" width="79" height="79" stroke="#E8E8E8"/>
<rect x="762.5" y="79.5" width="79" height="79" stroke="#E8E8E8"/>
<rect x="841.5" y="79.5" width="79" height="79" stroke="#E8E8E8"/>
<rect x="920.5" y="79.5" width="79" height="79" stroke="#E8E8E8"/>
<rect x="999.5" y="79.5" width="79" height="79" stroke="#E8E8E8"/>
<rect x="1078.5" y="79.5" width="79" height="79" stroke="#E8E8E8"/>
<rect x="1157.5" y="79.5" width="79" height="79" stroke="#E8E8E8"/>
<rect x="1236.5" y="79.5" width="79" height="79" stroke="#E8E8E8"/>
<rect x="1315.5" y="79.5" width="79" height="79" stroke="#E8E8E8"/>
<rect x="1394.5" y="79.5" width="79" height="79" stroke="#E8E8E8"/>
<rect x="1473.5" y="79.5" width="79" height="79" stroke="#E8E8E8"/>
<rect x="1552.5" y="79.5" width="79" height="79" stroke="#E8E8E8"/>
<rect x="1631.5" y="79.5" width="79" height="79" stroke="#E8E8E8"/>
<rect x="1710.5" y="79.5" width="79" height="79" stroke="#E8E8E8"/>
<rect x="1789.5" y="79.5" width="79" height="79" stroke="#E8E8E8"/>
<rect x="1868.5" y="79.5" width="79" height="79" stroke="#E8E8E8"/>
<rect x="-27.5" y="158.5" width="79" height="79" stroke="#E8E8E8"/>
<rect x="51.5" y="158.5" width="79" height="79" stroke="#E8E8E8"/>
<rect x="130.5" y="158.5" width="79" height="79" stroke="#E8E8E8"/>
<rect x="209.5" y="158.5" width="79" height="79" stroke="#E8E8E8"/>
<rect x="288.5" y="158.5" width="79" height="79" stroke="#E8E8E8"/>
<rect x="367.5" y="158.5" width="79" height="79" fill="#E8E8E8"/>
<rect x="367.5" y="158.5" width="79" height="79" stroke="#E8E8E8"/>
<rect x="446.5" y="158.5" width="79" height="79" stroke="#E8E8E8"/>
<rect x="525.5" y="158.5" width="79" height="79" stroke="#E8E8E8"/>
<rect x="604.5" y="158.5" width="79" height="79" stroke="#E8E8E8"/>
<rect x="683.5" y="158.5" width="79" height="79" stroke="#E8E8E8"/>
<rect x="762.5" y="158.5" width="79" height="79" stroke="#E8E8E8"/>
<rect x="841.5" y="158.5" width="79" height="79" stroke="#E8E8E8"/>
<rect x="920.5" y="158.5" width="79" height="79" stroke="#E8E8E8"/>
<rect x="999.5" y="158.5" width="79" height="79" stroke="#E8E8E8"/>
<rect x="1078.5" y="158.5" width="79" height="79" stroke="#E8E8E8"/>
<rect x="1157.5" y="158.5" width="79" height="79" stroke="#E8E8E8"/>
<rect x="1236.5" y="158.5" width="79" height="79" stroke="#E8E8E8"/>
<rect x="1315.5" y="158.5" width="79" height="79" stroke="#E8E8E8"/>
<rect x="1394.5" y="158.5" width="79" height="79" stroke="#E8E8E8"/>
<rect x="1473.5" y="158.5" width="79" height="79" stroke="#E8E8E8"/>
<rect x="1552.5" y="158.5" width="79" height="79" stroke="#E8E8E8"/>
<rect x="1631.5" y="158.5" width="79" height="79" stroke="#E8E8E8"/>
<rect x="1710.5" y="158.5" width="79" height="79" stroke="#E8E8E8"/>
<rect x="1789.5" y="158.5" width="79" height="79" stroke="#E8E8E8"/>
<rect x="1868.5" y="158.5" width="79" height="79" stroke="#E8E8E8"/>
<rect x="-27.5" y="237.5" width="79" height="79" stroke="#E8E8E8"/>
<rect x="51.5" y="237.5" width="79" height="79" stroke="#E8E8E8"/>
<rect x="130.5" y="237.5" width="79" height="79" stroke="#E8E8E8"/>
<rect x="209.5" y="237.5" width="79" height="79" stroke="#E8E8E8"/>
<rect x="288.5" y="237.5" width="79" height="79" stroke="#E8E8E8"/>
<rect x="367.5" y="237.5" width="79" height="79" stroke="#E8E8E8"/>
<rect x="446.5" y="237.5" width="79" height="79" stroke="#E8E8E8"/>
<rect x="525.5" y="237.5" width="79" height="79" stroke="#E8E8E8"/>
<rect x="604.5" y="237.5" width="79" height="79" stroke="#E8E8E8"/>
<rect x="683.5" y="237.5" width="79" height="79" stroke="#E8E8E8"/>
<rect x="762.5" y="237.5" width="79" height="79" stroke="#E8E8E8"/>
<rect x="841.5" y="237.5" width="79" height="79" stroke="#E8E8E8"/>
<rect x="920.5" y="237.5" width="79" height="79" stroke="#E8E8E8"/>
<rect x="999.5" y="237.5" width="79" height="79" stroke="#E8E8E8"/>
<rect x="1078.5" y="237.5" width="79" height="79" stroke="#E8E8E8"/>
<rect x="1157.5" y="237.5" width="79" height="79" stroke="#E8E8E8"/>
<rect x="1236.5" y="237.5" width="79" height="79" stroke="#E8E8E8"/>
<rect x="1315.5" y="237.5" width="79" height="79" stroke="#E8E8E8"/>
<rect x="1394.5" y="237.5" width="79" height="79" stroke="#E8E8E8"/>
<rect x="1473.5" y="237.5" width="79" height="79" stroke="#E8E8E8"/>
<rect x="1552.5" y="237.5" width="79" height="79" stroke="#E8E8E8"/>
<rect x="1631.5" y="237.5" width="79" height="79" stroke="#E8E8E8"/>
<rect x="1710.5" y="237.5" width="79" height="79" stroke="#E8E8E8"/>
<rect x="1789.5" y="237.5" width="79" height="79" stroke="#E8E8E8"/>
<rect x="1868.5" y="237.5" width="79" height="79" stroke="#E8E8E8"/>
<rect x="-27.5" y="316.5" width="79" height="79" stroke="#E8E8E8"/>
<rect x="51.5" y="316.5" width="79" height="79" stroke="#E8E8E8"/>
<rect x="130.5" y="316.5" width="79" height="79" stroke="#E8E8E8"/>
<rect x="209.5" y="316.5" width="79" height="79" stroke="#E8E8E8"/>
<rect x="288.5" y="316.5" width="79" height="79" stroke="#E8E8E8"/>
<rect x="367.5" y="316.5" width="79" height="79" stroke="#E8E8E8"/>
<rect x="446.5" y="316.5" width="79" height="79" stroke="#E8E8E8"/>
<rect x="525.5" y="316.5" width="79" height="79" stroke="#E8E8E8"/>
<rect x="604.5" y="316.5" width="79" height="79" stroke="#E8E8E8"/>
<rect x="683.5" y="316.5" width="79" height="79" stroke="#E8E8E8"/>
<rect x="762.5" y="316.5" width="79" height="79" stroke="#E8E8E8"/>
<rect x="841.5" y="316.5" width="79" height="79" stroke="#E8E8E8"/>
<rect x="920.5" y="316.5" width="79" height="79" stroke="#E8E8E8"/>
<rect x="999.5" y="316.5" width="79" height="79" stroke="#E8E8E8"/>
<rect x="1078.5" y="316.5" width="79" height="79" stroke="#E8E8E8"/>
<rect x="1157.5" y="316.5" width="79" height="79" stroke="#E8E8E8"/>
<rect x="1236.5" y="316.5" width="79" height="79" stroke="#E8E8E8"/>
<rect x="1315.5" y="316.5" width="79" height="79" stroke="#E8E8E8"/>
<rect x="1394.5" y="316.5" width="79" height="79" stroke="#E8E8E8"/>
<rect x="1473.5" y="316.5" width="79" height="79" fill="#E8E8E8"/>
<rect x="1473.5" y="316.5" width="79" height="79" stroke="#E8E8E8"/>
<rect x="1552.5" y="316.5" width="79" height="79" stroke="#E8E8E8"/>
<rect x="1631.5" y="316.5" width="79" height="79" stroke="#E8E8E8"/>
<rect x="1710.5" y="316.5" width="79" height="79" stroke="#E8E8E8"/>
<rect x="1789.5" y="316.5" width="79" height="79" stroke="#E8E8E8"/>
<rect x="1868.5" y="316.5" width="79" height="79" stroke="#E8E8E8"/>
<rect x="-27.5" y="395.5" width="79" height="79" stroke="#E8E8E8"/>
<rect x="51.5" y="395.5" width="79" height="79" stroke="#E8E8E8"/>
<rect x="130.5" y="395.5" width="79" height="79" stroke="#E8E8E8"/>
<rect x="209.5" y="395.5" width="79" height="79" stroke="#E8E8E8"/>
<rect x="288.5" y="395.5" width="79" height="79" stroke="#E8E8E8"/>
<rect x="367.5" y="395.5" width="79" height="79" stroke="#E8E8E8"/>
<rect x="446.5" y="395.5" width="79" height="79" stroke="#E8E8E8"/>
<rect x="525.5" y="395.5" width="79" height="79" stroke="#E8E8E8"/>
<rect x="604.5" y="395.5" width="79" height="79" stroke="#E8E8E8"/>
<rect x="683.5" y="395.5" width="79" height="79" stroke="#E8E8E8"/>
<rect x="762.5" y="395.5" width="79" height="79" stroke="#E8E8E8"/>
<rect x="841.5" y="395.5" width="79" height="79" stroke="#E8E8E8"/>
<rect x="920.5" y="395.5" width="79" height="79" stroke="#E8E8E8"/>
<rect x="999.5" y="395.5" width="79" height="79" stroke="#E8E8E8"/>
<rect x="1078.5" y="395.5" width="79" height="79" stroke="#E8E8E8"/>
<rect x="1157.5" y="395.5" width="79" height="79" stroke="#E8E8E8"/>
<rect x="1236.5" y="395.5" width="79" height="79" stroke="#E8E8E8"/>
<rect x="1315.5" y="395.5" width="79" height="79" stroke="#E8E8E8"/>
<rect x="1394.5" y="395.5" width="79" height="79" fill="#E8E8E8"/>
<rect x="1394.5" y="395.5" width="79" height="79" stroke="#E8E8E8"/>
<rect x="1473.5" y="395.5" width="79" height="79" stroke="#E8E8E8"/>
<rect x="1552.5" y="395.5" width="79" height="79" stroke="#E8E8E8"/>
<rect x="1631.5" y="395.5" width="79" height="79" stroke="#E8E8E8"/>
<rect x="1710.5" y="395.5" width="79" height="79" stroke="#E8E8E8"/>
<rect x="1789.5" y="395.5" width="79" height="79" stroke="#E8E8E8"/>
<rect x="1868.5" y="395.5" width="79" height="79" stroke="#E8E8E8"/>
<rect x="-27.5" y="474.5" width="79" height="79" stroke="#E8E8E8"/>
<rect x="51.5" y="474.5" width="79" height="79" stroke="#E8E8E8"/>
<rect x="130.5" y="474.5" width="79" height="79" stroke="#E8E8E8"/>
<rect x="209.5" y="474.5" width="79" height="79" stroke="#E8E8E8"/>
<rect x="288.5" y="474.5" width="79" height="79" fill="#E8E8E8"/>
<rect x="288.5" y="474.5" width="79" height="79" stroke="#E8E8E8"/>
<rect x="367.5" y="474.5" width="79" height="79" stroke="#E8E8E8"/>
<rect x="446.5" y="474.5" width="79" height="79" stroke="#E8E8E8"/>
<rect x="525.5" y="474.5" width="79" height="79" stroke="#E8E8E8"/>
<rect x="604.5" y="474.5" width="79" height="79" stroke="#E8E8E8"/>
<rect x="683.5" y="474.5" width="79" height="79" stroke="#E8E8E8"/>
<rect x="762.5" y="474.5" width="79" height="79" stroke="#E8E8E8"/>
<rect x="841.5" y="474.5" width="79" height="79" stroke="#E8E8E8"/>
<rect x="920.5" y="474.5" width="79" height="79" stroke="#E8E8E8"/>
<rect x="999.5" y="474.5" width="79" height="79" stroke="#E8E8E8"/>
<rect x="1078.5" y="474.5" width="79" height="79" stroke="#E8E8E8"/>
<rect x="1157.5" y="474.5" width="79" height="79" stroke="#E8E8E8"/>
<rect x="1236.5" y="474.5" width="79" height="79" stroke="#E8E8E8"/>
<rect x="1315.5" y="474.5" width="79" height="79" stroke="#E8E8E8"/>
<rect x="1394.5" y="474.5" width="79" height="79" stroke="#E8E8E8"/>
<rect x="1473.5" y="474.5" width="79" height="79" stroke="#E8E8E8"/>
<rect x="1552.5" y="474.5" width="79" height="79" stroke="#E8E8E8"/>
<rect x="1631.5" y="474.5" width="79" height="79" stroke="#E8E8E8"/>
<rect x="1710.5" y="474.5" width="79" height="79" stroke="#E8E8E8"/>
<rect x="1789.5" y="474.5" width="79" height="79" stroke="#E8E8E8"/>
<rect x="1868.5" y="474.5" width="79" height="79" stroke="#E8E8E8"/>
</g>
<defs>
<clipPath id="clip0_17929_5916">
<rect width="1976" height="712" fill="white" transform="translate(-28)"/>
</clipPath>
</defs>
</svg>
