<svg width="1440" height="600" viewBox="0 0 1440 600" fill="none" xmlns="http://www.w3.org/2000/svg">
<g opacity="0.05" clip-path="url(#clip0_18303_24848)">
<rect x="-30.5" y="-55.5" width="79" height="79" stroke="#E8E8E8"/>
<rect x="48.5" y="-55.5" width="79" height="79" stroke="#E8E8E8"/>
<rect x="127.5" y="-55.5" width="79" height="79" stroke="#E8E8E8"/>
<rect x="206.5" y="-55.5" width="79" height="79" stroke="#E8E8E8"/>
<rect x="285.5" y="-55.5" width="79" height="79" stroke="#E8E8E8"/>
<rect x="364.5" y="-55.5" width="79" height="79" stroke="#E8E8E8"/>
<rect x="443.5" y="-55.5" width="79" height="79" stroke="#E8E8E8"/>
<rect x="522.5" y="-55.5" width="79" height="79" stroke="#E8E8E8"/>
<rect x="601.5" y="-55.5" width="79" height="79" fill="#E8E8E8"/>
<rect x="601.5" y="-55.5" width="79" height="79" stroke="#E8E8E8"/>
<rect x="680.5" y="-55.5" width="79" height="79" stroke="#E8E8E8"/>
<rect x="759.5" y="-55.5" width="79" height="79" stroke="#E8E8E8"/>
<rect x="838.5" y="-55.5" width="79" height="79" stroke="#E8E8E8"/>
<rect x="917.5" y="-55.5" width="79" height="79" stroke="#E8E8E8"/>
<rect x="996.5" y="-55.5" width="79" height="79" stroke="#E8E8E8"/>
<rect x="1075.5" y="-55.5" width="79" height="79" stroke="#E8E8E8"/>
<rect x="1154.5" y="-55.5" width="79" height="79" stroke="#E8E8E8"/>
<rect x="1233.5" y="-55.5" width="79" height="79" stroke="#E8E8E8"/>
<rect x="1312.5" y="-55.5" width="79" height="79" stroke="#E8E8E8"/>
<rect x="1391.5" y="-55.5" width="79" height="79" stroke="#E8E8E8"/>
<rect x="-30.5" y="23.5" width="79" height="79" stroke="#E8E8E8"/>
<rect x="48.5" y="23.5" width="79" height="79" fill="#E8E8E8"/>
<rect x="48.5" y="23.5" width="79" height="79" stroke="#E8E8E8"/>
<rect x="127.5" y="23.5" width="79" height="79" stroke="#E8E8E8"/>
<rect x="206.5" y="23.5" width="79" height="79" stroke="#E8E8E8"/>
<rect x="285.5" y="23.5" width="79" height="79" stroke="#E8E8E8"/>
<rect x="364.5" y="23.5" width="79" height="79" stroke="#E8E8E8"/>
<rect x="443.5" y="23.5" width="79" height="79" stroke="#E8E8E8"/>
<rect x="522.5" y="23.5" width="79" height="79" stroke="#E8E8E8"/>
<rect x="601.5" y="23.5" width="79" height="79" stroke="#E8E8E8"/>
<rect x="680.5" y="23.5" width="79" height="79" stroke="#E8E8E8"/>
<rect x="759.5" y="23.5" width="79" height="79" stroke="#E8E8E8"/>
<rect x="838.5" y="23.5" width="79" height="79" stroke="#E8E8E8"/>
<rect x="917.5" y="23.5" width="79" height="79" stroke="#E8E8E8"/>
<rect x="996.5" y="23.5" width="79" height="79" stroke="#E8E8E8"/>
<rect x="1075.5" y="23.5" width="79" height="79" stroke="#E8E8E8"/>
<rect x="1154.5" y="23.5" width="79" height="79" stroke="#E8E8E8"/>
<rect x="1233.5" y="23.5" width="79" height="79" stroke="#E8E8E8"/>
<rect x="1312.5" y="23.5" width="79" height="79" stroke="#E8E8E8"/>
<rect x="1391.5" y="23.5" width="79" height="79" stroke="#E8E8E8"/>
<rect x="-30.5" y="102.5" width="79" height="79" stroke="#E8E8E8"/>
<rect x="48.5" y="102.5" width="79" height="79" stroke="#E8E8E8"/>
<rect x="127.5" y="102.5" width="79" height="79" stroke="#E8E8E8"/>
<rect x="206.5" y="102.5" width="79" height="79" stroke="#E8E8E8"/>
<rect x="285.5" y="102.5" width="79" height="79" stroke="#E8E8E8"/>
<rect x="364.5" y="102.5" width="79" height="79" stroke="#E8E8E8"/>
<rect x="443.5" y="102.5" width="79" height="79" stroke="#E8E8E8"/>
<rect x="522.5" y="102.5" width="79" height="79" stroke="#E8E8E8"/>
<rect x="601.5" y="102.5" width="79" height="79" stroke="#E8E8E8"/>
<rect x="680.5" y="102.5" width="79" height="79" stroke="#E8E8E8"/>
<rect x="759.5" y="102.5" width="79" height="79" stroke="#E8E8E8"/>
<rect x="838.5" y="102.5" width="79" height="79" stroke="#E8E8E8"/>
<rect x="917.5" y="102.5" width="79" height="79" stroke="#E8E8E8"/>
<rect x="996.5" y="102.5" width="79" height="79" stroke="#E8E8E8"/>
<rect x="1075.5" y="102.5" width="79" height="79" stroke="#E8E8E8"/>
<rect x="1154.5" y="102.5" width="79" height="79" stroke="#E8E8E8"/>
<rect x="1233.5" y="102.5" width="79" height="79" stroke="#E8E8E8"/>
<rect x="1312.5" y="102.5" width="79" height="79" fill="#E8E8E8"/>
<rect x="1312.5" y="102.5" width="79" height="79" stroke="#E8E8E8"/>
<rect x="1391.5" y="102.5" width="79" height="79" stroke="#E8E8E8"/>
<rect x="-30.5" y="181.5" width="79" height="79" stroke="#E8E8E8"/>
<rect x="48.5" y="181.5" width="79" height="79" stroke="#E8E8E8"/>
<rect x="127.5" y="181.5" width="79" height="79" stroke="#E8E8E8"/>
<rect x="206.5" y="181.5" width="79" height="79" stroke="#E8E8E8"/>
<rect x="285.5" y="181.5" width="79" height="79" stroke="#E8E8E8"/>
<rect x="364.5" y="181.5" width="79" height="79" stroke="#E8E8E8"/>
<rect x="443.5" y="181.5" width="79" height="79" stroke="#E8E8E8"/>
<rect x="522.5" y="181.5" width="79" height="79" stroke="#E8E8E8"/>
<rect x="601.5" y="181.5" width="79" height="79" stroke="#E8E8E8"/>
<rect x="680.5" y="181.5" width="79" height="79" stroke="#E8E8E8"/>
<rect x="759.5" y="181.5" width="79" height="79" stroke="#E8E8E8"/>
<rect x="838.5" y="181.5" width="79" height="79" stroke="#E8E8E8"/>
<rect x="917.5" y="181.5" width="79" height="79" stroke="#E8E8E8"/>
<rect x="996.5" y="181.5" width="79" height="79" stroke="#E8E8E8"/>
<rect x="1075.5" y="181.5" width="79" height="79" stroke="#E8E8E8"/>
<rect x="1154.5" y="181.5" width="79" height="79" stroke="#E8E8E8"/>
<rect x="1233.5" y="181.5" width="79" height="79" stroke="#E8E8E8"/>
<rect x="1312.5" y="181.5" width="79" height="79" stroke="#E8E8E8"/>
<rect x="1391.5" y="181.5" width="79" height="79" stroke="#E8E8E8"/>
<rect x="-30.5" y="260.5" width="79" height="79" stroke="#E8E8E8"/>
<rect x="48.5" y="260.5" width="79" height="79" stroke="#E8E8E8"/>
<rect x="127.5" y="260.5" width="79" height="79" stroke="#E8E8E8"/>
<rect x="206.5" y="260.5" width="79" height="79" stroke="#E8E8E8"/>
<rect x="285.5" y="260.5" width="79" height="79" stroke="#E8E8E8"/>
<rect x="364.5" y="260.5" width="79" height="79" stroke="#E8E8E8"/>
<rect x="443.5" y="260.5" width="79" height="79" stroke="#E8E8E8"/>
<rect x="522.5" y="260.5" width="79" height="79" stroke="#E8E8E8"/>
<rect x="601.5" y="260.5" width="79" height="79" stroke="#E8E8E8"/>
<rect x="680.5" y="260.5" width="79" height="79" stroke="#E8E8E8"/>
<rect x="759.5" y="260.5" width="79" height="79" stroke="#E8E8E8"/>
<rect x="838.5" y="260.5" width="79" height="79" stroke="#E8E8E8"/>
<rect x="917.5" y="260.5" width="79" height="79" stroke="#E8E8E8"/>
<rect x="996.5" y="260.5" width="79" height="79" stroke="#E8E8E8"/>
<rect x="1075.5" y="260.5" width="79" height="79" stroke="#E8E8E8"/>
<rect x="1154.5" y="260.5" width="79" height="79" stroke="#E8E8E8"/>
<rect x="1233.5" y="260.5" width="79" height="79" stroke="#E8E8E8"/>
<rect x="1312.5" y="260.5" width="79" height="79" stroke="#E8E8E8"/>
<rect x="1391.5" y="260.5" width="79" height="79" stroke="#E8E8E8"/>
<rect x="-30.5" y="339.5" width="79" height="79" stroke="#E8E8E8"/>
<rect x="48.5" y="339.5" width="79" height="79" stroke="#E8E8E8"/>
<rect x="127.5" y="339.5" width="79" height="79" stroke="#E8E8E8"/>
<rect x="206.5" y="339.5" width="79" height="79" stroke="#E8E8E8"/>
<rect x="285.5" y="339.5" width="79" height="79" stroke="#E8E8E8"/>
<rect x="364.5" y="339.5" width="79" height="79" stroke="#E8E8E8"/>
<rect x="443.5" y="339.5" width="79" height="79" stroke="#E8E8E8"/>
<rect x="522.5" y="339.5" width="79" height="79" stroke="#E8E8E8"/>
<rect x="601.5" y="339.5" width="79" height="79" stroke="#E8E8E8"/>
<rect x="680.5" y="339.5" width="79" height="79" stroke="#E8E8E8"/>
<rect x="759.5" y="339.5" width="79" height="79" stroke="#E8E8E8"/>
<rect x="838.5" y="339.5" width="79" height="79" stroke="#E8E8E8"/>
<rect x="917.5" y="339.5" width="79" height="79" stroke="#E8E8E8"/>
<rect x="996.5" y="339.5" width="79" height="79" stroke="#E8E8E8"/>
<rect x="1075.5" y="339.5" width="79" height="79" stroke="#E8E8E8"/>
<rect x="1154.5" y="339.5" width="79" height="79" fill="#E8E8E8"/>
<rect x="1154.5" y="339.5" width="79" height="79" stroke="#E8E8E8"/>
<rect x="1233.5" y="339.5" width="79" height="79" stroke="#E8E8E8"/>
<rect x="1312.5" y="339.5" width="79" height="79" stroke="#E8E8E8"/>
<rect x="1391.5" y="339.5" width="79" height="79" stroke="#E8E8E8"/>
<rect x="-30.5" y="418.5" width="79" height="79" stroke="#E8E8E8"/>
<rect x="48.5" y="418.5" width="79" height="79" stroke="#E8E8E8"/>
<rect x="127.5" y="418.5" width="79" height="79" stroke="#E8E8E8"/>
<rect x="206.5" y="418.5" width="79" height="79" stroke="#E8E8E8"/>
<rect x="285.5" y="418.5" width="79" height="79" stroke="#E8E8E8"/>
<rect x="364.5" y="418.5" width="79" height="79" stroke="#E8E8E8"/>
<rect x="443.5" y="418.5" width="79" height="79" stroke="#E8E8E8"/>
<rect x="522.5" y="418.5" width="79" height="79" stroke="#E8E8E8"/>
<rect x="601.5" y="418.5" width="79" height="79" stroke="#E8E8E8"/>
<rect x="680.5" y="418.5" width="79" height="79" stroke="#E8E8E8"/>
<rect x="759.5" y="418.5" width="79" height="79" fill="#E8E8E8"/>
<rect x="759.5" y="418.5" width="79" height="79" stroke="#E8E8E8"/>
<rect x="838.5" y="418.5" width="79" height="79" stroke="#E8E8E8"/>
<rect x="917.5" y="418.5" width="79" height="79" stroke="#E8E8E8"/>
<rect x="996.5" y="418.5" width="79" height="79" stroke="#E8E8E8"/>
<rect x="1075.5" y="418.5" width="79" height="79" stroke="#E8E8E8"/>
<rect x="1154.5" y="418.5" width="79" height="79" stroke="#E8E8E8"/>
<rect x="1233.5" y="418.5" width="79" height="79" stroke="#E8E8E8"/>
<rect x="1312.5" y="418.5" width="79" height="79" stroke="#E8E8E8"/>
<rect x="1391.5" y="418.5" width="79" height="79" fill="#E8E8E8"/>
<rect x="1391.5" y="418.5" width="79" height="79" stroke="#E8E8E8"/>
<rect x="-30.5" y="497.5" width="79" height="79" stroke="#E8E8E8"/>
<rect x="48.5" y="497.5" width="79" height="79" stroke="#E8E8E8"/>
<rect x="127.5" y="497.5" width="79" height="79" stroke="#E8E8E8"/>
<rect x="206.5" y="497.5" width="79" height="79" stroke="#E8E8E8"/>
<rect x="285.5" y="497.5" width="79" height="79" stroke="#E8E8E8"/>
<rect x="364.5" y="497.5" width="79" height="79" stroke="#E8E8E8"/>
<rect x="443.5" y="497.5" width="79" height="79" stroke="#E8E8E8"/>
<rect x="522.5" y="497.5" width="79" height="79" stroke="#E8E8E8"/>
<rect x="601.5" y="497.5" width="79" height="79" stroke="#E8E8E8"/>
<rect x="680.5" y="497.5" width="79" height="79" fill="#E8E8E8"/>
<rect x="680.5" y="497.5" width="79" height="79" stroke="#E8E8E8"/>
<rect x="759.5" y="497.5" width="79" height="79" stroke="#E8E8E8"/>
<rect x="838.5" y="497.5" width="79" height="79" stroke="#E8E8E8"/>
<rect x="917.5" y="497.5" width="79" height="79" stroke="#E8E8E8"/>
<rect x="996.5" y="497.5" width="79" height="79" stroke="#E8E8E8"/>
<rect x="1075.5" y="497.5" width="79" height="79" stroke="#E8E8E8"/>
<rect x="1154.5" y="497.5" width="79" height="79" stroke="#E8E8E8"/>
<rect x="1233.5" y="497.5" width="79" height="79" stroke="#E8E8E8"/>
<rect x="1312.5" y="497.5" width="79" height="79" stroke="#E8E8E8"/>
<rect x="1391.5" y="497.5" width="79" height="79" stroke="#E8E8E8"/>
<rect x="-30.5" y="576.5" width="79" height="79" stroke="#E8E8E8"/>
<rect x="48.5" y="576.5" width="79" height="79" stroke="#E8E8E8"/>
<rect x="127.5" y="576.5" width="79" height="79" stroke="#E8E8E8"/>
<rect x="206.5" y="576.5" width="79" height="79" stroke="#E8E8E8"/>
<rect x="285.5" y="576.5" width="79" height="79" stroke="#E8E8E8"/>
<rect x="364.5" y="576.5" width="79" height="79" stroke="#E8E8E8"/>
<rect x="443.5" y="576.5" width="79" height="79" stroke="#E8E8E8"/>
<rect x="522.5" y="576.5" width="79" height="79" stroke="#E8E8E8"/>
<rect x="601.5" y="576.5" width="79" height="79" stroke="#E8E8E8"/>
<rect x="680.5" y="576.5" width="79" height="79" stroke="#E8E8E8"/>
<rect x="759.5" y="576.5" width="79" height="79" stroke="#E8E8E8"/>
<rect x="838.5" y="576.5" width="79" height="79" stroke="#E8E8E8"/>
<rect x="917.5" y="576.5" width="79" height="79" stroke="#E8E8E8"/>
<rect x="996.5" y="576.5" width="79" height="79" stroke="#E8E8E8"/>
<rect x="1075.5" y="576.5" width="79" height="79" stroke="#E8E8E8"/>
<rect x="1154.5" y="576.5" width="79" height="79" stroke="#E8E8E8"/>
<rect x="1233.5" y="576.5" width="79" height="79" stroke="#E8E8E8"/>
<rect x="1312.5" y="576.5" width="79" height="79" stroke="#E8E8E8"/>
<rect x="1391.5" y="576.5" width="79" height="79" stroke="#E8E8E8"/>
</g>
<defs>
<clipPath id="clip0_18303_24848">
<rect width="1976" height="712" fill="white" transform="translate(-268 -56)"/>
</clipPath>
</defs>
</svg>
