<svg width="64" height="64" viewBox="0 0 64 64" fill="none" xmlns="http://www.w3.org/2000/svg">
<rect width="64" height="64" rx="32" fill="#07130C"/>
<path d="M46 22.2C46 24.5196 44.1196 26.4 41.8 26.4C39.4804 26.4 37.6 24.5196 37.6 22.2C37.6 19.8804 39.4804 18 41.8 18C44.1196 18 46 19.8804 46 22.2Z" fill="#49FF86"/>
<path d="M46 41.8C46 44.1196 44.1196 46 41.8 46C39.4804 46 37.6 44.1196 37.6 41.8C37.6 39.4804 39.4804 37.6 41.8 37.6C44.1196 37.6 46 39.4804 46 41.8Z" fill="#49FF86"/>
<path d="M39.14 32C39.14 35.9433 35.9433 39.14 32 39.14C28.0567 39.14 24.86 35.9433 24.86 32C24.86 28.0567 28.0567 24.86 32 24.86C35.9433 24.86 39.14 28.0567 39.14 32Z" fill="#49FF86"/>
<path d="M26.4 22.2C26.4 24.5196 24.5196 26.4 22.2 26.4C19.8804 26.4 18 24.5196 18 22.2C18 19.8804 19.8804 18 22.2 18C24.5196 18 26.4 19.8804 26.4 22.2Z" fill="#49FF86"/>
<path d="M26.4 41.8C26.4 44.1196 24.5196 46 22.2 46C19.8804 46 18 44.1196 18 41.8C18 39.4804 19.8804 37.6 22.2 37.6C24.5196 37.6 26.4 39.4804 26.4 41.8Z" fill="#49FF86"/>
</svg>
