<svg width="326" height="254" viewBox="0 0 326 254" fill="none" xmlns="http://www.w3.org/2000/svg">
<rect width="325.333" height="254" rx="8" fill="#222D26"/>
<path fill-rule="evenodd" clip-rule="evenodd" d="M182.731 167.563C188.015 157.279 191.333 142.957 191.333 127.045C191.333 111.133 188.015 96.8105 182.731 86.5269C177.401 76.1562 170.337 70.3332 163 70.3332C155.663 70.3332 148.599 76.1562 143.269 86.5269C137.985 96.8105 134.667 111.133 134.667 127.045C134.667 142.957 137.985 157.279 143.269 167.563C148.599 177.934 155.663 183.757 163 183.757C170.337 183.757 177.401 177.934 182.731 167.563ZM163 185.423C179.569 185.423 193 159.286 193 127.045C193 94.8034 179.569 68.6665 163 68.6665C146.431 68.6665 133 94.8034 133 127.045C133 159.286 146.431 185.423 163 185.423Z" fill="url(#paint0_linear_17100_1927)"/>
<path fill-rule="evenodd" clip-rule="evenodd" d="M203.563 105.648C193.28 100.363 178.957 97.0456 163.045 97.0456C147.134 97.0456 132.811 100.363 122.527 105.648C112.157 110.978 106.334 118.042 106.334 125.379C106.334 132.716 112.157 139.78 122.527 145.11C132.811 150.394 147.134 153.712 163.045 153.712C178.957 153.712 193.28 150.394 203.563 145.11C213.934 139.78 219.757 132.716 219.757 125.379C219.757 118.042 213.934 110.978 203.563 105.648ZM221.424 125.379C221.424 108.81 195.287 95.3789 163.045 95.3789C130.804 95.3789 104.667 108.81 104.667 125.379C104.667 141.947 130.804 155.379 163.045 155.379C195.287 155.379 221.424 141.947 221.424 125.379Z" fill="url(#paint1_linear_17100_1927)"/>
<path fill-rule="evenodd" clip-rule="evenodd" d="M163 185.333C195.217 185.333 221.333 159.217 221.333 127C221.333 94.7834 195.217 68.6667 163 68.6667C130.783 68.6667 104.667 94.7834 104.667 127C104.667 159.217 130.783 185.333 163 185.333ZM163 187C196.137 187 223 160.137 223 127C223 93.8629 196.137 67 163 67C129.863 67 103 93.8629 103 127C103 160.137 129.863 187 163 187Z" fill="url(#paint2_linear_17100_1927)"/>
<defs>
<linearGradient id="paint0_linear_17100_1927" x1="163" y1="68.6665" x2="210.794" y2="169.716" gradientUnits="userSpaceOnUse">
<stop stop-color="white"/>
<stop offset="1" stop-color="white" stop-opacity="0"/>
</linearGradient>
<linearGradient id="paint1_linear_17100_1927" x1="104.667" y1="125.379" x2="205.716" y2="77.5854" gradientUnits="userSpaceOnUse">
<stop stop-color="white"/>
<stop offset="1" stop-color="white" stop-opacity="0"/>
</linearGradient>
<linearGradient id="paint2_linear_17100_1927" x1="120.5" y1="82" x2="200.5" y2="183.667" gradientUnits="userSpaceOnUse">
<stop stop-color="white"/>
<stop offset="1" stop-color="white" stop-opacity="0"/>
</linearGradient>
</defs>
</svg>
