<svg width="1708" height="492" viewBox="0 0 1708 492" fill="none" xmlns="http://www.w3.org/2000/svg">
<g opacity="0.5" clip-path="url(#clip0_17001_12749)">
<rect x="-30.5" y="0.5" width="79" height="79" stroke="#E8E8E8"/>
<rect x="48.5" y="0.5" width="79" height="79" stroke="#E8E8E8"/>
<rect x="127.5" y="0.5" width="79" height="79" stroke="#E8E8E8"/>
<rect x="206.5" y="0.5" width="79" height="79" stroke="#E8E8E8"/>
<rect x="285.5" y="0.5" width="79" height="79" stroke="#E8E8E8"/>
<rect x="364.5" y="0.5" width="79" height="79" stroke="#E8E8E8"/>
<rect x="443.5" y="0.5" width="79" height="79" stroke="#E8E8E8"/>
<rect x="522.5" y="0.5" width="79" height="79" fill="#E8E8E8"/>
<rect x="522.5" y="0.5" width="79" height="79" stroke="#E8E8E8"/>
<rect x="601.5" y="0.5" width="79" height="79" stroke="#E8E8E8"/>
<rect x="680.5" y="0.5" width="79" height="79" stroke="#E8E8E8"/>
<rect x="759.5" y="0.5" width="79" height="79" stroke="#E8E8E8"/>
<rect x="838.5" y="0.5" width="79" height="79" stroke="#E8E8E8"/>
<rect x="917.5" y="0.5" width="79" height="79" stroke="#E8E8E8"/>
<rect x="996.5" y="0.5" width="79" height="79" stroke="#E8E8E8"/>
<rect x="1075.5" y="0.5" width="79" height="79" stroke="#E8E8E8"/>
<rect x="1154.5" y="0.5" width="79" height="79" stroke="#E8E8E8"/>
<rect x="1233.5" y="0.5" width="79" height="79" stroke="#E8E8E8"/>
<rect x="1312.5" y="0.5" width="79" height="79" stroke="#E8E8E8"/>
<rect x="1391.5" y="0.5" width="79" height="79" stroke="#E8E8E8"/>
<rect x="1470.5" y="0.5" width="79" height="79" stroke="#E8E8E8"/>
<rect x="1549.5" y="0.5" width="79" height="79" stroke="#E8E8E8"/>
<rect x="1628.5" y="0.5" width="79" height="79" stroke="#E8E8E8"/>
<rect x="-30.5" y="79.5" width="79" height="79" stroke="#E8E8E8"/>
<rect x="48.5" y="79.5" width="79" height="79" stroke="#E8E8E8"/>
<rect x="127.5" y="79.5" width="79" height="79" stroke="#E8E8E8"/>
<rect x="206.5" y="79.5" width="79" height="79" stroke="#E8E8E8"/>
<rect x="285.5" y="79.5" width="79" height="79" stroke="#E8E8E8"/>
<rect x="364.5" y="79.5" width="79" height="79" stroke="#E8E8E8"/>
<rect x="443.5" y="79.5" width="79" height="79" stroke="#E8E8E8"/>
<rect x="522.5" y="79.5" width="79" height="79" stroke="#E8E8E8"/>
<rect x="601.5" y="79.5" width="79" height="79" stroke="#E8E8E8"/>
<rect x="680.5" y="79.5" width="79" height="79" stroke="#E8E8E8"/>
<rect x="759.5" y="79.5" width="79" height="79" stroke="#E8E8E8"/>
<rect x="838.5" y="79.5" width="79" height="79" stroke="#E8E8E8"/>
<rect x="917.5" y="79.5" width="79" height="79" stroke="#E8E8E8"/>
<rect x="996.5" y="79.5" width="79" height="79" stroke="#E8E8E8"/>
<rect x="1075.5" y="79.5" width="79" height="79" stroke="#E8E8E8"/>
<rect x="1154.5" y="79.5" width="79" height="79" stroke="#E8E8E8"/>
<rect x="1233.5" y="79.5" width="79" height="79" stroke="#E8E8E8"/>
<rect x="1312.5" y="79.5" width="79" height="79" stroke="#E8E8E8"/>
<rect x="1391.5" y="79.5" width="79" height="79" stroke="#E8E8E8"/>
<rect x="1470.5" y="79.5" width="79" height="79" stroke="#E8E8E8"/>
<rect x="1549.5" y="79.5" width="79" height="79" stroke="#E8E8E8"/>
<rect x="1628.5" y="79.5" width="79" height="79" stroke="#E8E8E8"/>
<rect x="-30.5" y="158.5" width="79" height="79" stroke="#E8E8E8"/>
<rect x="48.5" y="158.5" width="79" height="79" stroke="#E8E8E8"/>
<rect x="127.5" y="158.5" width="79" height="79" fill="#E8E8E8"/>
<rect x="127.5" y="158.5" width="79" height="79" stroke="#E8E8E8"/>
<rect x="206.5" y="158.5" width="79" height="79" stroke="#E8E8E8"/>
<rect x="285.5" y="158.5" width="79" height="79" stroke="#E8E8E8"/>
<rect x="364.5" y="158.5" width="79" height="79" stroke="#E8E8E8"/>
<rect x="443.5" y="158.5" width="79" height="79" stroke="#E8E8E8"/>
<rect x="522.5" y="158.5" width="79" height="79" stroke="#E8E8E8"/>
<rect x="601.5" y="158.5" width="79" height="79" stroke="#E8E8E8"/>
<rect x="680.5" y="158.5" width="79" height="79" stroke="#E8E8E8"/>
<rect x="759.5" y="158.5" width="79" height="79" stroke="#E8E8E8"/>
<rect x="838.5" y="158.5" width="79" height="79" stroke="#E8E8E8"/>
<rect x="917.5" y="158.5" width="79" height="79" stroke="#E8E8E8"/>
<rect x="996.5" y="158.5" width="79" height="79" stroke="#E8E8E8"/>
<rect x="1075.5" y="158.5" width="79" height="79" stroke="#E8E8E8"/>
<rect x="1154.5" y="158.5" width="79" height="79" stroke="#E8E8E8"/>
<rect x="1233.5" y="158.5" width="79" height="79" stroke="#E8E8E8"/>
<rect x="1312.5" y="158.5" width="79" height="79" stroke="#E8E8E8"/>
<rect x="1391.5" y="158.5" width="79" height="79" stroke="#E8E8E8"/>
<rect x="1470.5" y="158.5" width="79" height="79" stroke="#E8E8E8"/>
<rect x="1549.5" y="158.5" width="79" height="79" stroke="#E8E8E8"/>
<rect x="1628.5" y="158.5" width="79" height="79" stroke="#E8E8E8"/>
<rect x="-30.5" y="237.5" width="79" height="79" stroke="#E8E8E8"/>
<rect x="48.5" y="237.5" width="79" height="79" stroke="#E8E8E8"/>
<rect x="127.5" y="237.5" width="79" height="79" stroke="#E8E8E8"/>
<rect x="206.5" y="237.5" width="79" height="79" stroke="#E8E8E8"/>
<rect x="285.5" y="237.5" width="79" height="79" stroke="#E8E8E8"/>
<rect x="364.5" y="237.5" width="79" height="79" stroke="#E8E8E8"/>
<rect x="443.5" y="237.5" width="79" height="79" stroke="#E8E8E8"/>
<rect x="522.5" y="237.5" width="79" height="79" stroke="#E8E8E8"/>
<rect x="601.5" y="237.5" width="79" height="79" stroke="#E8E8E8"/>
<rect x="680.5" y="237.5" width="79" height="79" stroke="#E8E8E8"/>
<rect x="759.5" y="237.5" width="79" height="79" stroke="#E8E8E8"/>
<rect x="838.5" y="237.5" width="79" height="79" stroke="#E8E8E8"/>
<rect x="917.5" y="237.5" width="79" height="79" stroke="#E8E8E8"/>
<rect x="996.5" y="237.5" width="79" height="79" stroke="#E8E8E8"/>
<rect x="1075.5" y="237.5" width="79" height="79" stroke="#E8E8E8"/>
<rect x="1154.5" y="237.5" width="79" height="79" stroke="#E8E8E8"/>
<rect x="1233.5" y="237.5" width="79" height="79" stroke="#E8E8E8"/>
<rect x="1312.5" y="237.5" width="79" height="79" stroke="#E8E8E8"/>
<rect x="1391.5" y="237.5" width="79" height="79" stroke="#E8E8E8"/>
<rect x="1470.5" y="237.5" width="79" height="79" stroke="#E8E8E8"/>
<rect x="1549.5" y="237.5" width="79" height="79" stroke="#E8E8E8"/>
<rect x="1628.5" y="237.5" width="79" height="79" stroke="#E8E8E8"/>
<rect x="-30.5" y="316.5" width="79" height="79" stroke="#E8E8E8"/>
<rect x="48.5" y="316.5" width="79" height="79" stroke="#E8E8E8"/>
<rect x="127.5" y="316.5" width="79" height="79" stroke="#E8E8E8"/>
<rect x="206.5" y="316.5" width="79" height="79" stroke="#E8E8E8"/>
<rect x="285.5" y="316.5" width="79" height="79" stroke="#E8E8E8"/>
<rect x="364.5" y="316.5" width="79" height="79" stroke="#E8E8E8"/>
<rect x="443.5" y="316.5" width="79" height="79" stroke="#E8E8E8"/>
<rect x="522.5" y="316.5" width="79" height="79" stroke="#E8E8E8"/>
<rect x="601.5" y="316.5" width="79" height="79" stroke="#E8E8E8"/>
<rect x="680.5" y="316.5" width="79" height="79" stroke="#E8E8E8"/>
<rect x="759.5" y="316.5" width="79" height="79" stroke="#E8E8E8"/>
<rect x="838.5" y="316.5" width="79" height="79" stroke="#E8E8E8"/>
<rect x="917.5" y="316.5" width="79" height="79" stroke="#E8E8E8"/>
<rect x="996.5" y="316.5" width="79" height="79" stroke="#E8E8E8"/>
<rect x="1075.5" y="316.5" width="79" height="79" stroke="#E8E8E8"/>
<rect x="1154.5" y="316.5" width="79" height="79" stroke="#E8E8E8"/>
<rect x="1233.5" y="316.5" width="79" height="79" fill="#E8E8E8"/>
<rect x="1233.5" y="316.5" width="79" height="79" stroke="#E8E8E8"/>
<rect x="1312.5" y="316.5" width="79" height="79" stroke="#E8E8E8"/>
<rect x="1391.5" y="316.5" width="79" height="79" stroke="#E8E8E8"/>
<rect x="1470.5" y="316.5" width="79" height="79" stroke="#E8E8E8"/>
<rect x="1549.5" y="316.5" width="79" height="79" stroke="#E8E8E8"/>
<rect x="1628.5" y="316.5" width="79" height="79" stroke="#E8E8E8"/>
<rect x="-30.5" y="395.5" width="79" height="79" stroke="#E8E8E8"/>
<rect x="48.5" y="395.5" width="79" height="79" stroke="#E8E8E8"/>
<rect x="127.5" y="395.5" width="79" height="79" stroke="#E8E8E8"/>
<rect x="206.5" y="395.5" width="79" height="79" stroke="#E8E8E8"/>
<rect x="285.5" y="395.5" width="79" height="79" stroke="#E8E8E8"/>
<rect x="364.5" y="395.5" width="79" height="79" stroke="#E8E8E8"/>
<rect x="443.5" y="395.5" width="79" height="79" stroke="#E8E8E8"/>
<rect x="522.5" y="395.5" width="79" height="79" stroke="#E8E8E8"/>
<rect x="601.5" y="395.5" width="79" height="79" stroke="#E8E8E8"/>
<rect x="680.5" y="395.5" width="79" height="79" stroke="#E8E8E8"/>
<rect x="759.5" y="395.5" width="79" height="79" stroke="#E8E8E8"/>
<rect x="838.5" y="395.5" width="79" height="79" stroke="#E8E8E8"/>
<rect x="917.5" y="395.5" width="79" height="79" stroke="#E8E8E8"/>
<rect x="996.5" y="395.5" width="79" height="79" stroke="#E8E8E8"/>
<rect x="1075.5" y="395.5" width="79" height="79" stroke="#E8E8E8"/>
<rect x="1154.5" y="395.5" width="79" height="79" fill="#E8E8E8"/>
<rect x="1154.5" y="395.5" width="79" height="79" stroke="#E8E8E8"/>
<rect x="1233.5" y="395.5" width="79" height="79" stroke="#E8E8E8"/>
<rect x="1312.5" y="395.5" width="79" height="79" stroke="#E8E8E8"/>
<rect x="1391.5" y="395.5" width="79" height="79" stroke="#E8E8E8"/>
<rect x="1470.5" y="395.5" width="79" height="79" stroke="#E8E8E8"/>
<rect x="1549.5" y="395.5" width="79" height="79" stroke="#E8E8E8"/>
<rect x="1628.5" y="395.5" width="79" height="79" stroke="#E8E8E8"/>
<rect x="-30.5" y="474.5" width="79" height="79" stroke="#E8E8E8"/>
<rect x="48.5" y="474.5" width="79" height="79" fill="#E8E8E8"/>
<rect x="48.5" y="474.5" width="79" height="79" stroke="#E8E8E8"/>
<rect x="127.5" y="474.5" width="79" height="79" stroke="#E8E8E8"/>
<rect x="206.5" y="474.5" width="79" height="79" stroke="#E8E8E8"/>
<rect x="285.5" y="474.5" width="79" height="79" stroke="#E8E8E8"/>
<rect x="364.5" y="474.5" width="79" height="79" stroke="#E8E8E8"/>
<rect x="443.5" y="474.5" width="79" height="79" stroke="#E8E8E8"/>
<rect x="522.5" y="474.5" width="79" height="79" stroke="#E8E8E8"/>
<rect x="601.5" y="474.5" width="79" height="79" stroke="#E8E8E8"/>
<rect x="680.5" y="474.5" width="79" height="79" stroke="#E8E8E8"/>
<rect x="759.5" y="474.5" width="79" height="79" stroke="#E8E8E8"/>
<rect x="838.5" y="474.5" width="79" height="79" stroke="#E8E8E8"/>
<rect x="917.5" y="474.5" width="79" height="79" stroke="#E8E8E8"/>
<rect x="996.5" y="474.5" width="79" height="79" stroke="#E8E8E8"/>
<rect x="1075.5" y="474.5" width="79" height="79" stroke="#E8E8E8"/>
<rect x="1154.5" y="474.5" width="79" height="79" stroke="#E8E8E8"/>
<rect x="1233.5" y="474.5" width="79" height="79" stroke="#E8E8E8"/>
<rect x="1312.5" y="474.5" width="79" height="79" stroke="#E8E8E8"/>
<rect x="1391.5" y="474.5" width="79" height="79" stroke="#E8E8E8"/>
<rect x="1470.5" y="474.5" width="79" height="79" stroke="#E8E8E8"/>
<rect x="1549.5" y="474.5" width="79" height="79" stroke="#E8E8E8"/>
<rect x="1628.5" y="474.5" width="79" height="79" stroke="#E8E8E8"/>
</g>
<g filter="url(#filter0_f_17001_12749)">
<path d="M1086.91 947.973C939.568 948.113 642.664 822.21 537.44 749.433C432.216 676.656 406.564 605.104 455.564 511.31C504.565 417.515 679.094 209.519 831.446 186.664C983.797 163.81 1271.34 280.529 1369.68 374.184C1468.01 467.838 1468.59 652.961 1421.46 748.592" fill="url(#paint0_linear_17001_12749)" fill-opacity="0.7"/>
</g>
<defs>
<filter id="filter0_f_17001_12749" x="231.613" y="-16.2388" width="1420.31" height="1164.21" filterUnits="userSpaceOnUse" color-interpolation-filters="sRGB">
<feFlood flood-opacity="0" result="BackgroundImageFix"/>
<feBlend mode="normal" in="SourceGraphic" in2="BackgroundImageFix" result="shape"/>
<feGaussianBlur stdDeviation="100" result="effect1_foregroundBlur_17001_12749"/>
</filter>
<linearGradient id="paint0_linear_17001_12749" x1="1064.72" y1="217.75" x2="855.285" y2="898.251" gradientUnits="userSpaceOnUse">
<stop stop-color="#49FF86"/>
<stop offset="1" stop-color="#80ECFF"/>
</linearGradient>
<clipPath id="clip0_17001_12749">
<rect width="1976" height="712" fill="white" transform="translate(-268)"/>
</clipPath>
</defs>
</svg>
