<svg width="48" height="48" viewBox="0 0 48 48" fill="none" xmlns="http://www.w3.org/2000/svg">
<rect width="48" height="48" rx="8" fill="#49FF86"/>
<path fill-rule="evenodd" clip-rule="evenodd" d="M30 20.5L32 17L30 13.5H26L24 17L22 13.5H18L16 17L18 20.5H14L12 24L14 27.5H18L16 31L18 34.5H22L24 31L26 34.5H30L32 31L30 27.5H34L36 24L34 20.5H30ZM28 24L30 27.5H26L28 24ZM26 20.5L28 24L30 20.5H26ZM22 20.5H26L24 17L22 20.5ZM20 24L18 20.5H22L20 24ZM22 27.5H18L20 24L22 27.5ZM22 27.5L24 31L26 27.5H22Z" fill="#07130C"/>
</svg>
