<svg width="24" height="24" viewBox="0 0 24 24" fill="none" xmlns="http://www.w3.org/2000/svg">
<g id="CircleDashed">
<path id="Vector" d="M9.02436 3.47329C8.99953 3.37787 8.99376 3.2785 9.00738 3.18085C9.02099 3.0832 9.05373 2.9892 9.10371 2.90421C9.15369 2.81923 9.21993 2.74493 9.29866 2.68557C9.37738 2.62622 9.46703 2.58296 9.56249 2.55829C11.1613 2.14594 12.8386 2.14594 14.4375 2.55829C14.6146 2.60363 14.769 2.71209 14.8718 2.86328C14.9745 3.01447 15.0185 3.19798 14.9955 3.37933C14.9725 3.56068 14.884 3.72737 14.7467 3.84808C14.6094 3.96879 14.4328 4.03521 14.25 4.03485C14.1867 4.03452 14.1237 4.02633 14.0625 4.01048C12.7096 3.66155 11.2904 3.66155 9.93749 4.01048C9.74517 4.06009 9.54104 4.03139 9.36985 3.93068C9.19867 3.82998 9.07442 3.66548 9.02436 3.47329ZM5.0428 5.16923C3.88653 6.34666 3.04787 7.79818 2.6053 9.38798C2.55221 9.57968 2.57746 9.78462 2.67547 9.95771C2.77349 10.1308 2.93625 10.2579 3.12796 10.3109C3.31966 10.364 3.52459 10.3388 3.69769 10.2408C3.87078 10.1428 3.99784 9.97999 4.05092 9.78829C4.42505 8.44257 5.13472 7.21388 6.11342 6.21735C6.24144 6.07335 6.30912 5.88561 6.30245 5.69306C6.29577 5.5005 6.21525 5.3179 6.07757 5.18311C5.93989 5.04833 5.75562 4.9717 5.56296 4.96911C5.37031 4.96653 5.18405 5.03818 5.0428 5.16923ZM4.05092 14.2077C4.02458 14.1127 3.97979 14.0239 3.91913 13.9463C3.85846 13.8687 3.7831 13.8038 3.69735 13.7553C3.6116 13.7068 3.51714 13.6757 3.41937 13.6637C3.32159 13.6517 3.22241 13.6591 3.12749 13.6855C3.03257 13.7118 2.94376 13.7566 2.86615 13.8173C2.78854 13.8779 2.72363 13.9533 2.67514 14.039C2.62665 14.1248 2.59553 14.2193 2.58354 14.317C2.57156 14.4148 2.57895 14.514 2.6053 14.6089C3.04813 16.1986 3.88676 17.6501 5.0428 18.8277C5.18229 18.9695 5.37241 19.0501 5.57135 19.0518C5.77028 19.0535 5.96173 18.9761 6.10358 18.8366C6.24543 18.6971 6.32606 18.507 6.32773 18.308C6.3294 18.1091 6.25197 17.9176 6.11249 17.7758C5.13499 16.7796 4.42575 15.5521 4.05092 14.2077ZM14.0625 19.9892C12.7097 20.3385 11.2903 20.3385 9.93749 19.9892C9.84158 19.9629 9.74139 19.9559 9.64276 19.9686C9.54412 19.9814 9.449 20.0136 9.36294 20.0635C9.27688 20.1133 9.2016 20.1798 9.14147 20.259C9.08134 20.3382 9.03757 20.4286 9.0127 20.5249C8.98783 20.6212 8.98237 20.7215 8.99662 20.8199C9.01088 20.9184 9.04456 21.013 9.09573 21.0983C9.14689 21.1836 9.21451 21.2578 9.29464 21.3167C9.37477 21.3756 9.46582 21.418 9.56249 21.4414C11.1613 21.8538 12.8386 21.8538 14.4375 21.4414C14.6274 21.3893 14.7891 21.2645 14.8879 21.0941C14.9866 20.9237 15.0143 20.7213 14.9651 20.5307C14.9158 20.34 14.7936 20.1763 14.6247 20.075C14.4558 19.9737 14.2539 19.9429 14.0625 19.9892ZM20.8734 13.6874C20.7784 13.661 20.6792 13.6536 20.5814 13.6657C20.4835 13.6777 20.389 13.7089 20.3033 13.7575C20.2175 13.8061 20.1422 13.8711 20.0815 13.9488C20.0209 14.0265 19.9762 14.1155 19.95 14.2105C19.5761 15.556 18.8663 16.7844 17.8875 17.7805C17.8185 17.8508 17.764 17.934 17.7271 18.0253C17.6903 18.1167 17.6718 18.2144 17.6727 18.3129C17.6736 18.4114 17.6939 18.5088 17.7325 18.5994C17.771 18.6901 17.827 18.7723 17.8973 18.8413C17.9676 18.9103 18.0508 18.9647 18.1422 19.0016C18.2335 19.0385 18.3313 19.0569 18.4298 19.056C18.5283 19.0551 18.6256 19.0348 18.7163 18.9963C18.8069 18.9577 18.8891 18.9017 18.9581 18.8314C20.1145 17.6541 20.9532 16.2025 21.3956 14.6127C21.4223 14.5176 21.4299 14.4183 21.418 14.3203C21.4062 14.2223 21.3751 14.1276 21.3266 14.0416C21.2781 13.9556 21.2131 13.8801 21.1353 13.8193C21.0576 13.7585 20.9686 13.7137 20.8734 13.6874ZM19.949 9.79298C19.9754 9.8879 20.0202 9.9767 20.0808 10.0543C20.1415 10.1319 20.2169 10.1968 20.3026 10.2453C20.3884 10.2938 20.4828 10.3249 20.5806 10.3369C20.6784 10.3489 20.7776 10.3415 20.8725 10.3152C20.9674 10.2888 21.0562 10.244 21.1338 10.1834C21.2114 10.1227 21.2763 10.0473 21.3248 9.96159C21.3733 9.87584 21.4044 9.78138 21.4164 9.68361C21.4284 9.58583 21.421 9.48665 21.3947 9.39173C20.9523 7.80185 20.1136 6.35028 18.9572 5.17298C18.8881 5.10274 18.8059 5.04679 18.7152 5.00834C18.6245 4.96988 18.5271 4.94966 18.4286 4.94883C18.3301 4.948 18.2324 4.96658 18.1411 5.00352C18.0498 5.04045 17.9666 5.095 17.8964 5.16407C17.8262 5.23314 17.7702 5.31536 17.7318 5.40605C17.6933 5.49674 17.6731 5.59411 17.6722 5.69262C17.6714 5.79112 17.69 5.88882 17.7269 5.98014C17.7639 6.07146 17.8184 6.15461 17.8875 6.22485C18.8653 7.22043 19.5746 8.44776 19.949 9.79204V9.79298Z" fill="#49FF86"/>
</g>
</svg>
