<svg width="24" height="24" viewBox="0 0 24 24" fill="none" xmlns="http://www.w3.org/2000/svg">
<path d="M17.9128 13.585C17.6293 13.7643 17.2957 13.7866 17.0426 13.6438C16.7206 13.4611 16.5433 13.0362 16.5433 12.4434V10.6719C16.5433 9.81659 16.2049 9.20759 15.6392 9.04316C14.6811 8.76369 13.9598 9.93636 13.6891 10.3775L11.9988 13.1181V9.76855C11.9798 8.99714 11.7295 8.53633 11.2544 8.39694C10.9391 8.30559 10.4688 8.34213 10.0114 9.0418L6.22408 15.123C5.71772 14.1603 5.45342 13.0887 5.45404 12.0009C5.45404 8.33739 8.3901 5.35735 11.9988 5.35735C15.6068 5.35735 18.5421 8.33739 18.5421 12.0009C18.5449 12.0131 18.5435 12.0239 18.5442 12.0367C18.578 12.7466 18.3479 13.3109 17.9128 13.5863V13.585ZM19.997 12.0015L19.9963 11.9643C19.976 7.50306 16.3964 3.88086 11.9981 3.88086C7.58825 3.88086 3.99988 7.52336 3.99988 12.0009C3.99988 16.4777 7.58825 20.1209 11.9981 20.1209C14.022 20.1209 15.9539 19.3515 17.4365 17.9555C17.7308 17.6781 17.7477 17.2112 17.475 16.9128C17.4107 16.8418 17.3329 16.7844 17.2461 16.7439C17.1592 16.7034 17.0652 16.6806 16.9695 16.6769C16.8738 16.6731 16.7783 16.6886 16.6886 16.7222C16.5989 16.7559 16.5168 16.8071 16.4472 16.8729C15.2455 18.0106 13.6536 18.6446 11.9988 18.6444C10.0662 18.6444 8.32785 17.7898 7.12879 16.433L10.5446 10.9487V13.4774C10.5446 14.6913 11.0156 15.0838 11.4107 15.1988C11.8059 15.3138 12.4095 15.2353 13.0435 14.2055C13.7189 13.1133 14.4138 11.9745 15.0891 10.9033V12.4434C15.0891 13.5789 15.5438 14.4869 16.3362 14.9335C17.0508 15.3375 17.9494 15.301 18.6809 14.8388C19.5686 14.2785 20.0464 13.2459 19.9963 12.0015H19.997Z" fill="#E8E8E8"/>
</svg>
