<svg width="326" height="254" viewBox="0 0 326 254" fill="none" xmlns="http://www.w3.org/2000/svg">
<rect x="0.666016" width="325.333" height="254" rx="8" fill="#222D26"/>
<path fill-rule="evenodd" clip-rule="evenodd" d="M163 69.1429L105.143 127L163 184.857L220.857 127L163 69.1429ZM103 127L163 187L223 127L163 67L103 127Z" fill="url(#paint0_linear_17100_6214)"/>
<path fill-rule="evenodd" clip-rule="evenodd" d="M163.52 78.3242L114.235 127.61L163.52 176.896L212.806 127.61L163.52 78.3242ZM112.092 127.61L163.52 179.038L214.949 127.61L163.52 76.1813L112.092 127.61Z" fill="url(#paint1_linear_17100_6214)"/>
<path fill-rule="evenodd" clip-rule="evenodd" d="M164.041 87.505L123.326 128.219L164.041 168.934L204.755 128.219L164.041 87.505ZM121.184 128.219L164.041 171.076L206.898 128.219L164.041 85.3621L121.184 128.219Z" fill="url(#paint2_linear_17100_6214)"/>
<path fill-rule="evenodd" clip-rule="evenodd" d="M164.559 96.6862L132.416 128.829L164.559 160.972L196.702 128.829L164.559 96.6862ZM130.273 128.829L164.559 163.115L198.845 128.829L164.559 94.5434L130.273 128.829Z" fill="url(#paint3_linear_17100_6214)"/>
<path fill-rule="evenodd" clip-rule="evenodd" d="M165.08 105.866L141.508 129.437L165.08 153.008L188.651 129.437L165.08 105.866ZM139.365 129.437L165.08 155.151L190.794 129.437L165.08 103.723L139.365 129.437Z" fill="url(#paint4_linear_17100_6214)"/>
<path fill-rule="evenodd" clip-rule="evenodd" d="M165.6 115.047L150.6 130.047L165.6 145.047L180.6 130.047L165.6 115.047ZM148.457 130.047L165.6 147.19L182.743 130.047L165.6 112.904L148.457 130.047Z" fill="url(#paint5_linear_17100_6214)"/>
<g clip-path="url(#paint6_diamond_17100_6214_clip_path)" data-figma-skip-parse="true"><g transform="matrix(0.00428571 0.00428571 -0.00428571 0.00428571 166.12 130.656)"><rect x="0" y="0" width="1164.99" height="1164.99" fill="url(#paint6_diamond_17100_6214)" opacity="1" shape-rendering="crispEdges"/><rect x="0" y="0" width="1164.99" height="1164.99" transform="scale(1 -1)" fill="url(#paint6_diamond_17100_6214)" opacity="1" shape-rendering="crispEdges"/><rect x="0" y="0" width="1164.99" height="1164.99" transform="scale(-1 1)" fill="url(#paint6_diamond_17100_6214)" opacity="1" shape-rendering="crispEdges"/><rect x="0" y="0" width="1164.99" height="1164.99" transform="scale(-1)" fill="url(#paint6_diamond_17100_6214)" opacity="1" shape-rendering="crispEdges"/></g></g><path d="M157.549 130.656L166.12 122.085L174.692 130.656L166.12 139.228L157.549 130.656Z" data-figma-gradient-fill="{&#34;type&#34;:&#34;GRADIENT_DIAMOND&#34;,&#34;stops&#34;:[{&#34;color&#34;:{&#34;r&#34;:1.0,&#34;g&#34;:1.0,&#34;b&#34;:1.0,&#34;a&#34;:1.0},&#34;position&#34;:0.0},{&#34;color&#34;:{&#34;r&#34;:1.0,&#34;g&#34;:1.0,&#34;b&#34;:1.0,&#34;a&#34;:0.10000000149011612},&#34;position&#34;:1.0}],&#34;stopsVar&#34;:[],&#34;transform&#34;:{&#34;m00&#34;:8.5714282989501953,&#34;m01&#34;:-8.5714282989501953,&#34;m02&#34;:166.12025451660156,&#34;m10&#34;:8.5714282989501953,&#34;m11&#34;:8.5714282989501953,&#34;m12&#34;:122.08482360839844},&#34;opacity&#34;:1.0,&#34;blendMode&#34;:&#34;NORMAL&#34;,&#34;visible&#34;:true}"/>
<defs>
<clipPath id="paint6_diamond_17100_6214_clip_path"><path d="M157.549 130.656L166.12 122.085L174.692 130.656L166.12 139.228L157.549 130.656Z"/></clipPath><linearGradient id="paint0_linear_17100_6214" x1="133" y1="97" x2="193" y2="157" gradientUnits="userSpaceOnUse">
<stop stop-color="white" stop-opacity="0.96"/>
<stop offset="1" stop-color="white" stop-opacity="0.35"/>
</linearGradient>
<linearGradient id="paint1_linear_17100_6214" x1="137.806" y1="101.896" x2="189.235" y2="153.324" gradientUnits="userSpaceOnUse">
<stop stop-color="white" stop-opacity="0.96"/>
<stop offset="1" stop-color="white" stop-opacity="0.35"/>
</linearGradient>
<linearGradient id="paint2_linear_17100_6214" x1="142.612" y1="106.791" x2="185.469" y2="149.648" gradientUnits="userSpaceOnUse">
<stop stop-color="white" stop-opacity="0.96"/>
<stop offset="1" stop-color="white" stop-opacity="0.35"/>
</linearGradient>
<linearGradient id="paint3_linear_17100_6214" x1="147.416" y1="111.686" x2="181.702" y2="145.972" gradientUnits="userSpaceOnUse">
<stop stop-color="white" stop-opacity="0.96"/>
<stop offset="1" stop-color="white" stop-opacity="0.35"/>
</linearGradient>
<linearGradient id="paint4_linear_17100_6214" x1="152.222" y1="116.58" x2="177.937" y2="142.294" gradientUnits="userSpaceOnUse">
<stop stop-color="white" stop-opacity="0.96"/>
<stop offset="1" stop-color="white" stop-opacity="0.35"/>
</linearGradient>
<linearGradient id="paint5_linear_17100_6214" x1="157.028" y1="121.475" x2="174.171" y2="138.618" gradientUnits="userSpaceOnUse">
<stop stop-color="white" stop-opacity="0.96"/>
<stop offset="1" stop-color="white" stop-opacity="0.35"/>
</linearGradient>
<linearGradient id="paint6_diamond_17100_6214" x1="0" y1="0" x2="500" y2="500" gradientUnits="userSpaceOnUse">
<stop stop-color="white"/>
<stop offset="1" stop-color="white" stop-opacity="0.1"/>
</linearGradient>
</defs>
</svg>
