<svg width="64" height="64" viewBox="0 0 64 64" fill="none" xmlns="http://www.w3.org/2000/svg">
<rect width="64" height="64" rx="32" fill="#49FF86"/>
<path d="M21.78 45.9998C19.3533 42.1777 18 37.1887 18 31.9999C18 26.8111 19.3533 21.8221 21.78 18V45.9998Z" fill="#07130C"/>
<path d="M46 46C42.287 46 38.726 44.525 36.1005 41.8995C33.475 39.274 32 35.713 32 32C32 28.287 33.475 24.726 36.1005 22.1005C38.726 19.475 42.287 18 46 18L46 46Z" fill="#07130C"/>
<path d="M26.4405 42.5679C27.8714 44.0954 29.5802 45.2581 31.44 45.9999V18C29.5802 18.7418 27.8714 19.9045 26.4405 21.4321C23.815 24.2349 22.34 28.0362 22.34 32C22.34 35.9637 23.815 39.7651 26.4405 42.5679Z" fill="#07130C"/>
</svg>
