<svg width="64" height="64" viewBox="0 0 64 64" fill="none" xmlns="http://www.w3.org/2000/svg">
<rect width="64" height="64" rx="32" fill="#49FF86"/>
<path d="M39.4882 24.5C35.3504 24.5129 32 27.8658 32 32C32 27.8658 28.6496 24.5128 24.5118 24.5C28.6495 24.4872 32 21.1342 32 17C32 21.1342 35.3503 24.4873 39.4882 24.5Z" fill="#07130C"/>
<path d="M31.9763 32C27.8386 32.0129 24.4882 35.3658 24.4882 39.5C24.4882 35.3658 21.1378 32.0127 17 32C21.1377 31.9872 24.4882 28.6342 24.4882 24.5C24.4882 28.6342 27.8385 31.9873 31.9763 32Z" fill="#07130C"/>
<path d="M47 32C42.8623 32.0129 39.5118 35.3658 39.5118 39.5C39.5118 35.3658 36.1615 32.0127 32.0237 32C36.1614 31.9872 39.5118 28.6342 39.5118 24.5C39.5118 28.6342 42.8622 31.9873 47 32Z" fill="#07130C"/>
<path d="M39.4882 39.5C35.3504 39.5128 32 42.8658 32 47C32 42.8658 28.6496 39.5127 24.5118 39.5C28.6495 39.4872 32 36.1342 32 32C32 36.1342 35.3503 39.4873 39.4882 39.5Z" fill="#07130C"/>
</svg>
