<svg width="64" height="64" viewBox="0 0 64 64" fill="none" xmlns="http://www.w3.org/2000/svg">
<rect width="64" height="64" rx="32" fill="#07130C"/>
<path d="M36.6667 24L32 26.6667L27.3333 24L32 21.3333V16L36.6667 18.6667V24Z" fill="#49FF86"/>
<path d="M41.3333 32L36.6667 29.3333V24L41.3333 26.6667L46 24V29.3333L41.3333 32Z" fill="#49FF86"/>
<path d="M36.6667 40V34.6667L41.3333 32V37.3333L46 40L41.3333 42.6667L36.6667 40Z" fill="#49FF86"/>
<path d="M27.3333 40L32 37.3333L36.6667 40L32 42.6667V48L27.3333 45.3333V40Z" fill="#49FF86"/>
<path d="M22.6667 32L27.3333 34.6667V40L22.6667 37.3333L18 40V34.6667L22.6667 32Z" fill="#49FF86"/>
<path d="M22.6667 32L27.3333 29.3333V24L22.6667 21.3333L18 24L22.6667 26.6667L22.6667 32Z" fill="#49FF86"/>
</svg>
