<svg width="320" height="238" viewBox="0 0 320 238" fill="none" xmlns="http://www.w3.org/2000/svg">
<mask id="mask0_18542_5168" style="mask-type:alpha" maskUnits="userSpaceOnUse" x="70" y="33" width="180" height="205">
<rect width="180" height="205" transform="translate(70 33)" fill="white"/>
</mask>
<g mask="url(#mask0_18542_5168)">
<path fill-rule="evenodd" clip-rule="evenodd" d="M306 136C306 217.186 240.186 283 159 283C77.8141 283 12 217.186 12 136C12 54.8141 77.8141 -11 159 -11C240.186 -11 306 54.8141 306 136ZM308 136C308 218.29 241.29 285 159 285C76.7096 285 10 218.29 10 136C10 53.7096 76.7096 -13 159 -13C241.29 -13 308 53.7096 308 136ZM159 261.903C228.534 261.903 284.903 205.534 284.903 136C284.903 66.4659 228.534 10.0974 159 10.0974C89.4662 10.0974 33.0977 66.4659 33.0977 136C33.0977 205.534 89.4662 261.903 159 261.903ZM159 263.903C229.639 263.903 286.903 206.639 286.903 136C286.903 65.3613 229.639 8.09735 159 8.09735C88.3616 8.09735 31.0977 65.3613 31.0977 136C31.0977 206.639 88.3616 263.903 159 263.903ZM265.123 136C265.123 194.61 217.609 242.124 158.999 242.124C100.388 242.124 52.875 194.61 52.875 136C52.875 77.3893 100.388 29.876 158.999 29.876C217.609 29.876 265.123 77.3893 265.123 136ZM267.123 136C267.123 195.715 218.714 244.124 158.999 244.124C99.2837 244.124 50.875 195.715 50.875 136C50.875 76.2847 99.2837 27.876 158.999 27.876C218.714 27.876 267.123 76.2847 267.123 136ZM204.469 136C204.469 161.112 184.112 181.469 159 181.469C133.888 181.469 113.531 161.112 113.531 136C113.531 110.888 133.888 90.5309 159 90.5309C184.112 90.5309 204.469 110.888 204.469 136ZM206.469 136C206.469 162.216 185.217 183.469 159 183.469C132.784 183.469 111.531 162.216 111.531 136C111.531 109.784 132.784 88.5309 159 88.5309C185.217 88.5309 206.469 109.784 206.469 136ZM188.648 136C188.648 152.373 175.375 165.646 159.001 165.646C142.628 165.646 129.355 152.373 129.355 136C129.355 119.627 142.628 106.354 159.001 106.354C175.375 106.354 188.648 119.627 188.648 136ZM190.648 136C190.648 153.478 176.479 167.646 159.001 167.646C141.524 167.646 127.355 153.478 127.355 136C127.355 118.522 141.524 104.354 159.001 104.354C176.479 104.354 190.648 118.522 190.648 136ZM158.999 149.823C166.633 149.823 172.822 143.634 172.822 136C172.822 128.366 166.633 122.177 158.999 122.177C151.365 122.177 145.176 128.366 145.176 136C145.176 143.634 151.365 149.823 158.999 149.823ZM158.999 151.823C167.738 151.823 174.822 144.739 174.822 136C174.822 127.261 167.738 120.177 158.999 120.177C150.26 120.177 143.176 127.261 143.176 136C143.176 144.739 150.26 151.823 158.999 151.823ZM159.001 222.345C206.688 222.345 245.347 183.687 245.347 136C245.347 88.3129 206.688 49.6549 159.001 49.6549C111.314 49.6549 72.6562 88.3129 72.6562 136C72.6562 183.687 111.314 222.345 159.001 222.345ZM159.001 224.345C207.793 224.345 247.347 184.792 247.347 136C247.347 87.2084 207.793 47.6549 159.001 47.6549C110.21 47.6549 70.6562 87.2084 70.6562 136C70.6562 184.792 110.21 224.345 159.001 224.345ZM224.249 136C224.249 172.035 195.037 201.248 159.002 201.248C122.966 201.248 93.7539 172.035 93.7539 136C93.7539 99.9646 122.966 70.7522 159.002 70.7522C195.037 70.7522 224.249 99.9646 224.249 136ZM226.249 136C226.249 173.14 196.142 203.248 159.002 203.248C121.862 203.248 91.7539 173.14 91.7539 136C91.7539 98.8601 121.862 68.7522 159.002 68.7522C196.142 68.7522 226.249 98.8601 226.249 136Z" fill="#49FF86"/>
</g>
</svg>
