<svg width="320" height="238" viewBox="0 0 320 238" fill="none" xmlns="http://www.w3.org/2000/svg">
<rect x="58.25" y="72.25" width="204.13" height="93.1444" rx="46.5722" fill="#EDFFF2"/>
<rect x="58.25" y="72.25" width="204.13" height="93.1444" rx="46.5722" stroke="#07130C" stroke-width="0.5"/>
<rect x="165.337" y="82.405" width="87.0666" height="72.8346" rx="36.4173" fill="#49FF86"/>
<path d="M199.104 127.157H196.061L188.075 116.083V127.157H185.379V111.931H188.422L196.408 123.015V111.931H199.104V127.157Z" fill="#07130C"/>
<path d="M200.415 127.157V111.931H210.127V114.286H203.111L203.107 118.293V120.638L203.111 124.802H210.229V127.157H200.415Z" fill="#07130C"/>
<path d="M211.498 111.931L217.905 118.299H205.695V120.654H217.929L211.387 127.157H214.853L220.777 121.268C221.766 120.285 221.766 118.692 220.777 117.709L214.964 111.931H211.498Z" fill="#07130C"/>
<path d="M229.42 111.931L223.608 117.709C222.619 118.692 222.619 120.285 223.608 121.268L229.531 127.157H232.997L225.341 119.546C225.309 119.514 225.309 119.463 225.341 119.431L232.886 111.931H229.42Z" fill="#07130C"/>
<path d="M252.452 171.469L250.469 173.452C250.295 173.626 250.088 173.765 249.86 173.86C249.632 173.954 249.387 174.003 249.141 174.003C248.894 174.003 248.649 173.954 248.422 173.86C248.194 173.765 247.987 173.626 247.812 173.452L238.973 164.612L235.969 172.45L235.948 172.502C235.757 172.948 235.438 173.328 235.032 173.594C234.626 173.861 234.151 174.002 233.666 174H233.544C233.038 173.979 232.55 173.803 232.147 173.495C231.745 173.188 231.446 172.764 231.292 172.281L223.125 147.269C222.982 146.831 222.963 146.362 223.07 145.914C223.177 145.466 223.406 145.057 223.731 144.731C224.057 144.406 224.466 144.177 224.914 144.07C225.362 143.963 225.831 143.982 226.269 144.125L251.281 152.292C251.759 152.452 252.178 152.753 252.482 153.155C252.786 153.557 252.962 154.041 252.985 154.545C253.009 155.048 252.88 155.547 252.615 155.976C252.351 156.405 251.962 156.744 251.502 156.948L251.45 156.969L243.612 159.98L252.452 168.817C252.803 169.169 253.001 169.646 253.001 170.143C253.001 170.64 252.803 171.117 252.452 171.469Z" fill="#183C24"/>
</svg>
