<svg width="320" height="238" viewBox="0 0 320 238" fill="none" xmlns="http://www.w3.org/2000/svg">
<path d="M225.477 85.649L223.545 88.4639C221.31 91.7241 216.09 92.6823 210.086 90.4757C202.186 87.5693 195.916 80.2736 196.087 74.1825C196.127 72.7194 196.536 71.455 197.244 70.4253L199.176 67.6104C198.469 68.6401 198.059 69.9044 198.019 71.3676C197.848 77.4586 204.118 84.7544 212.018 87.6608C218.022 89.8714 223.242 88.9092 225.477 85.649Z" fill="#49FF86" stroke="black" stroke-width="0.5" stroke-linecap="round" stroke-linejoin="round"/>
<path d="M198.019 71.3676C198.059 69.9044 198.469 68.6401 199.176 67.6104L197.244 70.4253C196.536 71.455 196.127 72.7194 196.087 74.1825C195.984 77.8483 198.218 81.9514 201.737 85.2713L203.089 81.8918C199.908 78.6792 197.924 74.8266 198.019 71.3636V71.3676Z" fill="black"/>
<path d="M212.639 65.5943C220.543 68.5006 226.809 75.7964 226.638 81.8914C226.467 87.9825 219.926 90.5668 212.022 87.6605C204.122 84.7541 197.852 77.4583 198.023 71.3673C198.194 65.2722 204.739 62.6919 212.639 65.5982V65.5943Z" fill="#EBE9E9" stroke="black" stroke-width="0.5" stroke-linecap="round" stroke-linejoin="round"/>
<path d="M212.639 65.5944C204.739 62.688 198.194 65.2724 198.023 71.3634C197.928 74.8264 199.912 78.6751 203.093 81.8916L222.233 72.0592C219.736 69.3198 216.372 66.9701 212.639 65.5984V65.5944Z" fill="black" stroke="black" stroke-width="0.5" stroke-linecap="round" stroke-linejoin="round"/>
<path d="M126.994 97.8352C123.169 97.7835 121.567 100.439 123.415 103.767L147.939 147.888C149.787 151.216 154.384 153.951 158.212 154.003L208.933 154.686C212.758 154.738 214.36 152.082 212.511 148.754L187.988 104.634C186.139 101.306 181.539 98.5708 177.714 98.5191L126.994 97.8352Z" fill="black" stroke="black" stroke-width="0.5" stroke-linecap="round" stroke-linejoin="round"/>
<path d="M170.017 141.976C170.216 142.473 169.985 143.236 169.504 143.67L167.373 145.59L166.49 143.38C166.292 142.883 166.522 142.119 167.007 141.682L169.138 139.761L170.017 141.972V141.976Z" fill="#EDFFF2" stroke="#EDFFF2" stroke-width="0.5" stroke-linecap="round" stroke-linejoin="round"/>
<path d="M172.923 145.368C173.404 144.935 173.635 144.172 173.436 143.675L172.557 141.464L169.138 139.766L170.017 141.977C170.216 142.474 169.985 143.237 169.504 143.671L167.373 145.591L170.792 147.289L172.923 145.368Z" fill="#49FF86"/>
<path d="M178.155 131.631L169.138 139.766L168.259 137.555C168.061 137.054 168.291 136.291 168.772 135.858L176.044 129.301C176.525 128.868 177.082 128.92 177.281 129.425L178.159 131.635L178.155 131.631Z" fill="#EDFFF2" stroke="#EDFFF2" stroke-width="0.5" stroke-linecap="round" stroke-linejoin="round"/>
<path d="M178.156 131.63L181.575 133.324L172.557 141.458L169.138 139.761L178.156 131.63Z" fill="#49FF86"/>
<path d="M180.696 131.115C180.629 130.944 180.521 130.829 180.39 130.761L176.971 129.063C177.102 129.127 177.209 129.246 177.277 129.417L178.156 131.628L181.575 133.326L180.696 131.115Z" fill="#49FF86"/>
<path d="M178.156 131.631L180.287 129.711C180.768 129.273 181.324 129.329 181.523 129.826L182.402 132.037L180.267 133.961C179.786 134.394 179.229 134.339 179.03 133.842L178.152 131.631H178.156Z" fill="#EDFFF2" stroke="#EDFFF2" stroke-width="0.5" stroke-linecap="round" stroke-linejoin="round"/>
<path d="M182.402 132.037L185.821 133.735L183.837 135.774C183.634 135.985 183.253 136.053 182.99 135.925L179.467 134.24C179.467 134.24 179.793 134.395 180.271 133.965L182.402 132.041V132.037Z" fill="#49FF86"/>
<path d="M184.942 131.519C184.875 131.352 184.767 131.233 184.636 131.169L181.217 129.472C181.348 129.535 181.455 129.655 181.523 129.822L182.402 132.032L185.821 133.73L184.942 131.519Z" fill="#49FF86"/>
<path d="M188.767 137.779C188.966 138.28 188.735 139.043 188.254 139.476L186.123 141.397L182.402 132.038L184.533 130.117C185.014 129.684 185.57 129.739 185.769 130.24L188.767 137.783V137.779Z" fill="#EDFFF2" stroke="#EDFFF2" stroke-width="0.5" stroke-linecap="round" stroke-linejoin="round"/>
<path d="M191.678 141.169C192.159 140.735 192.389 139.972 192.19 139.471L189.193 131.929C189.125 131.758 189.018 131.642 188.886 131.575L185.467 129.877C185.598 129.941 185.706 130.06 185.773 130.231L188.771 137.773C188.97 138.274 188.739 139.038 188.258 139.471L186.127 141.391L189.546 143.089L191.678 141.169Z" fill="#49FF86"/>
<path d="M171.094 154.954L168.959 156.878C168.478 157.312 167.922 157.26 167.723 156.755L164.725 149.213C164.526 148.712 164.757 147.948 165.238 147.515L167.369 145.595L171.094 154.954Z" fill="#EDFFF2" stroke="#EDFFF2" stroke-width="0.5" stroke-linecap="round" stroke-linejoin="round"/>
<path d="M174.514 156.648L171.094 154.95L168.959 156.875C168.641 157.161 168.291 157.237 168.033 157.105L171.452 158.803C171.711 158.93 172.06 158.859 172.378 158.572L174.514 156.648Z" fill="#49FF86"/>
<path d="M167.369 145.595L170.788 147.292L174.514 156.648L171.094 154.954L167.369 145.595Z" fill="#49FF86"/>
<path d="M187.006 143.606C187.205 144.103 186.974 144.866 186.489 145.304L184.358 147.224L183.479 145.014C183.281 144.517 183.511 143.753 183.992 143.32L186.127 141.396L187.006 143.606Z" fill="#EDFFF2" stroke="#EDFFF2" stroke-width="0.5" stroke-linecap="round" stroke-linejoin="round"/>
<path d="M189.908 147.002C190.389 146.564 190.624 145.801 190.425 145.304L189.546 143.093L186.127 141.396L187.006 143.606C187.205 144.103 186.974 144.866 186.489 145.304L184.358 147.224L187.777 148.922L189.908 147.002Z" fill="#49FF86"/>
<path d="M174.156 152.799L177.575 154.496C177.706 154.56 177.814 154.679 177.881 154.846L174.462 153.148C174.394 152.981 174.287 152.862 174.156 152.799Z" fill="#49FF86"/>
<path d="M175.341 155.359L173.21 157.279C172.728 157.717 172.172 157.661 171.973 157.164L171.094 154.953L173.229 153.029C173.71 152.596 174.267 152.651 174.466 153.148L175.345 155.359H175.341Z" fill="#EDFFF2" stroke="#EDFFF2" stroke-width="0.5" stroke-linecap="round" stroke-linejoin="round"/>
<path d="M178.76 157.056L175.341 155.359L173.21 157.279C172.887 157.569 172.538 157.641 172.279 157.514L175.698 159.211C175.957 159.339 176.311 159.267 176.629 158.977L178.76 157.056Z" fill="#49FF86"/>
<path d="M174.462 153.148L177.881 154.846L178.76 157.057L175.34 155.359L174.462 153.148Z" fill="#49FF86"/>
<path d="M185.236 149.44C185.435 149.937 185.205 150.701 184.724 151.134L177.452 157.69C176.971 158.124 176.414 158.072 176.215 157.571L175.336 155.36L184.354 147.226L185.232 149.436L185.236 149.44Z" fill="#EDFFF2" stroke="#EDFFF2" stroke-width="0.5" stroke-linecap="round" stroke-linejoin="round"/>
<path d="M188.143 152.831C188.624 152.397 188.855 151.634 188.656 151.137L187.777 148.926L184.358 147.229L185.237 149.439C185.435 149.936 185.205 150.7 184.724 151.133L177.452 157.689C177.134 157.976 176.78 158.051 176.521 157.92L179.941 159.618C180.199 159.745 180.553 159.673 180.871 159.387L188.143 152.831Z" fill="#49FF86"/>
<path d="M184.195 100.73C182.199 99.4057 179.837 98.5469 177.714 98.5191L126.994 97.8352C123.169 97.7835 121.567 100.439 123.415 103.767L137.327 128.792L184.195 100.73Z" fill="#49FF86"/>
<path d="M123.42 103.767L147.943 147.887C149.792 151.215 154.388 153.951 158.217 154.002L208.937 154.686C210.861 154.714 212.221 154.054 212.865 152.969L183.547 202.282C182.903 203.367 181.543 204.027 179.619 203.999L128.898 203.315C125.073 203.264 120.473 200.524 118.625 197.2L94.1013 153.08C93.1828 151.426 93.1153 149.939 93.7474 148.869L123.066 99.5564C122.433 100.63 122.497 102.117 123.42 103.767Z" fill="#EDFFF2"/>
<path d="M123.173 201.574C121.253 200.461 119.579 198.91 118.629 197.204L94.1013 153.08C93.1828 151.426 93.1153 149.939 93.7474 148.869L123.066 99.5564C122.433 100.63 122.497 102.117 123.42 103.767L147.943 147.887C148.897 149.605 150.583 151.159 152.519 152.273L123.173 201.57V201.574Z" fill="#EBE9E9"/>
<path d="M123.42 103.767L147.943 147.887C149.792 151.215 154.388 153.951 158.217 154.002L208.937 154.686C210.861 154.714 212.221 154.054 212.865 152.969L183.547 202.282C182.903 203.367 181.543 204.027 179.619 203.999L128.898 203.315C125.073 203.264 120.473 200.524 118.625 197.2L94.1013 153.08C93.1828 151.426 93.1153 149.939 93.7474 148.869L123.066 99.5564C122.433 100.63 122.497 102.117 123.42 103.767Z" stroke="black" stroke-width="0.5" stroke-linecap="round" stroke-linejoin="round"/>
<path d="M212.515 148.754L187.992 104.634C186.143 101.306 181.543 98.5708 177.718 98.5191L126.998 97.8352C123.173 97.7835 121.571 100.439 123.423 103.767L147.947 147.888C149.795 151.216 154.392 153.951 158.22 154.003L208.941 154.686C212.766 154.738 214.368 152.082 212.519 148.754H212.515ZM205.852 150.396L156.547 149.733C155.052 149.713 153.235 148.627 152.511 147.323L128.683 104.459C127.956 103.155 128.584 102.101 130.079 102.121L179.384 102.785C180.879 102.805 182.696 103.89 183.42 105.195L207.247 148.059C207.975 149.363 207.347 150.416 205.852 150.396Z" fill="#EBE9E9" stroke="black" stroke-width="0.5" stroke-linecap="round" stroke-linejoin="round"/>
<path d="M118.569 81.816L163.166 82.4164C166.53 82.4601 171.575 80.9214 174.438 78.9772L212.412 53.1856C215.274 51.2414 214.869 49.6272 211.509 49.5834L166.912 48.9831C163.548 48.9394 158.503 50.478 155.64 52.4222L117.666 78.2138C114.804 80.1581 115.209 81.7723 118.569 81.816Z" fill="#EBE9E9" stroke="black" stroke-width="0.5" stroke-linecap="round" stroke-linejoin="round"/>
<path d="M124.696 79.572L163.834 80.0968C166.295 80.1287 169.993 79.0035 172.088 77.5801L205.728 54.7307C207.828 53.3073 207.529 52.1264 205.064 52.0907L165.926 51.5658C163.465 51.534 159.767 52.6592 157.672 54.0826L124.032 76.932C121.936 78.3554 122.231 79.5362 124.696 79.572Z" fill="#49FF86" stroke="black" stroke-width="0.5" stroke-linecap="round" stroke-linejoin="round"/>
<path d="M205.728 54.7296C207.828 53.3063 207.529 52.1254 205.064 52.0896L195.709 51.9624L165.699 70.3231L168.096 79.3802C169.591 78.9229 171.043 78.2868 172.088 77.5751L205.728 54.7256V54.7296Z" fill="black"/>
<path d="M157.672 54.0866L125.956 75.6279L162.908 76.1249C165.369 76.1567 169.067 75.0316 171.162 73.6042L202.878 52.0628L165.926 51.5658C163.465 51.534 159.767 52.6592 157.672 54.0866Z" fill="#49FF86" stroke="black" stroke-width="0.5" stroke-linecap="round" stroke-linejoin="round"/>
<path d="M211.509 49.5844L166.912 48.984C163.548 48.9403 158.503 50.479 155.64 52.4232L117.666 78.2148C116.227 79.1929 115.611 80.0874 115.786 80.7395L111.826 65.7583C111.651 65.1063 112.263 64.2117 113.706 63.2336L151.676 37.442C154.539 35.4978 159.588 33.9591 162.948 34.0029L207.545 34.6032C209.215 34.6271 210.157 35.0366 210.328 35.6807L214.288 50.6619C214.117 50.0178 213.175 49.6082 211.505 49.5844H211.509Z" fill="#EBE9E9"/>
<path d="M159.735 50.423L155.803 35.418" stroke="#49FF86" stroke-width="0.5" stroke-linecap="round" stroke-linejoin="round"/>
<path d="M156.964 35.0287C159.055 34.3767 161.222 33.9791 162.948 34.003L207.545 34.6033C209.215 34.6272 210.157 35.0367 210.328 35.6808L214.288 50.662C214.117 50.0179 213.175 49.6083 211.505 49.5845L166.908 48.9841C165.174 48.9603 162.991 49.3618 160.892 50.0179L156.964 35.0287Z" fill="#49FF86"/>
<path d="M211.509 49.5844L166.912 48.984C163.548 48.9403 158.503 50.479 155.64 52.4232L117.666 78.2148C116.227 79.1929 115.611 80.0874 115.786 80.7395L111.826 65.7583C111.651 65.1063 112.263 64.2117 113.706 63.2336L151.676 37.442C154.539 35.4978 159.588 33.9591 162.948 34.0029L207.545 34.6032C209.215 34.6271 210.157 35.0366 210.328 35.6807L214.288 50.6619C214.117 50.0178 213.175 49.6082 211.505 49.5844H211.509Z" stroke="black" stroke-width="0.5" stroke-linecap="round" stroke-linejoin="round"/>
<path d="M188.481 104.899C196.162 103.404 200.536 104.334 198.246 106.978C195.955 109.618 187.869 112.97 180.187 114.465C172.502 115.959 168.128 115.029 170.418 112.385C172.708 109.741 180.795 106.39 188.481 104.899Z" fill="#EBE9E9" stroke="black" stroke-width="0.5" stroke-linecap="round" stroke-linejoin="round"/>
<path d="M198.818 105.463L199.943 109.327C200.063 109.741 199.884 110.246 199.371 110.842C197.081 113.482 188.994 116.834 181.312 118.329C175.352 119.486 171.384 119.188 170.971 117.764L169.846 113.9C170.259 115.323 174.227 115.621 180.187 114.464C187.869 112.969 195.956 109.618 198.246 106.978C198.759 106.385 198.937 105.876 198.818 105.463Z" fill="#49FF86" stroke="black" stroke-width="0.5" stroke-linecap="round" stroke-linejoin="round"/>
<path d="M174.692 115.157C171.873 115.268 170.112 114.819 169.842 113.9L170.967 117.765C171.229 118.671 172.943 119.121 175.69 119.029L174.692 115.161V115.157Z" fill="black"/>
<path d="M207.22 102.736L203.114 105.768L206.146 109.875L210.253 106.843L207.22 102.736Z" fill="black"/>
<path d="M219.844 101.716L216.049 98.3025L212.635 102.098L216.43 105.512L219.844 101.716Z" fill="#49FF86"/>
<path d="M163.936 114.14L160.14 110.726L156.726 114.522L160.522 117.936L163.936 114.14Z" fill="#EDFFF2"/>
<path d="M170.163 87.5383L165.49 85.4839L163.435 90.1573L168.109 92.2117L170.163 87.5383Z" fill="#49FF86"/>
</svg>
