<svg width="41" height="40" viewBox="0 0 41 40" fill="none" xmlns="http://www.w3.org/2000/svg">
<g clip-path="url(#clip0_15282_14304)">
<path d="M21.6753 1.83008C20.6003 1.83008 19.6203 2.39674 17.6636 3.52508L6.94531 9.70175C5.09935 10.744 3.56102 12.2549 2.48561 14.0818C1.4102 15.9086 0.835774 17.9869 0.820312 20.1067L0.820313 20.5001C0.835894 22.6172 1.409 24.6928 2.48192 26.518C3.55485 28.3432 5.08972 29.8534 6.93198 30.8967L13.637 34.7684C17.5603 37.0351 19.522 38.1717 21.677 38.1717C23.8303 38.1734 25.7936 37.0417 29.7186 34.7751L36.8036 30.6867C38.7653 29.5534 39.7436 28.9867 40.282 28.0551C40.8203 27.1217 40.822 25.9884 40.8203 23.7217V19.3384C40.8207 19.0343 40.741 18.7355 40.5893 18.4719C40.4376 18.2083 40.2193 17.9893 39.9562 17.8368C39.6931 17.6843 39.3945 17.6037 39.0904 17.6031C38.7863 17.6025 38.4873 17.6819 38.2236 17.8334L23.677 26.2067C22.6986 26.7684 22.2103 27.0517 21.6753 27.0517C21.137 27.0517 20.6486 26.7717 19.6686 26.2084L9.82865 20.5534C9.33365 20.2684 9.08531 20.1267 8.88698 20.1017C8.66783 20.0728 8.44527 20.1173 8.25409 20.2283C8.06291 20.3392 7.91388 20.5104 7.83031 20.7151C7.75531 20.9001 7.75531 21.1851 7.75865 21.7567C7.76198 22.1767 7.75865 22.3867 7.80031 22.5801C7.88865 23.0117 8.11531 23.4017 8.44531 23.6917C8.59365 23.8201 8.77531 23.9251 9.13865 24.1351L19.6636 30.2184C20.6453 30.7851 21.137 31.0684 21.6753 31.0684C22.2136 31.0684 22.7036 30.7851 23.6853 30.2201L36.5853 22.7717C36.922 22.5784 37.0886 22.4851 37.2136 22.5551C37.3386 22.6284 37.3386 22.8217 37.3386 23.2084V25.1967C37.3386 25.7634 37.3403 26.0467 37.2053 26.2784C37.072 26.5117 36.827 26.6517 36.3353 26.9351L25.6986 33.0767C23.7353 34.2101 22.7536 34.7767 21.677 34.7767C20.6003 34.7767 19.617 34.2101 17.657 33.0734L7.70698 27.3201L7.63531 27.2784C6.60989 26.679 5.75839 25.8228 5.1648 24.794C4.57121 23.7652 4.25602 22.5995 4.25031 21.4117V19.5017C4.2508 18.8456 4.42344 18.201 4.751 17.6325C5.07856 17.0639 5.54957 16.5913 6.11698 16.2617C6.61889 15.9712 7.1885 15.8181 7.76842 15.8178C8.34835 15.8175 8.91811 15.9701 9.42031 16.2601L17.6636 21.0234C19.6203 22.1551 20.6003 22.7217 21.6753 22.7234C22.7503 22.7234 23.7303 22.1567 25.692 21.0284L38.162 13.8517C38.4389 13.6923 38.669 13.4627 38.8289 13.186C38.9889 12.9094 39.0731 12.5955 39.0731 12.2759C39.0731 11.9564 38.9889 11.6424 38.8289 11.3658C38.669 11.0891 38.4389 10.8595 38.162 10.7001L25.687 3.51841C23.7286 2.39341 22.7503 1.83008 21.677 1.83008H21.6753Z" fill="black"/>
</g>
<defs>
<clipPath id="clip0_15282_14304">
<rect width="40" height="40" fill="white" transform="translate(0.820312)"/>
</clipPath>
</defs>
</svg>
