<svg width="49" height="49" viewBox="0 0 49 49" fill="none" xmlns="http://www.w3.org/2000/svg">
<path d="M24.8203 4.98438C22.1939 4.98437 19.5932 5.50169 17.1666 6.50678C14.7401 7.51188 12.5353 8.98507 10.6782 10.8422C6.92745 14.593 4.82031 19.68 4.82031 24.9844C4.82031 33.8244 10.5603 41.3244 18.5003 43.9844C19.5003 44.1444 19.8203 43.5244 19.8203 42.9844V39.6044C14.2803 40.8044 13.1003 36.9244 13.1003 36.9244C12.1803 34.6044 10.8803 33.9844 10.8803 33.9844C9.06031 32.7444 11.0203 32.7844 11.0203 32.7844C13.0203 32.9244 14.0803 34.8444 14.0803 34.8444C15.8203 37.8844 18.7603 36.9844 19.9003 36.5044C20.0803 35.2044 20.6003 34.3244 21.1603 33.8244C16.7203 33.3244 12.0603 31.6044 12.0603 23.9844C12.0603 21.7644 12.8203 19.9844 14.1203 18.5644C13.9203 18.0644 13.2203 15.9844 14.3203 13.2844C14.3203 13.2844 16.0003 12.7444 19.8203 15.3244C21.4003 14.8844 23.1203 14.6644 24.8203 14.6644C26.5203 14.6644 28.2403 14.8844 29.8203 15.3244C33.6403 12.7444 35.3203 13.2844 35.3203 13.2844C36.4203 15.9844 35.7203 18.0644 35.5203 18.5644C36.8203 19.9844 37.5803 21.7644 37.5803 23.9844C37.5803 31.6244 32.9003 33.3044 28.4403 33.8044C29.1603 34.4244 29.8203 35.6444 29.8203 37.5044V42.9844C29.8203 43.5244 30.1403 44.1644 31.1603 43.9844C39.1003 41.3044 44.8203 33.8244 44.8203 24.9844C44.8203 22.3579 44.303 19.7572 43.2979 17.3307C42.2928 14.9042 40.8196 12.6994 38.9624 10.8422C37.1053 8.98507 34.9005 7.51188 32.474 6.50678C30.0475 5.50169 27.4468 4.98438 24.8203 4.98438Z" fill="black"/>
</svg>
