<svg width="43" height="40" viewBox="0 0 43 40" fill="none" xmlns="http://www.w3.org/2000/svg">
<path d="M23.0456 8.16853C22.346 8.16853 21.7863 7.66326 21.7863 7.03167V0H3.31643C2.05712 0 0.984375 0.926328 0.984375 2.06319V32.4636C0.984375 33.6004 2.01048 34.5268 3.31643 34.5268H20.2472L20.4337 33.432C20.527 32.9268 20.7602 32.5057 21.0867 32.0846L30.8347 20.6319V8.16853H23.0456ZM17.0756 8.37906V13.6844C17.0756 13.7686 17.0289 13.8107 16.9357 13.8528L12.6447 15.6213C12.5047 15.6634 12.3182 15.5792 12.3182 15.4528V10.1475C12.3182 10.0633 12.3648 10.0212 12.4581 9.97908L16.7491 8.21064C16.9356 8.12642 17.0756 8.21064 17.0756 8.37906ZM7.51414 6.86325L11.5719 5.17902C11.6186 5.17902 11.7118 5.17902 11.7585 5.17902L15.8163 6.86325C16.0028 6.90535 16.0028 7.15799 15.8163 7.2001L11.7585 8.88433C11.7118 8.92643 11.6186 8.92643 11.5719 8.88433L7.51414 7.2001C7.37421 7.15799 7.37421 6.90535 7.51414 6.86325ZM6.25483 8.37906C6.25483 8.25274 6.44139 8.12642 6.58131 8.21064L10.8723 9.97908C10.9189 10.0212 11.0122 10.0633 11.0122 10.1475V15.4528C11.0122 15.5792 10.8723 15.7055 10.7324 15.6213L6.44139 13.8528C6.39475 13.8107 6.30147 13.7686 6.30147 13.6844V8.37906H6.25483ZM18.5214 28.632H7.4675C6.76788 28.632 6.20818 28.1267 6.20818 27.4951C6.20818 26.8635 6.76788 26.3582 7.4675 26.3582H18.4748C19.1744 26.3582 19.7341 26.8635 19.7341 27.4951C19.7808 28.1267 19.2211 28.632 18.5214 28.632ZM24.3516 21.8108H7.4675C6.76788 21.8108 6.20818 21.3055 6.20818 20.674C6.20818 20.0424 6.76788 19.5371 7.4675 19.5371H24.3516C25.0512 19.5371 25.6109 20.0424 25.6109 20.674C25.6109 21.3055 25.0512 21.8108 24.3516 21.8108Z" fill="#000000"/>
<path d="M24.2617 0.630859V5.89409H30.0919L24.2617 0.630859Z" fill="#000000"/>
<path d="M23.089 33.4732C22.9957 33.5574 22.9491 33.6837 22.9025 33.81L21.923 39.0732C21.8764 39.368 22.0163 39.6627 22.2495 39.8311C22.3894 39.9575 22.576 39.9996 22.7625 39.9996C22.9025 39.9996 22.9957 39.9575 23.1357 39.9154L28.546 37.7258C28.686 37.6837 28.7792 37.5995 28.8725 37.4732L29.2923 36.9679L23.5088 32.9258L23.089 33.4732Z" fill="#000000"/>
<path d="M41.1417 19.6643L38.9963 18.1906C38.4832 17.8537 37.8769 17.6853 37.2705 17.7695C36.6642 17.8537 36.1045 18.1064 35.7314 18.5695L25.0039 31.2013L30.8341 35.2013L41.5615 22.5696C42.3078 21.6853 42.1212 20.338 41.1417 19.6643Z" fill="#000000"/>
</svg>
