<svg width="198" height="34" viewBox="0 0 198 34" fill="none" xmlns="http://www.w3.org/2000/svg">
<path d="M29.124 20.3275C28.531 20.6899 27.8391 20.7558 27.312 20.4593C26.6531 20.064 26.2577 19.1744 26.2577 17.9554V14.2326C26.2577 12.4535 25.5659 11.1686 24.3798 10.8391C22.3702 10.2461 20.8547 12.7171 20.2946 13.6395L16.7364 19.3391V12.3217C16.7035 10.7074 16.1764 9.75194 15.188 9.45543C14.5291 9.25775 13.5407 9.35659 12.5853 10.8062L4.64535 23.5233C3.59108 21.5136 3.03101 19.2733 3.03101 17C3.03101 9.32364 9.19186 3.0969 16.7364 3.0969C24.281 3.0969 30.4419 9.32364 30.4419 17V17.0329V17.0659C30.5077 18.5485 30.0465 19.7345 29.124 20.3275ZM33.4729 17V16.9671V16.9341C33.4399 7.61046 25.9283 0 16.7364 0C7.51163 0 0 7.61047 0 17C0 26.3566 7.51163 34 16.7364 34C20.9864 34 25.0058 32.3857 28.1027 29.4535C28.7287 28.8605 28.7616 27.905 28.1686 27.2791C27.6085 26.6531 26.6531 26.6202 26.0271 27.1802C26.0271 27.1802 26.0271 27.1802 25.9942 27.2132C23.4903 29.5853 20.1298 30.936 16.6705 30.936C12.6182 30.936 8.99419 29.157 6.49031 26.3236L13.6395 14.8585V20.1628C13.6395 22.6996 14.6279 23.5233 15.4515 23.7539C16.2752 23.9845 17.5271 23.8198 18.8779 21.6783L22.7984 15.3198C22.9302 15.1221 23.0291 14.9244 23.1609 14.7926V18.0213C23.1609 20.3934 24.1163 22.3043 25.7636 23.2267C27.2461 24.0833 29.124 23.9845 30.6725 23.0291C32.5833 21.7771 33.6047 19.6027 33.4729 17ZM56.7985 11.2015C57.1938 11.4322 57.5562 11.9922 57.5562 12.4864C57.5562 13.2771 56.8973 13.9361 56.1395 13.9361C55.9419 13.9361 55.7771 13.8702 55.6124 13.8372C54.7229 13.1783 53.6027 12.75 52.4167 12.75C49.6163 12.75 47.7054 15.0233 47.7054 17.8566C47.7054 20.6899 49.6492 22.9302 52.4167 22.9302C53.8004 22.9302 55.0523 22.3702 55.9748 21.4806C56.2054 21.3159 56.5019 21.217 56.7985 21.217C57.5562 21.217 58.1492 21.8101 58.1492 22.5678C58.1492 23.062 57.8527 23.4903 57.4903 23.7209C56.1395 24.874 54.3275 25.6318 52.4496 25.6318C48.1667 25.6318 44.6744 22.1066 44.6744 17.7577C44.6744 13.4089 48.1667 9.88372 52.4496 9.88372C54.031 9.85077 55.5465 10.345 56.7985 11.2015ZM64.6395 14.4961C67.5717 14.4961 70.0097 16.9671 70.0097 20.031C70.0097 23.062 67.5388 25.6647 64.6395 25.6647C61.5756 25.6647 59.0388 23.095 59.0388 20.031C59.0388 16.9671 61.5756 14.4961 64.6395 14.4961ZM64.6066 22.9302C65.8915 22.9302 66.9787 21.7112 66.9787 20.0639C66.9787 18.4167 65.8915 17.3624 64.6066 17.3624C63.2229 17.3624 62.0698 18.3837 62.0698 20.0639C62.0698 21.6783 63.2229 22.9302 64.6066 22.9302ZM71.8546 23.9516V16.1764C71.8546 15.3198 72.5136 14.6279 73.3701 14.6279C74.1938 14.6279 74.8857 15.3198 74.8857 16.1764V23.9516C74.8857 24.8081 74.1938 25.5 73.3701 25.5C72.5465 25.5 71.8546 24.7752 71.8546 23.9516ZM71.624 11.6957C71.624 10.6744 72.4147 9.88372 73.3701 9.88372C74.3585 9.88372 75.1492 10.7074 75.1492 11.6957C75.1492 12.6841 74.3585 13.4748 73.3701 13.4748C72.3818 13.4419 71.624 12.6512 71.624 11.6957ZM80.6841 19.7345V23.9516C80.6841 24.8081 79.9922 25.5 79.1686 25.5C78.345 25.5 77.6531 24.8081 77.6531 23.9516V15.814C77.6531 15.155 78.1802 14.6279 78.8391 14.6279C79.4981 14.6279 79.9922 15.188 79.9922 15.814C81.2112 14.6609 82.2984 14.4961 83.3198 14.4961C86.3508 14.4961 87.7015 16.7694 87.7015 19.3721V23.9516C87.7015 24.8081 87.0097 25.5 86.186 25.5C85.3624 25.5 84.6705 24.8081 84.6705 23.9516V19.7345C84.6705 18.4167 84.5058 17.2965 82.595 17.2965C81.2442 17.2965 80.6841 18.4167 80.6841 19.7345ZM97.5194 21.3488C97.157 21.3488 96.9263 21.1841 96.7287 20.9535L93.2035 17.1318V23.9516C93.2035 24.8081 92.5116 25.5 91.688 25.5C90.8643 25.5 90.1725 24.8081 90.1725 23.9516V10.4438C90.2713 10.2132 90.5019 10.0484 90.7326 10.0484C90.9961 10.0484 91.2267 10.2791 91.3915 10.4438L97.0252 16.7694C97.1899 16.9671 97.3876 17.0659 97.5194 17.0659C97.6182 17.0659 97.8488 16.9671 98.0136 16.7694L103.647 10.4438C103.812 10.2791 104.01 10.0484 104.306 10.0484C104.57 10.0484 104.8 10.2132 104.866 10.4438V23.9516C104.866 24.8081 104.207 25.5 103.351 25.5C102.527 25.5 101.835 24.8081 101.835 23.9516V17.1318L98.3101 20.9535C98.0465 21.1841 97.8159 21.3488 97.5194 21.3488ZM112.081 22.9302C113.432 22.9302 114.585 21.7112 114.585 20.0639C114.585 18.4167 113.399 17.3295 112.081 17.3295C110.764 17.3295 109.676 18.4496 109.676 20.0639C109.676 21.6453 110.731 22.9302 112.081 22.9302ZM115.31 24.314L115.244 23.9516C114.651 25.1047 112.773 25.6318 111.587 25.6318C108.754 25.6318 106.645 23.062 106.645 19.9981C106.645 16.9671 108.787 14.4632 111.752 14.4632C112.246 14.4632 113.959 14.595 115.277 16.1434L115.343 15.781C115.343 15.1221 115.837 14.595 116.496 14.595C117.155 14.595 117.682 15.155 117.682 15.781V24.281C117.682 24.9399 117.155 25.4671 116.496 25.4671C115.804 25.5 115.31 24.9399 115.31 24.314ZM126.017 17.2965H125.688C123.777 17.3953 123.415 18.4826 123.415 19.7345V23.9516C123.415 24.8081 122.723 25.5 121.899 25.5C121.076 25.5 120.384 24.8081 120.384 23.9516V15.814C120.384 15.155 120.911 14.6279 121.57 14.6279C122.229 14.6279 122.723 15.188 122.723 15.814C123.843 14.7597 124.765 14.5291 125.688 14.4961H125.984C126.709 14.4961 127.368 15.1221 127.368 15.9128C127.401 16.6376 126.742 17.2965 126.017 17.2965ZM137.713 23.2267C137.845 23.4574 137.944 23.688 137.944 23.9516C137.944 24.7422 137.219 25.4671 136.428 25.4671C135.901 25.4671 135.44 25.0717 135.078 24.6105L131.585 20.5581V23.9186C131.585 24.7752 130.893 25.4671 130.07 25.4671C129.246 25.4671 128.554 24.7752 128.554 23.9186V11.564C128.554 10.7074 129.213 10.0155 130.07 10.0155C130.926 10.0155 131.585 10.7074 131.585 11.564V19.2733L135.078 15.4186C135.44 15.0233 135.868 14.595 136.395 14.595C137.153 14.595 137.845 15.2868 137.845 16.0775C137.845 16.3081 137.779 16.5717 137.647 16.7694L134.88 19.8004L137.713 23.2267ZM143.643 17.3295C142.82 17.3295 141.469 17.7578 141.469 19.0426H145.851C145.818 17.7578 144.434 17.3295 143.643 17.3295ZM147.597 20.9864H141.469C141.469 22.7985 143.215 23.095 143.973 23.095C144.533 23.095 145.324 22.9961 145.95 22.6996C146.147 22.5678 146.444 22.469 146.74 22.469C147.399 22.469 147.959 23.0291 147.959 23.7209C147.959 24.1822 147.663 24.5775 147.3 24.8081C146.378 25.5 145.159 25.6647 144.006 25.6647C140.942 25.6647 138.405 24.0174 138.405 20.1628C138.405 17.1318 139.953 14.4961 143.577 14.4961C146.51 14.4961 148.717 16.407 148.783 19.8004C148.783 20.4264 148.256 20.9864 147.597 20.9864ZM156.031 25.6318H155.207C152.901 25.6318 151.55 24.6105 151.55 21.0194V17.2965H150.76C150.035 17.2965 149.409 16.6376 149.409 15.9128C149.409 15.1221 150.068 14.4961 150.76 14.4961H151.55V11.6298C151.55 10.7733 152.209 10.0814 153.066 10.0814C153.89 10.0814 154.581 10.7733 154.581 11.6298V14.4961H155.833C156.558 14.4961 157.184 15.1221 157.184 15.9128C157.184 16.6376 156.525 17.2965 155.833 17.2965H154.581V20.4264C154.581 22.5019 154.68 22.9302 155.603 22.9302H156.031C156.756 22.9302 157.382 23.5233 157.382 24.281C157.382 25.0058 156.756 25.6318 156.031 25.6318ZM170.692 11.2015C171.087 11.4322 171.45 11.9922 171.45 12.4864C171.45 13.2771 170.791 13.9361 170.033 13.9361C169.835 13.9361 169.671 13.8702 169.506 13.8372C168.616 13.1783 167.496 12.75 166.31 12.75C163.51 12.75 161.599 15.0233 161.599 17.8566C161.599 20.6899 163.543 22.9302 166.31 22.9302C167.694 22.9302 168.946 22.3702 169.868 21.4806C170.099 21.3159 170.395 21.217 170.692 21.217C171.45 21.217 172.043 21.8101 172.043 22.5678C172.043 23.062 171.746 23.4903 171.384 23.7209C170.033 24.874 168.221 25.6318 166.343 25.6318C162.06 25.6318 158.568 22.1066 158.568 17.7577C158.568 13.4089 162.06 9.88372 166.343 9.88372C167.924 9.85077 169.473 10.345 170.692 11.2015ZM178.368 22.9302C179.719 22.9302 180.872 21.7112 180.872 20.0639C180.872 18.4167 179.686 17.3295 178.368 17.3295C177.017 17.3295 175.963 18.4496 175.963 20.0639C175.963 21.6453 177.05 22.9302 178.368 22.9302ZM181.597 24.314L181.531 23.9516C180.938 25.1047 179.06 25.6318 177.874 25.6318C175.041 25.6318 172.932 23.062 172.932 19.9981C172.932 16.9671 175.074 14.4632 178.039 14.4632C178.533 14.4632 180.246 14.595 181.564 16.1434L181.63 15.781C181.63 15.1221 182.124 14.595 182.783 14.595C183.442 14.595 183.969 15.155 183.969 15.781V24.281C183.969 24.9399 183.442 25.4671 182.783 25.4671C182.091 25.5 181.597 24.9399 181.597 24.314ZM192.238 22.9302C193.589 22.9302 194.643 21.6453 194.643 20.0639C194.643 18.4167 193.556 17.3295 192.238 17.3295C190.888 17.3295 189.734 18.4167 189.734 20.0639C189.734 21.7112 190.888 22.9302 192.238 22.9302ZM189.734 24.7422V28.5969C189.734 29.4535 189.043 30.1453 188.219 30.1453C187.395 30.1453 186.703 29.4535 186.703 28.5969V15.814C186.703 15.155 187.231 14.6279 187.89 14.6279C188.548 14.6279 189.043 15.188 189.043 15.9457C190.163 14.7926 191.546 14.4961 192.601 14.4961C195.533 14.4961 197.707 16.9671 197.707 20.031C197.707 23.062 195.632 25.6647 192.765 25.6647C191.876 25.6318 190.558 25.3682 189.734 24.7422Z" fill="#17181B"/>
</svg>
