<svg width="326" height="276" viewBox="0 0 326 276" fill="none" xmlns="http://www.w3.org/2000/svg">
<rect x="0.333496" width="325.333" height="276" rx="8" fill="#222D26"/>
<path fill-rule="evenodd" clip-rule="evenodd" d="M103 198V138H118V183H163V198H103ZM208 93H163V78H223V138H208V93Z" fill="url(#paint0_linear_17096_12122)"/>
<path fill-rule="evenodd" clip-rule="evenodd" d="M133 108V138H118V93H163V108H133ZM193 168H163V183H208V138H193V168Z" fill="url(#paint1_linear_17096_12122)"/>
<path d="M133 168V138H163V168H133Z" fill="url(#paint2_linear_17096_12122)"/>
<path d="M163 138V108H193V138H163Z" fill="url(#paint3_linear_17096_12122)"/>
<defs>
<linearGradient id="paint0_linear_17096_12122" x1="106.75" y1="138" x2="219.25" y2="138" gradientUnits="userSpaceOnUse">
<stop stop-color="white"/>
<stop offset="1" stop-color="white" stop-opacity="0.26"/>
</linearGradient>
<linearGradient id="paint1_linear_17096_12122" x1="125.312" y1="138.189" x2="200.312" y2="138.189" gradientUnits="userSpaceOnUse">
<stop stop-color="white"/>
<stop offset="1" stop-color="white" stop-opacity="0.26"/>
</linearGradient>
<linearGradient id="paint2_linear_17096_12122" x1="135.5" y1="154" x2="166.5" y2="155.75" gradientUnits="userSpaceOnUse">
<stop stop-color="white"/>
<stop offset="1" stop-color="white" stop-opacity="0"/>
</linearGradient>
<linearGradient id="paint3_linear_17096_12122" x1="165.5" y1="124" x2="196.5" y2="125.75" gradientUnits="userSpaceOnUse">
<stop stop-color="white"/>
<stop offset="1" stop-color="white" stop-opacity="0"/>
</linearGradient>
</defs>
</svg>
