<svg width="64" height="65" viewBox="0 0 64 65" fill="none" xmlns="http://www.w3.org/2000/svg">
<rect y="0.5" width="64" height="64" rx="32" fill="#07130C"/>
<path d="M25.3332 19.1666H31.9998L38.6665 25.8333V32.5L31.9998 25.8333L25.3332 19.1666Z" fill="#49FF86"/>
<path d="M25.3332 25.8333H31.9998L25.3332 32.5L18.6665 39.1666V32.5L25.3332 25.8333Z" fill="#49FF86"/>
<path d="M25.3332 39.1666V32.5L31.9998 39.1666L38.6665 45.8333H31.9998L25.3332 39.1666Z" fill="#49FF86"/>
<path d="M38.6665 39.1666H31.9998L38.6665 32.5L45.3332 25.8333V32.5L38.6665 39.1666Z" fill="#49FF86"/>
<path d="M38.6665 39.1666V45.8333H45.3332V39.1666H38.6665Z" fill="#49FF86"/>
<path d="M25.3332 39.1666H18.6665V45.8333H25.3332V39.1666Z" fill="#49FF86"/>
<path d="M25.3332 25.8333H18.6665V19.1666H25.3332V25.8333Z" fill="#49FF86"/>
<path d="M45.3332 25.8333H38.6665V19.1666H45.3332V25.8333Z" fill="#49FF86"/>
</svg>
