<svg width="64" height="65" viewBox="0 0 64 65" fill="none" xmlns="http://www.w3.org/2000/svg">
<rect y="0.5" width="64" height="64" rx="32" fill="#49FF86"/>
<path d="M37.3333 21.8333L34.6667 26.5H29.3333L26.6667 21.8333L29.3333 17.1666H34.6667L37.3333 21.8333Z" fill="#07130C"/>
<path fill-rule="evenodd" clip-rule="evenodd" d="M32 31.1666L29.3333 26.5H24L21.3333 31.1666L24 35.8333H18.6667L16 40.5L18.6667 45.1666H24L26.6667 40.5L29.3333 45.1666H34.6667L37.3333 40.5L40 45.1666H45.3333L48 40.5L45.3333 35.8333H40L42.6667 31.1666L40 26.5H34.6667L32 31.1666ZM34.6667 35.8333L32 31.1666L29.3333 35.8333H24L26.6667 40.5L29.3333 35.8333H34.6667ZM34.6667 35.8333H40L37.3333 40.5L34.6667 35.8333Z" fill="#07130C"/>
</svg>
