<svg width="64" height="65" viewBox="0 0 64 65" fill="none" xmlns="http://www.w3.org/2000/svg">
<rect y="0.5" width="64" height="64" rx="32" fill="#07130C"/>
<g clip-path="url(#clip0_17096_12376)">
<path fill-rule="evenodd" clip-rule="evenodd" d="M46 32.5C46 24.768 39.732 18.5 32 18.5C24.268 18.5 18 24.768 18 32.5C18 40.232 24.268 46.5 32 46.5C39.732 46.5 46 40.232 46 32.5ZM34.0716 30.4283C35.2224 31.5791 36.9698 31.8237 40.4646 32.313L41.8 32.5L40.4646 32.6869C36.9698 33.1762 35.2224 33.4208 34.0716 34.5716C32.9209 35.7223 32.6762 37.4697 32.187 40.9645L32 42.3L31.813 40.9645C31.3238 37.4697 31.0791 35.7223 29.9284 34.5716C28.7776 33.4208 27.0302 33.1762 23.5354 32.6869L22.2 32.5L23.5354 32.313C27.0302 31.8237 28.7776 31.5791 29.9284 30.4283C31.0791 29.2776 31.3238 27.5302 31.813 24.0354L32 22.7L32.187 24.0354C32.6762 27.5302 32.9209 29.2776 34.0716 30.4283Z" fill="#49FF86"/>
</g>
<defs>
<clipPath id="clip0_17096_12376">
<rect width="28" height="28" fill="white" transform="translate(18 18.5)"/>
</clipPath>
</defs>
</svg>
