<svg width="326" height="276" viewBox="0 0 326 276" fill="none" xmlns="http://www.w3.org/2000/svg">
<rect width="325.333" height="276" rx="8" fill="#222D26"/>
<path fill-rule="evenodd" clip-rule="evenodd" d="M163 195.857C194.954 195.857 220.857 169.954 220.857 138C220.857 106.046 194.954 80.1429 163 80.1429C131.046 80.1429 105.143 106.046 105.143 138C105.143 169.954 131.046 195.857 163 195.857ZM163 198C196.137 198 223 171.137 223 138C223 104.863 196.137 78 163 78C129.863 78 103 104.863 103 138C103 171.137 129.863 198 163 198Z" fill="url(#paint0_linear_17096_12146)"/>
<path fill-rule="evenodd" clip-rule="evenodd" d="M214.418 139.067L212.275 139.023C212.282 138.683 212.286 138.342 212.286 138C212.286 137.658 212.282 137.317 212.275 136.977L214.418 136.933C214.425 137.288 214.428 137.644 214.428 138C214.428 138.356 214.425 138.712 214.418 139.067ZM214.331 134.811L212.192 134.941C212.151 134.261 212.095 133.585 212.026 132.912L214.158 132.694C214.23 133.395 214.288 134.101 214.331 134.811ZM213.897 130.582L211.777 130.889C211.679 130.214 211.568 129.544 211.443 128.878L213.55 128.484C213.68 129.179 213.796 129.878 213.897 130.582ZM213.115 126.403L211.027 126.884C210.874 126.221 210.708 125.563 210.529 124.91L212.595 124.342C212.782 125.023 212.956 125.71 213.115 126.403ZM211.989 122.305L209.949 122.958C209.741 122.31 209.521 121.668 209.288 121.033L211.3 120.295C211.543 120.959 211.773 121.629 211.989 122.305ZM210.526 118.314L208.547 119.135C208.286 118.506 208.013 117.884 207.727 117.27L209.671 116.367C209.969 117.009 210.254 117.658 210.526 118.314ZM208.736 114.458L206.831 115.44C206.52 114.836 206.196 114.239 205.86 113.649L207.722 112.589C208.072 113.204 208.41 113.827 208.736 114.458ZM206.632 110.764L204.816 111.9C204.455 111.324 204.083 110.756 203.7 110.196L205.468 108.985C205.868 109.57 206.256 110.163 206.632 110.764ZM204.231 107.256L202.514 108.539C202.108 107.994 201.69 107.458 201.262 106.931L202.924 105.579C203.371 106.129 203.807 106.688 204.231 107.256ZM201.549 103.958L199.944 105.377C199.494 104.868 199.034 104.368 198.563 103.878L200.109 102.394C200.6 102.905 201.08 103.427 201.549 103.958ZM198.606 100.891L197.122 102.437C196.632 101.966 196.132 101.506 195.623 101.056L197.042 99.4505C197.573 99.9199 198.095 100.4 198.606 100.891ZM195.421 98.0756L194.069 99.7383C193.542 99.3099 193.006 98.8922 192.461 98.4855L193.744 96.7686C194.312 97.1929 194.871 97.6287 195.421 98.0756ZM192.015 95.5319L190.804 97.3001C190.244 96.9168 189.676 96.5447 189.1 96.1843L190.236 94.3676C190.837 94.7437 191.43 95.1319 192.015 95.5319ZM188.411 93.2777L187.351 95.1399C186.761 94.8042 186.164 94.4804 185.56 94.1687L186.542 92.2643C187.173 92.5896 187.796 92.9275 188.411 93.2777ZM184.633 91.3291L183.73 93.2727C183.115 92.9872 182.494 92.714 181.865 92.4534L182.686 90.474C183.342 90.7459 183.991 91.0311 184.633 91.3291ZM180.705 89.7004L179.967 91.7123C179.332 91.4791 178.69 91.2587 178.042 91.0513L178.695 89.0105C179.371 89.227 180.041 89.457 180.705 89.7004ZM176.658 88.4048L176.09 90.4711C175.437 90.2918 174.779 90.1255 174.116 89.9726L174.597 87.8845C175.289 88.0441 175.977 88.2176 176.658 88.4048ZM172.516 87.4502L172.122 89.5565C171.456 89.432 170.786 89.3209 170.111 89.2234L170.418 87.1025C171.122 87.2043 171.821 87.3202 172.516 87.4502ZM168.306 86.842L168.088 88.9737C167.415 88.9047 166.739 88.8493 166.059 88.8077L166.189 86.6688C166.899 86.7122 167.605 86.7701 168.306 86.842ZM164.066 86.5824L164.023 88.7248C163.683 88.7179 163.342 88.7144 163 88.7144C162.658 88.7144 162.317 88.7179 161.977 88.7248L161.933 86.5824C162.288 86.5752 162.643 86.5715 163 86.5715C163.356 86.5715 163.712 86.5752 164.066 86.5824ZM159.81 86.6688L159.941 88.8077C159.261 88.8493 158.584 88.9047 157.912 88.9737L157.693 86.842C158.395 86.7701 159.101 86.7122 159.81 86.6688ZM155.582 87.1025L155.888 89.2234C155.214 89.3209 154.543 89.432 153.878 89.5565L153.484 87.4502C154.178 87.3202 154.878 87.2043 155.582 87.1025ZM151.403 87.8845L151.884 89.9726C151.221 90.1255 150.562 90.2918 149.91 90.4711L149.342 88.4048C150.023 88.2176 150.71 88.0441 151.403 87.8845ZM147.305 89.0105L147.958 91.0513C147.31 91.2587 146.668 91.4791 146.032 91.7123L145.295 89.7004C145.958 89.457 146.628 89.227 147.305 89.0105ZM143.314 90.474L144.134 92.4534C143.506 92.714 142.884 92.9872 142.269 93.2727L141.367 91.3291C142.009 91.0311 142.658 90.7459 143.314 90.474ZM139.458 92.2643L140.44 94.1687C139.836 94.4804 139.239 94.8042 138.649 95.1399L137.589 93.2777C138.204 92.9275 138.827 92.5896 139.458 92.2643ZM135.764 94.3676L136.9 96.1843C136.324 96.5447 135.756 96.9168 135.196 97.3001L133.985 95.5319C134.569 95.1319 135.162 94.7437 135.764 94.3676ZM132.256 96.7686L133.538 98.4855C132.994 98.8922 132.458 99.3099 131.931 99.7383L130.579 98.0756C131.129 97.6287 131.688 97.1929 132.256 96.7686ZM128.957 99.4505L130.376 101.056C129.867 101.506 129.368 101.966 128.877 102.437L127.394 100.891C127.905 100.4 128.426 99.9199 128.957 99.4505ZM125.89 102.394L127.436 103.878C126.966 104.368 126.506 104.868 126.056 105.377L124.45 103.958C124.92 103.427 125.4 102.905 125.89 102.394ZM123.075 105.579L124.738 106.931C124.31 107.458 123.892 107.994 123.485 108.539L121.768 107.256C122.193 106.688 122.628 106.129 123.075 105.579ZM120.532 108.985C120.132 109.57 119.743 110.163 119.367 110.764L121.184 111.9C121.544 111.324 121.917 110.756 122.3 110.196L120.532 108.985ZM118.277 112.589L120.14 113.649C119.804 114.239 119.48 114.836 119.169 115.44L117.264 114.458C117.589 113.827 117.927 113.204 118.277 112.589ZM116.329 116.367L118.272 117.269C117.987 117.884 117.714 118.506 117.453 119.135L115.474 118.314C115.746 117.658 116.031 117.009 116.329 116.367ZM114.7 120.295L116.712 121.033C116.479 121.668 116.258 122.31 116.051 122.958L114.01 122.305C114.227 121.629 114.457 120.959 114.7 120.295ZM113.405 124.342L115.471 124.91C115.292 125.563 115.125 126.221 114.972 126.884L112.884 126.403C113.044 125.71 113.217 125.023 113.405 124.342ZM112.45 128.484L114.556 128.878C114.432 129.544 114.321 130.214 114.223 130.889L112.102 130.582C112.204 129.878 112.32 129.179 112.45 128.484ZM111.842 132.694L113.973 132.912C113.904 133.585 113.849 134.261 113.807 134.941L111.669 134.811C111.712 134.101 111.77 133.395 111.842 132.694ZM111.582 136.933C111.575 137.288 111.571 137.644 111.571 138C111.571 138.356 111.575 138.712 111.582 139.067L113.725 139.023C113.718 138.683 113.714 138.342 113.714 138C113.714 137.658 113.718 137.317 113.725 136.977L111.582 136.933ZM111.669 141.19L113.807 141.059C113.849 141.739 113.904 142.416 113.973 143.088L111.842 143.307C111.77 142.605 111.712 141.899 111.669 141.19ZM112.102 145.418L114.223 145.112C114.321 145.786 114.432 146.457 114.556 147.122L112.45 147.516C112.32 146.822 112.204 146.122 112.102 145.418ZM112.884 149.597L114.972 149.116C115.125 149.779 115.292 150.438 115.471 151.09L113.405 151.658C113.217 150.977 113.044 150.29 112.884 149.597ZM114.01 153.695L116.051 153.042C116.258 153.69 116.479 154.332 116.712 154.968L114.7 155.705C114.457 155.042 114.227 154.372 114.01 153.695ZM115.474 157.686L117.453 156.866C117.714 157.494 117.987 158.116 118.272 158.731L116.329 159.633C116.031 158.991 115.746 158.342 115.474 157.686ZM117.264 161.542L119.169 160.56C119.48 161.164 119.804 161.761 120.14 162.351L118.277 163.411C117.927 162.796 117.589 162.173 117.264 161.542ZM119.367 165.236C119.743 165.838 120.132 166.431 120.532 167.015L122.3 165.804C121.917 165.244 121.545 164.676 121.184 164.1L119.367 165.236ZM121.768 168.744L123.485 167.462C123.892 168.006 124.31 168.542 124.738 169.069L123.075 170.421C122.628 169.871 122.193 169.312 121.768 168.744ZM124.45 172.043L126.056 170.623C126.506 171.133 126.966 171.632 127.437 172.122L125.89 173.606C125.4 173.095 124.92 172.574 124.45 172.043ZM127.394 175.109L128.878 173.563C129.368 174.034 129.867 174.494 130.376 174.944L128.957 176.55C128.426 176.08 127.905 175.6 127.394 175.109ZM130.579 177.925L131.931 176.262C132.458 176.69 132.994 177.108 133.538 177.515L132.256 179.232C131.688 178.807 131.129 178.371 130.579 177.925ZM133.985 180.468L135.196 178.7C135.756 179.083 136.324 179.455 136.9 179.816L135.764 181.633C135.162 181.257 134.569 180.868 133.985 180.468ZM137.589 182.722L138.649 180.86C139.239 181.196 139.836 181.52 140.44 181.831L139.458 183.736C138.827 183.411 138.204 183.073 137.589 182.722ZM141.367 184.671L142.269 182.727C142.884 183.013 143.506 183.286 144.134 183.547L143.314 185.526C142.658 185.254 142.009 184.969 141.367 184.671ZM145.295 186.3L146.032 184.288C146.668 184.521 147.31 184.742 147.958 184.949L147.305 186.99C146.628 186.773 145.958 186.543 145.295 186.3ZM149.342 187.595L149.91 185.529C150.562 185.708 151.221 185.875 151.884 186.028L151.403 188.116C150.71 187.956 150.023 187.783 149.342 187.595ZM153.484 188.55L153.878 186.444C154.543 186.568 155.214 186.679 155.888 186.777L155.582 188.898C154.878 188.796 154.178 188.68 153.484 188.55ZM157.693 189.158L157.912 187.027C158.584 187.095 159.261 187.151 159.941 187.193L159.81 189.331C159.101 189.288 158.395 189.23 157.693 189.158ZM161.933 189.418L161.977 187.275C162.317 187.282 162.658 187.286 163 187.286C163.342 187.286 163.683 187.282 164.023 187.275L164.066 189.418C163.712 189.425 163.356 189.429 163 189.429C162.643 189.429 162.288 189.425 161.933 189.418ZM166.189 189.331L166.059 187.193C166.739 187.151 167.415 187.095 168.088 187.027L168.306 189.158C167.605 189.23 166.899 189.288 166.189 189.331ZM170.418 188.898L170.111 186.777C170.786 186.679 171.456 186.568 172.122 186.444L172.516 188.55C171.821 188.68 171.122 188.796 170.418 188.898ZM174.597 188.116L174.116 186.028C174.779 185.875 175.437 185.708 176.09 185.529L176.658 187.595C175.977 187.783 175.289 187.956 174.597 188.116ZM178.695 186.99L178.042 184.949C178.69 184.742 179.332 184.521 179.967 184.288L180.705 186.3C180.041 186.543 179.371 186.773 178.695 186.99ZM182.686 185.526L181.865 183.547C182.494 183.286 183.115 183.013 183.73 182.728L184.633 184.671C183.991 184.969 183.342 185.254 182.686 185.526ZM186.542 183.736L185.56 181.831C186.164 181.52 186.761 181.196 187.351 180.86L188.411 182.722C187.796 183.073 187.173 183.411 186.542 183.736ZM190.236 181.633C190.837 181.256 191.43 180.868 192.015 180.468L190.804 178.7C190.244 179.083 189.676 179.455 189.1 179.816L190.236 181.633ZM193.744 179.232L192.461 177.515C193.006 177.108 193.542 176.69 194.069 176.262L195.421 177.925C194.871 178.371 194.312 178.807 193.744 179.232ZM197.042 176.55L195.623 174.944C196.132 174.494 196.632 174.034 197.122 173.563L198.606 175.109C198.095 175.6 197.573 176.08 197.042 176.55ZM200.109 173.606L198.563 172.122C199.034 171.632 199.494 171.133 199.944 170.623L201.549 172.043C201.08 172.574 200.6 173.095 200.109 173.606ZM202.924 170.421L201.262 169.069C201.69 168.542 202.108 168.006 202.515 167.462L204.231 168.744C203.807 169.312 203.371 169.871 202.924 170.421ZM205.468 167.015L203.7 165.804C204.083 165.244 204.455 164.676 204.816 164.1L206.632 165.236C206.256 165.838 205.868 166.431 205.468 167.015ZM207.722 163.411L205.86 162.351C206.196 161.761 206.52 161.164 206.831 160.56L208.736 161.542C208.41 162.173 208.072 162.796 207.722 163.411ZM209.671 159.633L207.727 158.731C208.013 158.116 208.286 157.494 208.547 156.866L210.526 157.686C210.254 158.342 209.969 158.991 209.671 159.633ZM211.3 155.705L209.288 154.968C209.521 154.332 209.741 153.69 209.949 153.042L211.989 153.695C211.773 154.372 211.543 155.042 211.3 155.705ZM212.595 151.658L210.529 151.09C210.708 150.438 210.874 149.779 211.027 149.116L213.115 149.597C212.956 150.29 212.782 150.977 212.595 151.658ZM213.55 147.516L211.443 147.122C211.568 146.457 211.679 145.786 211.777 145.112L213.897 145.418C213.796 146.122 213.68 146.822 213.55 147.516ZM214.158 143.307L212.026 143.088C212.095 142.416 212.151 141.739 212.192 141.059L214.331 141.19C214.288 141.899 214.23 142.605 214.158 143.307Z" fill="url(#paint1_linear_17096_12146)"/>
<path fill-rule="evenodd" clip-rule="evenodd" d="M163 173.818C163.331 172.516 163.706 171.213 164.124 169.916C168.581 156.087 177.886 142.936 189.389 138.307C190.571 137.832 191.775 137.446 193 137.159C191.775 136.872 190.571 136.487 189.389 136.011C177.886 131.382 168.581 118.231 164.124 104.402C163.706 103.105 163.331 101.802 163 100.5C162.669 101.802 162.294 103.105 161.876 104.402C157.419 118.231 148.114 131.382 136.611 136.011C135.429 136.487 134.225 136.872 133 137.159C134.225 137.446 135.429 137.832 136.611 138.307C148.114 142.936 157.419 156.087 161.876 169.916C162.294 171.213 162.669 172.516 163 173.818ZM163 166.606C165.305 160.345 168.559 154.312 172.538 149.197C176.524 144.073 181.315 139.778 186.698 137.159C181.315 134.54 176.524 130.245 172.538 125.122C168.559 120.007 165.305 113.973 163 107.713C160.695 113.973 157.441 120.007 153.462 125.122C149.476 130.245 144.685 134.54 139.302 137.159C144.685 139.778 149.476 144.073 153.462 149.197C157.441 154.312 160.695 160.345 163 166.606Z" fill="url(#paint2_linear_17096_12146)"/>
<defs>
<linearGradient id="paint0_linear_17096_12146" x1="142.375" y1="78" x2="205.188" y2="201.75" gradientUnits="userSpaceOnUse">
<stop offset="0.0246751" stop-color="white"/>
<stop offset="1" stop-color="white" stop-opacity="0"/>
</linearGradient>
<linearGradient id="paint1_linear_17096_12146" x1="145.321" y1="86.5715" x2="199.161" y2="192.643" gradientUnits="userSpaceOnUse">
<stop offset="0.0246751" stop-color="white"/>
<stop offset="1" stop-color="white" stop-opacity="0"/>
</linearGradient>
<linearGradient id="paint2_linear_17096_12146" x1="157.375" y1="107.063" x2="182.688" y2="173.625" gradientUnits="userSpaceOnUse">
<stop stop-color="white"/>
<stop offset="1" stop-color="white" stop-opacity="0"/>
</linearGradient>
</defs>
</svg>
