<svg width="326" height="254" viewBox="0 0 326 254" fill="none" xmlns="http://www.w3.org/2000/svg">
<rect x="0.666992" width="325.333" height="254" rx="8" fill="#222D26"/>
<path d="M103 87.0474L115 93.9779L115 106.999L103 100.068L103 87.0474Z" fill="url(#paint0_linear_17090_24786)"/>
<path d="M115 93.9786L127 87.048L127 100.069L115 107L115 93.9786Z" fill="url(#paint1_linear_17090_24786)"/>
<path d="M103 86.9517L115 80.0211L115 67L103 73.9306L103 86.9517Z" fill="url(#paint2_linear_17090_24786)"/>
<path d="M115 80.0224L127 86.953L127 73.9319L115 67.0013L115 80.0224Z" fill="url(#paint3_linear_17090_24786)"/>
<path d="M127 87.0474L139 93.9779L139 106.999L127 100.068L127 87.0474Z" fill="url(#paint4_linear_17090_24786)"/>
<path d="M139 93.9786L151 87.048L151 100.069L139 107L139 93.9786Z" fill="url(#paint5_linear_17090_24786)"/>
<path d="M127 86.9517L139 80.0211L139 67L127 73.9306L127 86.9517Z" fill="url(#paint6_linear_17090_24786)"/>
<path d="M139 80.0224L151 86.953L151 73.9319L139 67.0013L139 80.0224Z" fill="url(#paint7_linear_17090_24786)"/>
<path d="M151 87.0474L163 93.9779L163 106.999L151 100.068L151 87.0474Z" fill="url(#paint8_linear_17090_24786)"/>
<path d="M163 93.9786L175 87.048L175 100.069L163 107L163 93.9786Z" fill="url(#paint9_linear_17090_24786)"/>
<path d="M151 86.9517L163 80.0211L163 67L151 73.9306L151 86.9517Z" fill="url(#paint10_linear_17090_24786)"/>
<path d="M163 80.0224L175 86.953L175 73.9319L163 67.0013L163 80.0224Z" fill="url(#paint11_linear_17090_24786)"/>
<path d="M175 87.0474L187 93.9779L187 106.999L175 100.068L175 87.0474Z" fill="url(#paint12_linear_17090_24786)"/>
<path d="M187 93.9786L199 87.048L199 100.069L187 107L187 93.9786Z" fill="url(#paint13_linear_17090_24786)"/>
<path d="M175 86.9517L187 80.0211L187 67L175 73.9306L175 86.9517Z" fill="url(#paint14_linear_17090_24786)"/>
<path d="M187 80.0224L199 86.953L199 73.9319L187 67.0013L187 80.0224Z" fill="url(#paint15_linear_17090_24786)"/>
<path d="M199 87.0474L211 93.9779L211 106.999L199 100.068L199 87.0474Z" fill="url(#paint16_linear_17090_24786)"/>
<path d="M211 93.9786L223 87.048L223 100.069L211 107L211 93.9786Z" fill="url(#paint17_linear_17090_24786)"/>
<path d="M199 86.9517L211 80.0211L211 67L199 73.9306L199 86.9517Z" fill="url(#paint18_linear_17090_24786)"/>
<path d="M211 80.0224L223 86.953L223 73.9319L211 67.0013L211 80.0224Z" fill="url(#paint19_linear_17090_24786)"/>
<path d="M103 127.049L115 133.98L115 147.001L103 140.07L103 127.049Z" fill="url(#paint20_linear_17090_24786)"/>
<path d="M115 133.979L127 127.048L127 140.069L115 147L115 133.979Z" fill="url(#paint21_linear_17090_24786)"/>
<path d="M103 126.952L115 120.021L115 107L103 113.931L103 126.952Z" fill="url(#paint22_linear_17090_24786)"/>
<path d="M115 120.022L127 126.953L127 113.932L115 107.001L115 120.022Z" fill="url(#paint23_linear_17090_24786)"/>
<path d="M127 127.049L139 133.98L139 147.001L127 140.07L127 127.049Z" fill="url(#paint24_linear_17090_24786)"/>
<path d="M139 133.979L151 127.048L151 140.069L139 147L139 133.979Z" fill="url(#paint25_linear_17090_24786)"/>
<path d="M127 126.952L139 120.021L139 107L127 113.931L127 126.952Z" fill="url(#paint26_linear_17090_24786)"/>
<path d="M139 120.022L151 126.953L151 113.932L139 107.001L139 120.022Z" fill="url(#paint27_linear_17090_24786)"/>
<path d="M151 127.049L163 133.98L163 147.001L151 140.07L151 127.049Z" fill="url(#paint28_linear_17090_24786)"/>
<path d="M163 133.979L175 127.048L175 140.069L163 147L163 133.979Z" fill="url(#paint29_linear_17090_24786)"/>
<path d="M151 126.952L163 120.021L163 107L151 113.931L151 126.952Z" fill="url(#paint30_linear_17090_24786)"/>
<path d="M163 120.022L175 126.953L175 113.932L163 107.001L163 120.022Z" fill="url(#paint31_linear_17090_24786)"/>
<path d="M175 127.049L187 133.98L187 147.001L175 140.07L175 127.049Z" fill="url(#paint32_linear_17090_24786)"/>
<path d="M187 133.979L199 127.048L199 140.069L187 147L187 133.979Z" fill="url(#paint33_linear_17090_24786)"/>
<path d="M175 126.952L187 120.021L187 107L175 113.931L175 126.952Z" fill="url(#paint34_linear_17090_24786)"/>
<path d="M187 120.022L199 126.953L199 113.932L187 107.001L187 120.022Z" fill="url(#paint35_linear_17090_24786)"/>
<path d="M199 127.049L211 133.98L211 147.001L199 140.07L199 127.049Z" fill="url(#paint36_linear_17090_24786)"/>
<path d="M211 133.979L223 127.048L223 140.069L211 147L211 133.979Z" fill="url(#paint37_linear_17090_24786)"/>
<path d="M199 126.952L211 120.021L211 107L199 113.931L199 126.952Z" fill="url(#paint38_linear_17090_24786)"/>
<path d="M211 120.022L223 126.953L223 113.932L211 107.001L211 120.022Z" fill="url(#paint39_linear_17090_24786)"/>
<path d="M103 167.045L115 173.976L115 186.997L103 180.066L103 167.045Z" fill="url(#paint40_linear_17090_24786)"/>
<path d="M115 173.979L127 167.048L127 180.069L115 187L115 173.979Z" fill="url(#paint41_linear_17090_24786)"/>
<path d="M103 166.95L115 160.019L115 146.998L103 153.929L103 166.95Z" fill="url(#paint42_linear_17090_24786)"/>
<path d="M115 160.022L127 166.953L127 153.932L115 147.001L115 160.022Z" fill="url(#paint43_linear_17090_24786)"/>
<path d="M127 167.045L139 173.976L139 186.997L127 180.066L127 167.045Z" fill="url(#paint44_linear_17090_24786)"/>
<path d="M139 173.979L151 167.048L151 180.069L139 187L139 173.979Z" fill="url(#paint45_linear_17090_24786)"/>
<path d="M127 166.95L139 160.019L139 146.998L127 153.929L127 166.95Z" fill="url(#paint46_linear_17090_24786)"/>
<path d="M139 160.022L151 166.953L151 153.932L139 147.001L139 160.022Z" fill="url(#paint47_linear_17090_24786)"/>
<path d="M151 167.045L163 173.976L163 186.997L151 180.066L151 167.045Z" fill="url(#paint48_linear_17090_24786)"/>
<path d="M163 173.979L175 167.048L175 180.069L163 187L163 173.979Z" fill="url(#paint49_linear_17090_24786)"/>
<path d="M151 166.95L163 160.019L163 146.998L151 153.929L151 166.95Z" fill="url(#paint50_linear_17090_24786)"/>
<path d="M163 160.022L175 166.953L175 153.932L163 147.001L163 160.022Z" fill="url(#paint51_linear_17090_24786)"/>
<path d="M175 167.049L187 173.98L187 187.001L175 180.07L175 167.049Z" fill="url(#paint52_linear_17090_24786)"/>
<path d="M187 173.979L199 167.048L199 180.069L187 187L187 173.979Z" fill="url(#paint53_linear_17090_24786)"/>
<path d="M175 166.95L187 160.019L187 146.998L175 153.929L175 166.95Z" fill="url(#paint54_linear_17090_24786)"/>
<path d="M187 160.022L199 166.953L199 153.932L187 147.001L187 160.022Z" fill="url(#paint55_linear_17090_24786)"/>
<path d="M199 167.049L211 173.98L211 187.001L199 180.07L199 167.049Z" fill="url(#paint56_linear_17090_24786)"/>
<path d="M211 173.979L223 167.048L223 180.069L211 187L211 173.979Z" fill="url(#paint57_linear_17090_24786)"/>
<path d="M199 166.95L211 160.019L211 146.998L199 153.929L199 166.95Z" fill="url(#paint58_linear_17090_24786)"/>
<path d="M211 160.022L223 166.953L223 153.932L211 147.001L211 160.022Z" fill="url(#paint59_linear_17090_24786)"/>
<defs>
<linearGradient id="paint0_linear_17090_24786" x1="112.363" y1="86.9513" x2="100.351" y2="93.9464" gradientUnits="userSpaceOnUse">
<stop stop-color="#222D26"/>
<stop offset="1" stop-color="white"/>
</linearGradient>
<linearGradient id="paint1_linear_17090_24786" x1="118.986" y1="90.1413" x2="123.438" y2="102.609" gradientUnits="userSpaceOnUse">
<stop stop-color="#222D26"/>
<stop offset="1" stop-color="white"/>
</linearGradient>
<linearGradient id="paint2_linear_17090_24786" x1="105.757" y1="85.6319" x2="101.714" y2="69.3631" gradientUnits="userSpaceOnUse">
<stop stop-color="white"/>
<stop offset="1" stop-color="#222D26"/>
</linearGradient>
<linearGradient id="paint3_linear_17090_24786" x1="116.946" y1="80.2948" x2="126.76" y2="78.1739" gradientUnits="userSpaceOnUse">
<stop stop-color="white"/>
<stop offset="1" stop-color="#222D26"/>
</linearGradient>
<linearGradient id="paint4_linear_17090_24786" x1="136.363" y1="86.9513" x2="124.351" y2="93.9464" gradientUnits="userSpaceOnUse">
<stop stop-color="#222D26"/>
<stop offset="1" stop-color="white"/>
</linearGradient>
<linearGradient id="paint5_linear_17090_24786" x1="142.986" y1="90.1413" x2="147.438" y2="102.609" gradientUnits="userSpaceOnUse">
<stop stop-color="#222D26"/>
<stop offset="1" stop-color="white"/>
</linearGradient>
<linearGradient id="paint6_linear_17090_24786" x1="129.757" y1="85.6319" x2="125.714" y2="69.3631" gradientUnits="userSpaceOnUse">
<stop stop-color="white"/>
<stop offset="1" stop-color="#222D26"/>
</linearGradient>
<linearGradient id="paint7_linear_17090_24786" x1="140.946" y1="80.2948" x2="150.76" y2="78.1739" gradientUnits="userSpaceOnUse">
<stop stop-color="white"/>
<stop offset="1" stop-color="#222D26"/>
</linearGradient>
<linearGradient id="paint8_linear_17090_24786" x1="160.363" y1="86.9513" x2="148.351" y2="93.9464" gradientUnits="userSpaceOnUse">
<stop stop-color="#222D26"/>
<stop offset="1" stop-color="white"/>
</linearGradient>
<linearGradient id="paint9_linear_17090_24786" x1="166.986" y1="90.1413" x2="171.438" y2="102.609" gradientUnits="userSpaceOnUse">
<stop stop-color="#222D26"/>
<stop offset="1" stop-color="white"/>
</linearGradient>
<linearGradient id="paint10_linear_17090_24786" x1="153.757" y1="85.6319" x2="149.714" y2="69.3631" gradientUnits="userSpaceOnUse">
<stop stop-color="white"/>
<stop offset="1" stop-color="#222D26"/>
</linearGradient>
<linearGradient id="paint11_linear_17090_24786" x1="164.946" y1="80.2948" x2="174.76" y2="78.1739" gradientUnits="userSpaceOnUse">
<stop stop-color="white"/>
<stop offset="1" stop-color="#222D26"/>
</linearGradient>
<linearGradient id="paint12_linear_17090_24786" x1="184.363" y1="86.9513" x2="172.351" y2="93.9464" gradientUnits="userSpaceOnUse">
<stop stop-color="#222D26"/>
<stop offset="1" stop-color="white"/>
</linearGradient>
<linearGradient id="paint13_linear_17090_24786" x1="190.986" y1="90.1413" x2="195.438" y2="102.609" gradientUnits="userSpaceOnUse">
<stop stop-color="#222D26"/>
<stop offset="1" stop-color="white"/>
</linearGradient>
<linearGradient id="paint14_linear_17090_24786" x1="177.757" y1="85.6319" x2="173.714" y2="69.3631" gradientUnits="userSpaceOnUse">
<stop stop-color="white"/>
<stop offset="1" stop-color="#222D26"/>
</linearGradient>
<linearGradient id="paint15_linear_17090_24786" x1="188.946" y1="80.2948" x2="198.76" y2="78.1739" gradientUnits="userSpaceOnUse">
<stop stop-color="white"/>
<stop offset="1" stop-color="#222D26"/>
</linearGradient>
<linearGradient id="paint16_linear_17090_24786" x1="208.363" y1="86.9513" x2="196.351" y2="93.9464" gradientUnits="userSpaceOnUse">
<stop stop-color="#222D26"/>
<stop offset="1" stop-color="white"/>
</linearGradient>
<linearGradient id="paint17_linear_17090_24786" x1="214.986" y1="90.1413" x2="219.438" y2="102.609" gradientUnits="userSpaceOnUse">
<stop stop-color="#222D26"/>
<stop offset="1" stop-color="white"/>
</linearGradient>
<linearGradient id="paint18_linear_17090_24786" x1="201.757" y1="85.6319" x2="197.714" y2="69.3631" gradientUnits="userSpaceOnUse">
<stop stop-color="white"/>
<stop offset="1" stop-color="#222D26"/>
</linearGradient>
<linearGradient id="paint19_linear_17090_24786" x1="212.946" y1="80.2948" x2="222.76" y2="78.1739" gradientUnits="userSpaceOnUse">
<stop stop-color="white"/>
<stop offset="1" stop-color="#222D26"/>
</linearGradient>
<linearGradient id="paint20_linear_17090_24786" x1="112.363" y1="126.953" x2="100.351" y2="133.948" gradientUnits="userSpaceOnUse">
<stop stop-color="#222D26"/>
<stop offset="1" stop-color="white"/>
</linearGradient>
<linearGradient id="paint21_linear_17090_24786" x1="118.986" y1="130.141" x2="123.438" y2="142.609" gradientUnits="userSpaceOnUse">
<stop stop-color="#222D26"/>
<stop offset="1" stop-color="white"/>
</linearGradient>
<linearGradient id="paint22_linear_17090_24786" x1="105.757" y1="125.632" x2="101.714" y2="109.363" gradientUnits="userSpaceOnUse">
<stop stop-color="white"/>
<stop offset="1" stop-color="#222D26"/>
</linearGradient>
<linearGradient id="paint23_linear_17090_24786" x1="116.946" y1="120.295" x2="126.76" y2="118.174" gradientUnits="userSpaceOnUse">
<stop stop-color="white"/>
<stop offset="1" stop-color="#222D26"/>
</linearGradient>
<linearGradient id="paint24_linear_17090_24786" x1="136.363" y1="126.953" x2="124.351" y2="133.948" gradientUnits="userSpaceOnUse">
<stop stop-color="#222D26"/>
<stop offset="1" stop-color="white"/>
</linearGradient>
<linearGradient id="paint25_linear_17090_24786" x1="142.986" y1="130.141" x2="147.438" y2="142.609" gradientUnits="userSpaceOnUse">
<stop stop-color="#222D26"/>
<stop offset="1" stop-color="white"/>
</linearGradient>
<linearGradient id="paint26_linear_17090_24786" x1="129.757" y1="125.632" x2="125.714" y2="109.363" gradientUnits="userSpaceOnUse">
<stop stop-color="white"/>
<stop offset="1" stop-color="#222D26"/>
</linearGradient>
<linearGradient id="paint27_linear_17090_24786" x1="140.946" y1="120.295" x2="150.76" y2="118.174" gradientUnits="userSpaceOnUse">
<stop stop-color="white"/>
<stop offset="1" stop-color="#222D26"/>
</linearGradient>
<linearGradient id="paint28_linear_17090_24786" x1="160.363" y1="126.953" x2="148.351" y2="133.948" gradientUnits="userSpaceOnUse">
<stop stop-color="#222D26"/>
<stop offset="1" stop-color="white"/>
</linearGradient>
<linearGradient id="paint29_linear_17090_24786" x1="166.986" y1="130.141" x2="171.438" y2="142.609" gradientUnits="userSpaceOnUse">
<stop stop-color="#222D26"/>
<stop offset="1" stop-color="white"/>
</linearGradient>
<linearGradient id="paint30_linear_17090_24786" x1="153.757" y1="125.632" x2="149.714" y2="109.363" gradientUnits="userSpaceOnUse">
<stop stop-color="white"/>
<stop offset="1" stop-color="#222D26"/>
</linearGradient>
<linearGradient id="paint31_linear_17090_24786" x1="164.946" y1="120.295" x2="174.76" y2="118.174" gradientUnits="userSpaceOnUse">
<stop stop-color="white"/>
<stop offset="1" stop-color="#222D26"/>
</linearGradient>
<linearGradient id="paint32_linear_17090_24786" x1="184.363" y1="126.953" x2="172.351" y2="133.948" gradientUnits="userSpaceOnUse">
<stop stop-color="#222D26"/>
<stop offset="1" stop-color="white"/>
</linearGradient>
<linearGradient id="paint33_linear_17090_24786" x1="190.986" y1="130.141" x2="195.438" y2="142.609" gradientUnits="userSpaceOnUse">
<stop stop-color="#222D26"/>
<stop offset="1" stop-color="white"/>
</linearGradient>
<linearGradient id="paint34_linear_17090_24786" x1="177.757" y1="125.632" x2="173.714" y2="109.363" gradientUnits="userSpaceOnUse">
<stop stop-color="white"/>
<stop offset="1" stop-color="#222D26"/>
</linearGradient>
<linearGradient id="paint35_linear_17090_24786" x1="188.946" y1="120.295" x2="198.76" y2="118.174" gradientUnits="userSpaceOnUse">
<stop stop-color="white"/>
<stop offset="1" stop-color="#222D26"/>
</linearGradient>
<linearGradient id="paint36_linear_17090_24786" x1="208.363" y1="126.953" x2="196.351" y2="133.948" gradientUnits="userSpaceOnUse">
<stop stop-color="#222D26"/>
<stop offset="1" stop-color="white"/>
</linearGradient>
<linearGradient id="paint37_linear_17090_24786" x1="214.986" y1="130.141" x2="219.438" y2="142.609" gradientUnits="userSpaceOnUse">
<stop stop-color="#222D26"/>
<stop offset="1" stop-color="white"/>
</linearGradient>
<linearGradient id="paint38_linear_17090_24786" x1="201.757" y1="125.632" x2="197.714" y2="109.363" gradientUnits="userSpaceOnUse">
<stop stop-color="white"/>
<stop offset="1" stop-color="#222D26"/>
</linearGradient>
<linearGradient id="paint39_linear_17090_24786" x1="212.946" y1="120.295" x2="222.76" y2="118.174" gradientUnits="userSpaceOnUse">
<stop stop-color="white"/>
<stop offset="1" stop-color="#222D26"/>
</linearGradient>
<linearGradient id="paint40_linear_17090_24786" x1="112.363" y1="166.949" x2="100.351" y2="173.944" gradientUnits="userSpaceOnUse">
<stop stop-color="#222D26"/>
<stop offset="1" stop-color="white"/>
</linearGradient>
<linearGradient id="paint41_linear_17090_24786" x1="118.986" y1="170.141" x2="123.438" y2="182.609" gradientUnits="userSpaceOnUse">
<stop stop-color="#222D26"/>
<stop offset="1" stop-color="white"/>
</linearGradient>
<linearGradient id="paint42_linear_17090_24786" x1="105.757" y1="165.63" x2="101.714" y2="149.361" gradientUnits="userSpaceOnUse">
<stop stop-color="white"/>
<stop offset="1" stop-color="#222D26"/>
</linearGradient>
<linearGradient id="paint43_linear_17090_24786" x1="116.946" y1="160.295" x2="126.76" y2="158.174" gradientUnits="userSpaceOnUse">
<stop stop-color="white"/>
<stop offset="1" stop-color="#222D26"/>
</linearGradient>
<linearGradient id="paint44_linear_17090_24786" x1="136.363" y1="166.949" x2="124.351" y2="173.944" gradientUnits="userSpaceOnUse">
<stop stop-color="#222D26"/>
<stop offset="1" stop-color="white"/>
</linearGradient>
<linearGradient id="paint45_linear_17090_24786" x1="142.986" y1="170.141" x2="147.438" y2="182.609" gradientUnits="userSpaceOnUse">
<stop stop-color="#222D26"/>
<stop offset="1" stop-color="white"/>
</linearGradient>
<linearGradient id="paint46_linear_17090_24786" x1="129.757" y1="165.63" x2="125.714" y2="149.361" gradientUnits="userSpaceOnUse">
<stop stop-color="white"/>
<stop offset="1" stop-color="#222D26"/>
</linearGradient>
<linearGradient id="paint47_linear_17090_24786" x1="140.946" y1="160.295" x2="150.76" y2="158.174" gradientUnits="userSpaceOnUse">
<stop stop-color="white"/>
<stop offset="1" stop-color="#222D26"/>
</linearGradient>
<linearGradient id="paint48_linear_17090_24786" x1="160.363" y1="166.949" x2="148.351" y2="173.944" gradientUnits="userSpaceOnUse">
<stop stop-color="#222D26"/>
<stop offset="1" stop-color="white"/>
</linearGradient>
<linearGradient id="paint49_linear_17090_24786" x1="166.986" y1="170.141" x2="171.438" y2="182.609" gradientUnits="userSpaceOnUse">
<stop stop-color="#222D26"/>
<stop offset="1" stop-color="white"/>
</linearGradient>
<linearGradient id="paint50_linear_17090_24786" x1="153.757" y1="165.63" x2="149.714" y2="149.361" gradientUnits="userSpaceOnUse">
<stop stop-color="white"/>
<stop offset="1" stop-color="#222D26"/>
</linearGradient>
<linearGradient id="paint51_linear_17090_24786" x1="164.946" y1="160.295" x2="174.76" y2="158.174" gradientUnits="userSpaceOnUse">
<stop stop-color="white"/>
<stop offset="1" stop-color="#222D26"/>
</linearGradient>
<linearGradient id="paint52_linear_17090_24786" x1="184.363" y1="166.953" x2="172.351" y2="173.948" gradientUnits="userSpaceOnUse">
<stop stop-color="#222D26"/>
<stop offset="1" stop-color="white"/>
</linearGradient>
<linearGradient id="paint53_linear_17090_24786" x1="190.986" y1="170.141" x2="195.438" y2="182.609" gradientUnits="userSpaceOnUse">
<stop stop-color="#222D26"/>
<stop offset="1" stop-color="white"/>
</linearGradient>
<linearGradient id="paint54_linear_17090_24786" x1="177.757" y1="165.63" x2="173.714" y2="149.361" gradientUnits="userSpaceOnUse">
<stop stop-color="white"/>
<stop offset="1" stop-color="#222D26"/>
</linearGradient>
<linearGradient id="paint55_linear_17090_24786" x1="188.946" y1="160.295" x2="198.76" y2="158.174" gradientUnits="userSpaceOnUse">
<stop stop-color="white"/>
<stop offset="1" stop-color="#222D26"/>
</linearGradient>
<linearGradient id="paint56_linear_17090_24786" x1="208.363" y1="166.953" x2="196.351" y2="173.948" gradientUnits="userSpaceOnUse">
<stop stop-color="#222D26"/>
<stop offset="1" stop-color="white"/>
</linearGradient>
<linearGradient id="paint57_linear_17090_24786" x1="214.986" y1="170.141" x2="219.438" y2="182.609" gradientUnits="userSpaceOnUse">
<stop stop-color="#222D26"/>
<stop offset="1" stop-color="white"/>
</linearGradient>
<linearGradient id="paint58_linear_17090_24786" x1="201.757" y1="165.63" x2="197.714" y2="149.361" gradientUnits="userSpaceOnUse">
<stop stop-color="white"/>
<stop offset="1" stop-color="#222D26"/>
</linearGradient>
<linearGradient id="paint59_linear_17090_24786" x1="212.946" y1="160.295" x2="222.76" y2="158.174" gradientUnits="userSpaceOnUse">
<stop stop-color="white"/>
<stop offset="1" stop-color="#222D26"/>
</linearGradient>
</defs>
</svg>
