<svg width="326" height="254" viewBox="0 0 326 254" fill="none" xmlns="http://www.w3.org/2000/svg">
<rect width="325.333" height="254" rx="8" fill="#222D26"/>
<path fill-rule="evenodd" clip-rule="evenodd" d="M103 67H223V187H103V67ZM118.584 81.4059L105.845 68.6667H131.324L118.584 81.4059ZM119.763 82.5844L132.502 69.8452V95.3237L119.763 82.5844ZM118.584 83.763L131.324 96.5022H105.845L118.584 83.763ZM117.406 82.5844L104.667 95.3237V69.8452L117.406 82.5844ZM148.195 81.4059L135.456 68.6667H160.934L148.195 81.4059ZM149.373 82.5844L162.113 69.8452V95.3237L149.373 82.5844ZM148.195 83.763L160.934 96.5022H135.456L148.195 83.763ZM147.016 82.5844L134.277 95.3237V69.8452L147.016 82.5844ZM165.066 68.6667L177.805 81.4059L190.544 68.6667H165.066ZM191.723 69.8452L178.984 82.5844L191.723 95.3237V69.8452ZM190.544 96.5022L177.805 83.763L165.066 96.5022H190.544ZM163.887 95.3237L176.627 82.5844L163.887 69.8452V95.3237ZM207.416 81.4059L194.676 68.6667H220.155L207.416 81.4059ZM208.594 82.5844L221.333 69.8452V95.3237L208.594 82.5844ZM207.416 83.763L220.155 96.5022H194.676L207.416 83.763ZM206.237 82.5844L193.498 95.3237V69.8452L206.237 82.5844ZM105.845 98.2773L118.584 111.017L131.324 98.2773H105.845ZM132.502 99.4558L119.763 112.195L132.502 124.934V99.4558ZM131.324 126.113L118.584 113.374L105.845 126.113H131.324ZM104.667 124.934L117.406 112.195L104.667 99.4558V124.934ZM148.195 111.017L135.456 98.2773H160.934L148.195 111.017ZM149.373 112.195L162.113 99.4558V124.934L149.373 112.195ZM148.195 113.374L160.934 126.113H135.456L148.195 113.374ZM147.016 112.195L134.277 124.934V99.4558L147.016 112.195ZM165.066 98.2773L177.805 111.017L190.544 98.2773H165.066ZM191.723 99.4558L178.984 112.195L191.723 124.934V99.4558ZM190.544 126.113L177.805 113.374L165.066 126.113H190.544ZM163.887 124.934L176.627 112.195L163.887 99.4558V124.934ZM207.416 111.017L194.676 98.2773H220.155L207.416 111.017ZM208.594 112.195L221.333 99.4558V124.934L208.594 112.195ZM207.416 113.374L220.155 126.113H194.676L207.416 113.374ZM206.237 112.195L193.498 124.934V99.4558L206.237 112.195ZM105.845 127.888L118.584 140.627L131.324 127.888H105.845ZM132.502 129.066L119.763 141.806L132.502 154.545V129.066ZM131.324 155.723L118.584 142.984L105.845 155.723H131.324ZM104.667 154.545L117.406 141.806L104.667 129.066V154.545ZM148.195 140.627L135.456 127.888H160.934L148.195 140.627ZM149.373 141.806L162.113 129.066V154.545L149.373 141.806ZM148.195 142.984L160.934 155.723H135.456L148.195 142.984ZM147.016 141.806L134.277 154.545V129.066L147.016 141.806ZM165.066 127.888L177.805 140.627L190.544 127.888H165.066ZM191.723 129.066L178.984 141.806L191.723 154.545V129.066ZM190.544 155.723L177.805 142.984L165.066 155.723H190.544ZM163.887 154.545L176.627 141.806L163.887 129.066V154.545ZM207.416 140.627L194.676 127.888H220.155L207.416 140.627ZM208.594 141.806L221.333 129.066V154.545L208.594 141.806ZM207.416 142.984L220.155 155.723H194.676L207.416 142.984ZM206.237 141.806L193.498 154.545V129.066L206.237 141.806ZM105.845 157.498L118.584 170.237L131.324 157.498H105.845ZM132.502 158.676L119.763 171.416L132.502 184.155V158.676ZM131.324 185.333L118.584 172.594L105.845 185.333H131.324ZM104.667 184.155L117.406 171.416L104.667 158.676V184.155ZM148.195 170.237L135.456 157.498H160.934L148.195 170.237ZM149.373 171.416L162.113 158.676V184.155L149.373 171.416ZM148.195 172.594L160.934 185.333H135.456L148.195 172.594ZM147.016 171.416L134.277 184.155V158.676L147.016 171.416ZM165.066 157.498L177.805 170.237L190.544 157.498H165.066ZM191.723 158.676L178.984 171.416L191.723 184.155V158.676ZM190.544 185.333L177.805 172.594L165.066 185.333H190.544ZM163.887 184.155L176.627 171.416L163.887 158.676V184.155ZM207.416 170.237L194.676 157.498H220.155L207.416 170.237ZM208.594 171.416L221.333 158.676V184.155L208.594 171.416ZM207.416 172.594L220.155 185.333H194.676L207.416 172.594ZM206.237 171.416L193.498 184.155V158.676L206.237 171.416Z" fill="url(#paint0_radial_17090_24791)"/>
<defs>
<radialGradient id="paint0_radial_17090_24791" cx="0" cy="0" r="1" gradientUnits="userSpaceOnUse" gradientTransform="translate(163 127) rotate(45) scale(93.6687)">
<stop stop-color="white"/>
<stop offset="1" stop-color="white" stop-opacity="0"/>
</radialGradient>
</defs>
</svg>
