<svg width="326" height="254" viewBox="0 0 326 254" fill="none" xmlns="http://www.w3.org/2000/svg">
<rect x="0.666992" width="325.333" height="254" rx="8" fill="#222D26"/>
<path fill-rule="evenodd" clip-rule="evenodd" d="M153 107C153 101.477 157.477 97 163 97C168.523 97 173 101.477 173 107V147C173 152.523 168.523 157 163 157C157.477 157 153 152.523 153 147V107ZM171 107V147C171 151.418 167.418 155 163 155C158.582 155 155 151.418 155 147V107C155 102.582 158.582 99 163 99C167.418 99 171 102.582 171 107Z" fill="url(#paint0_radial_17090_24799)"/>
<path fill-rule="evenodd" clip-rule="evenodd" d="M163 91C154.163 91 147 98.1634 147 107V147C147 155.837 154.163 163 163 163C171.837 163 179 155.837 179 147V107C179 98.1634 171.837 91 163 91ZM177 147V107C177 99.268 170.732 93 163 93C155.268 93 149 99.268 149 107V147C149 154.732 155.268 161 163 161C170.732 161 177 154.732 177 147Z" fill="url(#paint1_radial_17090_24799)"/>
<path fill-rule="evenodd" clip-rule="evenodd" d="M141 107C141 94.8497 150.85 85 163 85C175.15 85 185 94.8497 185 107V147C185 159.15 175.15 169 163 169C150.85 169 141 159.15 141 147V107ZM183 107V147C183 158.046 174.046 167 163 167C151.954 167 143 158.046 143 147V107C143 95.9543 151.954 87 163 87C174.046 87 183 95.9543 183 107Z" fill="url(#paint2_radial_17090_24799)"/>
<path fill-rule="evenodd" clip-rule="evenodd" d="M163 79C147.536 79 135 91.536 135 107V147C135 162.464 147.536 175 163 175C178.464 175 191 162.464 191 147V107C191 91.536 178.464 79 163 79ZM189 147V107C189 92.6406 177.359 81 163 81C148.641 81 137 92.6406 137 107V147C137 161.359 148.641 173 163 173C177.359 173 189 161.359 189 147Z" fill="url(#paint3_radial_17090_24799)"/>
<path fill-rule="evenodd" clip-rule="evenodd" d="M129 107C129 88.2223 144.222 73 163 73C181.778 73 197 88.2223 197 107V147C197 165.778 181.778 181 163 181C144.222 181 129 165.778 129 147V107ZM195 107V147C195 164.673 180.673 179 163 179C145.327 179 131 164.673 131 147V107C131 89.3269 145.327 75 163 75C180.673 75 195 89.3269 195 107Z" fill="url(#paint4_radial_17090_24799)"/>
<path fill-rule="evenodd" clip-rule="evenodd" d="M123 107C123 84.9086 140.909 67 163 67C185.091 67 203 84.9086 203 107V147C203 169.091 185.091 187 163 187C140.909 187 123 169.091 123 147V107ZM201 107V147C201 167.987 183.987 185 163 185C142.013 185 125 167.987 125 147V107C125 86.0132 142.013 69 163 69C183.987 69 201 86.0132 201 107Z" fill="url(#paint5_radial_17090_24799)"/>
<defs>
<radialGradient id="paint0_radial_17090_24799" cx="0" cy="0" r="1" gradientUnits="userSpaceOnUse" gradientTransform="translate(163 127) rotate(78.6901) scale(81.5843 54.3895)">
<stop stop-color="white"/>
<stop offset="1" stop-color="white" stop-opacity="0"/>
</radialGradient>
<radialGradient id="paint1_radial_17090_24799" cx="0" cy="0" r="1" gradientUnits="userSpaceOnUse" gradientTransform="translate(163 127) rotate(78.6901) scale(81.5843 54.3895)">
<stop stop-color="white"/>
<stop offset="1" stop-color="white" stop-opacity="0"/>
</radialGradient>
<radialGradient id="paint2_radial_17090_24799" cx="0" cy="0" r="1" gradientUnits="userSpaceOnUse" gradientTransform="translate(163 127) rotate(78.6901) scale(81.5843 54.3895)">
<stop stop-color="white"/>
<stop offset="1" stop-color="white" stop-opacity="0"/>
</radialGradient>
<radialGradient id="paint3_radial_17090_24799" cx="0" cy="0" r="1" gradientUnits="userSpaceOnUse" gradientTransform="translate(163 127) rotate(78.6901) scale(81.5843 54.3895)">
<stop stop-color="white"/>
<stop offset="1" stop-color="white" stop-opacity="0"/>
</radialGradient>
<radialGradient id="paint4_radial_17090_24799" cx="0" cy="0" r="1" gradientUnits="userSpaceOnUse" gradientTransform="translate(163 127) rotate(78.6901) scale(81.5843 54.3895)">
<stop stop-color="white"/>
<stop offset="1" stop-color="white" stop-opacity="0"/>
</radialGradient>
<radialGradient id="paint5_radial_17090_24799" cx="0" cy="0" r="1" gradientUnits="userSpaceOnUse" gradientTransform="translate(163 127) rotate(78.6901) scale(81.5843 54.3895)">
<stop stop-color="white"/>
<stop offset="1" stop-color="white" stop-opacity="0"/>
</radialGradient>
</defs>
</svg>
