<svg width="64" height="64" viewBox="0 0 64 64" fill="none" xmlns="http://www.w3.org/2000/svg">
<rect width="64" height="64" rx="32" fill="#07130C"/>
<path d="M32 26.6667L26.6667 21.3333L32 16L37.3333 21.3333L32 26.6667Z" fill="#49FF86"/>
<path d="M42.6667 26.6667H37.3333V21.3333H42.6667V26.6667Z" fill="#49FF86"/>
<path d="M42.6667 37.3333L48 32L42.6667 26.6667L37.3333 32L42.6667 37.3333Z" fill="#49FF86"/>
<path d="M37.3333 42.6667H42.6667V37.3333H37.3333V42.6667Z" fill="#49FF86"/>
<path d="M26.6667 42.6667L32 48L37.3333 42.6667L32 37.3333L26.6667 42.6667Z" fill="#49FF86"/>
<path d="M21.3333 37.3333V42.6667H26.6667V37.3333H21.3333Z" fill="#49FF86"/>
<path d="M21.3333 26.6667L26.6667 32L21.3333 37.3333L16 32L21.3333 26.6667Z" fill="#49FF86"/>
<path d="M21.3333 26.6667V21.3333H26.6667V26.6667H21.3333Z" fill="#49FF86"/>
</svg>
