<svg width="16" height="16" viewBox="0 0 16 16" fill="none" xmlns="http://www.w3.org/2000/svg">
<path d="M1.24281 15.0625C4.49511 12.609 6.12126 11.3822 8.00002 11.3822C9.87879 11.3822 11.5049 12.609 14.7572 15.0625L16 16L15.0625 14.7572C12.609 11.5049 11.3822 9.87878 11.3822 8.00002C11.3822 6.12126 12.609 4.49511 15.0625 1.24281L16 3.73749e-05L14.7572 0.937556C11.5049 3.39105 9.87879 4.61779 8.00002 4.61779C6.12126 4.61779 4.49511 3.39105 1.24281 0.937555L0 0L0.937555 1.2428C3.39105 4.49511 4.61779 6.12126 4.61779 8.00002C4.61779 9.87878 3.39105 11.5049 0.937559 14.7572L3.14897e-05 16L1.24281 15.0625Z" fill="#4D544F"/>
</svg>
