<svg width="24" height="24" viewBox="0 0 24 24" fill="none" xmlns="http://www.w3.org/2000/svg">
<path d="M8.8 7.20117C10.073 7.20117 11.2939 7.70688 12.1941 8.60706C13.0943 9.50723 13.6 10.7281 13.6 12.0012C13.6 13.2742 13.0943 14.4951 12.1941 15.3953C11.2939 16.2955 10.073 16.8012 8.8 16.8012C7.52696 16.8012 6.30606 16.2955 5.40589 15.3953C4.50571 14.4951 4 13.2742 4 12.0012C4 10.7281 4.50571 9.50723 5.40589 8.60706C6.30606 7.70688 7.52696 7.20117 8.8 7.20117ZM16 8.00117C17.2 8.00117 18 9.79237 18 12.0012C18 14.21 17.2 16.0012 16 16.0012C14.8 16.0012 14 14.21 14 12.0012C14 9.79237 14.8 8.00117 16 8.00117ZM19.2 8.40117C19.504 8.40117 19.7696 9.06277 19.904 10.198L19.9416 10.5524L19.9568 10.7404L19.9808 11.1356L19.9888 11.3428L19.9984 11.7756L20 12.0012L19.9984 12.2268L19.9888 12.6596L19.9808 12.8676L19.9568 13.262L19.9408 13.45L19.9048 13.8044C19.7696 14.9404 19.5048 15.6012 19.2 15.6012C18.896 15.6012 18.6304 14.9396 18.496 13.8044L18.4584 13.45L18.4432 13.262L18.4192 12.8668L18.4112 12.6596L18.4016 12.2268V11.7756L18.4112 11.3428L18.4192 11.1348L18.4432 10.7404L18.4592 10.5524L18.4952 10.198C18.6304 9.06197 18.8952 8.40117 19.2 8.40117Z" fill="#E8E8E8"/>
</svg>
