<svg width="102" height="47" viewBox="0 0 102 47" fill="none" xmlns="http://www.w3.org/2000/svg">
<path d="M33.5963 38.0916H28.2447L14.2011 18.4989V38.0916H9.46005V11.154H14.8117L28.8553 30.7645V11.154H33.5963V38.0916Z" fill="black"/>
<path d="M35.9025 38.0916V11.154H52.9812V15.3202H40.6437L40.6357 22.4099V26.5585L40.6437 33.9252H53.1608V38.0916H35.9025Z" fill="black"/>
<path d="M55.3938 11.1529L66.6612 22.4202H45.188V26.5867H66.7035L55.1983 38.0916H61.2937L71.7115 27.6738C73.4509 25.9346 73.4509 23.1146 71.7115 21.3754L61.489 11.1529H55.3938Z" fill="black"/>
<path d="M86.9122 11.1529L76.6896 21.3754C74.9504 23.1146 74.9504 25.9346 76.6896 27.6738L87.1074 38.0916H93.2028L79.7374 24.6262C79.6812 24.57 79.6812 24.4792 79.7374 24.423L93.0075 11.1529H86.9122Z" fill="black"/>
</svg>
