<svg width="320" height="320" viewBox="0 0 320 320" fill="none" xmlns="http://www.w3.org/2000/svg">
<rect width="320" height="320" fill="#07130C"/>
<path d="M114.926 194H101.417L65.9676 144.543V194H54V126.003H67.5088L102.958 175.505V126.003H114.926V194Z" fill="white"/>
<path d="M120.742 194V126.003H163.853V136.52H132.71L132.69 154.416V164.888L132.71 183.483H164.306V194H120.742Z" fill="white"/>
<path d="M169.946 126L198.387 154.442H144.184V164.959H198.494L169.452 194H184.838L211.136 167.703C215.526 163.313 215.526 156.195 211.136 151.804L185.331 126H169.946Z" fill="white"/>
<path d="M249.511 126L223.707 151.804C219.317 156.195 219.317 163.313 223.707 167.703L250.004 194H265.39L231.4 160.01C231.258 159.868 231.258 159.639 231.4 159.497L264.897 126H249.511Z" fill="white"/>
</svg>
