<svg width="64" height="64" viewBox="0 0 64 64" fill="none" xmlns="http://www.w3.org/2000/svg">
<rect width="64" height="64" rx="32" fill="#07130C"/>
<path d="M20.1749 44.3593C25.8664 40.0657 28.7122 37.9189 32 37.9189C35.2879 37.9189 38.1336 40.0657 43.8252 44.3593L45.9999 45.9999L44.3593 43.8252C40.0657 38.1336 37.9189 35.2879 37.9189 32C37.9189 28.7122 40.0657 25.8664 44.3593 20.1749L46 18.0001L43.8252 19.6407C38.1336 23.9343 35.2879 26.0811 32 26.0811C28.7122 26.0811 25.8664 23.9343 20.1749 19.6407L18 18L19.6407 20.1749C23.9343 25.8664 26.0811 28.7122 26.0811 32C26.0811 35.2879 23.9343 38.1336 19.6407 43.8252L18.0001 46L20.1749 44.3593Z" fill="#49FF86"/>
</svg>
