<svg width="326" height="254" viewBox="0 0 326 254" fill="none" xmlns="http://www.w3.org/2000/svg">
<rect x="0.333008" width="325.333" height="254" rx="8" fill="#222D26"/>
<path fill-rule="evenodd" clip-rule="evenodd" d="M161.182 67V125.182H103V67H161.182ZM159.63 67.9091H132.545V74.2727H153.266L159.63 67.9091ZM152.357 75.1818H132.545V81.5455H145.994L152.357 75.1818ZM146.636 82.1883L153 75.8246V95.6364H146.636V82.1883ZM145.084 82.4545H132.545V88.8182H138.721L145.084 82.4545ZM139.364 89.461L145.727 83.0974V95.6364H139.364V89.461ZM137.812 89.7273H132.545V94.9935L137.812 89.7273ZM133.188 95.6364L138.455 90.3701V95.6364H133.188ZM153.909 74.9156L160.273 68.5519V95.6364H153.909V74.9156ZM160.273 123.63L153.909 117.266V96.5455H160.273V123.63ZM159.63 124.273L153.266 117.909H132.545V124.273H159.63ZM153 116.357V96.5455H146.636V109.994L153 116.357ZM145.994 110.636L152.357 117H132.545V110.636H145.994ZM145.727 109.084V96.5455H139.364V102.721L145.727 109.084ZM138.721 103.364L145.084 109.727H132.545V103.364H138.721ZM138.455 101.812V96.5455H133.188L138.455 101.812ZM132.545 97.1883L137.812 102.455H132.545V97.1883ZM131.636 117.909V124.273H104.552L110.916 117.909H131.636ZM110.273 117.266L103.909 123.63V96.5455H110.273V117.266ZM131.636 117H111.825L118.188 110.636H131.636V117ZM111.182 116.357L117.545 109.994V96.5455H111.182V116.357ZM131.636 109.727H119.097L125.461 103.364H131.636V109.727ZM118.455 109.084L124.818 102.721V96.5455H118.455V109.084ZM131.636 102.455H126.37L131.636 97.1883V102.455ZM125.727 101.812L130.994 96.5455H125.727V101.812ZM131.636 89.7273V94.9935L126.37 89.7273H131.636ZM125.727 95.6364H130.994L125.727 90.3701V95.6364ZM124.818 89.461L118.455 83.0974V95.6364H124.818V89.461ZM125.461 88.8182L119.097 82.4545H131.636V88.8182H125.461ZM118.188 81.5455L111.825 75.1818H131.636V81.5455H118.188ZM111.182 95.6364V75.8246L117.545 82.1883V95.6364H111.182ZM110.273 74.9156L103.909 68.5519V95.6364H110.273V74.9156ZM110.916 74.2727L104.552 67.9091H131.636V74.2727H110.916Z" fill="url(#paint0_radial_17096_13120)"/>
<path fill-rule="evenodd" clip-rule="evenodd" d="M223 67V125.182H164.818V67H223ZM221.448 67.9091H194.364V74.2727H215.085L221.448 67.9091ZM214.176 75.1818H194.364V81.5455H207.812L214.176 75.1818ZM208.455 82.1883L214.818 75.8246V95.6364H208.455V82.1883ZM206.903 82.4545H194.364V88.8182H200.539L206.903 82.4545ZM201.182 89.461L207.546 83.0974V95.6364H201.182V89.461ZM199.63 89.7273H194.364V94.9935L199.63 89.7273ZM195.007 95.6364L200.273 90.3701V95.6364H195.007ZM215.727 74.9156L222.091 68.5519V95.6364H215.727V74.9156ZM222.091 123.63L215.727 117.266V96.5455H222.091V123.63ZM221.448 124.273L215.085 117.909H194.364V124.273H221.448ZM214.818 116.357V96.5455H208.455V109.994L214.818 116.357ZM207.812 110.636L214.176 117H194.364V110.636H207.812ZM207.546 109.084V96.5455H201.182V102.721L207.546 109.084ZM200.539 103.364L206.903 109.727H194.364V103.364H200.539ZM200.273 101.812V96.5455H195.007L200.273 101.812ZM194.364 97.1883L199.63 102.455H194.364V97.1883ZM193.455 117.909V124.273H166.37L172.734 117.909H193.455ZM172.091 117.266L165.727 123.63V96.5455H172.091V117.266ZM193.455 117H173.643L180.007 110.636H193.455V117ZM173 116.357L179.364 109.994V96.5455H173V116.357ZM193.455 109.727H180.916L187.279 103.364H193.455V109.727ZM180.273 109.084L186.637 102.721V96.5455H180.273V109.084ZM193.455 102.455H188.188L193.455 97.1883V102.455ZM187.546 101.812L192.812 96.5455H187.546V101.812ZM193.455 89.7273V94.9935L188.188 89.7273H193.455ZM187.546 95.6364H192.812L187.546 90.3701V95.6364ZM186.637 89.461L180.273 83.0974V95.6364H186.637V89.461ZM187.279 88.8182L180.916 82.4545H193.455V88.8182H187.279ZM180.007 81.5455L173.643 75.1818H193.455V81.5455H180.007ZM173 95.6364V75.8246L179.364 82.1883V95.6364H173ZM172.091 74.9156L165.727 68.5519V95.6364H172.091V74.9156ZM172.734 74.2727L166.37 67.9091H193.455V74.2727H172.734Z" fill="url(#paint1_radial_17096_13120)"/>
<path fill-rule="evenodd" clip-rule="evenodd" d="M161.182 128.818V187H103V128.818H161.182ZM159.63 129.727H132.545V136.091H153.266L159.63 129.727ZM152.357 137H132.545V143.364H145.994L152.357 137ZM146.636 144.006L153 137.643V157.454H146.636V144.006ZM145.084 144.273H132.545V150.636H138.721L145.084 144.273ZM139.364 151.279L145.727 144.915V157.454H139.364V151.279ZM137.812 151.545H132.545V156.812L137.812 151.545ZM133.188 157.454L138.455 152.188V157.454H133.188ZM153.909 136.734L160.273 130.37V157.454H153.909V136.734ZM160.273 185.448L153.909 179.084V158.364H160.273V185.448ZM159.63 186.091L153.266 179.727H132.545V186.091H159.63ZM153 178.175V158.364H146.636V171.812L153 178.175ZM145.994 172.454L152.357 178.818H132.545V172.454H145.994ZM145.727 170.903V158.364H139.364V164.539L145.727 170.903ZM138.721 165.182L145.084 171.545H132.545V165.182H138.721ZM138.455 163.63V158.364H133.188L138.455 163.63ZM132.545 159.006L137.812 164.273H132.545V159.006ZM131.636 179.727V186.091H104.552L110.916 179.727H131.636ZM110.273 179.084L103.909 185.448V158.364H110.273V179.084ZM131.636 178.818H111.825L118.188 172.454H131.636V178.818ZM111.182 178.175L117.545 171.812V158.364H111.182V178.175ZM131.636 171.545H119.097L125.461 165.182H131.636V171.545ZM118.455 170.903L124.818 164.539V158.364H118.455V170.903ZM131.636 164.273H126.37L131.636 159.006V164.273ZM125.727 163.63L130.994 158.364H125.727V163.63ZM131.636 151.545V156.812L126.37 151.545H131.636ZM125.727 157.454H130.994L125.727 152.188V157.454ZM124.818 151.279L118.455 144.915V157.454H124.818V151.279ZM125.461 150.636L119.097 144.273H131.636V150.636H125.461ZM118.188 143.364L111.825 137H131.636V143.364H118.188ZM111.182 157.454V137.643L117.545 144.006V157.454H111.182ZM110.273 136.734L103.909 130.37V157.454H110.273V136.734ZM110.916 136.091L104.552 129.727H131.636V136.091H110.916Z" fill="url(#paint2_radial_17096_13120)"/>
<path fill-rule="evenodd" clip-rule="evenodd" d="M223 128.818V187H164.818V128.818H223ZM221.448 129.727H194.364V136.091H215.085L221.448 129.727ZM214.176 137H194.364V143.364H207.812L214.176 137ZM208.455 144.006L214.818 137.643V157.454H208.455V144.006ZM206.903 144.273H194.364V150.636H200.539L206.903 144.273ZM201.182 151.279L207.546 144.915V157.454H201.182V151.279ZM199.63 151.545H194.364V156.812L199.63 151.545ZM195.007 157.454L200.273 152.188V157.454H195.007ZM215.727 136.734L222.091 130.37V157.454H215.727V136.734ZM222.091 185.448L215.727 179.084V158.364H222.091V185.448ZM221.448 186.091L215.085 179.727H194.364V186.091H221.448ZM214.818 178.175V158.364H208.455V171.812L214.818 178.175ZM207.812 172.454L214.176 178.818H194.364V172.454H207.812ZM207.546 170.903V158.364H201.182V164.539L207.546 170.903ZM200.539 165.182L206.903 171.545H194.364V165.182H200.539ZM200.273 163.63V158.364H195.007L200.273 163.63ZM194.364 159.006L199.63 164.273H194.364V159.006ZM193.455 179.727V186.091H166.37L172.734 179.727H193.455ZM172.091 179.084L165.727 185.448V158.364H172.091V179.084ZM193.455 178.818H173.643L180.007 172.454H193.455V178.818ZM173 178.175L179.364 171.812V158.364H173V178.175ZM193.455 171.545H180.916L187.279 165.182H193.455V171.545ZM180.273 170.903L186.637 164.539V158.364H180.273V170.903ZM193.455 164.273H188.188L193.455 159.006V164.273ZM187.546 163.63L192.812 158.364H187.546V163.63ZM193.455 151.545V156.812L188.188 151.545H193.455ZM187.546 157.454H192.812L187.546 152.188V157.454ZM186.637 151.279L180.273 144.915V157.454H186.637V151.279ZM187.279 150.636L180.916 144.273H193.455V150.636H187.279ZM180.007 143.364L173.643 137H193.455V143.364H180.007ZM173 157.454V137.643L179.364 144.006V157.454H173ZM172.091 136.734L165.727 130.37V157.454H172.091V136.734ZM172.734 136.091L166.37 129.727H193.455V136.091H172.734Z" fill="url(#paint3_radial_17096_13120)"/>
<defs>
<radialGradient id="paint0_radial_17096_13120" cx="0" cy="0" r="1" gradientUnits="userSpaceOnUse" gradientTransform="translate(132.091 96.0909) rotate(51.3402) scale(46.5682)">
<stop stop-color="white"/>
<stop offset="1" stop-color="white" stop-opacity="0"/>
</radialGradient>
<radialGradient id="paint1_radial_17096_13120" cx="0" cy="0" r="1" gradientUnits="userSpaceOnUse" gradientTransform="translate(193.909 96.0909) rotate(51.3402) scale(46.5682)">
<stop stop-color="white"/>
<stop offset="1" stop-color="white" stop-opacity="0"/>
</radialGradient>
<radialGradient id="paint2_radial_17096_13120" cx="0" cy="0" r="1" gradientUnits="userSpaceOnUse" gradientTransform="translate(132.091 157.909) rotate(51.3402) scale(46.5682)">
<stop stop-color="white"/>
<stop offset="1" stop-color="white" stop-opacity="0"/>
</radialGradient>
<radialGradient id="paint3_radial_17096_13120" cx="0" cy="0" r="1" gradientUnits="userSpaceOnUse" gradientTransform="translate(193.909 157.909) rotate(51.3402) scale(46.5682)">
<stop stop-color="white"/>
<stop offset="1" stop-color="white" stop-opacity="0"/>
</radialGradient>
</defs>
</svg>
