<svg width="326" height="254" viewBox="0 0 326 254" fill="none" xmlns="http://www.w3.org/2000/svg">
<rect x="0.333008" width="325.333" height="254" rx="8" fill="#222D26"/>
<path d="M145.481 110.004C129.367 94.3251 140.467 67 162.95 67C185.432 67 196.532 94.3251 180.418 110.004L162.95 127L145.481 110.004Z" fill="url(#paint0_linear_17100_4657)"/>
<path d="M145.582 143.996C129.468 159.675 140.568 187 163.05 187C185.533 187 196.633 159.675 180.519 143.996L163.05 127L145.582 143.996Z" fill="url(#paint1_linear_17100_4657)"/>
<path d="M146.004 144.518C130.325 160.632 103 149.533 103 127.05C103 104.567 130.325 93.4672 146.004 109.581L163 127.05L146.004 144.518Z" fill="url(#paint2_linear_17100_4657)"/>
<path d="M179.996 144.417C195.675 160.531 223 149.431 223 126.949C223 104.466 195.675 93.3662 179.996 109.48L163 126.949L179.996 144.417Z" fill="url(#paint3_linear_17100_4657)"/>
<g filter="url(#filter0_f_17100_4657)">
<circle cx="163" cy="78.6667" r="6.66667" fill="white"/>
</g>
<g filter="url(#filter1_f_17100_4657)">
<circle cx="116.333" cy="127" r="6.66667" fill="white"/>
</g>
<g filter="url(#filter2_f_17100_4657)">
<circle cx="163" cy="173.667" r="6.66667" fill="white"/>
</g>
<g filter="url(#filter3_f_17100_4657)">
<circle cx="209.666" cy="127" r="6.66667" fill="white"/>
</g>
<defs>
<filter id="filter0_f_17100_4657" x="144.333" y="60" width="37.333" height="37.3335" filterUnits="userSpaceOnUse" color-interpolation-filters="sRGB">
<feFlood flood-opacity="0" result="BackgroundImageFix"/>
<feBlend mode="normal" in="SourceGraphic" in2="BackgroundImageFix" result="shape"/>
<feGaussianBlur stdDeviation="6" result="effect1_foregroundBlur_17100_4657"/>
</filter>
<filter id="filter1_f_17100_4657" x="97.666" y="108.333" width="37.333" height="37.3335" filterUnits="userSpaceOnUse" color-interpolation-filters="sRGB">
<feFlood flood-opacity="0" result="BackgroundImageFix"/>
<feBlend mode="normal" in="SourceGraphic" in2="BackgroundImageFix" result="shape"/>
<feGaussianBlur stdDeviation="6" result="effect1_foregroundBlur_17100_4657"/>
</filter>
<filter id="filter2_f_17100_4657" x="144.333" y="155" width="37.333" height="37.3335" filterUnits="userSpaceOnUse" color-interpolation-filters="sRGB">
<feFlood flood-opacity="0" result="BackgroundImageFix"/>
<feBlend mode="normal" in="SourceGraphic" in2="BackgroundImageFix" result="shape"/>
<feGaussianBlur stdDeviation="6" result="effect1_foregroundBlur_17100_4657"/>
</filter>
<filter id="filter3_f_17100_4657" x="190.999" y="108.333" width="37.333" height="37.3335" filterUnits="userSpaceOnUse" color-interpolation-filters="sRGB">
<feFlood flood-opacity="0" result="BackgroundImageFix"/>
<feBlend mode="normal" in="SourceGraphic" in2="BackgroundImageFix" result="shape"/>
<feGaussianBlur stdDeviation="6" result="effect1_foregroundBlur_17100_4657"/>
</filter>
<linearGradient id="paint0_linear_17100_4657" x1="153.783" y1="67" x2="162.95" y2="127" gradientUnits="userSpaceOnUse">
<stop stop-color="white"/>
<stop offset="1" stop-color="#222D26"/>
</linearGradient>
<linearGradient id="paint1_linear_17100_4657" x1="153.884" y1="187" x2="163.05" y2="127" gradientUnits="userSpaceOnUse">
<stop stop-color="white"/>
<stop offset="1" stop-color="#222D26"/>
</linearGradient>
<linearGradient id="paint2_linear_17100_4657" x1="103" y1="136.216" x2="163" y2="127.05" gradientUnits="userSpaceOnUse">
<stop stop-color="white"/>
<stop offset="1" stop-color="#222D26"/>
</linearGradient>
<linearGradient id="paint3_linear_17100_4657" x1="223" y1="136.115" x2="163" y2="126.949" gradientUnits="userSpaceOnUse">
<stop stop-color="white"/>
<stop offset="1" stop-color="#222D26"/>
</linearGradient>
</defs>
</svg>
