<svg width="326" height="254" viewBox="0 0 326 254" fill="none" xmlns="http://www.w3.org/2000/svg">
<rect x="0.666992" width="325.333" height="254" rx="8" fill="#222D26"/>
<path d="M161.95 157.332H164.05C164.861 156.555 165.641 155.745 166.389 154.906H159.611C160.359 155.745 161.139 156.555 161.95 157.332Z" fill="white"/>
<path d="M157.609 152.479H168.391C168.993 151.691 169.567 150.882 170.113 150.052H155.887C156.433 150.882 157.007 151.691 157.609 152.479Z" fill="white"/>
<path d="M154.406 147.626H171.594C172.042 146.832 172.466 146.023 172.862 145.199H153.138C153.534 146.023 153.958 146.832 154.406 147.626Z" fill="white"/>
<path d="M152.063 142.772H173.937C174.261 141.975 174.56 141.166 174.835 140.346H151.165C151.44 141.166 151.739 141.975 152.063 142.772Z" fill="white"/>
<path d="M150.434 137.919H175.566C175.781 137.119 175.973 136.31 176.141 135.492H149.859C150.027 136.31 150.219 137.119 150.434 137.919Z" fill="white"/>
<path d="M149.435 133.066H176.565C176.681 132.264 176.774 131.455 176.844 130.639H149.156C149.226 131.455 149.319 132.264 149.435 133.066Z" fill="white"/>
<path d="M149.017 128.212H176.983C176.994 127.809 177 127.405 177 126.999C177 126.593 176.994 126.188 176.983 125.786H149.017C149.006 126.188 149 126.593 149 126.999C149 127.405 149.006 127.809 149.017 128.212Z" fill="white"/>
<path d="M149.156 123.359H176.844C176.774 122.543 176.681 121.734 176.565 120.932H149.435C149.319 121.734 149.226 122.543 149.156 123.359Z" fill="white"/>
<path d="M149.859 118.506H176.141C175.973 117.688 175.781 116.879 175.566 116.079H150.434C150.219 116.879 150.027 117.688 149.859 118.506Z" fill="white"/>
<path d="M151.165 113.652H174.835C174.56 112.832 174.261 112.023 173.938 111.226H152.062C151.739 112.023 151.44 112.832 151.165 113.652Z" fill="white"/>
<path d="M153.137 108.799H172.863C172.466 107.975 172.043 107.165 171.595 106.372H154.405C153.957 107.165 153.534 107.975 153.137 108.799Z" fill="white"/>
<path d="M155.887 103.946H170.113C169.567 103.116 168.993 102.306 168.391 101.519H157.609C157.007 102.306 156.433 103.116 155.887 103.946Z" fill="white"/>
<path d="M159.611 99.0922H166.389C165.642 98.2524 164.862 97.4429 164.05 96.6655H161.95C161.138 97.4429 160.358 98.2524 159.611 99.0922Z" fill="white"/>
<path fill-rule="evenodd" clip-rule="evenodd" d="M191 166.667C212.907 166.667 230.667 148.907 230.667 127C230.667 105.093 212.907 87.3333 191 87.3333C169.093 87.3333 151.333 105.093 151.333 127C151.333 148.907 169.093 166.667 191 166.667ZM191 169C214.196 169 233 150.196 233 127C233 103.804 214.196 85 191 85C167.804 85 149 103.804 149 127C149 150.196 167.804 169 191 169Z" fill="url(#paint0_linear_17100_4675)"/>
<path fill-rule="evenodd" clip-rule="evenodd" d="M135 166.667C156.907 166.667 174.667 148.907 174.667 127C174.667 105.093 156.907 87.3333 135 87.3333C113.093 87.3333 95.3333 105.093 95.3333 127C95.3333 148.907 113.093 166.667 135 166.667ZM135 169C158.196 169 177 150.196 177 127C177 103.804 158.196 85 135 85C111.804 85 93 103.804 93 127C93 150.196 111.804 169 135 169Z" fill="url(#paint1_linear_17100_4675)"/>
<defs>
<linearGradient id="paint0_linear_17100_4675" x1="168.833" y1="93.1667" x2="209.667" y2="171.333" gradientUnits="userSpaceOnUse">
<stop stop-color="white"/>
<stop offset="1" stop-color="#222D26"/>
</linearGradient>
<linearGradient id="paint1_linear_17100_4675" x1="112.833" y1="88.5" x2="160.667" y2="184.167" gradientUnits="userSpaceOnUse">
<stop stop-color="white"/>
<stop offset="1" stop-color="#222D26"/>
</linearGradient>
</defs>
</svg>
