<svg width="326" height="254" viewBox="0 0 326 254" fill="none" xmlns="http://www.w3.org/2000/svg">
<rect width="325.333" height="254" rx="8" fill="#222D26"/>
<path fill-rule="evenodd" clip-rule="evenodd" d="M180.242 57C189.864 61.9634 196.199 70.6857 196.199 80.5199C196.199 90.3541 189.864 99.0764 180.242 104.04C189.015 98.7222 194.735 90.2031 194.735 80.5199C194.735 70.8366 189.015 62.3176 180.242 57ZM145.104 104.04C153.878 98.7222 159.598 90.2031 159.598 80.5199C159.598 70.8366 153.878 62.3176 145.104 57C154.726 61.9633 161.062 70.6857 161.062 80.5199C161.062 90.3541 154.726 99.0764 145.104 104.04ZM163.99 80.5199C163.99 70.6857 157.654 61.9633 148.033 57C156.806 62.3176 162.526 70.8366 162.526 80.5199C162.526 90.2031 156.806 98.7222 148.033 104.04C157.654 99.0764 163.99 90.3541 163.99 80.5199ZM150.961 104.04C159.734 98.7222 165.454 90.2031 165.454 80.5199C165.454 70.8366 159.734 62.3176 150.961 57C160.582 61.9634 166.918 70.6857 166.918 80.5199C166.918 90.3541 160.582 99.0764 150.961 104.04ZM169.846 80.5199C169.846 70.6857 163.511 61.9634 153.889 57C162.662 62.3176 168.382 70.8366 168.382 80.5199C168.382 90.2031 162.662 98.7222 153.889 104.04C163.511 99.0764 169.846 90.3541 169.846 80.5199ZM156.817 104.04C165.59 98.7222 171.31 90.2031 171.31 80.5199C171.31 70.8366 165.59 62.3176 156.817 57C166.439 61.9634 172.774 70.6857 172.774 80.5199C172.774 90.3541 166.439 99.0764 156.817 104.04ZM175.702 80.5199C175.702 70.6857 169.367 61.9634 159.745 57C168.518 62.3176 174.238 70.8366 174.238 80.5199C174.238 90.2031 168.518 98.7222 159.745 104.04C169.367 99.0764 175.702 90.3541 175.702 80.5199ZM162.673 104.04C171.446 98.7222 177.166 90.2031 177.166 80.5199C177.166 70.8366 171.446 62.3176 162.673 57C172.295 61.9634 178.63 70.6857 178.63 80.5199C178.63 90.3541 172.295 99.0764 162.673 104.04ZM181.559 80.5199C181.559 70.6857 175.223 61.9634 165.601 57C174.374 62.3176 180.095 70.8366 180.095 80.5199C180.095 90.2031 174.374 98.7222 165.601 104.04C175.223 99.0764 181.559 90.3541 181.559 80.5199ZM168.529 104.04C177.303 98.7222 183.023 90.2031 183.023 80.5199C183.023 70.8366 177.303 62.3176 168.53 57C178.151 61.9634 184.487 70.6857 184.487 80.5199C184.487 90.3541 178.151 99.0764 168.529 104.04ZM187.415 80.5199C187.415 70.6857 181.079 61.9634 171.458 57C180.231 62.3176 185.951 70.8366 185.951 80.5199C185.951 90.2031 180.231 98.7222 171.458 104.04C181.079 99.0764 187.415 90.3541 187.415 80.5199ZM174.386 104.04C183.159 98.7222 188.879 90.2031 188.879 80.5199C188.879 70.8366 183.159 62.3176 174.386 57C184.007 61.9634 190.343 70.6857 190.343 80.5199C190.343 90.3541 184.007 99.0764 174.386 104.04ZM193.271 80.5199C193.271 70.6857 186.936 61.9634 177.314 57C186.087 62.3176 191.807 70.8366 191.807 80.5199C191.807 90.2031 186.087 98.7222 177.314 104.04C186.936 99.0764 193.271 90.3541 193.271 80.5199Z" fill="url(#paint0_linear_17100_4648)"/>
<path fill-rule="evenodd" clip-rule="evenodd" d="M144.957 57C135.336 61.9634 129 70.6857 129 80.5199C129 90.3541 135.336 99.0764 144.957 104.04C136.184 98.7222 130.464 90.2031 130.464 80.5199C130.464 70.8366 136.184 62.3176 144.957 57ZM180.095 104.04C171.322 98.7222 165.602 90.2031 165.602 80.5199C165.602 70.8366 171.322 62.3176 180.095 57C170.473 61.9633 164.138 70.6857 164.138 80.5199C164.138 90.3541 170.473 99.0764 180.095 104.04ZM161.209 80.5199C161.209 70.6857 167.545 61.9633 177.167 57C168.394 62.3176 162.673 70.8366 162.673 80.5199C162.673 90.2031 168.394 98.7222 177.167 104.04C167.545 99.0764 161.209 90.3541 161.209 80.5199ZM174.238 104.04C165.465 98.7222 159.745 90.2031 159.745 80.5199C159.745 70.8366 165.465 62.3176 174.238 57C164.617 61.9634 158.281 70.6857 158.281 80.5199C158.281 90.3541 164.617 99.0764 174.238 104.04ZM155.353 80.5199C155.353 70.6857 161.689 61.9634 171.31 57C162.537 62.3176 156.817 70.8366 156.817 80.5199C156.817 90.2031 162.537 98.7222 171.31 104.04C161.689 99.0764 155.353 90.3541 155.353 80.5199ZM168.382 104.04C159.609 98.7222 153.889 90.2031 153.889 80.5199C153.889 70.8366 159.609 62.3176 168.382 57C158.761 61.9634 152.425 70.6857 152.425 80.5199C152.425 90.3541 158.761 99.0764 168.382 104.04ZM149.497 80.5199C149.497 70.6857 155.832 61.9634 165.454 57C156.681 62.3176 150.961 70.8366 150.961 80.5199C150.961 90.2031 156.681 98.7222 165.454 104.04C155.832 99.0764 149.497 90.3541 149.497 80.5199ZM162.526 104.04C153.753 98.7222 148.033 90.2031 148.033 80.5199C148.033 70.8366 153.753 62.3176 162.526 57C152.904 61.9634 146.569 70.6857 146.569 80.5199C146.569 90.3541 152.904 99.0764 162.526 104.04ZM143.641 80.5199C143.641 70.6857 149.976 61.9634 159.598 57C150.825 62.3176 145.105 70.8366 145.105 80.5199C145.105 90.2031 150.825 98.7222 159.598 104.04C149.976 99.0764 143.641 90.3541 143.641 80.5199ZM156.67 104.04C147.897 98.7222 142.177 90.2031 142.177 80.5199C142.177 70.8366 147.897 62.3176 156.67 57C147.048 61.9634 140.713 70.6857 140.713 80.5199C140.713 90.3541 147.048 99.0764 156.67 104.04ZM137.784 80.5199C137.784 70.6857 144.12 61.9634 153.742 57C144.969 62.3176 139.248 70.8366 139.248 80.5199C139.248 90.2031 144.969 98.7222 153.742 104.04C144.12 99.0764 137.784 90.3541 137.784 80.5199ZM150.813 104.04C142.04 98.7222 136.32 90.2031 136.32 80.5199C136.32 70.8366 142.04 62.3176 150.813 57C141.192 61.9634 134.856 70.6857 134.856 80.5199C134.856 90.3541 141.192 99.0764 150.813 104.04ZM131.928 80.5199C131.928 70.6857 138.264 61.9634 147.885 57C139.112 62.3176 133.392 70.8366 133.392 80.5199C133.392 90.2031 139.112 98.7222 147.885 104.04C138.264 99.0764 131.928 90.3541 131.928 80.5199Z" fill="url(#paint1_linear_17100_4648)"/>
<path fill-rule="evenodd" clip-rule="evenodd" d="M180.242 103.481C189.864 108.444 196.199 117.167 196.199 127.001C196.199 136.835 189.864 145.557 180.242 150.521C189.015 145.203 194.735 136.684 194.735 127.001C194.735 117.318 189.015 108.799 180.242 103.481ZM145.104 150.521C153.878 145.203 159.598 136.684 159.598 127.001C159.598 117.318 153.878 108.799 145.104 103.481C154.726 108.444 161.062 117.167 161.062 127.001C161.062 136.835 154.726 145.557 145.104 150.521ZM163.99 127.001C163.99 117.167 157.654 108.444 148.033 103.481C156.806 108.799 162.526 117.318 162.526 127.001C162.526 136.684 156.806 145.203 148.033 150.521C157.654 145.557 163.99 136.835 163.99 127.001ZM150.961 150.521C159.734 145.203 165.454 136.684 165.454 127.001C165.454 117.318 159.734 108.799 150.961 103.481C160.582 108.444 166.918 117.167 166.918 127.001C166.918 136.835 160.582 145.557 150.961 150.521ZM169.846 127.001C169.846 117.167 163.511 108.444 153.889 103.481C162.662 108.799 168.382 117.318 168.382 127.001C168.382 136.684 162.662 145.203 153.889 150.521C163.511 145.557 169.846 136.835 169.846 127.001ZM156.817 150.521C165.59 145.203 171.31 136.684 171.31 127.001C171.31 117.318 165.59 108.799 156.817 103.481C166.439 108.444 172.774 117.167 172.774 127.001C172.774 136.835 166.439 145.557 156.817 150.521ZM175.702 127.001C175.702 117.167 169.367 108.444 159.745 103.481C168.518 108.799 174.238 117.318 174.238 127.001C174.238 136.684 168.518 145.203 159.745 150.521C169.367 145.557 175.702 136.835 175.702 127.001ZM162.673 150.521C171.446 145.203 177.166 136.684 177.166 127.001C177.166 117.318 171.446 108.799 162.673 103.481C172.295 108.444 178.63 117.167 178.63 127.001C178.63 136.835 172.295 145.557 162.673 150.521ZM181.559 127.001C181.559 117.167 175.223 108.444 165.601 103.481C174.374 108.799 180.095 117.318 180.095 127.001C180.095 136.684 174.374 145.203 165.601 150.521C175.223 145.557 181.559 136.835 181.559 127.001ZM168.529 150.521C177.303 145.203 183.023 136.684 183.023 127.001C183.023 117.318 177.303 108.799 168.53 103.481C178.151 108.444 184.487 117.167 184.487 127.001C184.487 136.835 178.151 145.557 168.529 150.521ZM187.415 127.001C187.415 117.167 181.079 108.444 171.458 103.481C180.231 108.799 185.951 117.318 185.951 127.001C185.951 136.684 180.231 145.203 171.458 150.521C181.079 145.557 187.415 136.835 187.415 127.001ZM174.386 150.521C183.159 145.203 188.879 136.684 188.879 127.001C188.879 117.318 183.159 108.799 174.386 103.481C184.007 108.444 190.343 117.167 190.343 127.001C190.343 136.835 184.007 145.557 174.386 150.521ZM193.271 127.001C193.271 117.167 186.936 108.444 177.314 103.481C186.087 108.799 191.807 117.318 191.807 127.001C191.807 136.684 186.087 145.203 177.314 150.521C186.936 145.557 193.271 136.835 193.271 127.001Z" fill="url(#paint2_linear_17100_4648)"/>
<path fill-rule="evenodd" clip-rule="evenodd" d="M144.957 103.481C135.336 108.444 129 117.167 129 127.001C129 136.835 135.336 145.557 144.957 150.521C136.184 145.203 130.464 136.684 130.464 127.001C130.464 117.318 136.184 108.799 144.957 103.481ZM180.095 150.521C171.322 145.203 165.602 136.684 165.602 127.001C165.602 117.318 171.322 108.799 180.095 103.481C170.473 108.444 164.138 117.167 164.138 127.001C164.138 136.835 170.473 145.557 180.095 150.521ZM161.209 127.001C161.209 117.167 167.545 108.444 177.167 103.481C168.394 108.799 162.673 117.318 162.673 127.001C162.673 136.684 168.394 145.203 177.167 150.521C167.545 145.557 161.209 136.835 161.209 127.001ZM174.238 150.521C165.465 145.203 159.745 136.684 159.745 127.001C159.745 117.318 165.465 108.799 174.238 103.481C164.617 108.444 158.281 117.167 158.281 127.001C158.281 136.835 164.617 145.557 174.238 150.521ZM155.353 127.001C155.353 117.167 161.689 108.444 171.31 103.481C162.537 108.799 156.817 117.318 156.817 127.001C156.817 136.684 162.537 145.203 171.31 150.521C161.689 145.557 155.353 136.835 155.353 127.001ZM168.382 150.521C159.609 145.203 153.889 136.684 153.889 127.001C153.889 117.318 159.609 108.799 168.382 103.481C158.761 108.444 152.425 117.167 152.425 127.001C152.425 136.835 158.761 145.557 168.382 150.521ZM149.497 127.001C149.497 117.167 155.832 108.444 165.454 103.481C156.681 108.799 150.961 117.318 150.961 127.001C150.961 136.684 156.681 145.203 165.454 150.521C155.832 145.557 149.497 136.835 149.497 127.001ZM162.526 150.521C153.753 145.203 148.033 136.684 148.033 127.001C148.033 117.318 153.753 108.799 162.526 103.481C152.904 108.444 146.569 117.167 146.569 127.001C146.569 136.835 152.904 145.557 162.526 150.521ZM143.641 127.001C143.641 117.167 149.976 108.444 159.598 103.481C150.825 108.799 145.105 117.318 145.105 127.001C145.105 136.684 150.825 145.203 159.598 150.521C149.976 145.557 143.641 136.835 143.641 127.001ZM156.67 150.521C147.897 145.203 142.177 136.684 142.177 127.001C142.177 117.318 147.897 108.799 156.67 103.481C147.048 108.444 140.713 117.167 140.713 127.001C140.713 136.835 147.048 145.557 156.67 150.521ZM137.784 127.001C137.784 117.167 144.12 108.444 153.742 103.481C144.969 108.799 139.248 117.318 139.248 127.001C139.248 136.684 144.969 145.203 153.742 150.521C144.12 145.557 137.784 136.835 137.784 127.001ZM150.813 150.521C142.04 145.203 136.32 136.684 136.32 127.001C136.32 117.318 142.04 108.799 150.813 103.481C141.192 108.444 134.856 117.167 134.856 127.001C134.856 136.835 141.192 145.557 150.813 150.521ZM131.928 127.001C131.928 117.167 138.264 108.444 147.885 103.481C139.112 108.799 133.392 117.318 133.392 127.001C133.392 136.684 139.112 145.203 147.885 150.521C138.264 145.557 131.928 136.835 131.928 127.001Z" fill="url(#paint3_linear_17100_4648)"/>
<path fill-rule="evenodd" clip-rule="evenodd" d="M180.242 149.96C189.864 154.923 196.199 163.646 196.199 173.48C196.199 183.314 189.864 192.036 180.242 197C189.015 191.682 194.735 183.163 194.735 173.48C194.735 163.797 189.015 155.278 180.242 149.96ZM145.104 197C153.878 191.682 159.598 183.163 159.598 173.48C159.598 163.797 153.878 155.278 145.104 149.96C154.726 154.923 161.062 163.646 161.062 173.48C161.062 183.314 154.726 192.036 145.104 197ZM163.99 173.48C163.99 163.646 157.654 154.923 148.033 149.96C156.806 155.278 162.526 163.797 162.526 173.48C162.526 183.163 156.806 191.682 148.033 197C157.654 192.036 163.99 183.314 163.99 173.48ZM150.961 197C159.734 191.682 165.454 183.163 165.454 173.48C165.454 163.797 159.734 155.278 150.961 149.96C160.582 154.923 166.918 163.646 166.918 173.48C166.918 183.314 160.582 192.036 150.961 197ZM169.846 173.48C169.846 163.646 163.511 154.923 153.889 149.96C162.662 155.278 168.382 163.797 168.382 173.48C168.382 183.163 162.662 191.682 153.889 197C163.511 192.036 169.846 183.314 169.846 173.48ZM156.817 197C165.59 191.682 171.31 183.163 171.31 173.48C171.31 163.797 165.59 155.278 156.817 149.96C166.439 154.923 172.774 163.646 172.774 173.48C172.774 183.314 166.439 192.036 156.817 197ZM175.702 173.48C175.702 163.646 169.367 154.923 159.745 149.96C168.518 155.278 174.238 163.797 174.238 173.48C174.238 183.163 168.518 191.682 159.745 197C169.367 192.036 175.702 183.314 175.702 173.48ZM162.673 197C171.446 191.682 177.166 183.163 177.166 173.48C177.166 163.797 171.446 155.278 162.673 149.96C172.295 154.923 178.63 163.646 178.63 173.48C178.63 183.314 172.295 192.036 162.673 197ZM181.559 173.48C181.559 163.646 175.223 154.923 165.601 149.96C174.374 155.278 180.095 163.797 180.095 173.48C180.095 183.163 174.374 191.682 165.601 197C175.223 192.036 181.559 183.314 181.559 173.48ZM168.529 197C177.303 191.682 183.023 183.163 183.023 173.48C183.023 163.797 177.303 155.278 168.53 149.96C178.151 154.923 184.487 163.646 184.487 173.48C184.487 183.314 178.151 192.036 168.529 197ZM187.415 173.48C187.415 163.646 181.079 154.923 171.458 149.96C180.231 155.278 185.951 163.797 185.951 173.48C185.951 183.163 180.231 191.682 171.458 197C181.079 192.036 187.415 183.314 187.415 173.48ZM174.386 197C183.159 191.682 188.879 183.163 188.879 173.48C188.879 163.797 183.159 155.278 174.386 149.96C184.007 154.923 190.343 163.646 190.343 173.48C190.343 183.314 184.007 192.036 174.386 197ZM193.271 173.48C193.271 163.646 186.936 154.923 177.314 149.96C186.087 155.278 191.807 163.797 191.807 173.48C191.807 183.163 186.087 191.682 177.314 197C186.936 192.036 193.271 183.314 193.271 173.48Z" fill="url(#paint4_linear_17100_4648)"/>
<path fill-rule="evenodd" clip-rule="evenodd" d="M144.957 149.96C135.336 154.923 129 163.646 129 173.48C129 183.314 135.336 192.036 144.957 197C136.184 191.682 130.464 183.163 130.464 173.48C130.464 163.797 136.184 155.278 144.957 149.96ZM180.095 197C171.322 191.682 165.602 183.163 165.602 173.48C165.602 163.797 171.322 155.278 180.095 149.96C170.473 154.923 164.138 163.646 164.138 173.48C164.138 183.314 170.473 192.036 180.095 197ZM161.209 173.48C161.209 163.646 167.545 154.923 177.167 149.96C168.394 155.278 162.673 163.797 162.673 173.48C162.673 183.163 168.394 191.682 177.167 197C167.545 192.036 161.209 183.314 161.209 173.48ZM174.238 197C165.465 191.682 159.745 183.163 159.745 173.48C159.745 163.797 165.465 155.278 174.238 149.96C164.617 154.923 158.281 163.646 158.281 173.48C158.281 183.314 164.617 192.036 174.238 197ZM155.353 173.48C155.353 163.646 161.689 154.923 171.31 149.96C162.537 155.278 156.817 163.797 156.817 173.48C156.817 183.163 162.537 191.682 171.31 197C161.689 192.036 155.353 183.314 155.353 173.48ZM168.382 197C159.609 191.682 153.889 183.163 153.889 173.48C153.889 163.797 159.609 155.278 168.382 149.96C158.761 154.923 152.425 163.646 152.425 173.48C152.425 183.314 158.761 192.036 168.382 197ZM149.497 173.48C149.497 163.646 155.832 154.923 165.454 149.96C156.681 155.278 150.961 163.797 150.961 173.48C150.961 183.163 156.681 191.682 165.454 197C155.832 192.036 149.497 183.314 149.497 173.48ZM162.526 197C153.753 191.682 148.033 183.163 148.033 173.48C148.033 163.797 153.753 155.278 162.526 149.96C152.904 154.923 146.569 163.646 146.569 173.48C146.569 183.314 152.904 192.036 162.526 197ZM143.641 173.48C143.641 163.646 149.976 154.923 159.598 149.96C150.825 155.278 145.105 163.797 145.105 173.48C145.105 183.163 150.825 191.682 159.598 197C149.976 192.036 143.641 183.314 143.641 173.48ZM156.67 197C147.897 191.682 142.177 183.163 142.177 173.48C142.177 163.797 147.897 155.278 156.67 149.96C147.048 154.923 140.713 163.646 140.713 173.48C140.713 183.314 147.048 192.036 156.67 197ZM137.784 173.48C137.784 163.646 144.12 154.923 153.742 149.96C144.969 155.278 139.248 163.797 139.248 173.48C139.248 183.163 144.969 191.682 153.742 197C144.12 192.036 137.784 183.314 137.784 173.48ZM150.813 197C142.04 191.682 136.32 183.163 136.32 173.48C136.32 163.797 142.04 155.278 150.813 149.96C141.192 154.923 134.856 163.646 134.856 173.48C134.856 183.314 141.192 192.036 150.813 197ZM131.928 173.48C131.928 163.646 138.264 154.923 147.885 149.96C139.112 155.278 133.392 163.797 133.392 173.48C133.392 183.163 139.112 191.682 147.885 197C138.264 192.036 131.928 183.314 131.928 173.48Z" fill="url(#paint5_linear_17100_4648)"/>
<defs>
<linearGradient id="paint0_linear_17100_4648" x1="170.726" y1="58.4286" x2="172.12" y2="101.289" gradientUnits="userSpaceOnUse">
<stop offset="0.00987718" stop-color="white" stop-opacity="0"/>
<stop offset="0.494792" stop-color="#FFF9F9" stop-opacity="0.4"/>
<stop offset="1" stop-color="white" stop-opacity="0"/>
</linearGradient>
<linearGradient id="paint1_linear_17100_4648" x1="164.504" y1="51.2333" x2="164.504" y2="109.806" gradientUnits="userSpaceOnUse">
<stop stop-color="#222D26"/>
<stop offset="0.450759" stop-color="white"/>
<stop offset="1" stop-color="#222D26"/>
</linearGradient>
<linearGradient id="paint2_linear_17100_4648" x1="170.726" y1="104.91" x2="172.12" y2="147.77" gradientUnits="userSpaceOnUse">
<stop offset="0.00987718" stop-color="white" stop-opacity="0"/>
<stop offset="0.494792" stop-color="#FFF9F9" stop-opacity="0.4"/>
<stop offset="1" stop-color="white" stop-opacity="0"/>
</linearGradient>
<linearGradient id="paint3_linear_17100_4648" x1="164.504" y1="97.7142" x2="164.504" y2="156.287" gradientUnits="userSpaceOnUse">
<stop stop-color="#222D26"/>
<stop offset="0.450759" stop-color="white"/>
<stop offset="1" stop-color="#222D26"/>
</linearGradient>
<linearGradient id="paint4_linear_17100_4648" x1="170.726" y1="151.389" x2="172.12" y2="194.249" gradientUnits="userSpaceOnUse">
<stop offset="0.00987718" stop-color="white" stop-opacity="0"/>
<stop offset="0.494792" stop-color="#FFF9F9" stop-opacity="0.4"/>
<stop offset="1" stop-color="white" stop-opacity="0"/>
</linearGradient>
<linearGradient id="paint5_linear_17100_4648" x1="164.504" y1="144.193" x2="164.504" y2="202.766" gradientUnits="userSpaceOnUse">
<stop stop-color="#222D26"/>
<stop offset="0.450759" stop-color="white"/>
<stop offset="1" stop-color="#222D26"/>
</linearGradient>
</defs>
</svg>
