<svg width="64" height="64" viewBox="0 0 64 64" fill="none" xmlns="http://www.w3.org/2000/svg">
<rect width="64" height="64" rx="32" fill="#07130C"/>
<path d="M34.667 27.3333L32.0003 22.6667L34.667 18L37.3337 22.6667H42.667L40.0003 27.3333H34.667Z" fill="#49FF86"/>
<path d="M40.0003 36.6667L37.3337 32L40.0003 27.3333H45.3337L42.667 32L45.3337 36.6667H40.0003Z" fill="#49FF86"/>
<path d="M32.0003 41.3333L34.667 36.6667H40.0003L42.667 41.3333H37.3337L34.667 46L32.0003 41.3333Z" fill="#49FF86"/>
<path d="M24.0003 36.6667H29.3337L32.0003 41.3333L29.3337 46L26.667 41.3333H21.3337L24.0003 36.6667Z" fill="#49FF86"/>
<path d="M24.0003 27.3333H29.3337L32.0003 22.6667L29.3337 18L26.667 22.6667H21.3337L24.0003 27.3333Z" fill="#49FF86"/>
<path d="M24.0003 27.3333H18.667L21.3337 32L18.667 36.6667H24.0003L26.667 32L24.0003 27.3333Z" fill="#49FF86"/>
</svg>
