<svg width="326" height="254" viewBox="0 0 326 254" fill="none" xmlns="http://www.w3.org/2000/svg">
<rect x="0.333008" width="325.333" height="254" rx="8" fill="#222D26"/>
<path fill-rule="evenodd" clip-rule="evenodd" d="M162.966 69.069C148.063 69.069 134.502 74.7966 124.357 84.1725C113.11 94.5683 106.069 109.444 106.069 125.966H104C104 108.843 111.299 93.4241 122.953 82.6531C133.464 72.9379 147.523 67 162.966 67V69.069Z" fill="url(#paint0_linear_17100_4626)"/>
<path fill-rule="evenodd" clip-rule="evenodd" d="M163.986 69.0779C163.646 69.072 163.306 69.069 162.966 69.069V67C163.319 67 163.671 67.0031 164.022 67.0093L163.986 69.0779ZM168.042 69.2923C167.369 69.2328 166.693 69.185 166.013 69.1492L166.122 67.0831C166.826 67.1202 167.527 67.1697 168.224 67.2313L168.042 69.2923ZM172.072 69.7936C171.406 69.6865 170.736 69.5909 170.063 69.5071L170.318 67.454C171.016 67.5408 171.71 67.6399 172.4 67.7509L172.072 69.7936ZM176.057 70.5821C175.399 70.4272 174.737 70.2838 174.071 70.152L174.473 68.1223C175.163 68.259 175.85 68.4077 176.531 68.5682L176.057 70.5821ZM179.973 71.6539C179.328 71.4524 178.679 71.262 178.025 71.083L178.571 69.0874C179.249 69.273 179.922 69.4704 180.59 69.6793L179.973 71.6539ZM183.804 73.0056C183.175 72.7579 182.541 72.5211 181.901 72.2954L182.589 70.3443C183.252 70.5783 183.91 70.8238 184.562 71.0805L183.804 73.0056ZM187.526 74.628C186.917 74.3359 186.301 74.0543 185.68 73.7834L186.506 71.8868C187.15 72.1676 187.788 72.4595 188.42 72.7623L187.526 74.628ZM191.124 76.514C190.537 76.1788 189.943 75.8537 189.342 75.539L190.303 73.7065C190.925 74.0326 191.541 74.3696 192.15 74.7171L191.124 76.514ZM194.578 78.6517C194.015 78.2753 193.446 77.9086 192.87 77.552L193.959 75.7928C194.556 76.1624 195.146 76.5424 195.729 76.9325L194.578 78.6517ZM197.871 81.0305C197.337 80.6149 196.795 80.2086 196.246 79.8119L197.457 78.1347C198.026 78.5458 198.588 78.9668 199.141 79.3975L197.871 81.0305ZM200.987 83.637C200.483 83.1844 199.971 82.7407 199.452 82.306L200.779 80.7192C201.318 81.1695 201.848 81.6293 202.37 82.0983L200.987 83.637ZM203.91 86.4582C203.439 85.9709 202.96 85.492 202.473 85.0217L203.91 83.533C204.415 84.0203 204.911 84.5165 205.398 85.0214L203.91 86.4582ZM206.625 89.4796C206.191 88.96 205.747 88.4483 205.294 87.9448L206.833 86.5617C207.302 87.0835 207.762 87.6136 208.212 88.152L206.625 89.4796ZM209.119 92.6857C208.723 92.1365 208.316 91.5947 207.901 91.0605L209.534 89.7901C209.965 90.3437 210.386 90.9051 210.797 91.4742L209.119 92.6857ZM211.379 96.0614C211.023 95.4852 210.656 94.9159 210.28 94.3536L211.999 93.2026C212.389 93.7853 212.769 94.3753 213.139 94.9724L211.379 96.0614ZM213.392 99.5889C213.078 98.9886 212.753 98.3945 212.417 97.807L214.214 96.7816C214.562 97.3905 214.899 98.0062 215.225 98.6284L213.392 99.5889ZM215.148 103.252C214.877 102.63 214.595 102.015 214.303 101.405L216.169 100.511C216.472 101.143 216.764 101.781 217.045 102.425L215.148 103.252ZM216.636 107.031C216.41 106.391 216.173 105.756 215.926 105.127L217.851 104.369C218.108 105.021 218.353 105.679 218.587 106.342L216.636 107.031ZM217.848 110.906C217.669 110.252 217.479 109.603 217.277 108.959L219.252 108.341C219.461 109.009 219.658 109.682 219.844 110.36L217.848 110.906ZM218.779 114.86C218.648 114.194 218.504 113.532 218.349 112.874L220.363 112.4C220.524 113.082 220.672 113.768 220.809 114.459L218.779 114.86ZM219.424 118.869C219.34 118.195 219.245 117.525 219.138 116.859L221.18 116.531C221.291 117.221 221.391 117.915 221.477 118.613L219.424 118.869ZM219.782 122.918C219.746 122.239 219.699 121.562 219.639 120.889L221.7 120.707C221.762 121.405 221.811 122.105 221.848 122.809L219.782 122.918ZM219.862 125.966C219.862 125.625 219.859 125.285 219.853 124.946L221.922 124.909C221.928 125.261 221.931 125.613 221.931 125.966H219.862Z" fill="url(#paint1_linear_17100_4626)"/>
<path fill-rule="evenodd" clip-rule="evenodd" d="M162.965 184.931C177.867 184.931 191.429 179.203 201.573 169.828C212.821 159.432 219.862 144.556 219.862 128.034H221.931C221.931 145.157 214.631 160.576 202.978 171.347C192.466 181.062 178.408 187 162.965 187V184.931Z" fill="url(#paint2_linear_17100_4626)"/>
<path fill-rule="evenodd" clip-rule="evenodd" d="M161.945 184.922C162.284 184.928 162.624 184.931 162.965 184.931V187C162.612 187 162.26 186.997 161.909 186.991L161.945 184.922ZM157.889 184.708C158.562 184.767 159.238 184.815 159.918 184.851L159.809 186.917C159.105 186.88 158.404 186.83 157.707 186.769L157.889 184.708ZM153.859 184.206C154.525 184.314 155.195 184.409 155.868 184.493L155.613 186.546C154.915 186.459 154.221 186.36 153.53 186.249L153.859 184.206ZM149.873 183.418C150.531 183.573 151.193 183.716 151.86 183.848L151.458 185.878C150.767 185.741 150.081 185.592 149.399 185.432L149.873 183.418ZM145.958 182.346C146.602 182.548 147.252 182.738 147.906 182.917L147.359 184.913C146.681 184.727 146.008 184.53 145.34 184.321L145.958 182.346ZM142.127 180.994C142.756 181.242 143.39 181.479 144.03 181.705L143.341 183.656C142.678 183.422 142.021 183.176 141.369 182.919L142.127 180.994ZM138.405 179.372C139.014 179.664 139.63 179.946 140.251 180.217L139.424 182.113C138.78 181.832 138.142 181.541 137.51 181.238L138.405 179.372ZM134.806 177.486C135.394 177.821 135.988 178.146 136.588 178.461L135.628 180.294C135.005 179.967 134.39 179.63 133.781 179.283L134.806 177.486ZM131.353 175.348C131.915 175.725 132.485 176.091 133.061 176.448L131.972 178.207C131.375 177.838 130.785 177.458 130.202 177.068L131.353 175.348ZM128.06 172.97C128.594 173.385 129.136 173.791 129.685 174.188L128.474 175.865C127.904 175.454 127.343 175.033 126.789 174.603L128.06 172.97ZM124.944 170.363C125.448 170.816 125.959 171.259 126.479 171.694L125.151 173.281C124.613 172.83 124.083 172.371 123.561 171.902L124.944 170.363ZM122.021 167.542C122.491 168.029 122.97 168.508 123.458 168.978L122.021 170.467C121.516 169.98 121.02 169.483 120.532 168.979L122.021 167.542ZM119.305 164.52C119.74 165.04 120.184 165.552 120.636 166.055L119.098 167.438C118.629 166.917 118.169 166.386 117.718 165.848L119.305 164.52ZM116.811 161.314C117.208 161.863 117.614 162.405 118.03 162.94L116.397 164.21C115.966 163.656 115.545 163.095 115.134 162.526L116.811 161.314ZM114.551 157.939C114.908 158.515 115.275 159.084 115.651 159.646L113.932 160.797C113.542 160.215 113.162 159.625 112.792 159.028L114.551 157.939ZM112.538 154.411C112.853 155.011 113.178 155.605 113.513 156.193L111.716 157.218C111.369 156.61 111.032 155.994 110.706 155.372L112.538 154.411ZM110.783 150.748C111.054 151.37 111.335 151.985 111.627 152.595L109.762 153.489C109.459 152.857 109.167 152.219 108.886 151.575L110.783 150.748ZM109.295 146.969C109.52 147.609 109.757 148.244 110.005 148.873L108.08 149.631C107.823 148.979 107.578 148.321 107.344 147.658L109.295 146.969ZM108.082 143.094C108.261 143.748 108.452 144.397 108.653 145.041L106.679 145.659C106.47 144.991 106.272 144.318 106.087 143.64L108.082 143.094ZM107.151 139.14C107.283 139.806 107.427 140.468 107.581 141.126L105.568 141.6C105.407 140.918 105.258 140.232 105.122 139.541L107.151 139.14ZM106.506 135.131C106.59 135.805 106.686 136.475 106.793 137.141L104.75 137.469C104.639 136.779 104.54 136.085 104.453 135.387L106.506 135.131ZM106.148 131.082C106.184 131.761 106.232 132.438 106.292 133.111L104.231 133.293C104.169 132.595 104.12 131.895 104.082 131.191L106.148 131.082ZM106.068 128.034C106.068 128.375 106.071 128.715 106.077 129.054L104.009 129.091C104.002 128.739 103.999 128.387 103.999 128.034H106.068Z" fill="url(#paint3_linear_17100_4626)"/>
<path fill-rule="evenodd" clip-rule="evenodd" d="M204.313 127.592L200.178 127.432C200.197 126.945 200.207 126.456 200.207 125.965C200.207 125.473 200.197 124.984 200.178 124.498L204.313 124.338C204.334 124.878 204.345 125.42 204.345 125.965C204.345 126.51 204.334 127.052 204.313 127.592ZM204.061 121.098L199.952 121.58C199.837 120.605 199.686 119.642 199.498 118.692L203.557 117.889C203.766 118.945 203.935 120.015 204.061 121.098ZM202.801 114.728L198.818 115.849C198.552 114.908 198.251 113.981 197.915 113.071L201.797 111.639C202.171 112.651 202.506 113.681 202.801 114.728ZM200.553 108.636L196.796 110.371C196.386 109.484 195.943 108.616 195.467 107.768L199.075 105.743C199.604 106.685 200.097 107.65 200.553 108.636ZM197.375 102.974L193.936 105.276C193.393 104.464 192.819 103.675 192.215 102.91L195.463 100.346C196.133 101.196 196.771 102.072 197.375 102.974ZM193.351 97.8764L190.313 100.686C189.651 99.9696 188.96 99.2792 188.244 98.6166L191.054 95.5787C191.849 96.3144 192.616 97.081 193.351 97.8764ZM188.584 93.4673L186.02 96.7152C185.255 96.1114 184.466 95.5369 183.654 94.9936L185.956 91.5552C186.858 92.1587 187.734 92.7967 188.584 93.4673ZM183.187 89.8549L181.162 93.4634C180.314 92.9875 179.446 92.5439 178.559 92.1342L180.294 88.3775C181.28 88.8329 182.245 89.326 183.187 89.8549ZM177.291 87.1325L175.859 91.0145C174.949 90.6788 174.022 90.3775 173.081 90.1125L174.202 86.1293C175.249 86.4241 176.28 86.7591 177.291 87.1325ZM171.041 85.3731L170.238 89.4323C169.288 89.2445 168.325 89.0926 167.35 88.9784L167.832 84.8686C168.915 84.9955 169.985 85.1642 171.041 85.3731ZM164.592 84.6168L164.432 88.7517C163.946 88.7329 163.457 88.7234 162.965 88.7234C162.474 88.7234 161.985 88.7329 161.498 88.7517L161.338 84.6168C161.878 84.596 162.42 84.5854 162.965 84.5854C163.51 84.5854 164.052 84.596 164.592 84.6168ZM158.099 84.8686L158.58 88.9784C157.605 89.0926 156.642 89.2445 155.693 89.4323L154.89 85.3731C155.945 85.1642 157.016 84.9955 158.099 84.8686ZM151.729 86.1293L152.85 90.1125C151.908 90.3775 150.982 90.6788 150.072 91.0145L148.639 87.1325C149.651 86.7591 150.681 86.4241 151.729 86.1293ZM145.637 88.3775L147.372 92.1342C146.485 92.5439 145.616 92.9875 144.768 93.4634L142.743 89.8549C143.685 89.326 144.651 88.8329 145.637 88.3775ZM139.974 91.5552L142.276 94.9936C141.465 95.5369 140.676 96.1114 139.911 96.7152L137.347 93.4673C138.196 92.7967 139.073 92.1587 139.974 91.5552ZM134.877 95.5787L137.686 98.6166C136.97 99.2792 136.28 99.9696 135.617 100.686L132.579 97.8764C133.315 97.081 134.081 96.3144 134.877 95.5787ZM130.468 100.346L133.716 102.91C133.112 103.675 132.537 104.464 131.994 105.276L128.556 102.974C129.159 102.072 129.797 101.196 130.468 100.346ZM126.855 105.743L130.464 107.768C129.988 108.616 129.544 109.484 129.135 110.371L125.378 108.636C125.833 107.65 126.326 106.685 126.855 105.743ZM124.133 111.639L128.015 113.071C127.679 113.981 127.378 114.908 127.113 115.849L123.13 114.728C123.425 113.681 123.76 112.65 124.133 111.639ZM122.374 117.889L126.433 118.692C126.245 119.642 126.093 120.605 125.979 121.58L121.869 121.098C121.996 120.015 122.165 118.945 122.374 117.889ZM121.617 124.338C121.596 124.878 121.586 125.42 121.586 125.965C121.586 126.51 121.596 127.052 121.617 127.592L125.752 127.432C125.733 126.945 125.724 126.456 125.724 125.965C125.724 125.473 125.733 124.984 125.752 124.498L121.617 124.338ZM121.869 130.831L125.979 130.35C126.093 131.325 126.245 132.288 126.433 133.237L122.374 134.04C122.165 132.985 121.996 131.914 121.869 130.831ZM123.13 137.201L127.113 136.08C127.378 137.022 127.679 137.948 128.015 138.858L124.133 140.291C123.76 139.279 123.425 138.249 123.13 137.201ZM125.378 143.293L129.135 141.558C129.544 142.445 129.988 143.314 130.464 144.162L126.855 146.187C126.326 145.245 125.833 144.279 125.378 143.293ZM128.556 148.956L131.994 146.654C132.537 147.465 133.112 148.254 133.716 149.019L130.468 151.583C129.797 150.734 129.159 149.857 128.556 148.956ZM132.579 154.053L135.617 151.244C136.28 151.96 136.97 152.65 137.686 153.313L134.877 156.351C134.081 155.615 133.315 154.849 132.579 154.053ZM137.347 158.462L139.911 155.214C140.676 155.818 141.465 156.393 142.276 156.936L139.974 160.374C139.073 159.771 138.196 159.133 137.347 158.462ZM142.743 162.075C143.685 162.604 144.651 163.097 145.637 163.552L147.372 159.795C146.485 159.386 145.616 158.942 144.768 158.466L142.743 162.075ZM148.639 164.797L150.072 160.915C150.982 161.251 151.908 161.552 152.85 161.817L151.729 165.8C150.681 165.505 149.651 165.17 148.639 164.797ZM154.89 166.556L155.693 162.497C156.642 162.685 157.605 162.837 158.58 162.951L158.099 167.061C157.016 166.934 155.945 166.765 154.89 166.556ZM161.338 167.313L161.498 163.178C161.985 163.197 162.474 163.206 162.965 163.206C163.457 163.206 163.946 163.197 164.432 163.178L164.592 167.313C164.052 167.334 163.51 167.344 162.965 167.344C162.42 167.344 161.878 167.334 161.338 167.313ZM167.832 167.061L167.35 162.951C168.325 162.837 169.288 162.685 170.238 162.497L171.041 166.556C169.985 166.765 168.915 166.934 167.832 167.061ZM174.202 165.8L173.081 161.817C174.022 161.552 174.949 161.251 175.859 160.915L177.291 164.797C176.28 165.17 175.249 165.505 174.202 165.8ZM180.294 163.552C181.28 163.097 182.245 162.604 183.187 162.075L181.162 158.466C180.314 158.942 179.446 159.386 178.559 159.795L180.294 163.552ZM185.956 160.374L183.654 156.936C184.466 156.393 185.255 155.818 186.02 155.214L188.584 158.462C187.734 159.133 186.858 159.771 185.956 160.374ZM191.054 156.351L188.244 153.313C188.96 152.65 189.651 151.96 190.313 151.244L193.351 154.053C192.616 154.849 191.849 155.615 191.054 156.351ZM195.463 151.583L192.215 149.019C192.819 148.254 193.393 147.465 193.936 146.654L197.375 148.956C196.771 149.857 196.133 150.734 195.463 151.583ZM199.075 146.187C199.604 145.245 200.097 144.279 200.553 143.293L196.796 141.558C196.386 142.445 195.943 143.314 195.467 144.162L199.075 146.187ZM201.797 140.291L197.915 138.858C198.251 137.948 198.552 137.022 198.818 136.08L202.801 137.201C202.506 138.249 202.171 139.279 201.797 140.291ZM203.557 134.04L199.498 133.237C199.686 132.288 199.837 131.325 199.952 130.35L204.061 130.831C203.935 131.914 203.766 132.985 203.557 134.04Z" fill="url(#paint4_radial_17100_4626)"/>
<path fill-rule="evenodd" clip-rule="evenodd" d="M212.618 126.481L210.549 126.46C210.551 126.296 210.552 126.131 210.552 125.966C210.552 125.801 210.551 125.636 210.549 125.471L212.618 125.45C212.62 125.622 212.621 125.794 212.621 125.966C212.621 126.138 212.62 126.31 212.618 126.481ZM212.597 124.423C212.587 124.081 212.573 123.741 212.556 123.401L210.489 123.506C210.506 123.832 210.519 124.158 210.529 124.486L212.597 124.423ZM212.493 122.373L210.429 122.521C210.406 122.193 210.379 121.867 210.349 121.541L212.409 121.351C212.441 121.691 212.469 122.032 212.493 122.373ZM212.305 120.33L210.249 120.562C210.212 120.236 210.172 119.91 210.128 119.586L212.179 119.311C212.224 119.65 212.266 119.989 212.305 120.33ZM212.032 118.297L209.988 118.614C209.937 118.289 209.884 117.965 209.827 117.642L211.864 117.283C211.924 117.62 211.98 117.958 212.032 118.297ZM211.676 116.275C211.609 115.939 211.539 115.603 211.466 115.269L209.445 115.713C209.515 116.033 209.582 116.354 209.646 116.676L211.676 116.275ZM211.235 114.269L209.224 114.755C209.147 114.436 209.067 114.119 208.984 113.802L210.984 113.275C211.071 113.605 211.155 113.937 211.235 114.269ZM210.712 112.284L208.723 112.853C208.633 112.538 208.54 112.224 208.443 111.912L210.42 111.302C210.521 111.628 210.618 111.955 210.712 112.284ZM210.107 110.323L208.143 110.974C208.04 110.663 207.933 110.353 207.824 110.045L209.774 109.353C209.888 109.675 209.999 109.998 210.107 110.323ZM209.42 108.389L207.485 109.122C207.369 108.815 207.25 108.509 207.128 108.205L209.047 107.433C209.175 107.75 209.299 108.069 209.42 108.389ZM208.654 106.486L206.751 107.298C206.622 106.996 206.49 106.696 206.355 106.397L208.241 105.545C208.382 105.857 208.52 106.17 208.654 106.486ZM207.809 104.615L205.942 105.506C205.8 105.209 205.656 104.915 205.509 104.622L207.357 103.693C207.511 103.998 207.662 104.306 207.809 104.615ZM206.887 102.781L205.058 103.748C204.905 103.458 204.748 103.17 204.589 102.884L206.398 101.878C206.564 102.177 206.727 102.478 206.887 102.781ZM205.89 100.986L204.102 102.029C203.937 101.745 203.769 101.464 203.598 101.185L205.364 100.106C205.542 100.397 205.717 100.691 205.89 100.986ZM204.819 99.2349L203.077 100.35C202.9 100.074 202.72 99.7998 202.538 99.5275L204.257 98.3765C204.447 98.6606 204.635 98.9468 204.819 99.2349ZM203.677 97.5294L201.982 98.7156C201.794 98.4468 201.603 98.1801 201.41 97.9155L203.08 96.6946C203.282 96.9707 203.481 97.249 203.677 97.5294ZM202.466 95.8723C202.259 95.6002 202.048 95.3303 201.835 95.0627L200.216 96.3513C200.421 96.6079 200.622 96.8665 200.821 97.1273L202.466 95.8723ZM201.188 94.2665L199.596 95.5881C199.386 95.3357 199.174 95.0855 198.96 94.8375L200.524 93.4835C200.748 93.7421 200.969 94.0032 201.188 94.2665ZM199.844 92.7144L198.308 94.1004C198.088 93.8569 197.866 93.6156 197.642 93.3767L199.149 91.9595C199.383 92.2087 199.615 92.4604 199.844 92.7144ZM198.438 91.2189L196.96 92.6668C196.731 92.4325 196.499 92.2006 196.265 91.9711L197.713 90.4932C197.957 90.7326 198.199 90.9745 198.438 91.2189ZM196.972 89.7825L195.555 91.2899C195.316 91.0652 195.075 90.843 194.831 90.6233L196.217 89.0871C196.471 89.3163 196.723 89.5482 196.972 89.7825ZM195.448 88.4075L194.094 89.9718C193.846 89.7572 193.596 89.5451 193.343 89.3355L194.665 87.7437C194.928 87.9623 195.189 88.1836 195.448 88.4075ZM193.869 87.0963L192.58 88.715C192.324 88.5108 192.065 88.3091 191.804 88.1101L193.059 86.4653C193.331 86.6729 193.601 86.8833 193.869 87.0963ZM192.237 85.8512L191.016 87.5215C190.751 87.3281 190.485 87.1373 190.216 86.9492L191.402 85.2541C191.682 85.4503 191.961 85.6493 192.237 85.8512ZM190.555 84.6742L189.404 86.3934C189.132 86.2112 188.857 86.0316 188.581 85.8549L189.696 84.1122C189.985 84.2967 190.271 84.484 190.555 84.6742ZM188.826 83.5676L187.747 85.333C187.467 85.1621 187.186 84.9941 186.903 84.8289L187.945 83.0417C188.241 83.2141 188.534 83.3894 188.826 83.5676ZM187.053 82.5337L186.048 84.3421C185.762 84.183 185.473 84.0267 185.183 83.8733L186.151 82.0445C186.453 82.2045 186.754 82.3676 187.053 82.5337ZM185.239 81.5741L184.31 83.4226C184.017 83.2754 183.722 83.1311 183.426 82.9898L184.317 81.1224C184.626 81.2698 184.933 81.4204 185.239 81.5741ZM183.386 80.6905L182.535 82.576C182.236 82.441 181.935 82.309 181.633 82.1801L182.446 80.2773C182.761 80.4119 183.075 80.5496 183.386 80.6905ZM181.499 79.8845L180.726 81.8038C180.422 81.6815 180.117 81.5622 179.81 81.446L180.542 79.511C180.863 79.6323 181.181 79.7568 181.499 79.8845ZM179.579 79.1577L178.887 81.1075C178.578 80.998 178.268 80.8916 177.957 80.7884L178.608 78.8246C178.933 78.9324 179.257 79.0434 179.579 79.1577ZM177.63 78.5113L177.019 80.4882C176.707 80.3918 176.393 80.2986 176.078 80.2084L176.647 78.2192C176.976 78.3133 177.303 78.4107 177.63 78.5113ZM175.656 77.947L175.129 79.9477C174.813 79.8643 174.495 79.7841 174.177 79.7072L174.662 77.696C174.995 77.7763 175.326 77.86 175.656 77.947ZM173.662 77.4655L173.218 79.4863C172.898 79.4161 172.577 79.3491 172.255 79.2853L172.656 77.2557C172.993 77.3222 173.328 77.3922 173.662 77.4655ZM171.649 77.0672L171.29 79.1047C170.967 79.0477 170.643 78.994 170.317 78.9436L170.634 76.8991C170.974 76.9517 171.312 77.0077 171.649 77.0672ZM169.621 76.7526L169.346 78.8033C169.021 78.7598 168.696 78.7196 168.369 78.6827L168.601 76.6268C168.942 76.6653 169.282 76.7073 169.621 76.7526ZM167.58 76.5221L167.39 78.5823C167.065 78.5524 166.738 78.5256 166.411 78.5022L166.558 76.4385C166.9 76.4629 167.24 76.4908 167.58 76.5221ZM165.531 76.3757L165.426 78.4419C165.1 78.4254 164.773 78.4121 164.445 78.4021L164.509 76.3341C164.85 76.3445 165.191 76.3584 165.531 76.3757ZM163.481 76.3132L163.46 78.382C163.296 78.3804 163.131 78.3795 162.966 78.3795C162.801 78.3795 162.636 78.3804 162.471 78.382L162.45 76.3132C162.622 76.3114 162.794 76.3105 162.966 76.3105C163.138 76.3105 163.31 76.3114 163.481 76.3132ZM161.423 76.3341L161.486 78.4021C161.158 78.4121 160.832 78.4254 160.506 78.4419L160.401 76.3757C160.741 76.3584 161.081 76.3445 161.423 76.3341ZM159.373 76.4385L159.521 78.5022C159.193 78.5256 158.867 78.5524 158.541 78.5824L158.351 76.5221C158.691 76.4908 159.032 76.4629 159.373 76.4385ZM157.33 76.6268L157.562 78.6827C157.236 78.7196 156.91 78.7598 156.586 78.8033L156.311 76.7526C156.65 76.7073 156.989 76.6653 157.33 76.6268ZM155.297 76.8991L155.614 78.9436C155.289 78.994 154.965 79.0478 154.642 79.1047L154.283 77.0672C154.62 77.0077 154.958 76.9517 155.297 76.8991ZM153.275 77.2557L153.676 79.2853C153.354 79.3491 153.033 79.4161 152.713 79.4863L152.269 77.4655C152.603 77.3922 152.939 77.3222 153.275 77.2557ZM151.269 77.696L151.755 79.7072C151.436 79.7841 151.119 79.8643 150.802 79.9477L150.275 77.947C150.605 77.86 150.937 77.7763 151.269 77.696ZM149.284 78.2192L149.853 80.2085C149.538 80.2986 149.224 80.3918 148.912 80.4882L148.302 78.5113C148.628 78.4107 148.955 78.3133 149.284 78.2192ZM147.323 78.8246L147.974 80.7884C147.663 80.8916 147.353 80.998 147.045 81.1075L146.353 79.1577C146.675 79.0434 146.998 78.9324 147.323 78.8246ZM145.389 79.511L146.122 81.446C145.815 81.5622 145.509 81.6815 145.205 81.8038L144.433 79.8845C144.75 79.7568 145.069 79.6323 145.389 79.511ZM143.486 80.2773L144.298 82.1801C143.996 82.3091 143.696 82.441 143.397 82.576L142.545 80.6905C142.857 80.5496 143.17 80.4119 143.486 80.2773ZM141.615 81.1224L142.506 82.9898C142.209 83.1311 141.915 83.2754 141.622 83.4226L140.693 81.5741C140.998 81.4204 141.306 81.2698 141.615 81.1224ZM139.781 82.0445L140.748 83.8734C140.458 84.0267 140.17 84.183 139.884 84.3422L138.878 82.5337C139.177 82.3676 139.478 82.2046 139.781 82.0445ZM137.986 83.0417L139.029 84.829C138.745 84.9941 138.464 85.1621 138.185 85.333L137.106 83.5677C137.397 83.3894 137.691 83.2141 137.986 83.0417ZM136.235 84.1122L137.35 85.8549C137.074 86.0316 136.8 86.2112 136.528 86.3934L135.377 84.6742C135.661 84.484 135.947 84.2967 136.235 84.1122ZM134.529 85.2541L135.716 86.9492C135.447 87.1373 135.18 87.3281 134.916 87.5215L133.695 85.8512C133.971 85.6494 134.249 85.4503 134.529 85.2541ZM132.872 86.4653C132.6 86.6729 132.33 86.8833 132.063 87.0963L133.351 88.715C133.608 88.5108 133.867 88.3091 134.127 88.1101L132.872 86.4653ZM131.266 87.7437L132.588 89.3355C132.336 89.5451 132.086 89.7572 131.838 89.9718L130.483 88.4075C130.742 88.1836 131.003 87.9623 131.266 87.7437ZM129.714 89.0871L131.1 90.6233C130.857 90.843 130.616 91.0652 130.377 91.2899L128.959 89.7825C129.209 89.5482 129.46 89.3164 129.714 89.0871ZM128.219 90.4932L129.667 91.9711C129.433 92.2006 129.201 92.4326 128.971 92.6668L127.493 91.2189C127.733 90.9746 127.975 90.7326 128.219 90.4932ZM126.782 91.9595L128.29 93.3767C128.065 93.6156 127.843 93.8569 127.623 94.1004L126.087 92.7145C126.316 92.4604 126.548 92.2087 126.782 91.9595ZM125.408 93.4835L126.972 94.8375C126.757 95.0855 126.545 95.3357 126.336 95.5881L124.744 94.2665C124.962 94.0032 125.184 93.7421 125.408 93.4835ZM124.096 95.0627L125.715 96.3513C125.511 96.6079 125.309 96.8666 125.11 97.1274L123.465 95.8723C123.673 95.6002 123.883 95.3303 124.096 95.0627ZM122.851 96.6946L124.521 97.9155C124.328 98.1802 124.137 98.4469 123.949 98.7156L122.254 97.5294C122.45 97.249 122.649 96.9707 122.851 96.6946ZM121.674 98.3765L123.393 99.5275C123.211 99.7998 123.032 100.074 122.855 100.35L121.112 99.235C121.297 98.9468 121.484 98.6606 121.674 98.3765ZM120.568 100.106L122.333 101.185C122.162 101.464 121.994 101.745 121.829 102.029L120.042 100.986C120.214 100.691 120.389 100.397 120.568 100.106ZM119.534 101.878L121.342 102.884C121.183 103.17 121.027 103.458 120.873 103.748L119.044 102.781C119.205 102.478 119.368 102.177 119.534 101.878ZM118.574 103.693L120.423 104.622C120.275 104.915 120.131 105.209 119.99 105.506L118.122 104.615C118.27 104.306 118.42 103.998 118.574 103.693ZM117.69 105.545L119.576 106.397C119.441 106.696 119.309 106.996 119.18 107.298L117.277 106.486C117.412 106.17 117.55 105.857 117.69 105.545ZM116.884 107.433L118.804 108.206C118.681 108.509 118.562 108.815 118.446 109.122L116.511 108.389C116.632 108.069 116.757 107.75 116.884 107.433ZM116.158 109.353L118.107 110.045C117.998 110.353 117.892 110.663 117.788 110.975L115.825 110.323C115.932 109.998 116.043 109.675 116.158 109.353ZM115.511 111.302L117.488 111.912C117.392 112.224 117.299 112.538 117.208 112.853L115.219 112.284C115.313 111.955 115.411 111.628 115.511 111.302ZM114.947 113.275L116.948 113.802C116.864 114.119 116.784 114.436 116.707 114.755L114.696 114.269C114.776 113.937 114.86 113.605 114.947 113.275ZM114.465 115.27L116.486 115.713C116.416 116.033 116.349 116.354 116.285 116.676L114.256 116.275C114.322 115.939 114.392 115.603 114.465 115.27ZM114.067 117.283L116.105 117.642C116.048 117.965 115.994 118.289 115.944 118.614L113.899 118.297C113.952 117.958 114.008 117.62 114.067 117.283ZM113.753 119.311L115.803 119.586C115.76 119.91 115.72 120.236 115.683 120.562L113.627 120.33C113.665 119.989 113.707 119.65 113.753 119.311ZM113.522 121.351L115.582 121.541C115.552 121.867 115.526 122.193 115.502 122.521L113.439 122.373C113.463 122.032 113.491 121.691 113.522 121.351ZM113.376 123.401L115.442 123.506C115.425 123.832 115.412 124.158 115.402 124.486L113.334 124.423C113.344 124.081 113.358 123.741 113.376 123.401ZM113.313 125.45C113.311 125.622 113.311 125.794 113.311 125.966C113.311 126.138 113.311 126.31 113.313 126.481L115.382 126.46C115.38 126.296 115.38 126.131 115.38 125.966C115.38 125.801 115.38 125.636 115.382 125.471L113.313 125.45ZM113.334 127.509L115.402 127.445C115.412 127.773 115.425 128.1 115.442 128.426L113.376 128.531C113.358 128.191 113.344 127.85 113.334 127.509ZM113.439 129.558L115.502 129.411C115.526 129.738 115.552 130.065 115.582 130.39L113.522 130.58C113.491 130.241 113.463 129.9 113.439 129.558ZM113.627 131.601L115.683 131.369C115.72 131.696 115.76 132.021 115.803 132.346L113.753 132.621C113.707 132.282 113.665 131.942 113.627 131.601ZM113.899 133.634L115.944 133.317C115.994 133.643 116.048 133.967 116.105 134.29L114.067 134.649C114.008 134.312 113.952 133.974 113.899 133.634ZM114.256 135.657L116.285 135.255C116.349 135.577 116.416 135.898 116.486 136.218L114.465 136.662C114.392 136.328 114.322 135.993 114.256 135.657ZM114.696 137.662L116.707 137.177C116.784 137.495 116.864 137.813 116.948 138.129L114.947 138.656C114.86 138.326 114.776 137.995 114.696 137.662ZM115.219 139.647L117.208 139.078C117.299 139.393 117.392 139.707 117.488 140.019L115.511 140.63C115.411 140.304 115.313 139.976 115.219 139.647ZM115.825 141.608L117.788 140.957C117.892 141.268 117.998 141.578 118.107 141.887L116.158 142.579C116.043 142.257 115.932 141.933 115.825 141.608ZM116.511 143.542L118.446 142.81C118.562 143.117 118.681 143.422 118.804 143.726L116.885 144.499C116.757 144.181 116.632 143.863 116.511 143.542ZM117.277 145.446L119.18 144.633C119.309 144.935 119.441 145.236 119.576 145.535L117.69 146.386C117.55 146.075 117.412 145.761 117.277 145.446ZM118.122 147.317L119.99 146.426C120.131 146.722 120.275 147.017 120.423 147.31L118.574 148.239C118.42 147.933 118.27 147.626 118.122 147.317ZM119.044 149.151L120.873 148.183C121.027 148.473 121.183 148.762 121.342 149.048L119.534 150.053C119.368 149.754 119.205 149.453 119.044 149.151ZM120.042 150.945L121.829 149.903C121.994 150.186 122.162 150.467 122.333 150.747L120.568 151.826C120.389 151.534 120.214 151.241 120.042 150.945ZM121.112 152.697L122.855 151.581C123.032 151.857 123.211 152.132 123.393 152.404L121.674 153.555C121.484 153.271 121.297 152.985 121.112 152.697ZM122.254 154.402L123.949 153.216C124.137 153.485 124.328 153.751 124.522 154.016L122.851 155.237C122.649 154.961 122.45 154.682 122.254 154.402ZM123.465 156.059L125.11 154.804C125.309 155.065 125.511 155.324 125.715 155.58L124.096 156.869C123.883 156.601 123.673 156.331 123.465 156.059ZM124.744 157.665L126.336 156.343C126.545 156.596 126.757 156.846 126.972 157.094L125.408 158.448C125.184 158.189 124.962 157.928 124.744 157.665ZM126.087 159.217L127.623 157.831C127.843 158.075 128.065 158.316 128.29 158.555L126.783 159.972C126.548 159.723 126.316 159.471 126.087 159.217ZM127.493 160.713L128.971 159.265C129.201 159.499 129.433 159.731 129.667 159.96L128.219 161.438C127.975 161.199 127.733 160.957 127.493 160.713ZM128.959 162.149L130.377 160.642C130.616 160.866 130.857 161.088 131.1 161.308L129.714 162.844C129.46 162.615 129.209 162.383 128.959 162.149ZM130.483 163.524L131.838 161.96C132.086 162.174 132.336 162.386 132.588 162.596L131.266 164.188C131.003 163.969 130.742 163.748 130.483 163.524ZM132.063 164.835L133.351 163.216C133.608 163.421 133.867 163.622 134.127 163.821L132.872 165.466C132.6 165.259 132.33 165.048 132.063 164.835ZM133.695 166.08C133.971 166.282 134.249 166.481 134.529 166.677L135.716 164.982C135.447 164.794 135.18 164.603 134.916 164.41L133.695 166.08ZM135.377 167.257L136.528 165.538C136.8 165.72 137.074 165.9 137.35 166.077L136.235 167.819C135.947 167.635 135.661 167.447 135.377 167.257ZM137.106 168.364L138.185 166.598C138.464 166.769 138.745 166.937 139.029 167.103L137.986 168.89C137.691 168.717 137.397 168.542 137.106 168.364ZM138.878 169.398L139.884 167.589C140.17 167.748 140.458 167.905 140.748 168.058L139.781 169.887C139.478 169.727 139.177 169.564 138.878 169.398ZM140.693 170.357L141.622 168.509C141.915 168.656 142.209 168.8 142.506 168.942L141.615 170.809C141.306 170.662 140.998 170.511 140.693 170.357ZM142.545 171.241L143.397 169.355C143.696 169.49 143.996 169.622 144.298 169.751L143.486 171.654C143.17 171.52 142.857 171.382 142.545 171.241ZM144.433 172.047L145.206 170.128C145.509 170.25 145.815 170.369 146.122 170.485L145.389 172.42C145.069 172.299 144.75 172.175 144.433 172.047ZM146.353 172.774L147.045 170.824C147.353 170.933 147.663 171.04 147.975 171.143L147.323 173.107C146.998 172.999 146.675 172.888 146.353 172.774ZM148.302 173.42L148.912 171.443C149.224 171.54 149.538 171.633 149.853 171.723L149.284 173.712C148.955 173.618 148.628 173.521 148.302 173.42ZM150.275 173.984L150.802 171.984C151.119 172.067 151.436 172.147 151.755 172.224L151.269 174.235C150.937 174.155 150.605 174.071 150.275 173.984ZM152.27 174.466L152.713 172.445C153.033 172.515 153.354 172.582 153.676 172.646L153.275 174.676C152.939 174.609 152.603 174.539 152.27 174.466ZM154.283 174.864C154.62 174.924 154.958 174.98 155.297 175.032L155.614 172.988C155.289 172.937 154.965 172.884 154.642 172.827L154.283 174.864ZM156.311 175.179L156.586 173.128C156.91 173.172 157.236 173.212 157.562 173.249L157.33 175.305C156.989 175.266 156.65 175.224 156.311 175.179ZM158.351 175.409L158.541 173.349C158.867 173.379 159.193 173.406 159.521 173.429L159.373 175.493C159.032 175.469 158.691 175.441 158.351 175.409ZM160.401 175.556L160.506 173.489C160.832 173.506 161.158 173.519 161.486 173.529L161.423 175.597C161.081 175.587 160.741 175.573 160.401 175.556ZM162.45 175.618L162.471 173.549C162.636 173.551 162.801 173.552 162.966 173.552C163.131 173.552 163.296 173.551 163.46 173.549L163.481 175.618C163.31 175.62 163.138 175.621 162.966 175.621C162.794 175.621 162.622 175.62 162.45 175.618ZM164.509 175.597C164.85 175.587 165.191 175.573 165.531 175.556L165.426 173.489C165.1 173.506 164.773 173.519 164.445 173.529L164.509 175.597ZM166.558 175.493L166.411 173.429C166.738 173.406 167.065 173.379 167.39 173.349L167.58 175.409C167.241 175.441 166.9 175.469 166.558 175.493ZM168.601 175.305L168.369 173.249C168.696 173.212 169.021 173.172 169.346 173.128L169.621 175.179C169.282 175.224 168.942 175.266 168.601 175.305ZM170.634 175.032L170.317 172.988C170.643 172.937 170.967 172.884 171.29 172.827L171.649 174.864C171.312 174.924 170.974 174.98 170.634 175.032ZM172.657 174.676C172.993 174.609 173.328 174.539 173.662 174.466L173.218 172.445C172.898 172.515 172.577 172.582 172.255 172.646L172.657 174.676ZM174.662 174.235L174.177 172.224C174.495 172.147 174.813 172.067 175.129 171.984L175.656 173.984C175.326 174.071 174.995 174.155 174.662 174.235ZM176.647 173.712L176.078 171.723C176.393 171.633 176.707 171.54 177.019 171.443L177.63 173.42C177.304 173.521 176.976 173.618 176.647 173.712ZM178.608 173.107L177.957 171.143C178.268 171.04 178.578 170.933 178.887 170.824L179.579 172.774C179.257 172.888 178.933 172.999 178.608 173.107ZM180.542 172.42L179.81 170.485C180.117 170.369 180.422 170.25 180.726 170.128L181.499 172.047C181.181 172.175 180.863 172.299 180.542 172.42ZM182.446 171.654L181.633 169.751C181.935 169.622 182.236 169.49 182.535 169.355L183.386 171.241C183.075 171.382 182.761 171.52 182.446 171.654ZM184.317 170.809L183.426 168.942C183.722 168.8 184.017 168.656 184.31 168.509L185.239 170.357C184.933 170.511 184.626 170.662 184.317 170.809ZM186.151 169.887L185.183 168.058C185.473 167.905 185.762 167.748 186.048 167.589L187.053 169.398C186.754 169.564 186.453 169.727 186.151 169.887ZM187.945 168.89L186.903 167.102C187.186 166.937 187.467 166.769 187.747 166.598L188.826 168.364C188.534 168.542 188.241 168.717 187.945 168.89ZM189.697 167.819L188.581 166.077C188.857 165.9 189.132 165.72 189.404 165.538L190.555 167.257C190.271 167.447 189.985 167.635 189.697 167.819ZM191.402 166.677L190.216 164.982C190.485 164.794 190.751 164.603 191.016 164.41L192.237 166.08C191.961 166.282 191.682 166.481 191.402 166.677ZM193.059 165.466L191.804 163.821C192.065 163.622 192.324 163.421 192.58 163.216L193.869 164.835C193.601 165.048 193.331 165.259 193.059 165.466ZM194.665 164.188L193.343 162.596C193.596 162.386 193.846 162.174 194.094 161.96L195.448 163.524C195.189 163.748 194.928 163.969 194.665 164.188ZM196.217 162.844L194.831 161.308C195.075 161.088 195.316 160.866 195.555 160.642L196.972 162.149C196.723 162.383 196.471 162.615 196.217 162.844ZM197.713 161.438L196.265 159.96C196.499 159.731 196.731 159.499 196.96 159.265L198.438 160.713C198.199 160.957 197.957 161.199 197.713 161.438ZM199.149 159.972L197.642 158.555C197.866 158.316 198.088 158.075 198.308 157.831L199.844 159.217C199.615 159.471 199.383 159.723 199.149 159.972ZM200.524 158.448L198.96 157.094C199.174 156.846 199.386 156.596 199.596 156.343L201.188 157.665C200.969 157.928 200.748 158.189 200.524 158.448ZM201.835 156.869L200.216 155.58C200.421 155.324 200.622 155.065 200.821 154.804L202.466 156.059C202.259 156.331 202.048 156.601 201.835 156.869ZM203.08 155.237C203.282 154.961 203.481 154.682 203.677 154.402L201.982 153.216C201.794 153.485 201.603 153.751 201.41 154.016L203.08 155.237ZM204.257 153.555L202.538 152.404C202.72 152.132 202.9 151.857 203.077 151.581L204.819 152.696C204.635 152.985 204.447 153.271 204.257 153.555ZM205.364 151.826L203.598 150.747C203.769 150.467 203.937 150.186 204.103 149.903L205.89 150.945C205.717 151.241 205.542 151.534 205.364 151.826ZM206.398 150.053L204.589 149.048C204.748 148.762 204.905 148.473 205.058 148.183L206.887 149.151C206.727 149.453 206.564 149.754 206.398 150.053ZM207.357 148.239L205.509 147.31C205.656 147.017 205.8 146.722 205.942 146.426L207.809 147.317C207.662 147.626 207.511 147.933 207.357 148.239ZM208.241 146.386L206.355 145.535C206.49 145.236 206.622 144.935 206.751 144.633L208.654 145.446C208.52 145.761 208.382 146.075 208.241 146.386ZM209.047 144.499L207.128 143.726C207.25 143.422 207.369 143.117 207.485 142.81L209.42 143.542C209.299 143.863 209.175 144.181 209.047 144.499ZM209.774 142.579L207.824 141.887C207.933 141.578 208.04 141.268 208.143 140.957L210.107 141.608C209.999 141.933 209.888 142.257 209.774 142.579ZM210.42 140.63L208.443 140.019C208.54 139.707 208.633 139.393 208.723 139.078L210.712 139.647C210.618 139.976 210.521 140.303 210.42 140.63ZM210.984 138.656L208.984 138.129C209.067 137.813 209.147 137.495 209.224 137.177L211.235 137.662C211.155 137.995 211.071 138.326 210.984 138.656ZM211.466 136.662L209.445 136.218C209.515 135.898 209.582 135.577 209.646 135.255L211.676 135.656C211.609 135.993 211.539 136.328 211.466 136.662ZM211.864 134.649C211.924 134.312 211.98 133.974 212.032 133.634L209.988 133.317C209.937 133.643 209.884 133.967 209.827 134.29L211.864 134.649ZM212.179 132.621L210.128 132.346C210.172 132.021 210.212 131.696 210.249 131.369L212.305 131.601C212.266 131.942 212.224 132.282 212.179 132.621ZM212.409 130.58L210.349 130.39C210.379 130.065 210.406 129.738 210.429 129.411L212.493 129.558C212.469 129.9 212.441 130.24 212.409 130.58ZM212.556 128.531L210.489 128.426C210.506 128.1 210.519 127.773 210.529 127.445L212.597 127.509C212.587 127.85 212.573 128.191 212.556 128.531Z" fill="url(#paint5_radial_17100_4626)"/>
<path d="M196.069 125.966C196.069 144.249 181.248 159.069 162.966 159.069C144.683 159.069 129.862 144.249 129.862 125.966C129.862 107.683 144.683 92.8625 162.966 92.8625C181.248 92.8625 196.069 107.683 196.069 125.966Z" fill="url(#paint6_radial_17100_4626)"/>
<path d="M187.793 125.965C187.793 139.677 176.677 150.793 162.965 150.793C149.253 150.793 138.138 139.677 138.138 125.965C138.138 112.253 149.253 101.137 162.965 101.137C176.677 101.137 187.793 112.253 187.793 125.965Z" fill="url(#paint7_radial_17100_4626)"/>
<defs>
<linearGradient id="paint0_linear_17100_4626" x1="151.586" y1="68.0345" x2="102.966" y2="121.828" gradientUnits="userSpaceOnUse">
<stop stop-color="white"/>
<stop offset="1" stop-color="white" stop-opacity="0"/>
</linearGradient>
<linearGradient id="paint1_linear_17100_4626" x1="216.759" y1="101.138" x2="160.897" y2="63.8966" gradientUnits="userSpaceOnUse">
<stop stop-color="white"/>
<stop offset="1" stop-color="white" stop-opacity="0"/>
</linearGradient>
<linearGradient id="paint2_linear_17100_4626" x1="174.344" y1="185.966" x2="222.965" y2="132.172" gradientUnits="userSpaceOnUse">
<stop stop-color="white"/>
<stop offset="1" stop-color="white" stop-opacity="0"/>
</linearGradient>
<linearGradient id="paint3_linear_17100_4626" x1="109.172" y1="152.862" x2="165.034" y2="190.103" gradientUnits="userSpaceOnUse">
<stop stop-color="white"/>
<stop offset="1" stop-color="white" stop-opacity="0"/>
</linearGradient>
<radialGradient id="paint4_radial_17100_4626" cx="0" cy="0" r="1" gradientUnits="userSpaceOnUse" gradientTransform="translate(162.965 125.965) rotate(90) scale(56.8966)">
<stop stop-color="white"/>
<stop offset="1" stop-color="white" stop-opacity="0"/>
</radialGradient>
<radialGradient id="paint5_radial_17100_4626" cx="0" cy="0" r="1" gradientUnits="userSpaceOnUse" gradientTransform="translate(162.966 125.966) rotate(90) scale(68.2759)">
<stop stop-color="white"/>
<stop offset="1" stop-color="white" stop-opacity="0.54"/>
</radialGradient>
<radialGradient id="paint6_radial_17100_4626" cx="0" cy="0" r="1" gradientUnits="userSpaceOnUse" gradientTransform="translate(162.966 124.932) rotate(67.9993) scale(36.8191)">
<stop stop-color="white"/>
<stop offset="0.739583" stop-color="white" stop-opacity="0.582344"/>
<stop offset="1" stop-color="white" stop-opacity="0.19"/>
</radialGradient>
<radialGradient id="paint7_radial_17100_4626" cx="0" cy="0" r="1" gradientUnits="userSpaceOnUse" gradientTransform="translate(162.965 125.189) rotate(67.9993) scale(27.6143)">
<stop stop-color="white"/>
<stop offset="0.739583" stop-color="white" stop-opacity="0.582344"/>
<stop offset="1" stop-color="white" stop-opacity="0.19"/>
</radialGradient>
</defs>
</svg>
