<svg width="326" height="254" viewBox="0 0 326 254" fill="none" xmlns="http://www.w3.org/2000/svg">
<rect x="0.333496" width="325.333" height="254" rx="8" fill="#222D26"/>
<path d="M163 67L175.422 95L163 123L150.578 95L163 67Z" fill="url(#paint0_linear_17059_17335)"/>
<path d="M163 187L175.422 159L163 131L150.578 159L163 187Z" fill="url(#paint1_linear_17059_17335)"/>
<path d="M109.211 96.9983L140.523 100.606L159.414 124.998L128.101 121.391L109.211 96.9983Z" fill="url(#paint2_linear_17059_17335)"/>
<path d="M216.789 156.998L197.898 132.606L166.586 128.998L185.476 153.391L216.789 156.998Z" fill="url(#paint3_linear_17059_17335)"/>
<path d="M216.789 96.9983L185.477 100.606L166.586 124.998L197.899 121.391L216.789 96.9983Z" fill="url(#paint4_linear_17059_17335)"/>
<path d="M109.211 156.998L128.102 132.606L159.414 128.998L140.524 153.391L109.211 156.998Z" fill="url(#paint5_linear_17059_17335)"/>
<defs>
<linearGradient id="paint0_linear_17059_17335" x1="163" y1="67" x2="163" y2="123" gradientUnits="userSpaceOnUse">
<stop stop-color="white"/>
<stop offset="0.502304" stop-color="white" stop-opacity="0.464531"/>
<stop offset="1" stop-color="white" stop-opacity="0"/>
</linearGradient>
<linearGradient id="paint1_linear_17059_17335" x1="163" y1="187" x2="163" y2="131" gradientUnits="userSpaceOnUse">
<stop stop-color="white"/>
<stop offset="0.502304" stop-color="white" stop-opacity="0.464531"/>
<stop offset="1" stop-color="white" stop-opacity="0"/>
</linearGradient>
<linearGradient id="paint2_linear_17059_17335" x1="109.211" y1="96.9983" x2="158.531" y2="126.475" gradientUnits="userSpaceOnUse">
<stop stop-color="white"/>
<stop offset="0.502304" stop-color="white" stop-opacity="0.464531"/>
<stop offset="1" stop-color="white" stop-opacity="0"/>
</linearGradient>
<linearGradient id="paint3_linear_17059_17335" x1="216.789" y1="156.998" x2="167.468" y2="127.522" gradientUnits="userSpaceOnUse">
<stop stop-color="white"/>
<stop offset="0.502304" stop-color="white" stop-opacity="0.464531"/>
<stop offset="1" stop-color="white" stop-opacity="0"/>
</linearGradient>
<linearGradient id="paint4_linear_17059_17335" x1="216.789" y1="96.9983" x2="167.469" y2="126.475" gradientUnits="userSpaceOnUse">
<stop stop-color="white"/>
<stop offset="0.502304" stop-color="white" stop-opacity="0.464531"/>
<stop offset="1" stop-color="white" stop-opacity="0"/>
</linearGradient>
<linearGradient id="paint5_linear_17059_17335" x1="109.211" y1="156.998" x2="158.532" y2="127.522" gradientUnits="userSpaceOnUse">
<stop stop-color="white"/>
<stop offset="0.502304" stop-color="white" stop-opacity="0.464531"/>
<stop offset="1" stop-color="white" stop-opacity="0"/>
</linearGradient>
</defs>
</svg>
