<svg width="64" height="64" viewBox="0 0 64 64" fill="none" xmlns="http://www.w3.org/2000/svg">
<rect width="64" height="64" rx="32" fill="#49FF86"/>
<g clip-path="url(#clip0_18396_2527)">
<path d="M38.9999 25.0002C38.9999 28.8663 35.8659 32.0004 31.9999 32.0004C28.1339 32.0004 24.9999 28.8663 24.9999 25.0002C24.9999 21.1341 28.1339 18 31.9999 18C35.8659 18 38.9999 21.1341 38.9999 25.0002Z" fill="#07130C"/>
<path d="M38.9999 39.0007C38.9999 42.8668 35.8659 46.0009 31.9999 46.0009C28.1339 46.0009 24.9999 42.8668 24.9999 39.0007C24.9999 35.1346 28.1339 32.0004 31.9999 32.0004C35.8659 32.0004 38.9999 35.1346 38.9999 39.0007Z" fill="#07130C"/>
<path d="M18 46.001C19.8565 46.001 21.637 45.2635 22.9497 43.9507C24.2625 42.6379 25 40.8573 25 39.0008C25 37.1442 24.2625 35.3637 22.9497 34.0509C21.637 32.7381 19.8565 32.0006 18 32.0006L18 46.001Z" fill="#07130C"/>
<path d="M46 46.001C44.1435 46.001 42.363 45.2635 41.0503 43.9507C39.7375 42.6379 39 40.8573 39 39.0008C39 37.1442 39.7375 35.3637 41.0503 34.0509C42.363 32.7381 44.1435 32.0006 46 32.0006V46.001Z" fill="#07130C"/>
<path d="M18 32.0006C19.8565 32.0006 21.637 31.2629 22.9497 29.9501C24.2625 28.6373 24.9999 26.8568 24.9999 25.0002C24.9999 23.1436 24.2625 21.3631 22.9497 20.0503C21.637 18.7375 19.8565 18 18 18V32.0006Z" fill="#07130C"/>
<path d="M46 32.0006C44.1435 32.0006 42.363 31.2629 41.0503 29.9501C39.7375 28.6373 38.9999 26.8568 38.9999 25.0002C38.9999 23.1436 39.7375 21.3631 41.0503 20.0503C42.363 18.7375 44.1435 18 46 18V32.0006Z" fill="#07130C"/>
</g>
<defs>
<clipPath id="clip0_18396_2527">
<rect width="28" height="28" fill="white" transform="translate(18 18)"/>
</clipPath>
</defs>
</svg>
