<svg width="326" height="254" viewBox="0 0 326 254" fill="none" xmlns="http://www.w3.org/2000/svg">
<rect x="0.333496" width="325.333" height="254" rx="8" fill="#222D26"/>
<rect x="127" y="67" width="24" height="24" fill="url(#paint0_linear_17059_17322)"/>
<path d="M133 85V73L127 67V91L133 85Z" fill="url(#paint1_linear_17059_17322)"/>
<path d="M145 85H133L127 91H151L145 85Z" fill="url(#paint2_linear_17059_17322)"/>
<path d="M145 73H133L127 67H151L145 73Z" fill="url(#paint3_linear_17059_17322)"/>
<path d="M145 85V73L151 67V91L145 85Z" fill="url(#paint4_linear_17059_17322)"/>
<rect x="175" y="67" width="24" height="24" fill="url(#paint5_linear_17059_17322)"/>
<path d="M181 85V73L175 67V91L181 85Z" fill="url(#paint6_linear_17059_17322)"/>
<path d="M193 85H181L175 91H199L193 85Z" fill="url(#paint7_linear_17059_17322)"/>
<path d="M193 73H181L175 67H199L193 73Z" fill="url(#paint8_linear_17059_17322)"/>
<path d="M193 85V73L199 67V91L193 85Z" fill="url(#paint9_linear_17059_17322)"/>
<rect x="103" y="91" width="24" height="24" fill="url(#paint10_linear_17059_17322)"/>
<path d="M109 109V97L103 91V115L109 109Z" fill="url(#paint11_linear_17059_17322)"/>
<path d="M121 109H109L103 115H127L121 109Z" fill="url(#paint12_linear_17059_17322)"/>
<path d="M121 97H109L103 91H127L121 97Z" fill="url(#paint13_linear_17059_17322)"/>
<path d="M121 109V97L127 91V115L121 109Z" fill="url(#paint14_linear_17059_17322)"/>
<rect x="151" y="91" width="24" height="24" fill="url(#paint15_linear_17059_17322)"/>
<path d="M157 109V97L151 91V115L157 109Z" fill="url(#paint16_linear_17059_17322)"/>
<path d="M169 109H157L151 115H175L169 109Z" fill="url(#paint17_linear_17059_17322)"/>
<path d="M169 97H157L151 91H175L169 97Z" fill="url(#paint18_linear_17059_17322)"/>
<path d="M169 109V97L175 91V115L169 109Z" fill="url(#paint19_linear_17059_17322)"/>
<rect x="199" y="91" width="24" height="24" fill="url(#paint20_linear_17059_17322)"/>
<path d="M205 109V97L199 91V115L205 109Z" fill="url(#paint21_linear_17059_17322)"/>
<path d="M217 109H205L199 115H223L217 109Z" fill="url(#paint22_linear_17059_17322)"/>
<path d="M217 97H205L199 91H223L217 97Z" fill="url(#paint23_linear_17059_17322)"/>
<path d="M217 109V97L223 91V115L217 109Z" fill="url(#paint24_linear_17059_17322)"/>
<rect x="127" y="115" width="24" height="24" fill="url(#paint25_linear_17059_17322)"/>
<path d="M133 133V121L127 115V139L133 133Z" fill="url(#paint26_linear_17059_17322)"/>
<path d="M145 133H133L127 139H151L145 133Z" fill="url(#paint27_linear_17059_17322)"/>
<path d="M145 121H133L127 115H151L145 121Z" fill="url(#paint28_linear_17059_17322)"/>
<path d="M145 133V121L151 115V139L145 133Z" fill="url(#paint29_linear_17059_17322)"/>
<rect x="175" y="115" width="24" height="24" fill="url(#paint30_linear_17059_17322)"/>
<path d="M181 133V121L175 115V139L181 133Z" fill="url(#paint31_linear_17059_17322)"/>
<path d="M193 133H181L175 139H199L193 133Z" fill="url(#paint32_linear_17059_17322)"/>
<path d="M193 121H181L175 115H199L193 121Z" fill="url(#paint33_linear_17059_17322)"/>
<path d="M193 133V121L199 115V139L193 133Z" fill="url(#paint34_linear_17059_17322)"/>
<rect x="103" y="139" width="24" height="24" fill="url(#paint35_linear_17059_17322)"/>
<path d="M109 157V145L103 139V163L109 157Z" fill="url(#paint36_linear_17059_17322)"/>
<path d="M121 157H109L103 163H127L121 157Z" fill="url(#paint37_linear_17059_17322)"/>
<path d="M121 145H109L103 139H127L121 145Z" fill="url(#paint38_linear_17059_17322)"/>
<path d="M121 157V145L127 139V163L121 157Z" fill="url(#paint39_linear_17059_17322)"/>
<rect x="151" y="139" width="24" height="24" fill="url(#paint40_linear_17059_17322)"/>
<path d="M157 157V145L151 139V163L157 157Z" fill="url(#paint41_linear_17059_17322)"/>
<path d="M169 157H157L151 163H175L169 157Z" fill="url(#paint42_linear_17059_17322)"/>
<path d="M169 145H157L151 139H175L169 145Z" fill="url(#paint43_linear_17059_17322)"/>
<path d="M169 157V145L175 139V163L169 157Z" fill="url(#paint44_linear_17059_17322)"/>
<rect x="199" y="139" width="24" height="24" fill="url(#paint45_linear_17059_17322)"/>
<path d="M205 157V145L199 139V163L205 157Z" fill="url(#paint46_linear_17059_17322)"/>
<path d="M217 157H205L199 163H223L217 157Z" fill="url(#paint47_linear_17059_17322)"/>
<path d="M217 145H205L199 139H223L217 145Z" fill="url(#paint48_linear_17059_17322)"/>
<path d="M217 157V145L223 139V163L217 157Z" fill="url(#paint49_linear_17059_17322)"/>
<rect x="127" y="163" width="24" height="24" fill="url(#paint50_linear_17059_17322)"/>
<path d="M133 181V169L127 163V187L133 181Z" fill="url(#paint51_linear_17059_17322)"/>
<path d="M145 181H133L127 187H151L145 181Z" fill="url(#paint52_linear_17059_17322)"/>
<path d="M145 169H133L127 163H151L145 169Z" fill="url(#paint53_linear_17059_17322)"/>
<path d="M145 181V169L151 163V187L145 181Z" fill="url(#paint54_linear_17059_17322)"/>
<rect x="175" y="163" width="24" height="24" fill="url(#paint55_linear_17059_17322)"/>
<path d="M181 181V169L175 163V187L181 181Z" fill="url(#paint56_linear_17059_17322)"/>
<path d="M193 181H181L175 187H199L193 181Z" fill="url(#paint57_linear_17059_17322)"/>
<path d="M193 169H181L175 163H199L193 169Z" fill="url(#paint58_linear_17059_17322)"/>
<path d="M193 181V169L199 163V187L193 181Z" fill="url(#paint59_linear_17059_17322)"/>
<defs>
<linearGradient id="paint0_linear_17059_17322" x1="141.25" y1="87.25" x2="136" y2="73" gradientUnits="userSpaceOnUse">
<stop stop-color="#222D26"/>
<stop offset="1" stop-color="#FFFAFA" stop-opacity="0.68"/>
</linearGradient>
<linearGradient id="paint1_linear_17059_17322" x1="127" y1="79" x2="134.5" y2="79" gradientUnits="userSpaceOnUse">
<stop stop-color="white"/>
<stop offset="0.987399" stop-color="#222D26" stop-opacity="0.58"/>
</linearGradient>
<linearGradient id="paint2_linear_17059_17322" x1="139" y1="91.75" x2="139" y2="83.5" gradientUnits="userSpaceOnUse">
<stop stop-color="white"/>
<stop offset="0.987399" stop-color="#222D26" stop-opacity="0.58"/>
</linearGradient>
<linearGradient id="paint3_linear_17059_17322" x1="139" y1="66.25" x2="139" y2="74.5" gradientUnits="userSpaceOnUse">
<stop stop-color="white"/>
<stop offset="0.987399" stop-color="#222D26" stop-opacity="0.58"/>
</linearGradient>
<linearGradient id="paint4_linear_17059_17322" x1="151" y1="79" x2="143.5" y2="79" gradientUnits="userSpaceOnUse">
<stop stop-color="white"/>
<stop offset="0.987399" stop-color="#222D26" stop-opacity="0.58"/>
</linearGradient>
<linearGradient id="paint5_linear_17059_17322" x1="189.25" y1="87.25" x2="184" y2="73" gradientUnits="userSpaceOnUse">
<stop stop-color="#222D26"/>
<stop offset="1" stop-color="#FFFAFA" stop-opacity="0.68"/>
</linearGradient>
<linearGradient id="paint6_linear_17059_17322" x1="175" y1="79" x2="182.5" y2="79" gradientUnits="userSpaceOnUse">
<stop stop-color="white"/>
<stop offset="0.987399" stop-color="#222D26" stop-opacity="0.58"/>
</linearGradient>
<linearGradient id="paint7_linear_17059_17322" x1="187" y1="91.75" x2="187" y2="83.5" gradientUnits="userSpaceOnUse">
<stop stop-color="white"/>
<stop offset="0.987399" stop-color="#222D26" stop-opacity="0.58"/>
</linearGradient>
<linearGradient id="paint8_linear_17059_17322" x1="187" y1="66.25" x2="187" y2="74.5" gradientUnits="userSpaceOnUse">
<stop stop-color="white"/>
<stop offset="0.987399" stop-color="#222D26" stop-opacity="0.58"/>
</linearGradient>
<linearGradient id="paint9_linear_17059_17322" x1="199" y1="79" x2="191.5" y2="79" gradientUnits="userSpaceOnUse">
<stop stop-color="white"/>
<stop offset="0.987399" stop-color="#222D26" stop-opacity="0.58"/>
</linearGradient>
<linearGradient id="paint10_linear_17059_17322" x1="117.25" y1="111.25" x2="112" y2="97" gradientUnits="userSpaceOnUse">
<stop stop-color="#222D26"/>
<stop offset="1" stop-color="#FFFAFA" stop-opacity="0.68"/>
</linearGradient>
<linearGradient id="paint11_linear_17059_17322" x1="103" y1="103" x2="110.5" y2="103" gradientUnits="userSpaceOnUse">
<stop stop-color="white"/>
<stop offset="0.987399" stop-color="#222D26" stop-opacity="0.58"/>
</linearGradient>
<linearGradient id="paint12_linear_17059_17322" x1="115" y1="115.75" x2="115" y2="107.5" gradientUnits="userSpaceOnUse">
<stop stop-color="white"/>
<stop offset="0.987399" stop-color="#222D26" stop-opacity="0.58"/>
</linearGradient>
<linearGradient id="paint13_linear_17059_17322" x1="115" y1="90.25" x2="115" y2="98.5" gradientUnits="userSpaceOnUse">
<stop stop-color="white"/>
<stop offset="0.987399" stop-color="#222D26" stop-opacity="0.58"/>
</linearGradient>
<linearGradient id="paint14_linear_17059_17322" x1="127" y1="103" x2="119.5" y2="103" gradientUnits="userSpaceOnUse">
<stop stop-color="white"/>
<stop offset="0.987399" stop-color="#222D26" stop-opacity="0.58"/>
</linearGradient>
<linearGradient id="paint15_linear_17059_17322" x1="165.25" y1="111.25" x2="160" y2="97" gradientUnits="userSpaceOnUse">
<stop stop-color="#222D26"/>
<stop offset="1" stop-color="#FFFAFA" stop-opacity="0.68"/>
</linearGradient>
<linearGradient id="paint16_linear_17059_17322" x1="151" y1="103" x2="158.5" y2="103" gradientUnits="userSpaceOnUse">
<stop stop-color="white"/>
<stop offset="0.987399" stop-color="#222D26" stop-opacity="0.58"/>
</linearGradient>
<linearGradient id="paint17_linear_17059_17322" x1="163" y1="115.75" x2="163" y2="107.5" gradientUnits="userSpaceOnUse">
<stop stop-color="white"/>
<stop offset="0.987399" stop-color="#222D26" stop-opacity="0.58"/>
</linearGradient>
<linearGradient id="paint18_linear_17059_17322" x1="163" y1="90.25" x2="163" y2="98.5" gradientUnits="userSpaceOnUse">
<stop stop-color="white"/>
<stop offset="0.987399" stop-color="#222D26" stop-opacity="0.58"/>
</linearGradient>
<linearGradient id="paint19_linear_17059_17322" x1="175" y1="103" x2="167.5" y2="103" gradientUnits="userSpaceOnUse">
<stop stop-color="white"/>
<stop offset="0.987399" stop-color="#222D26" stop-opacity="0.58"/>
</linearGradient>
<linearGradient id="paint20_linear_17059_17322" x1="213.25" y1="111.25" x2="208" y2="97" gradientUnits="userSpaceOnUse">
<stop stop-color="#222D26"/>
<stop offset="1" stop-color="#FFFAFA" stop-opacity="0.68"/>
</linearGradient>
<linearGradient id="paint21_linear_17059_17322" x1="199" y1="103" x2="206.5" y2="103" gradientUnits="userSpaceOnUse">
<stop stop-color="white"/>
<stop offset="0.987399" stop-color="#222D26" stop-opacity="0.58"/>
</linearGradient>
<linearGradient id="paint22_linear_17059_17322" x1="211" y1="115.75" x2="211" y2="107.5" gradientUnits="userSpaceOnUse">
<stop stop-color="white"/>
<stop offset="0.987399" stop-color="#222D26" stop-opacity="0.58"/>
</linearGradient>
<linearGradient id="paint23_linear_17059_17322" x1="211" y1="90.25" x2="211" y2="98.5" gradientUnits="userSpaceOnUse">
<stop stop-color="white"/>
<stop offset="0.987399" stop-color="#222D26" stop-opacity="0.58"/>
</linearGradient>
<linearGradient id="paint24_linear_17059_17322" x1="223" y1="103" x2="215.5" y2="103" gradientUnits="userSpaceOnUse">
<stop stop-color="white"/>
<stop offset="0.987399" stop-color="#222D26" stop-opacity="0.58"/>
</linearGradient>
<linearGradient id="paint25_linear_17059_17322" x1="141.25" y1="135.25" x2="136" y2="121" gradientUnits="userSpaceOnUse">
<stop stop-color="#222D26"/>
<stop offset="1" stop-color="#FFFAFA" stop-opacity="0.68"/>
</linearGradient>
<linearGradient id="paint26_linear_17059_17322" x1="127" y1="127" x2="134.5" y2="127" gradientUnits="userSpaceOnUse">
<stop stop-color="white"/>
<stop offset="0.987399" stop-color="#222D26" stop-opacity="0.58"/>
</linearGradient>
<linearGradient id="paint27_linear_17059_17322" x1="139" y1="139.75" x2="139" y2="131.5" gradientUnits="userSpaceOnUse">
<stop stop-color="white"/>
<stop offset="0.987399" stop-color="#222D26" stop-opacity="0.58"/>
</linearGradient>
<linearGradient id="paint28_linear_17059_17322" x1="139" y1="114.25" x2="139" y2="122.5" gradientUnits="userSpaceOnUse">
<stop stop-color="white"/>
<stop offset="0.987399" stop-color="#222D26" stop-opacity="0.58"/>
</linearGradient>
<linearGradient id="paint29_linear_17059_17322" x1="151" y1="127" x2="143.5" y2="127" gradientUnits="userSpaceOnUse">
<stop stop-color="white"/>
<stop offset="0.987399" stop-color="#222D26" stop-opacity="0.58"/>
</linearGradient>
<linearGradient id="paint30_linear_17059_17322" x1="189.25" y1="135.25" x2="184" y2="121" gradientUnits="userSpaceOnUse">
<stop stop-color="#222D26"/>
<stop offset="1" stop-color="#FFFAFA" stop-opacity="0.68"/>
</linearGradient>
<linearGradient id="paint31_linear_17059_17322" x1="175" y1="127" x2="182.5" y2="127" gradientUnits="userSpaceOnUse">
<stop stop-color="white"/>
<stop offset="0.987399" stop-color="#222D26" stop-opacity="0.58"/>
</linearGradient>
<linearGradient id="paint32_linear_17059_17322" x1="187" y1="139.75" x2="187" y2="131.5" gradientUnits="userSpaceOnUse">
<stop stop-color="white"/>
<stop offset="0.987399" stop-color="#222D26" stop-opacity="0.58"/>
</linearGradient>
<linearGradient id="paint33_linear_17059_17322" x1="187" y1="114.25" x2="187" y2="122.5" gradientUnits="userSpaceOnUse">
<stop stop-color="white"/>
<stop offset="0.987399" stop-color="#222D26" stop-opacity="0.58"/>
</linearGradient>
<linearGradient id="paint34_linear_17059_17322" x1="199" y1="127" x2="191.5" y2="127" gradientUnits="userSpaceOnUse">
<stop stop-color="white"/>
<stop offset="0.987399" stop-color="#222D26" stop-opacity="0.58"/>
</linearGradient>
<linearGradient id="paint35_linear_17059_17322" x1="117.25" y1="159.25" x2="112" y2="145" gradientUnits="userSpaceOnUse">
<stop stop-color="#222D26"/>
<stop offset="1" stop-color="#FFFAFA" stop-opacity="0.68"/>
</linearGradient>
<linearGradient id="paint36_linear_17059_17322" x1="103" y1="151" x2="110.5" y2="151" gradientUnits="userSpaceOnUse">
<stop stop-color="white"/>
<stop offset="0.987399" stop-color="#222D26" stop-opacity="0.58"/>
</linearGradient>
<linearGradient id="paint37_linear_17059_17322" x1="115" y1="163.75" x2="115" y2="155.5" gradientUnits="userSpaceOnUse">
<stop stop-color="white"/>
<stop offset="0.987399" stop-color="#222D26" stop-opacity="0.58"/>
</linearGradient>
<linearGradient id="paint38_linear_17059_17322" x1="115" y1="138.25" x2="115" y2="146.5" gradientUnits="userSpaceOnUse">
<stop stop-color="white"/>
<stop offset="0.987399" stop-color="#222D26" stop-opacity="0.58"/>
</linearGradient>
<linearGradient id="paint39_linear_17059_17322" x1="127" y1="151" x2="119.5" y2="151" gradientUnits="userSpaceOnUse">
<stop stop-color="white"/>
<stop offset="0.987399" stop-color="#222D26" stop-opacity="0.58"/>
</linearGradient>
<linearGradient id="paint40_linear_17059_17322" x1="165.25" y1="159.25" x2="160" y2="145" gradientUnits="userSpaceOnUse">
<stop stop-color="#222D26"/>
<stop offset="1" stop-color="#FFFAFA" stop-opacity="0.68"/>
</linearGradient>
<linearGradient id="paint41_linear_17059_17322" x1="151" y1="151" x2="158.5" y2="151" gradientUnits="userSpaceOnUse">
<stop stop-color="white"/>
<stop offset="0.987399" stop-color="#222D26" stop-opacity="0.58"/>
</linearGradient>
<linearGradient id="paint42_linear_17059_17322" x1="163" y1="163.75" x2="163" y2="155.5" gradientUnits="userSpaceOnUse">
<stop stop-color="white"/>
<stop offset="0.987399" stop-color="#222D26" stop-opacity="0.58"/>
</linearGradient>
<linearGradient id="paint43_linear_17059_17322" x1="163" y1="138.25" x2="163" y2="146.5" gradientUnits="userSpaceOnUse">
<stop stop-color="white"/>
<stop offset="0.987399" stop-color="#222D26" stop-opacity="0.58"/>
</linearGradient>
<linearGradient id="paint44_linear_17059_17322" x1="175" y1="151" x2="167.5" y2="151" gradientUnits="userSpaceOnUse">
<stop stop-color="white"/>
<stop offset="0.987399" stop-color="#222D26" stop-opacity="0.58"/>
</linearGradient>
<linearGradient id="paint45_linear_17059_17322" x1="213.25" y1="159.25" x2="208" y2="145" gradientUnits="userSpaceOnUse">
<stop stop-color="#222D26"/>
<stop offset="1" stop-color="#FFFAFA" stop-opacity="0.68"/>
</linearGradient>
<linearGradient id="paint46_linear_17059_17322" x1="199" y1="151" x2="206.5" y2="151" gradientUnits="userSpaceOnUse">
<stop stop-color="white"/>
<stop offset="0.987399" stop-color="#222D26" stop-opacity="0.58"/>
</linearGradient>
<linearGradient id="paint47_linear_17059_17322" x1="211" y1="163.75" x2="211" y2="155.5" gradientUnits="userSpaceOnUse">
<stop stop-color="white"/>
<stop offset="0.987399" stop-color="#222D26" stop-opacity="0.58"/>
</linearGradient>
<linearGradient id="paint48_linear_17059_17322" x1="211" y1="138.25" x2="211" y2="146.5" gradientUnits="userSpaceOnUse">
<stop stop-color="white"/>
<stop offset="0.987399" stop-color="#222D26" stop-opacity="0.58"/>
</linearGradient>
<linearGradient id="paint49_linear_17059_17322" x1="223" y1="151" x2="215.5" y2="151" gradientUnits="userSpaceOnUse">
<stop stop-color="white"/>
<stop offset="0.987399" stop-color="#222D26" stop-opacity="0.58"/>
</linearGradient>
<linearGradient id="paint50_linear_17059_17322" x1="141.25" y1="183.25" x2="136" y2="169" gradientUnits="userSpaceOnUse">
<stop stop-color="#222D26"/>
<stop offset="1" stop-color="#FFFAFA" stop-opacity="0.68"/>
</linearGradient>
<linearGradient id="paint51_linear_17059_17322" x1="127" y1="175" x2="134.5" y2="175" gradientUnits="userSpaceOnUse">
<stop stop-color="white"/>
<stop offset="0.987399" stop-color="#222D26" stop-opacity="0.58"/>
</linearGradient>
<linearGradient id="paint52_linear_17059_17322" x1="139" y1="187.75" x2="139" y2="179.5" gradientUnits="userSpaceOnUse">
<stop stop-color="white"/>
<stop offset="0.987399" stop-color="#222D26" stop-opacity="0.58"/>
</linearGradient>
<linearGradient id="paint53_linear_17059_17322" x1="139" y1="162.25" x2="139" y2="170.5" gradientUnits="userSpaceOnUse">
<stop stop-color="white"/>
<stop offset="0.987399" stop-color="#222D26" stop-opacity="0.58"/>
</linearGradient>
<linearGradient id="paint54_linear_17059_17322" x1="151" y1="175" x2="143.5" y2="175" gradientUnits="userSpaceOnUse">
<stop stop-color="white"/>
<stop offset="0.987399" stop-color="#222D26" stop-opacity="0.58"/>
</linearGradient>
<linearGradient id="paint55_linear_17059_17322" x1="189.25" y1="183.25" x2="184" y2="169" gradientUnits="userSpaceOnUse">
<stop stop-color="#222D26"/>
<stop offset="1" stop-color="#FFFAFA" stop-opacity="0.68"/>
</linearGradient>
<linearGradient id="paint56_linear_17059_17322" x1="175" y1="175" x2="182.5" y2="175" gradientUnits="userSpaceOnUse">
<stop stop-color="white"/>
<stop offset="0.987399" stop-color="#222D26" stop-opacity="0.58"/>
</linearGradient>
<linearGradient id="paint57_linear_17059_17322" x1="187" y1="187.75" x2="187" y2="179.5" gradientUnits="userSpaceOnUse">
<stop stop-color="white"/>
<stop offset="0.987399" stop-color="#222D26" stop-opacity="0.58"/>
</linearGradient>
<linearGradient id="paint58_linear_17059_17322" x1="187" y1="162.25" x2="187" y2="170.5" gradientUnits="userSpaceOnUse">
<stop stop-color="white"/>
<stop offset="0.987399" stop-color="#222D26" stop-opacity="0.58"/>
</linearGradient>
<linearGradient id="paint59_linear_17059_17322" x1="199" y1="175" x2="191.5" y2="175" gradientUnits="userSpaceOnUse">
<stop stop-color="white"/>
<stop offset="0.987399" stop-color="#222D26" stop-opacity="0.58"/>
</linearGradient>
</defs>
</svg>
