<svg width="326" height="254" viewBox="0 0 326 254" fill="none" xmlns="http://www.w3.org/2000/svg">
<rect x="0.666504" width="325.333" height="254" rx="8" fill="#222D26"/>
<path fill-rule="evenodd" clip-rule="evenodd" d="M223 127C223 93.8629 196.137 67 163 67C129.863 67 103 93.8629 103 127C103 160.137 129.863 187 163 187C196.137 187 223 160.137 223 127ZM155.5 127C155.5 153.331 157.62 175.701 160.569 183.779C160.012 183.201 159.411 182.405 158.775 181.331C157.112 178.517 155.55 174.321 154.212 168.972C151.545 158.301 149.875 143.461 149.875 127C149.875 110.539 151.545 95.6985 154.212 85.0283C155.55 79.6788 157.112 75.4827 158.775 72.6692C159.411 71.5946 160.012 70.7986 160.569 70.2211C157.62 78.2992 155.5 100.669 155.5 127ZM167.225 181.331C166.589 182.405 165.988 183.201 165.431 183.779C168.38 175.701 170.5 153.331 170.5 127C170.5 100.669 168.38 78.2992 165.431 70.2211C165.988 70.7986 166.589 71.5946 167.225 72.6692C168.888 75.4827 170.45 79.6788 171.788 85.0283C174.455 95.6985 176.125 110.539 176.125 127C176.125 143.461 174.455 158.301 171.788 168.972C170.45 174.321 168.888 178.517 167.225 181.331ZM157.522 182.874C156.898 182.357 156.271 181.747 155.645 181.041C153.159 178.238 150.835 174.074 148.846 168.768C144.871 158.17 142.375 143.403 142.375 127C142.375 110.597 144.871 95.83 148.846 85.2319C150.835 79.926 153.159 75.7624 155.645 72.959C156.271 72.2526 156.898 71.643 157.522 71.1263C151.947 79.878 148 101.595 148 127C148 152.405 151.947 174.122 157.522 182.874ZM168.478 182.874C169.102 182.357 169.729 181.747 170.355 181.041C172.841 178.238 175.165 174.074 177.154 168.768C181.129 158.17 183.625 143.403 183.625 127C183.625 110.597 181.129 95.83 177.154 85.2319C175.165 79.926 172.841 75.7624 170.355 72.959C169.729 72.2526 169.102 71.643 168.478 71.1263C174.053 79.878 178 101.595 178 127C178 152.405 174.053 174.122 168.478 182.874ZM143.464 168.588C146.509 174.679 150.105 179.209 153.97 181.973C146.039 172.696 140.5 151.573 140.5 127C140.5 102.427 146.039 81.3044 153.97 72.0275C150.105 74.7915 146.509 79.3213 143.464 85.4121C138.191 95.9585 134.875 110.659 134.875 127C134.875 143.341 138.191 158.041 143.464 168.588ZM182.536 168.588C179.491 174.679 175.895 179.209 172.03 181.973C179.961 172.696 185.5 151.573 185.5 127C185.5 102.427 179.961 81.3044 172.03 72.0275C175.895 74.7915 179.491 79.3213 182.536 85.4121C187.809 95.9585 191.125 110.659 191.125 127C191.125 143.341 187.809 158.041 182.536 168.588ZM150.01 181.099C145.569 178.239 141.512 173.934 138.073 168.433C131.501 157.917 127.375 143.273 127.375 127C127.375 110.727 131.501 96.0829 138.073 85.5673C141.512 80.0661 145.569 75.7608 150.01 72.9014C139.946 82.585 133 103.17 133 127C133 150.83 139.946 171.415 150.01 181.099ZM175.99 181.099C180.431 178.239 184.488 173.934 187.927 168.433C194.499 157.917 198.625 143.273 198.625 127C198.625 110.727 194.499 96.0829 187.927 85.5673C184.488 80.0661 180.431 75.7608 175.99 72.9014C186.054 82.585 193 103.17 193 127C193 150.83 186.054 171.415 175.99 181.099ZM132.68 168.301C136.434 173.307 140.838 177.362 145.686 180.236C133.69 170.228 125.5 150.144 125.5 127C125.5 103.856 133.69 83.7718 145.686 73.7638C140.838 76.6379 136.434 80.6934 132.68 85.6986C124.803 96.2019 119.875 110.798 119.875 127C119.875 143.202 124.803 157.798 132.68 168.301ZM193.32 168.301C189.566 173.307 185.162 177.362 180.314 180.236C192.31 170.228 200.5 150.144 200.5 127C200.5 103.856 192.31 83.7718 180.314 73.7637C185.162 76.6379 189.566 80.6934 193.32 85.6986C201.197 96.2019 206.125 110.798 206.125 127C206.125 143.202 201.197 157.798 193.32 168.301ZM140.99 179.346C124.127 169.979 112.375 150.174 112.375 127C112.375 103.826 124.127 84.0214 140.99 74.6542C127.27 84.9322 118 104.523 118 127C118 149.477 127.27 169.068 140.99 179.346ZM185.01 179.346C201.873 169.979 213.625 150.174 213.625 127C213.625 103.826 201.873 84.0214 185.01 74.6541C198.73 84.9322 208 104.523 208 127C208 149.477 198.73 169.068 185.01 179.346ZM104.875 127C104.875 149.403 117.549 168.846 136.119 178.549C120.775 168.076 110.5 148.909 110.5 127C110.5 105.091 120.775 85.924 136.119 75.451C117.549 85.1543 104.875 104.597 104.875 127ZM221.125 127C221.125 149.403 208.451 168.846 189.881 178.549C205.225 168.076 215.5 148.909 215.5 127C215.5 105.091 205.225 85.9241 189.881 75.451C208.451 85.1542 221.125 104.597 221.125 127ZM166.443 169.194C167.788 158.435 168.625 143.516 168.625 127C168.625 110.484 167.788 95.5654 166.443 84.8062C165.769 79.4134 164.976 75.1376 164.121 72.2465C164.06 72.0381 163.998 71.8391 163.938 71.6494V182.351C163.998 182.161 164.06 181.962 164.121 181.754C164.976 178.862 165.769 174.587 166.443 169.194ZM162.062 71.6494V182.351C162.002 182.161 161.94 181.962 161.879 181.754C161.024 178.862 160.231 174.587 159.557 169.194C158.212 158.435 157.375 143.516 157.375 127C157.375 110.484 158.212 95.5654 159.557 84.8062C160.231 79.4134 161.024 75.1376 161.879 72.2465C161.94 72.0381 162.002 71.8391 162.062 71.6494Z" fill="url(#paint0_linear_17059_17339)"/>
<defs>
<linearGradient id="paint0_linear_17059_17339" x1="137.687" y1="72.625" x2="182.687" y2="190.75" gradientUnits="userSpaceOnUse">
<stop stop-color="white"/>
<stop offset="1" stop-color="white" stop-opacity="0"/>
</linearGradient>
</defs>
</svg>
