<svg width="326" height="254" viewBox="0 0 326 254" fill="none" xmlns="http://www.w3.org/2000/svg">
<rect width="325.333" height="254" rx="8" fill="#222D26"/>
<g clip-path="url(#paint0_diamond_17059_17331_clip_path)" data-figma-skip-parse="true"><g transform="matrix(0.0203226 0.0327419 -0.0327419 0.0203226 163 126.999)"><rect x="0" y="0" width="1424.7" height="1424.7" fill="url(#paint0_diamond_17059_17331)" opacity="1" shape-rendering="crispEdges"/><rect x="0" y="0" width="1424.7" height="1424.7" transform="scale(1 -1)" fill="url(#paint0_diamond_17059_17331)" opacity="1" shape-rendering="crispEdges"/><rect x="0" y="0" width="1424.7" height="1424.7" transform="scale(-1 1)" fill="url(#paint0_diamond_17059_17331)" opacity="1" shape-rendering="crispEdges"/><rect x="0" y="0" width="1424.7" height="1424.7" transform="scale(-1)" fill="url(#paint0_diamond_17059_17331)" opacity="1" shape-rendering="crispEdges"/></g></g><path fill-rule="evenodd" clip-rule="evenodd" d="M163 106.676C151.776 106.676 142.677 115.775 142.677 126.999C142.677 138.223 151.776 147.321 163 147.321C174.224 147.321 183.322 138.223 183.322 126.999C183.322 115.775 174.224 106.676 163 106.676ZM129.129 126.999C129.129 108.292 144.293 93.1279 163 93.1279C181.706 93.1279 196.871 108.292 196.871 126.999C196.871 145.705 181.706 160.87 163 160.87C144.293 160.87 129.129 145.705 129.129 126.999Z" data-figma-gradient-fill="{&#34;type&#34;:&#34;GRADIENT_DIAMOND&#34;,&#34;stops&#34;:[{&#34;color&#34;:{&#34;r&#34;:1.0,&#34;g&#34;:1.0,&#34;b&#34;:1.0,&#34;a&#34;:1.0},&#34;position&#34;:0.0},{&#34;color&#34;:{&#34;r&#34;:1.0,&#34;g&#34;:1.0,&#34;b&#34;:1.0,&#34;a&#34;:0.0},&#34;position&#34;:0.34189924597740173},{&#34;color&#34;:{&#34;r&#34;:1.0,&#34;g&#34;:1.0,&#34;b&#34;:1.0,&#34;a&#34;:1.0},&#34;position&#34;:0.74996316432952881},{&#34;color&#34;:{&#34;r&#34;:1.0,&#34;g&#34;:1.0,&#34;b&#34;:1.0,&#34;a&#34;:0.0},&#34;position&#34;:1.0}],&#34;stopsVar&#34;:[],&#34;transform&#34;:{&#34;m00&#34;:40.645153045654297,&#34;m01&#34;:-65.483871459960938,&#34;m02&#34;:175.41923522949219,&#34;m10&#34;:65.483871459960938,&#34;m11&#34;:40.645153045654297,&#34;m12&#34;:73.934379577636719},&#34;opacity&#34;:1.0,&#34;blendMode&#34;:&#34;NORMAL&#34;,&#34;visible&#34;:true}"/>
<g clip-path="url(#paint1_diamond_17059_17331_clip_path)" data-figma-skip-parse="true"><g transform="matrix(0.033871 0.0545699 -0.0545699 0.033871 163 127)"><rect x="0" y="0" width="1242.11" height="1242.11" fill="url(#paint1_diamond_17059_17331)" opacity="1" shape-rendering="crispEdges"/><rect x="0" y="0" width="1242.11" height="1242.11" transform="scale(1 -1)" fill="url(#paint1_diamond_17059_17331)" opacity="1" shape-rendering="crispEdges"/><rect x="0" y="0" width="1242.11" height="1242.11" transform="scale(-1 1)" fill="url(#paint1_diamond_17059_17331)" opacity="1" shape-rendering="crispEdges"/><rect x="0" y="0" width="1242.11" height="1242.11" transform="scale(-1)" fill="url(#paint1_diamond_17059_17331)" opacity="1" shape-rendering="crispEdges"/></g></g><path fill-rule="evenodd" clip-rule="evenodd" d="M163 88.6133C141.799 88.6133 124.613 105.8 124.613 127C124.613 148.201 141.799 165.388 163 165.388C184.201 165.388 201.387 148.201 201.387 127C201.387 105.8 184.201 88.6133 163 88.6133ZM111.064 127C111.064 98.3172 134.317 75.0649 163 75.0649C191.683 75.0649 214.935 98.3172 214.935 127C214.935 155.684 191.683 178.936 163 178.936C134.317 178.936 111.064 155.684 111.064 127Z" data-figma-gradient-fill="{&#34;type&#34;:&#34;GRADIENT_DIAMOND&#34;,&#34;stops&#34;:[{&#34;color&#34;:{&#34;r&#34;:1.0,&#34;g&#34;:1.0,&#34;b&#34;:1.0,&#34;a&#34;:1.0},&#34;position&#34;:0.0},{&#34;color&#34;:{&#34;r&#34;:1.0,&#34;g&#34;:1.0,&#34;b&#34;:1.0,&#34;a&#34;:0.0},&#34;position&#34;:0.34189924597740173},{&#34;color&#34;:{&#34;r&#34;:1.0,&#34;g&#34;:1.0,&#34;b&#34;:1.0,&#34;a&#34;:1.0},&#34;position&#34;:0.74996316432952881},{&#34;color&#34;:{&#34;r&#34;:1.0,&#34;g&#34;:1.0,&#34;b&#34;:1.0,&#34;a&#34;:0.0},&#34;position&#34;:1.0}],&#34;stopsVar&#34;:[],&#34;transform&#34;:{&#34;m00&#34;:67.741920471191406,&#34;m01&#34;:-109.13978576660156,&#34;m02&#34;:183.69886779785156,&#34;m10&#34;:109.13978576660156,&#34;m11&#34;:67.741920471191406,&#34;m12&#34;:38.559566497802734},&#34;opacity&#34;:1.0,&#34;blendMode&#34;:&#34;NORMAL&#34;,&#34;visible&#34;:true}"/>
<g clip-path="url(#paint2_diamond_17059_17331_clip_path)" data-figma-skip-parse="true"><g transform="matrix(0.0474194 0.0763979 -0.0763979 0.0474194 163 127)"><rect x="0" y="0" width="1163.86" height="1163.86" fill="url(#paint2_diamond_17059_17331)" opacity="1" shape-rendering="crispEdges"/><rect x="0" y="0" width="1163.86" height="1163.86" transform="scale(1 -1)" fill="url(#paint2_diamond_17059_17331)" opacity="1" shape-rendering="crispEdges"/><rect x="0" y="0" width="1163.86" height="1163.86" transform="scale(-1 1)" fill="url(#paint2_diamond_17059_17331)" opacity="1" shape-rendering="crispEdges"/><rect x="0" y="0" width="1163.86" height="1163.86" transform="scale(-1)" fill="url(#paint2_diamond_17059_17331)" opacity="1" shape-rendering="crispEdges"/></g></g><path fill-rule="evenodd" clip-rule="evenodd" d="M163 70.5484C131.823 70.5484 106.548 95.8226 106.548 127C106.548 158.177 131.823 183.452 163 183.452C194.177 183.452 219.452 158.177 219.452 127C219.452 95.8226 194.177 70.5484 163 70.5484ZM93 127C93 88.3401 124.34 57 163 57C201.66 57 233 88.3401 233 127C233 165.66 201.66 197 163 197C124.34 197 93 165.66 93 127Z" data-figma-gradient-fill="{&#34;type&#34;:&#34;GRADIENT_DIAMOND&#34;,&#34;stops&#34;:[{&#34;color&#34;:{&#34;r&#34;:1.0,&#34;g&#34;:1.0,&#34;b&#34;:1.0,&#34;a&#34;:1.0},&#34;position&#34;:0.0},{&#34;color&#34;:{&#34;r&#34;:1.0,&#34;g&#34;:1.0,&#34;b&#34;:1.0,&#34;a&#34;:0.0},&#34;position&#34;:0.34189924597740173},{&#34;color&#34;:{&#34;r&#34;:1.0,&#34;g&#34;:1.0,&#34;b&#34;:1.0,&#34;a&#34;:1.0},&#34;position&#34;:0.74996316432952881},{&#34;color&#34;:{&#34;r&#34;:1.0,&#34;g&#34;:1.0,&#34;b&#34;:1.0,&#34;a&#34;:0.0},&#34;position&#34;:1.0}],&#34;stopsVar&#34;:[],&#34;transform&#34;:{&#34;m00&#34;:94.838699340820312,&#34;m01&#34;:-152.79571533203125,&#34;m02&#34;:191.9785156250,&#34;m10&#34;:152.79571533203125,&#34;m11&#34;:94.838699340820312,&#34;m12&#34;:3.1827912330627441},&#34;opacity&#34;:1.0,&#34;blendMode&#34;:&#34;NORMAL&#34;,&#34;visible&#34;:true}"/>
<defs>
<clipPath id="paint0_diamond_17059_17331_clip_path"><path fill-rule="evenodd" clip-rule="evenodd" d="M163 106.676C151.776 106.676 142.677 115.775 142.677 126.999C142.677 138.223 151.776 147.321 163 147.321C174.224 147.321 183.322 138.223 183.322 126.999C183.322 115.775 174.224 106.676 163 106.676ZM129.129 126.999C129.129 108.292 144.293 93.1279 163 93.1279C181.706 93.1279 196.871 108.292 196.871 126.999C196.871 145.705 181.706 160.87 163 160.87C144.293 160.87 129.129 145.705 129.129 126.999Z"/></clipPath><clipPath id="paint1_diamond_17059_17331_clip_path"><path fill-rule="evenodd" clip-rule="evenodd" d="M163 88.6133C141.799 88.6133 124.613 105.8 124.613 127C124.613 148.201 141.799 165.388 163 165.388C184.201 165.388 201.387 148.201 201.387 127C201.387 105.8 184.201 88.6133 163 88.6133ZM111.064 127C111.064 98.3172 134.317 75.0649 163 75.0649C191.683 75.0649 214.935 98.3172 214.935 127C214.935 155.684 191.683 178.936 163 178.936C134.317 178.936 111.064 155.684 111.064 127Z"/></clipPath><clipPath id="paint2_diamond_17059_17331_clip_path"><path fill-rule="evenodd" clip-rule="evenodd" d="M163 70.5484C131.823 70.5484 106.548 95.8226 106.548 127C106.548 158.177 131.823 183.452 163 183.452C194.177 183.452 219.452 158.177 219.452 127C219.452 95.8226 194.177 70.5484 163 70.5484ZM93 127C93 88.3401 124.34 57 163 57C201.66 57 233 88.3401 233 127C233 165.66 201.66 197 163 197C124.34 197 93 165.66 93 127Z"/></clipPath><linearGradient id="paint0_diamond_17059_17331" x1="0" y1="0" x2="500" y2="500" gradientUnits="userSpaceOnUse">
<stop stop-color="white"/>
<stop offset="0.341899" stop-color="white" stop-opacity="0"/>
<stop offset="0.749963" stop-color="white"/>
<stop offset="1" stop-color="white" stop-opacity="0"/>
</linearGradient>
<linearGradient id="paint1_diamond_17059_17331" x1="0" y1="0" x2="500" y2="500" gradientUnits="userSpaceOnUse">
<stop stop-color="white"/>
<stop offset="0.341899" stop-color="white" stop-opacity="0"/>
<stop offset="0.749963" stop-color="white"/>
<stop offset="1" stop-color="white" stop-opacity="0"/>
</linearGradient>
<linearGradient id="paint2_diamond_17059_17331" x1="0" y1="0" x2="500" y2="500" gradientUnits="userSpaceOnUse">
<stop stop-color="white"/>
<stop offset="0.341899" stop-color="white" stop-opacity="0"/>
<stop offset="0.749963" stop-color="white"/>
<stop offset="1" stop-color="white" stop-opacity="0"/>
</linearGradient>
</defs>
</svg>
