<svg width="326" height="254" viewBox="0 0 326 254" fill="none" xmlns="http://www.w3.org/2000/svg">
<rect x="0.666504" width="325.333" height="254" rx="8" fill="#222D26"/>
<path d="M99.4208 91.563C99.4208 81.57 106.673 73.4213 115.76 73.0158C115.525 73.0053 115.288 73 115.05 73C105.634 73 98 81.3109 98 91.563C98 101.815 105.634 110.126 115.05 110.126C115.288 110.126 115.525 110.121 115.76 110.11C106.673 109.705 99.4208 101.556 99.4208 91.563Z" fill="url(#paint0_linear_17053_15987)"/>
<path d="M102.263 91.563C102.263 81.57 109.515 73.4213 118.602 73.0158C118.367 73.0053 118.13 73 117.892 73C108.475 73 100.842 81.3109 100.842 91.563C100.842 101.815 108.475 110.126 117.892 110.126C118.13 110.126 118.367 110.121 118.602 110.11C109.515 109.705 102.263 101.556 102.263 91.563Z" fill="url(#paint1_linear_17053_15987)"/>
<path d="M121.444 73.0158C112.357 73.4213 105.104 81.57 105.104 91.563C105.104 101.556 112.357 109.705 121.444 110.11C121.208 110.121 120.971 110.126 120.733 110.126C111.317 110.126 103.683 101.815 103.683 91.563C103.683 81.3109 111.317 73 120.733 73C120.971 73 121.208 73.0053 121.444 73.0158Z" fill="url(#paint2_linear_17053_15987)"/>
<path d="M107.946 91.563C107.946 81.57 115.198 73.4213 124.285 73.0158C124.05 73.0053 123.813 73 123.575 73C114.159 73 106.525 81.3109 106.525 91.563C106.525 101.815 114.159 110.126 123.575 110.126C123.813 110.126 124.05 110.121 124.285 110.11C115.198 109.705 107.946 101.556 107.946 91.563Z" fill="url(#paint3_linear_17053_15987)"/>
<path d="M127.127 73.0158C118.04 73.4213 110.788 81.57 110.788 91.563C110.788 101.556 118.04 109.705 127.127 110.11C126.892 110.121 126.655 110.126 126.417 110.126C117 110.126 109.367 101.815 109.367 91.563C109.367 81.3109 117 73 126.417 73C126.655 73 126.892 73.0053 127.127 73.0158Z" fill="url(#paint4_linear_17053_15987)"/>
<path d="M113.629 91.563C113.629 81.57 120.882 73.4213 129.969 73.0158C129.733 73.0053 129.496 73 129.258 73C119.842 73 112.208 81.3109 112.208 91.563C112.208 101.815 119.842 110.126 129.258 110.126C129.496 110.126 129.733 110.121 129.969 110.11C120.882 109.705 113.629 101.556 113.629 91.563Z" fill="url(#paint5_linear_17053_15987)"/>
<path d="M132.81 73.0158C123.723 73.4213 116.471 81.57 116.471 91.563C116.471 101.556 123.724 109.705 132.811 110.11C132.575 110.121 132.338 110.126 132.1 110.126C122.684 110.126 115.05 101.815 115.05 91.563C115.05 81.3109 122.684 73 132.1 73C132.338 73 132.575 73.0053 132.81 73.0158Z" fill="url(#paint6_linear_17053_15987)"/>
<path d="M119.313 91.563C119.313 81.57 126.565 73.4213 135.652 73.0158C135.417 73.0053 135.18 73 134.942 73C125.525 73 117.892 81.3109 117.892 91.563C117.892 101.815 125.525 110.126 134.942 110.126C135.18 110.126 135.417 110.121 135.652 110.11C126.565 109.705 119.313 101.556 119.313 91.563Z" fill="url(#paint7_linear_17053_15987)"/>
<path d="M138.494 73.0158C129.407 73.4213 122.154 81.57 122.154 91.563C122.154 101.556 129.407 109.705 138.494 110.11C138.258 110.121 138.021 110.126 137.783 110.126C128.367 110.126 120.733 101.815 120.733 91.563C120.733 81.3109 128.367 73 137.783 73C138.021 73 138.258 73.0053 138.494 73.0158Z" fill="url(#paint8_linear_17053_15987)"/>
<path d="M124.996 91.563C124.996 81.57 132.248 73.4213 141.336 73.0158C141.1 73.0053 140.863 73 140.625 73C131.209 73 123.575 81.3109 123.575 91.563C123.575 101.815 131.209 110.126 140.625 110.126C140.863 110.126 141.1 110.121 141.336 110.11C132.249 109.705 124.996 101.556 124.996 91.563Z" fill="url(#paint9_linear_17053_15987)"/>
<path d="M144.177 73.0158C135.09 73.4213 127.838 81.57 127.838 91.563C127.838 101.556 135.09 109.705 144.177 110.11C143.942 110.121 143.705 110.126 143.467 110.126C134.05 110.126 126.417 101.815 126.417 91.563C126.417 81.3109 134.05 73 143.467 73C143.705 73 143.942 73.0053 144.177 73.0158Z" fill="url(#paint10_linear_17053_15987)"/>
<path d="M130.679 91.563C130.679 81.57 137.932 73.4213 147.019 73.0158C146.783 73.0053 146.546 73 146.308 73C136.892 73 129.258 81.3109 129.258 91.563C129.258 101.815 136.892 110.126 146.308 110.126C146.546 110.126 146.783 110.121 147.019 110.11C137.932 109.705 130.679 101.556 130.679 91.563Z" fill="url(#paint11_linear_17053_15987)"/>
<path d="M99.4208 161.496C99.4208 151.503 106.673 143.354 115.76 142.949C115.525 142.938 115.288 142.933 115.05 142.933C105.634 142.933 98 151.244 98 161.496C98 171.748 105.634 180.059 115.05 180.059C115.288 180.059 115.525 180.053 115.76 180.043C106.673 179.637 99.4208 171.489 99.4208 161.496Z" fill="url(#paint12_linear_17053_15987)"/>
<path d="M102.263 161.496C102.263 151.503 109.515 143.354 118.602 142.949C118.367 142.938 118.13 142.933 117.892 142.933C108.475 142.933 100.842 151.244 100.842 161.496C100.842 171.748 108.475 180.059 117.892 180.059C118.13 180.059 118.367 180.053 118.602 180.043C109.515 179.637 102.263 171.489 102.263 161.496Z" fill="url(#paint13_linear_17053_15987)"/>
<path d="M121.444 142.949C112.357 143.354 105.104 151.503 105.104 161.496C105.104 171.489 112.357 179.637 121.444 180.043C121.208 180.053 120.971 180.059 120.733 180.059C111.317 180.059 103.683 171.748 103.683 161.496C103.683 151.244 111.317 142.933 120.733 142.933C120.971 142.933 121.208 142.938 121.444 142.949Z" fill="url(#paint14_linear_17053_15987)"/>
<path d="M107.946 161.496C107.946 151.503 115.198 143.354 124.285 142.949C124.05 142.938 123.813 142.933 123.575 142.933C114.159 142.933 106.525 151.244 106.525 161.496C106.525 171.748 114.159 180.059 123.575 180.059C123.813 180.059 124.05 180.053 124.285 180.043C115.198 179.637 107.946 171.489 107.946 161.496Z" fill="url(#paint15_linear_17053_15987)"/>
<path d="M127.127 142.949C118.04 143.354 110.788 151.503 110.788 161.496C110.788 171.489 118.04 179.637 127.127 180.043C126.892 180.053 126.655 180.059 126.417 180.059C117 180.059 109.367 171.748 109.367 161.496C109.367 151.244 117 142.933 126.417 142.933C126.655 142.933 126.892 142.938 127.127 142.949Z" fill="url(#paint16_linear_17053_15987)"/>
<path d="M113.629 161.496C113.629 151.503 120.882 143.354 129.969 142.949C129.733 142.938 129.496 142.933 129.258 142.933C119.842 142.933 112.208 151.244 112.208 161.496C112.208 171.748 119.842 180.059 129.258 180.059C129.496 180.059 129.733 180.053 129.969 180.043C120.882 179.637 113.629 171.489 113.629 161.496Z" fill="url(#paint17_linear_17053_15987)"/>
<path d="M132.81 142.949C123.723 143.354 116.471 151.503 116.471 161.496C116.471 171.489 123.724 179.637 132.811 180.043C132.575 180.053 132.338 180.059 132.1 180.059C122.684 180.059 115.05 171.748 115.05 161.496C115.05 151.244 122.684 142.933 132.1 142.933C132.338 142.933 132.575 142.938 132.81 142.949Z" fill="url(#paint18_linear_17053_15987)"/>
<path d="M119.313 161.496C119.313 151.503 126.565 143.354 135.652 142.949C135.417 142.938 135.18 142.933 134.942 142.933C125.525 142.933 117.892 151.244 117.892 161.496C117.892 171.748 125.525 180.059 134.942 180.059C135.18 180.059 135.417 180.053 135.652 180.043C126.565 179.637 119.313 171.489 119.313 161.496Z" fill="url(#paint19_linear_17053_15987)"/>
<path d="M138.494 142.949C129.407 143.354 122.154 151.503 122.154 161.496C122.154 171.489 129.407 179.637 138.494 180.043C138.258 180.053 138.021 180.059 137.783 180.059C128.367 180.059 120.733 171.748 120.733 161.496C120.733 151.244 128.367 142.933 137.783 142.933C138.021 142.933 138.258 142.938 138.494 142.949Z" fill="url(#paint20_linear_17053_15987)"/>
<path d="M124.996 161.496C124.996 151.503 132.248 143.354 141.336 142.949C141.1 142.938 140.863 142.933 140.625 142.933C131.209 142.933 123.575 151.244 123.575 161.496C123.575 171.748 131.209 180.059 140.625 180.059C140.863 180.059 141.1 180.053 141.336 180.043C132.249 179.637 124.996 171.489 124.996 161.496Z" fill="url(#paint21_linear_17053_15987)"/>
<path d="M144.177 142.949C135.09 143.354 127.838 151.503 127.838 161.496C127.838 171.489 135.09 179.637 144.177 180.043C143.942 180.053 143.705 180.059 143.467 180.059C134.05 180.059 126.417 171.748 126.417 161.496C126.417 151.244 134.05 142.933 143.467 142.933C143.705 142.933 143.942 142.938 144.177 142.949Z" fill="url(#paint22_linear_17053_15987)"/>
<path d="M130.679 161.496C130.679 151.503 137.932 143.354 147.019 142.949C146.783 142.938 146.546 142.933 146.308 142.933C136.892 142.933 129.258 151.244 129.258 161.496C129.258 171.748 136.892 180.059 146.308 180.059C146.546 180.059 146.783 180.053 147.019 180.043C137.932 179.637 130.679 171.489 130.679 161.496Z" fill="url(#paint23_linear_17053_15987)"/>
<path d="M150.088 127.144C150.088 117.151 142.728 109.003 133.508 108.597C133.747 108.587 133.987 108.581 134.229 108.581C143.783 108.581 151.529 116.892 151.529 127.144C151.529 137.396 143.783 145.707 134.229 145.707C133.987 145.707 133.747 145.702 133.508 145.691C142.728 145.286 150.088 137.137 150.088 127.144Z" fill="url(#paint24_linear_17053_15987)"/>
<path d="M147.204 127.144C147.204 117.151 139.845 109.003 130.624 108.597C130.863 108.587 131.104 108.581 131.345 108.581C140.9 108.581 148.646 116.892 148.646 127.144C148.646 137.396 140.9 145.707 131.345 145.707C131.104 145.707 130.863 145.702 130.624 145.691C139.845 145.286 147.204 137.137 147.204 127.144Z" fill="url(#paint25_linear_17053_15987)"/>
<path d="M127.741 108.597C136.961 109.003 144.321 117.151 144.321 127.144C144.321 137.137 136.961 145.286 127.741 145.691C127.98 145.702 128.22 145.707 128.462 145.707C138.017 145.707 145.762 137.396 145.762 127.144C145.762 116.892 138.017 108.581 128.462 108.581C128.22 108.581 127.98 108.587 127.741 108.597Z" fill="url(#paint26_linear_17053_15987)"/>
<path d="M141.437 127.144C141.437 117.151 134.078 109.003 124.857 108.597C125.096 108.587 125.337 108.581 125.578 108.581C135.133 108.581 142.879 116.892 142.879 127.144C142.879 137.396 135.133 145.707 125.578 145.707C125.337 145.707 125.096 145.702 124.857 145.691C134.078 145.286 141.437 137.137 141.437 127.144Z" fill="url(#paint27_linear_17053_15987)"/>
<path d="M121.974 108.597C131.194 109.003 138.554 117.151 138.554 127.144C138.554 137.137 131.194 145.286 121.974 145.691C122.213 145.702 122.453 145.707 122.695 145.707C132.25 145.707 139.995 137.396 139.995 127.144C139.995 116.892 132.25 108.581 122.695 108.581C122.453 108.581 122.213 108.587 121.974 108.597Z" fill="url(#paint28_linear_17053_15987)"/>
<path d="M135.67 127.144C135.67 117.151 128.311 109.003 119.09 108.597C119.329 108.587 119.57 108.581 119.811 108.581C129.366 108.581 137.112 116.892 137.112 127.144C137.112 137.396 129.366 145.707 119.811 145.707C119.57 145.707 119.329 145.702 119.09 145.691C128.311 145.286 135.67 137.137 135.67 127.144Z" fill="url(#paint29_linear_17053_15987)"/>
<path d="M116.207 108.597C125.428 109.003 132.787 117.151 132.787 127.144C132.787 137.137 125.427 145.286 116.207 145.691C116.446 145.702 116.686 145.707 116.928 145.707C126.483 145.707 134.229 137.396 134.229 127.144C134.229 116.892 126.483 108.581 116.928 108.581C116.686 108.581 116.446 108.587 116.207 108.597Z" fill="url(#paint30_linear_17053_15987)"/>
<path d="M129.903 127.144C129.903 117.151 122.544 109.003 113.323 108.597C113.562 108.587 113.803 108.581 114.044 108.581C123.599 108.581 131.345 116.892 131.345 127.144C131.345 137.396 123.599 145.707 114.044 145.707C113.803 145.707 113.562 145.702 113.323 145.691C122.544 145.286 129.903 137.137 129.903 127.144Z" fill="url(#paint31_linear_17053_15987)"/>
<path d="M110.44 108.597C119.661 109.003 127.02 117.151 127.02 127.144C127.02 137.137 119.661 145.286 110.44 145.691C110.679 145.702 110.919 145.707 111.161 145.707C120.716 145.707 128.462 137.396 128.462 127.144C128.462 116.892 120.716 108.581 111.161 108.581C110.919 108.581 110.679 108.587 110.44 108.597Z" fill="url(#paint32_linear_17053_15987)"/>
<path d="M124.136 127.144C124.136 117.151 116.777 109.003 107.556 108.597C107.796 108.587 108.036 108.581 108.277 108.581C117.832 108.581 125.578 116.892 125.578 127.144C125.578 137.396 117.832 145.707 108.277 145.707C108.036 145.707 107.796 145.702 107.556 145.691C116.777 145.286 124.136 137.137 124.136 127.144Z" fill="url(#paint33_linear_17053_15987)"/>
<path d="M104.673 108.597C113.894 109.003 121.253 117.151 121.253 127.144C121.253 137.137 113.894 145.286 104.673 145.691C104.912 145.702 105.152 145.707 105.394 145.707C114.949 145.707 122.695 137.396 122.695 127.144C122.695 116.892 114.949 108.581 105.394 108.581C105.152 108.581 104.912 108.587 104.673 108.597Z" fill="url(#paint34_linear_17053_15987)"/>
<path d="M118.369 127.144C118.369 117.151 111.01 109.003 101.79 108.597C102.029 108.587 102.269 108.581 102.51 108.581C112.065 108.581 119.811 116.892 119.811 127.144C119.811 137.396 112.065 145.707 102.51 145.707C102.269 145.707 102.029 145.702 101.79 145.691C111.01 145.286 118.369 137.137 118.369 127.144Z" fill="url(#paint35_linear_17053_15987)"/>
<path d="M137.656 91.563C137.656 81.57 144.909 73.4213 153.996 73.0158C153.76 73.0053 153.523 73 153.285 73C143.869 73 136.235 81.3109 136.235 91.563C136.235 101.815 143.869 110.126 153.285 110.126C153.523 110.126 153.76 110.121 153.996 110.11C144.909 109.705 137.656 101.556 137.656 91.563Z" fill="url(#paint36_linear_17053_15987)"/>
<path d="M140.498 91.563C140.498 81.57 147.75 73.4213 156.837 73.0158C156.602 73.0053 156.365 73 156.127 73C146.711 73 139.077 81.3109 139.077 91.563C139.077 101.815 146.711 110.126 156.127 110.126C156.365 110.126 156.602 110.121 156.838 110.11C147.751 109.705 140.498 101.556 140.498 91.563Z" fill="url(#paint37_linear_17053_15987)"/>
<path d="M159.679 73.0158C150.592 73.4213 143.34 81.57 143.34 91.563C143.34 101.556 150.592 109.705 159.679 110.11C159.444 110.121 159.207 110.126 158.969 110.126C149.552 110.126 141.919 101.815 141.919 91.563C141.919 81.3109 149.552 73 158.969 73C159.207 73 159.444 73.0053 159.679 73.0158Z" fill="url(#paint38_linear_17053_15987)"/>
<path d="M146.181 91.563C146.181 81.57 153.434 73.4213 162.521 73.0158C162.285 73.0053 162.048 73 161.81 73C152.394 73 144.76 81.3109 144.76 91.563C144.76 101.815 152.394 110.126 161.81 110.126C162.048 110.126 162.285 110.121 162.521 110.11C153.434 109.705 146.181 101.556 146.181 91.563Z" fill="url(#paint39_linear_17053_15987)"/>
<path d="M165.362 73.0158C156.275 73.4213 149.023 81.57 149.023 91.563C149.023 101.556 156.276 109.705 165.363 110.11C165.127 110.121 164.89 110.126 164.652 110.126C155.236 110.126 147.602 101.815 147.602 91.563C147.602 81.3109 155.236 73 164.652 73C164.89 73 165.127 73.0053 165.362 73.0158Z" fill="url(#paint40_linear_17053_15987)"/>
<path d="M151.865 91.563C151.865 81.57 159.117 73.4213 168.204 73.0158C167.969 73.0053 167.732 73 167.494 73C158.077 73 150.444 81.3109 150.444 91.563C150.444 101.815 158.077 110.126 167.494 110.126C167.732 110.126 167.969 110.121 168.204 110.11C159.117 109.705 151.865 101.556 151.865 91.563Z" fill="url(#paint41_linear_17053_15987)"/>
<path d="M171.046 73.0158C161.959 73.4213 154.706 81.57 154.706 91.563C154.706 101.556 161.959 109.705 171.046 110.11C170.81 110.121 170.573 110.126 170.335 110.126C160.919 110.126 153.285 101.815 153.285 91.563C153.285 81.3109 160.919 73 170.335 73C170.573 73 170.81 73.0053 171.046 73.0158Z" fill="url(#paint42_linear_17053_15987)"/>
<path d="M157.548 91.563C157.548 81.57 164.8 73.4213 173.888 73.0158C173.652 73.0053 173.415 73 173.177 73C163.761 73 156.127 81.3109 156.127 91.563C156.127 101.815 163.761 110.126 173.177 110.126C173.415 110.126 173.652 110.121 173.888 110.11C164.801 109.705 157.548 101.556 157.548 91.563Z" fill="url(#paint43_linear_17053_15987)"/>
<path d="M176.729 73.0158C167.642 73.4213 160.39 81.57 160.39 91.563C160.39 101.556 167.642 109.705 176.729 110.11C176.494 110.121 176.257 110.126 176.019 110.126C166.602 110.126 158.969 101.815 158.969 91.563C158.969 81.3109 166.602 73 176.019 73C176.257 73 176.494 73.0053 176.729 73.0158Z" fill="url(#paint44_linear_17053_15987)"/>
<path d="M163.231 91.563C163.231 81.57 170.484 73.4213 179.571 73.0158C179.335 73.0053 179.098 73 178.86 73C169.444 73 161.81 81.3109 161.81 91.563C161.81 101.815 169.444 110.126 178.86 110.126C179.098 110.126 179.335 110.121 179.571 110.11C170.484 109.705 163.231 101.556 163.231 91.563Z" fill="url(#paint45_linear_17053_15987)"/>
<path d="M182.413 73.0158C173.326 73.4213 166.073 81.57 166.073 91.563C166.073 101.556 173.326 109.705 182.413 110.11C182.177 110.121 181.94 110.126 181.702 110.126C172.286 110.126 164.652 101.815 164.652 91.563C164.652 81.3109 172.286 73 181.702 73C181.94 73 182.177 73.0053 182.413 73.0158Z" fill="url(#paint46_linear_17053_15987)"/>
<path d="M168.915 91.563C168.915 81.57 176.167 73.4213 185.254 73.0158C185.019 73.0053 184.782 73 184.544 73C175.127 73 167.494 81.3109 167.494 91.563C167.494 101.815 175.127 110.126 184.544 110.126C184.782 110.126 185.019 110.121 185.254 110.11C176.167 109.705 168.915 101.556 168.915 91.563Z" fill="url(#paint47_linear_17053_15987)"/>
<path d="M137.656 161.496C137.656 151.503 144.909 143.354 153.996 142.949C153.76 142.938 153.523 142.933 153.285 142.933C143.869 142.933 136.235 151.244 136.235 161.496C136.235 171.748 143.869 180.059 153.285 180.059C153.523 180.059 153.76 180.053 153.996 180.043C144.909 179.637 137.656 171.489 137.656 161.496Z" fill="url(#paint48_linear_17053_15987)"/>
<path d="M140.498 161.496C140.498 151.503 147.75 143.354 156.837 142.949C156.602 142.938 156.365 142.933 156.127 142.933C146.711 142.933 139.077 151.244 139.077 161.496C139.077 171.748 146.711 180.059 156.127 180.059C156.365 180.059 156.602 180.053 156.838 180.043C147.751 179.637 140.498 171.489 140.498 161.496Z" fill="url(#paint49_linear_17053_15987)"/>
<path d="M159.679 142.949C150.592 143.354 143.34 151.503 143.34 161.496C143.34 171.489 150.592 179.637 159.679 180.043C159.444 180.053 159.207 180.059 158.969 180.059C149.552 180.059 141.919 171.748 141.919 161.496C141.919 151.244 149.552 142.933 158.969 142.933C159.207 142.933 159.444 142.938 159.679 142.949Z" fill="url(#paint50_linear_17053_15987)"/>
<path d="M146.181 161.496C146.181 151.503 153.434 143.354 162.521 142.949C162.285 142.938 162.048 142.933 161.81 142.933C152.394 142.933 144.76 151.244 144.76 161.496C144.76 171.748 152.394 180.059 161.81 180.059C162.048 180.059 162.285 180.053 162.521 180.043C153.434 179.637 146.181 171.489 146.181 161.496Z" fill="url(#paint51_linear_17053_15987)"/>
<path d="M165.362 142.949C156.275 143.354 149.023 151.503 149.023 161.496C149.023 171.489 156.276 179.637 165.363 180.043C165.127 180.053 164.89 180.059 164.652 180.059C155.236 180.059 147.602 171.748 147.602 161.496C147.602 151.244 155.236 142.933 164.652 142.933C164.89 142.933 165.127 142.938 165.362 142.949Z" fill="url(#paint52_linear_17053_15987)"/>
<path d="M151.865 161.496C151.865 151.503 159.117 143.354 168.204 142.949C167.969 142.938 167.732 142.933 167.494 142.933C158.077 142.933 150.444 151.244 150.444 161.496C150.444 171.748 158.077 180.059 167.494 180.059C167.732 180.059 167.969 180.053 168.204 180.043C159.117 179.637 151.865 171.489 151.865 161.496Z" fill="url(#paint53_linear_17053_15987)"/>
<path d="M171.046 142.949C161.959 143.354 154.706 151.503 154.706 161.496C154.706 171.489 161.959 179.637 171.046 180.043C170.81 180.053 170.573 180.059 170.335 180.059C160.919 180.059 153.285 171.748 153.285 161.496C153.285 151.244 160.919 142.933 170.335 142.933C170.573 142.933 170.81 142.938 171.046 142.949Z" fill="url(#paint54_linear_17053_15987)"/>
<path d="M157.548 161.496C157.548 151.503 164.8 143.354 173.888 142.949C173.652 142.938 173.415 142.933 173.177 142.933C163.761 142.933 156.127 151.244 156.127 161.496C156.127 171.748 163.761 180.059 173.177 180.059C173.415 180.059 173.652 180.053 173.888 180.043C164.801 179.637 157.548 171.489 157.548 161.496Z" fill="url(#paint55_linear_17053_15987)"/>
<path d="M176.729 142.949C167.642 143.354 160.39 151.503 160.39 161.496C160.39 171.489 167.642 179.637 176.729 180.043C176.494 180.053 176.257 180.059 176.019 180.059C166.602 180.059 158.969 171.748 158.969 161.496C158.969 151.244 166.602 142.933 176.019 142.933C176.257 142.933 176.494 142.938 176.729 142.949Z" fill="url(#paint56_linear_17053_15987)"/>
<path d="M163.231 161.496C163.231 151.503 170.484 143.354 179.571 142.949C179.335 142.938 179.098 142.933 178.86 142.933C169.444 142.933 161.81 151.244 161.81 161.496C161.81 171.748 169.444 180.059 178.86 180.059C179.098 180.059 179.335 180.053 179.571 180.043C170.484 179.637 163.231 171.489 163.231 161.496Z" fill="url(#paint57_linear_17053_15987)"/>
<path d="M182.413 142.949C173.326 143.354 166.073 151.503 166.073 161.496C166.073 171.489 173.326 179.637 182.413 180.043C182.177 180.053 181.94 180.059 181.702 180.059C172.286 180.059 164.652 171.748 164.652 161.496C164.652 151.244 172.286 142.933 181.702 142.933C181.94 142.933 182.177 142.938 182.413 142.949Z" fill="url(#paint58_linear_17053_15987)"/>
<path d="M168.915 161.496C168.915 151.503 176.167 143.354 185.254 142.949C185.019 142.938 184.782 142.933 184.544 142.933C175.127 142.933 167.494 151.244 167.494 161.496C167.494 171.748 175.127 180.059 184.544 180.059C184.782 180.059 185.019 180.053 185.254 180.043C176.167 179.637 168.915 171.489 168.915 161.496Z" fill="url(#paint59_linear_17053_15987)"/>
<path d="M188.323 127.144C188.323 117.151 180.964 109.003 171.743 108.597C171.982 108.587 172.222 108.581 172.464 108.581C182.019 108.581 189.765 116.892 189.765 127.144C189.765 137.396 182.019 145.707 172.464 145.707C172.222 145.707 171.982 145.702 171.743 145.691C180.964 145.286 188.323 137.137 188.323 127.144Z" fill="url(#paint60_linear_17053_15987)"/>
<path d="M185.439 127.144C185.439 117.151 178.08 109.003 168.86 108.597C169.099 108.587 169.339 108.581 169.58 108.581C179.135 108.581 186.881 116.892 186.881 127.144C186.881 137.396 179.135 145.707 169.58 145.707C169.339 145.707 169.099 145.702 168.86 145.691C178.08 145.286 185.439 137.137 185.439 127.144Z" fill="url(#paint61_linear_17053_15987)"/>
<path d="M165.976 108.597C175.197 109.003 182.556 117.151 182.556 127.144C182.556 137.137 175.197 145.286 165.976 145.691C166.215 145.702 166.455 145.707 166.697 145.707C176.252 145.707 183.998 137.396 183.998 127.144C183.998 116.892 176.252 108.581 166.697 108.581C166.455 108.581 166.215 108.587 165.976 108.597Z" fill="url(#paint62_linear_17053_15987)"/>
<path d="M179.673 127.144C179.673 117.151 172.313 109.003 163.093 108.597C163.332 108.587 163.572 108.581 163.813 108.581C173.368 108.581 181.114 116.892 181.114 127.144C181.114 137.396 173.368 145.707 163.813 145.707C163.572 145.707 163.332 145.702 163.093 145.691C172.313 145.286 179.673 137.137 179.673 127.144Z" fill="url(#paint63_linear_17053_15987)"/>
<path d="M160.209 108.597C169.43 109.003 176.789 117.151 176.789 127.144C176.789 137.137 169.43 145.286 160.209 145.691C160.448 145.702 160.689 145.707 160.93 145.707C170.485 145.707 178.231 137.396 178.231 127.144C178.231 116.892 170.485 108.581 160.93 108.581C160.689 108.581 160.448 108.587 160.209 108.597Z" fill="url(#paint64_linear_17053_15987)"/>
<path d="M173.906 127.144C173.906 117.151 166.546 109.003 157.326 108.597C157.565 108.587 157.805 108.581 158.047 108.581C167.602 108.581 175.347 116.892 175.347 127.144C175.347 137.396 167.602 145.707 158.047 145.707C157.805 145.707 157.565 145.702 157.326 145.691C166.546 145.286 173.906 137.137 173.906 127.144Z" fill="url(#paint65_linear_17053_15987)"/>
<path d="M154.442 108.597C163.663 109.003 171.022 117.151 171.022 127.144C171.022 137.137 163.663 145.286 154.442 145.691C154.681 145.702 154.922 145.707 155.163 145.707C164.718 145.707 172.464 137.396 172.464 127.144C172.464 116.892 164.718 108.581 155.163 108.581C154.922 108.581 154.681 108.587 154.442 108.597Z" fill="url(#paint66_linear_17053_15987)"/>
<path d="M168.139 127.144C168.139 117.151 160.779 109.003 151.559 108.597C151.798 108.587 152.038 108.581 152.28 108.581C161.835 108.581 169.58 116.892 169.58 127.144C169.58 137.396 161.835 145.707 152.28 145.707C152.038 145.707 151.798 145.702 151.559 145.691C160.779 145.286 168.139 137.137 168.139 127.144Z" fill="url(#paint67_linear_17053_15987)"/>
<path d="M148.675 108.597C157.896 109.003 165.255 117.151 165.255 127.144C165.255 137.137 157.896 145.286 148.675 145.691C148.914 145.702 149.155 145.707 149.396 145.707C158.951 145.707 166.697 137.396 166.697 127.144C166.697 116.892 158.951 108.581 149.396 108.581C149.155 108.581 148.914 108.587 148.675 108.597Z" fill="url(#paint68_linear_17053_15987)"/>
<path d="M162.372 127.144C162.372 117.151 155.012 109.003 145.792 108.597C146.031 108.587 146.271 108.581 146.513 108.581C156.068 108.581 163.813 116.892 163.813 127.144C163.813 137.396 156.068 145.707 146.513 145.707C146.271 145.707 146.031 145.702 145.792 145.691C155.012 145.286 162.372 137.137 162.372 127.144Z" fill="url(#paint69_linear_17053_15987)"/>
<path d="M142.908 108.597C152.129 109.003 159.488 117.151 159.488 127.144C159.488 137.137 152.129 145.286 142.908 145.691C143.147 145.702 143.388 145.707 143.629 145.707C153.184 145.707 160.93 137.396 160.93 127.144C160.93 116.892 153.184 108.581 143.629 108.581C143.388 108.581 143.147 108.587 142.908 108.597Z" fill="url(#paint70_linear_17053_15987)"/>
<path d="M156.605 127.144C156.605 117.151 149.246 109.003 140.025 108.597C140.264 108.587 140.504 108.581 140.746 108.581C150.301 108.581 158.047 116.892 158.047 127.144C158.047 137.396 150.301 145.707 140.746 145.707C140.504 145.707 140.264 145.702 140.025 145.691C149.246 145.286 156.605 137.137 156.605 127.144Z" fill="url(#paint71_linear_17053_15987)"/>
<path d="M175.891 91.563C175.891 81.57 183.144 73.4213 192.231 73.0158C191.995 73.0053 191.758 73 191.52 73C182.104 73 174.47 81.3109 174.47 91.563C174.47 101.815 182.104 110.126 191.52 110.126C191.758 110.126 191.995 110.121 192.231 110.11C183.144 109.705 175.891 101.556 175.891 91.563Z" fill="url(#paint72_linear_17053_15987)"/>
<path d="M178.733 91.563C178.733 81.57 185.986 73.4213 195.073 73.0158C194.837 73.0053 194.6 73 194.362 73C184.946 73 177.312 81.3109 177.312 91.563C177.312 101.815 184.946 110.126 194.362 110.126C194.6 110.126 194.837 110.121 195.073 110.11C185.986 109.705 178.733 101.556 178.733 91.563Z" fill="url(#paint73_linear_17053_15987)"/>
<path d="M197.914 73.0158C188.827 73.4213 181.575 81.57 181.575 91.563C181.575 101.556 188.827 109.705 197.914 110.11C197.679 110.121 197.442 110.126 197.204 110.126C187.787 110.126 180.154 101.815 180.154 91.563C180.154 81.3109 187.787 73 197.204 73C197.442 73 197.679 73.0053 197.914 73.0158Z" fill="url(#paint74_linear_17053_15987)"/>
<path d="M184.416 91.563C184.416 81.57 191.669 73.4213 200.756 73.0158C200.52 73.0053 200.283 73 200.046 73C190.629 73 182.995 81.3109 182.995 91.563C182.995 101.815 190.629 110.126 200.046 110.126C200.283 110.126 200.52 110.121 200.756 110.11C191.669 109.705 184.416 101.556 184.416 91.563Z" fill="url(#paint75_linear_17053_15987)"/>
<path d="M203.598 73.0158C194.511 73.4213 187.258 81.57 187.258 91.563C187.258 101.556 194.511 109.705 203.598 110.11C203.362 110.121 203.125 110.126 202.887 110.126C193.471 110.126 185.837 101.815 185.837 91.563C185.837 81.3109 193.471 73 202.887 73C203.125 73 203.362 73.0053 203.598 73.0158Z" fill="url(#paint76_linear_17053_15987)"/>
<path d="M190.1 91.563C190.1 81.57 197.352 73.4213 206.439 73.0158C206.204 73.0053 205.967 73 205.729 73C196.312 73 188.679 81.3109 188.679 91.563C188.679 101.815 196.312 110.126 205.729 110.126C205.967 110.126 206.204 110.121 206.439 110.11C197.352 109.705 190.1 101.556 190.1 91.563Z" fill="url(#paint77_linear_17053_15987)"/>
<path d="M209.281 73.0158C200.194 73.4213 192.941 81.57 192.941 91.563C192.941 101.556 200.194 109.705 209.281 110.11C209.045 110.121 208.809 110.126 208.571 110.126C199.154 110.126 191.52 101.815 191.52 91.563C191.52 81.3109 199.154 73 208.571 73C208.809 73 209.045 73.0053 209.281 73.0158Z" fill="url(#paint78_linear_17053_15987)"/>
<path d="M195.783 91.563C195.783 81.57 203.036 73.4213 212.123 73.0158C211.887 73.0053 211.65 73 211.412 73C201.996 73 194.362 81.3109 194.362 91.563C194.362 101.815 201.996 110.126 211.412 110.126C211.65 110.126 211.887 110.121 212.123 110.11C203.036 109.705 195.783 101.556 195.783 91.563Z" fill="url(#paint79_linear_17053_15987)"/>
<path d="M214.964 73.0158C205.877 73.4213 198.625 81.57 198.625 91.563C198.625 101.556 205.877 109.705 214.964 110.11C214.729 110.121 214.492 110.126 214.254 110.126C204.837 110.126 197.204 101.815 197.204 91.563C197.204 81.3109 204.837 73 214.254 73C214.492 73 214.729 73.0053 214.964 73.0158Z" fill="url(#paint80_linear_17053_15987)"/>
<path d="M201.466 91.563C201.466 81.57 208.719 73.4213 217.806 73.0158C217.57 73.0053 217.334 73 217.096 73C207.679 73 200.046 81.3109 200.046 91.563C200.046 101.815 207.679 110.126 217.096 110.126C217.334 110.126 217.57 110.121 217.806 110.11C208.719 109.705 201.466 101.556 201.466 91.563Z" fill="url(#paint81_linear_17053_15987)"/>
<path d="M220.648 73.0158C211.561 73.4213 204.308 81.57 204.308 91.563C204.308 101.556 211.561 109.705 220.648 110.11C220.412 110.121 220.175 110.126 219.937 110.126C210.521 110.126 202.887 101.815 202.887 91.563C202.887 81.3109 210.521 73 219.937 73C220.175 73 220.412 73.0053 220.648 73.0158Z" fill="url(#paint82_linear_17053_15987)"/>
<path d="M207.15 91.563C207.15 81.57 214.402 73.4213 223.489 73.0158C223.254 73.0053 223.017 73 222.779 73C213.362 73 205.729 81.3109 205.729 91.563C205.729 101.815 213.362 110.126 222.779 110.126C223.017 110.126 223.254 110.121 223.489 110.11C214.402 109.705 207.15 101.556 207.15 91.563Z" fill="url(#paint83_linear_17053_15987)"/>
<path d="M175.891 161.496C175.891 151.503 183.144 143.354 192.231 142.949C191.995 142.938 191.758 142.933 191.52 142.933C182.104 142.933 174.47 151.244 174.47 161.496C174.47 171.748 182.104 180.059 191.52 180.059C191.758 180.059 191.995 180.053 192.231 180.043C183.144 179.637 175.891 171.489 175.891 161.496Z" fill="url(#paint84_linear_17053_15987)"/>
<path d="M178.733 161.496C178.733 151.503 185.986 143.354 195.073 142.949C194.837 142.938 194.6 142.933 194.362 142.933C184.946 142.933 177.312 151.244 177.312 161.496C177.312 171.748 184.946 180.059 194.362 180.059C194.6 180.059 194.837 180.053 195.073 180.043C185.986 179.637 178.733 171.489 178.733 161.496Z" fill="url(#paint85_linear_17053_15987)"/>
<path d="M197.914 142.949C188.827 143.354 181.575 151.503 181.575 161.496C181.575 171.489 188.827 179.637 197.914 180.043C197.679 180.053 197.442 180.059 197.204 180.059C187.787 180.059 180.154 171.748 180.154 161.496C180.154 151.244 187.787 142.933 197.204 142.933C197.442 142.933 197.679 142.938 197.914 142.949Z" fill="url(#paint86_linear_17053_15987)"/>
<path d="M184.416 161.496C184.416 151.503 191.669 143.354 200.756 142.949C200.52 142.938 200.283 142.933 200.046 142.933C190.629 142.933 182.995 151.244 182.995 161.496C182.995 171.748 190.629 180.059 200.046 180.059C200.283 180.059 200.52 180.053 200.756 180.043C191.669 179.637 184.416 171.489 184.416 161.496Z" fill="url(#paint87_linear_17053_15987)"/>
<path d="M203.598 142.949C194.511 143.354 187.258 151.503 187.258 161.496C187.258 171.489 194.511 179.637 203.598 180.043C203.362 180.053 203.125 180.059 202.887 180.059C193.471 180.059 185.837 171.748 185.837 161.496C185.837 151.244 193.471 142.933 202.887 142.933C203.125 142.933 203.362 142.938 203.598 142.949Z" fill="url(#paint88_linear_17053_15987)"/>
<path d="M190.1 161.496C190.1 151.503 197.352 143.354 206.439 142.949C206.204 142.938 205.967 142.933 205.729 142.933C196.312 142.933 188.679 151.244 188.679 161.496C188.679 171.748 196.312 180.059 205.729 180.059C205.967 180.059 206.204 180.053 206.439 180.043C197.352 179.637 190.1 171.489 190.1 161.496Z" fill="url(#paint89_linear_17053_15987)"/>
<path d="M209.281 142.949C200.194 143.354 192.941 151.503 192.941 161.496C192.941 171.489 200.194 179.637 209.281 180.043C209.045 180.053 208.809 180.059 208.571 180.059C199.154 180.059 191.52 171.748 191.52 161.496C191.52 151.244 199.154 142.933 208.571 142.933C208.809 142.933 209.045 142.938 209.281 142.949Z" fill="url(#paint90_linear_17053_15987)"/>
<path d="M195.783 161.496C195.783 151.503 203.036 143.354 212.123 142.949C211.887 142.938 211.65 142.933 211.412 142.933C201.996 142.933 194.362 151.244 194.362 161.496C194.362 171.748 201.996 180.059 211.412 180.059C211.65 180.059 211.887 180.053 212.123 180.043C203.036 179.637 195.783 171.489 195.783 161.496Z" fill="url(#paint91_linear_17053_15987)"/>
<path d="M214.964 142.949C205.877 143.354 198.625 151.503 198.625 161.496C198.625 171.489 205.877 179.637 214.964 180.043C214.729 180.053 214.492 180.059 214.254 180.059C204.837 180.059 197.204 171.748 197.204 161.496C197.204 151.244 204.837 142.933 214.254 142.933C214.492 142.933 214.729 142.938 214.964 142.949Z" fill="url(#paint92_linear_17053_15987)"/>
<path d="M201.466 161.496C201.466 151.503 208.719 143.354 217.806 142.949C217.57 142.938 217.334 142.933 217.096 142.933C207.679 142.933 200.046 151.244 200.046 161.496C200.046 171.748 207.679 180.059 217.096 180.059C217.334 180.059 217.57 180.053 217.806 180.043C208.719 179.637 201.466 171.489 201.466 161.496Z" fill="url(#paint93_linear_17053_15987)"/>
<path d="M220.648 142.949C211.561 143.354 204.308 151.503 204.308 161.496C204.308 171.489 211.561 179.637 220.648 180.043C220.412 180.053 220.175 180.059 219.937 180.059C210.521 180.059 202.887 171.748 202.887 161.496C202.887 151.244 210.521 142.933 219.937 142.933C220.175 142.933 220.412 142.938 220.648 142.949Z" fill="url(#paint94_linear_17053_15987)"/>
<path d="M207.15 161.496C207.15 151.503 214.402 143.354 223.489 142.949C223.254 142.938 223.017 142.933 222.779 142.933C213.362 142.933 205.729 151.244 205.729 161.496C205.729 171.748 213.362 180.059 222.779 180.059C223.017 180.059 223.254 180.053 223.489 180.043C214.402 179.637 207.15 171.489 207.15 161.496Z" fill="url(#paint95_linear_17053_15987)"/>
<path d="M226.558 127.144C226.558 117.151 219.199 109.003 209.978 108.597C210.217 108.587 210.458 108.581 210.699 108.581C220.254 108.581 228 116.892 228 127.144C228 137.396 220.254 145.707 210.699 145.707C210.457 145.707 210.217 145.702 209.978 145.691C219.199 145.286 226.558 137.137 226.558 127.144Z" fill="url(#paint96_linear_17053_15987)"/>
<path d="M223.675 127.144C223.675 117.151 216.315 109.003 207.095 108.597C207.334 108.587 207.574 108.581 207.816 108.581C217.37 108.581 225.116 116.892 225.116 127.144C225.116 137.396 217.37 145.707 207.816 145.707C207.574 145.707 207.334 145.702 207.095 145.691C216.315 145.286 223.675 137.137 223.675 127.144Z" fill="url(#paint97_linear_17053_15987)"/>
<path d="M204.211 108.597C213.432 109.003 220.791 117.151 220.791 127.144C220.791 137.137 213.432 145.286 204.211 145.691C204.45 145.702 204.691 145.707 204.932 145.707C214.487 145.707 222.233 137.396 222.233 127.144C222.233 116.892 214.487 108.581 204.932 108.581C204.691 108.581 204.45 108.587 204.211 108.597Z" fill="url(#paint98_linear_17053_15987)"/>
<path d="M217.908 127.144C217.908 117.151 210.548 109.003 201.328 108.597C201.567 108.587 201.807 108.581 202.049 108.581C211.604 108.581 219.349 116.892 219.349 127.144C219.349 137.396 211.604 145.707 202.049 145.707C201.807 145.707 201.567 145.702 201.328 145.691C210.548 145.286 217.908 137.137 217.908 127.144Z" fill="url(#paint99_linear_17053_15987)"/>
<path d="M198.444 108.597C207.665 109.003 215.024 117.151 215.024 127.144C215.024 137.137 207.665 145.286 198.444 145.691C198.683 145.702 198.924 145.707 199.165 145.707C208.72 145.707 216.466 137.396 216.466 127.144C216.466 116.892 208.72 108.581 199.165 108.581C198.924 108.581 198.683 108.587 198.444 108.597Z" fill="url(#paint100_linear_17053_15987)"/>
<path d="M212.141 127.144C212.141 117.151 204.781 109.003 195.561 108.597C195.8 108.587 196.04 108.581 196.282 108.581C205.837 108.581 213.582 116.892 213.582 127.144C213.582 137.396 205.837 145.707 196.282 145.707C196.04 145.707 195.8 145.702 195.561 145.691C204.781 145.286 212.141 137.137 212.141 127.144Z" fill="url(#paint101_linear_17053_15987)"/>
<path d="M192.677 108.597C201.898 109.003 209.257 117.151 209.257 127.144C209.257 137.137 201.898 145.286 192.677 145.691C192.916 145.702 193.157 145.707 193.398 145.707C202.953 145.707 210.699 137.396 210.699 127.144C210.699 116.892 202.953 108.581 193.398 108.581C193.157 108.581 192.916 108.587 192.677 108.597Z" fill="url(#paint102_linear_17053_15987)"/>
<path d="M206.374 127.144C206.374 117.151 199.015 109.003 189.794 108.597C190.033 108.587 190.273 108.581 190.515 108.581C200.07 108.581 207.816 116.892 207.816 127.144C207.816 137.396 200.07 145.707 190.515 145.707C190.273 145.707 190.033 145.702 189.794 145.691C199.014 145.286 206.374 137.137 206.374 127.144Z" fill="url(#paint103_linear_17053_15987)"/>
<path d="M186.91 108.597C196.131 109.003 203.49 117.151 203.49 127.144C203.49 137.137 196.131 145.286 186.91 145.691C187.149 145.702 187.39 145.707 187.631 145.707C197.186 145.707 204.932 137.396 204.932 127.144C204.932 116.892 197.186 108.581 187.631 108.581C187.39 108.581 187.149 108.587 186.91 108.597Z" fill="url(#paint104_linear_17053_15987)"/>
<path d="M200.607 127.144C200.607 117.151 193.248 109.003 184.027 108.597C184.266 108.587 184.506 108.581 184.748 108.581C194.303 108.581 202.049 116.892 202.049 127.144C202.049 137.396 194.303 145.707 184.748 145.707C184.506 145.707 184.266 145.702 184.027 145.691C193.248 145.286 200.607 137.137 200.607 127.144Z" fill="url(#paint105_linear_17053_15987)"/>
<path d="M181.143 108.597C190.364 109.003 197.723 117.151 197.723 127.144C197.723 137.137 190.364 145.286 181.143 145.691C181.383 145.702 181.623 145.707 181.864 145.707C191.419 145.707 199.165 137.396 199.165 127.144C199.165 116.892 191.419 108.581 181.864 108.581C181.623 108.581 181.383 108.587 181.143 108.597Z" fill="url(#paint106_linear_17053_15987)"/>
<path d="M194.84 127.144C194.84 117.151 187.481 109.003 178.26 108.597C178.499 108.587 178.739 108.581 178.981 108.581C188.536 108.581 196.282 116.892 196.282 127.144C196.282 137.396 188.536 145.707 178.981 145.707C178.739 145.707 178.499 145.702 178.26 145.691C187.481 145.286 194.84 137.137 194.84 127.144Z" fill="url(#paint107_linear_17053_15987)"/>
<defs>
<linearGradient id="paint0_linear_17053_15987" x1="122.509" y1="73" x2="122.509" y2="112.446" gradientUnits="userSpaceOnUse">
<stop stop-color="#222D26"/>
<stop offset="0.494955" stop-color="white"/>
<stop offset="1" stop-color="#222D26" stop-opacity="0"/>
</linearGradient>
<linearGradient id="paint1_linear_17053_15987" x1="122.509" y1="73" x2="122.509" y2="112.446" gradientUnits="userSpaceOnUse">
<stop stop-color="#222D26"/>
<stop offset="0.494955" stop-color="white"/>
<stop offset="1" stop-color="#222D26" stop-opacity="0"/>
</linearGradient>
<linearGradient id="paint2_linear_17053_15987" x1="122.509" y1="73" x2="122.509" y2="112.446" gradientUnits="userSpaceOnUse">
<stop stop-color="#222D26"/>
<stop offset="0.494955" stop-color="white"/>
<stop offset="1" stop-color="#222D26" stop-opacity="0"/>
</linearGradient>
<linearGradient id="paint3_linear_17053_15987" x1="122.509" y1="73" x2="122.509" y2="112.446" gradientUnits="userSpaceOnUse">
<stop stop-color="#222D26"/>
<stop offset="0.494955" stop-color="white"/>
<stop offset="1" stop-color="#222D26" stop-opacity="0"/>
</linearGradient>
<linearGradient id="paint4_linear_17053_15987" x1="122.509" y1="73" x2="122.509" y2="112.446" gradientUnits="userSpaceOnUse">
<stop stop-color="#222D26"/>
<stop offset="0.494955" stop-color="white"/>
<stop offset="1" stop-color="#222D26" stop-opacity="0"/>
</linearGradient>
<linearGradient id="paint5_linear_17053_15987" x1="122.509" y1="73" x2="122.509" y2="112.446" gradientUnits="userSpaceOnUse">
<stop stop-color="#222D26"/>
<stop offset="0.494955" stop-color="white"/>
<stop offset="1" stop-color="#222D26" stop-opacity="0"/>
</linearGradient>
<linearGradient id="paint6_linear_17053_15987" x1="122.509" y1="73" x2="122.509" y2="112.446" gradientUnits="userSpaceOnUse">
<stop stop-color="#222D26"/>
<stop offset="0.494955" stop-color="white"/>
<stop offset="1" stop-color="#222D26" stop-opacity="0"/>
</linearGradient>
<linearGradient id="paint7_linear_17053_15987" x1="122.509" y1="73" x2="122.509" y2="112.446" gradientUnits="userSpaceOnUse">
<stop stop-color="#222D26"/>
<stop offset="0.494955" stop-color="white"/>
<stop offset="1" stop-color="#222D26" stop-opacity="0"/>
</linearGradient>
<linearGradient id="paint8_linear_17053_15987" x1="122.509" y1="73" x2="122.509" y2="112.446" gradientUnits="userSpaceOnUse">
<stop stop-color="#222D26"/>
<stop offset="0.494955" stop-color="white"/>
<stop offset="1" stop-color="#222D26" stop-opacity="0"/>
</linearGradient>
<linearGradient id="paint9_linear_17053_15987" x1="122.509" y1="73" x2="122.509" y2="112.446" gradientUnits="userSpaceOnUse">
<stop stop-color="#222D26"/>
<stop offset="0.494955" stop-color="white"/>
<stop offset="1" stop-color="#222D26" stop-opacity="0"/>
</linearGradient>
<linearGradient id="paint10_linear_17053_15987" x1="122.509" y1="73" x2="122.509" y2="112.446" gradientUnits="userSpaceOnUse">
<stop stop-color="#222D26"/>
<stop offset="0.494955" stop-color="white"/>
<stop offset="1" stop-color="#222D26" stop-opacity="0"/>
</linearGradient>
<linearGradient id="paint11_linear_17053_15987" x1="122.509" y1="73" x2="122.509" y2="112.446" gradientUnits="userSpaceOnUse">
<stop stop-color="#222D26"/>
<stop offset="0.494955" stop-color="white"/>
<stop offset="1" stop-color="#222D26" stop-opacity="0"/>
</linearGradient>
<linearGradient id="paint12_linear_17053_15987" x1="122.509" y1="142.933" x2="122.509" y2="182.379" gradientUnits="userSpaceOnUse">
<stop stop-color="#222D26"/>
<stop offset="0.494955" stop-color="white"/>
<stop offset="1" stop-color="#222D26" stop-opacity="0"/>
</linearGradient>
<linearGradient id="paint13_linear_17053_15987" x1="122.509" y1="142.933" x2="122.509" y2="182.379" gradientUnits="userSpaceOnUse">
<stop stop-color="#222D26"/>
<stop offset="0.494955" stop-color="white"/>
<stop offset="1" stop-color="#222D26" stop-opacity="0"/>
</linearGradient>
<linearGradient id="paint14_linear_17053_15987" x1="122.509" y1="142.933" x2="122.509" y2="182.379" gradientUnits="userSpaceOnUse">
<stop stop-color="#222D26"/>
<stop offset="0.494955" stop-color="white"/>
<stop offset="1" stop-color="#222D26" stop-opacity="0"/>
</linearGradient>
<linearGradient id="paint15_linear_17053_15987" x1="122.509" y1="142.933" x2="122.509" y2="182.379" gradientUnits="userSpaceOnUse">
<stop stop-color="#222D26"/>
<stop offset="0.494955" stop-color="white"/>
<stop offset="1" stop-color="#222D26" stop-opacity="0"/>
</linearGradient>
<linearGradient id="paint16_linear_17053_15987" x1="122.509" y1="142.933" x2="122.509" y2="182.379" gradientUnits="userSpaceOnUse">
<stop stop-color="#222D26"/>
<stop offset="0.494955" stop-color="white"/>
<stop offset="1" stop-color="#222D26" stop-opacity="0"/>
</linearGradient>
<linearGradient id="paint17_linear_17053_15987" x1="122.509" y1="142.933" x2="122.509" y2="182.379" gradientUnits="userSpaceOnUse">
<stop stop-color="#222D26"/>
<stop offset="0.494955" stop-color="white"/>
<stop offset="1" stop-color="#222D26" stop-opacity="0"/>
</linearGradient>
<linearGradient id="paint18_linear_17053_15987" x1="122.509" y1="142.933" x2="122.509" y2="182.379" gradientUnits="userSpaceOnUse">
<stop stop-color="#222D26"/>
<stop offset="0.494955" stop-color="white"/>
<stop offset="1" stop-color="#222D26" stop-opacity="0"/>
</linearGradient>
<linearGradient id="paint19_linear_17053_15987" x1="122.509" y1="142.933" x2="122.509" y2="182.379" gradientUnits="userSpaceOnUse">
<stop stop-color="#222D26"/>
<stop offset="0.494955" stop-color="white"/>
<stop offset="1" stop-color="#222D26" stop-opacity="0"/>
</linearGradient>
<linearGradient id="paint20_linear_17053_15987" x1="122.509" y1="142.933" x2="122.509" y2="182.379" gradientUnits="userSpaceOnUse">
<stop stop-color="#222D26"/>
<stop offset="0.494955" stop-color="white"/>
<stop offset="1" stop-color="#222D26" stop-opacity="0"/>
</linearGradient>
<linearGradient id="paint21_linear_17053_15987" x1="122.509" y1="142.933" x2="122.509" y2="182.379" gradientUnits="userSpaceOnUse">
<stop stop-color="#222D26"/>
<stop offset="0.494955" stop-color="white"/>
<stop offset="1" stop-color="#222D26" stop-opacity="0"/>
</linearGradient>
<linearGradient id="paint22_linear_17053_15987" x1="122.509" y1="142.933" x2="122.509" y2="182.379" gradientUnits="userSpaceOnUse">
<stop stop-color="#222D26"/>
<stop offset="0.494955" stop-color="white"/>
<stop offset="1" stop-color="#222D26" stop-opacity="0"/>
</linearGradient>
<linearGradient id="paint23_linear_17053_15987" x1="122.509" y1="142.933" x2="122.509" y2="182.379" gradientUnits="userSpaceOnUse">
<stop stop-color="#222D26"/>
<stop offset="0.494955" stop-color="white"/>
<stop offset="1" stop-color="#222D26" stop-opacity="0"/>
</linearGradient>
<linearGradient id="paint24_linear_17053_15987" x1="126.659" y1="108.581" x2="126.659" y2="145.707" gradientUnits="userSpaceOnUse">
<stop stop-color="#222D26" stop-opacity="0"/>
<stop offset="0.512772" stop-color="white"/>
<stop offset="1" stop-color="#222D26"/>
</linearGradient>
<linearGradient id="paint25_linear_17053_15987" x1="126.659" y1="108.581" x2="126.659" y2="145.707" gradientUnits="userSpaceOnUse">
<stop stop-color="#222D26" stop-opacity="0"/>
<stop offset="0.512772" stop-color="white"/>
<stop offset="1" stop-color="#222D26"/>
</linearGradient>
<linearGradient id="paint26_linear_17053_15987" x1="126.659" y1="108.581" x2="126.659" y2="145.707" gradientUnits="userSpaceOnUse">
<stop stop-color="#222D26" stop-opacity="0"/>
<stop offset="0.512772" stop-color="white"/>
<stop offset="1" stop-color="#222D26"/>
</linearGradient>
<linearGradient id="paint27_linear_17053_15987" x1="126.659" y1="108.581" x2="126.659" y2="145.707" gradientUnits="userSpaceOnUse">
<stop stop-color="#222D26" stop-opacity="0"/>
<stop offset="0.512772" stop-color="white"/>
<stop offset="1" stop-color="#222D26"/>
</linearGradient>
<linearGradient id="paint28_linear_17053_15987" x1="126.659" y1="108.581" x2="126.659" y2="145.707" gradientUnits="userSpaceOnUse">
<stop stop-color="#222D26" stop-opacity="0"/>
<stop offset="0.512772" stop-color="white"/>
<stop offset="1" stop-color="#222D26"/>
</linearGradient>
<linearGradient id="paint29_linear_17053_15987" x1="126.659" y1="108.581" x2="126.659" y2="145.707" gradientUnits="userSpaceOnUse">
<stop stop-color="#222D26" stop-opacity="0"/>
<stop offset="0.512772" stop-color="white"/>
<stop offset="1" stop-color="#222D26"/>
</linearGradient>
<linearGradient id="paint30_linear_17053_15987" x1="126.659" y1="108.581" x2="126.659" y2="145.707" gradientUnits="userSpaceOnUse">
<stop stop-color="#222D26" stop-opacity="0"/>
<stop offset="0.512772" stop-color="white"/>
<stop offset="1" stop-color="#222D26"/>
</linearGradient>
<linearGradient id="paint31_linear_17053_15987" x1="126.659" y1="108.581" x2="126.659" y2="145.707" gradientUnits="userSpaceOnUse">
<stop stop-color="#222D26" stop-opacity="0"/>
<stop offset="0.512772" stop-color="white"/>
<stop offset="1" stop-color="#222D26"/>
</linearGradient>
<linearGradient id="paint32_linear_17053_15987" x1="126.659" y1="108.581" x2="126.659" y2="145.707" gradientUnits="userSpaceOnUse">
<stop stop-color="#222D26" stop-opacity="0"/>
<stop offset="0.512772" stop-color="white"/>
<stop offset="1" stop-color="#222D26"/>
</linearGradient>
<linearGradient id="paint33_linear_17053_15987" x1="126.659" y1="108.581" x2="126.659" y2="145.707" gradientUnits="userSpaceOnUse">
<stop stop-color="#222D26" stop-opacity="0"/>
<stop offset="0.512772" stop-color="white"/>
<stop offset="1" stop-color="#222D26"/>
</linearGradient>
<linearGradient id="paint34_linear_17053_15987" x1="126.659" y1="108.581" x2="126.659" y2="145.707" gradientUnits="userSpaceOnUse">
<stop stop-color="#222D26" stop-opacity="0"/>
<stop offset="0.512772" stop-color="white"/>
<stop offset="1" stop-color="#222D26"/>
</linearGradient>
<linearGradient id="paint35_linear_17053_15987" x1="126.659" y1="108.581" x2="126.659" y2="145.707" gradientUnits="userSpaceOnUse">
<stop stop-color="#222D26" stop-opacity="0"/>
<stop offset="0.512772" stop-color="white"/>
<stop offset="1" stop-color="#222D26"/>
</linearGradient>
<linearGradient id="paint36_linear_17053_15987" x1="160.745" y1="73" x2="160.745" y2="112.446" gradientUnits="userSpaceOnUse">
<stop stop-color="#222D26"/>
<stop offset="0.494955" stop-color="white"/>
<stop offset="1" stop-color="#222D26" stop-opacity="0"/>
</linearGradient>
<linearGradient id="paint37_linear_17053_15987" x1="160.745" y1="73" x2="160.745" y2="112.446" gradientUnits="userSpaceOnUse">
<stop stop-color="#222D26"/>
<stop offset="0.494955" stop-color="white"/>
<stop offset="1" stop-color="#222D26" stop-opacity="0"/>
</linearGradient>
<linearGradient id="paint38_linear_17053_15987" x1="160.745" y1="73" x2="160.745" y2="112.446" gradientUnits="userSpaceOnUse">
<stop stop-color="#222D26"/>
<stop offset="0.494955" stop-color="white"/>
<stop offset="1" stop-color="#222D26" stop-opacity="0"/>
</linearGradient>
<linearGradient id="paint39_linear_17053_15987" x1="160.745" y1="73" x2="160.745" y2="112.446" gradientUnits="userSpaceOnUse">
<stop stop-color="#222D26"/>
<stop offset="0.494955" stop-color="white"/>
<stop offset="1" stop-color="#222D26" stop-opacity="0"/>
</linearGradient>
<linearGradient id="paint40_linear_17053_15987" x1="160.745" y1="73" x2="160.745" y2="112.446" gradientUnits="userSpaceOnUse">
<stop stop-color="#222D26"/>
<stop offset="0.494955" stop-color="white"/>
<stop offset="1" stop-color="#222D26" stop-opacity="0"/>
</linearGradient>
<linearGradient id="paint41_linear_17053_15987" x1="160.745" y1="73" x2="160.745" y2="112.446" gradientUnits="userSpaceOnUse">
<stop stop-color="#222D26"/>
<stop offset="0.494955" stop-color="white"/>
<stop offset="1" stop-color="#222D26" stop-opacity="0"/>
</linearGradient>
<linearGradient id="paint42_linear_17053_15987" x1="160.745" y1="73" x2="160.745" y2="112.446" gradientUnits="userSpaceOnUse">
<stop stop-color="#222D26"/>
<stop offset="0.494955" stop-color="white"/>
<stop offset="1" stop-color="#222D26" stop-opacity="0"/>
</linearGradient>
<linearGradient id="paint43_linear_17053_15987" x1="160.745" y1="73" x2="160.745" y2="112.446" gradientUnits="userSpaceOnUse">
<stop stop-color="#222D26"/>
<stop offset="0.494955" stop-color="white"/>
<stop offset="1" stop-color="#222D26" stop-opacity="0"/>
</linearGradient>
<linearGradient id="paint44_linear_17053_15987" x1="160.745" y1="73" x2="160.745" y2="112.446" gradientUnits="userSpaceOnUse">
<stop stop-color="#222D26"/>
<stop offset="0.494955" stop-color="white"/>
<stop offset="1" stop-color="#222D26" stop-opacity="0"/>
</linearGradient>
<linearGradient id="paint45_linear_17053_15987" x1="160.745" y1="73" x2="160.745" y2="112.446" gradientUnits="userSpaceOnUse">
<stop stop-color="#222D26"/>
<stop offset="0.494955" stop-color="white"/>
<stop offset="1" stop-color="#222D26" stop-opacity="0"/>
</linearGradient>
<linearGradient id="paint46_linear_17053_15987" x1="160.745" y1="73" x2="160.745" y2="112.446" gradientUnits="userSpaceOnUse">
<stop stop-color="#222D26"/>
<stop offset="0.494955" stop-color="white"/>
<stop offset="1" stop-color="#222D26" stop-opacity="0"/>
</linearGradient>
<linearGradient id="paint47_linear_17053_15987" x1="160.745" y1="73" x2="160.745" y2="112.446" gradientUnits="userSpaceOnUse">
<stop stop-color="#222D26"/>
<stop offset="0.494955" stop-color="white"/>
<stop offset="1" stop-color="#222D26" stop-opacity="0"/>
</linearGradient>
<linearGradient id="paint48_linear_17053_15987" x1="160.745" y1="142.933" x2="160.745" y2="182.379" gradientUnits="userSpaceOnUse">
<stop stop-color="#222D26"/>
<stop offset="0.494955" stop-color="white"/>
<stop offset="1" stop-color="#222D26" stop-opacity="0"/>
</linearGradient>
<linearGradient id="paint49_linear_17053_15987" x1="160.745" y1="142.933" x2="160.745" y2="182.379" gradientUnits="userSpaceOnUse">
<stop stop-color="#222D26"/>
<stop offset="0.494955" stop-color="white"/>
<stop offset="1" stop-color="#222D26" stop-opacity="0"/>
</linearGradient>
<linearGradient id="paint50_linear_17053_15987" x1="160.745" y1="142.933" x2="160.745" y2="182.379" gradientUnits="userSpaceOnUse">
<stop stop-color="#222D26"/>
<stop offset="0.494955" stop-color="white"/>
<stop offset="1" stop-color="#222D26" stop-opacity="0"/>
</linearGradient>
<linearGradient id="paint51_linear_17053_15987" x1="160.745" y1="142.933" x2="160.745" y2="182.379" gradientUnits="userSpaceOnUse">
<stop stop-color="#222D26"/>
<stop offset="0.494955" stop-color="white"/>
<stop offset="1" stop-color="#222D26" stop-opacity="0"/>
</linearGradient>
<linearGradient id="paint52_linear_17053_15987" x1="160.745" y1="142.933" x2="160.745" y2="182.379" gradientUnits="userSpaceOnUse">
<stop stop-color="#222D26"/>
<stop offset="0.494955" stop-color="white"/>
<stop offset="1" stop-color="#222D26" stop-opacity="0"/>
</linearGradient>
<linearGradient id="paint53_linear_17053_15987" x1="160.745" y1="142.933" x2="160.745" y2="182.379" gradientUnits="userSpaceOnUse">
<stop stop-color="#222D26"/>
<stop offset="0.494955" stop-color="white"/>
<stop offset="1" stop-color="#222D26" stop-opacity="0"/>
</linearGradient>
<linearGradient id="paint54_linear_17053_15987" x1="160.745" y1="142.933" x2="160.745" y2="182.379" gradientUnits="userSpaceOnUse">
<stop stop-color="#222D26"/>
<stop offset="0.494955" stop-color="white"/>
<stop offset="1" stop-color="#222D26" stop-opacity="0"/>
</linearGradient>
<linearGradient id="paint55_linear_17053_15987" x1="160.745" y1="142.933" x2="160.745" y2="182.379" gradientUnits="userSpaceOnUse">
<stop stop-color="#222D26"/>
<stop offset="0.494955" stop-color="white"/>
<stop offset="1" stop-color="#222D26" stop-opacity="0"/>
</linearGradient>
<linearGradient id="paint56_linear_17053_15987" x1="160.745" y1="142.933" x2="160.745" y2="182.379" gradientUnits="userSpaceOnUse">
<stop stop-color="#222D26"/>
<stop offset="0.494955" stop-color="white"/>
<stop offset="1" stop-color="#222D26" stop-opacity="0"/>
</linearGradient>
<linearGradient id="paint57_linear_17053_15987" x1="160.745" y1="142.933" x2="160.745" y2="182.379" gradientUnits="userSpaceOnUse">
<stop stop-color="#222D26"/>
<stop offset="0.494955" stop-color="white"/>
<stop offset="1" stop-color="#222D26" stop-opacity="0"/>
</linearGradient>
<linearGradient id="paint58_linear_17053_15987" x1="160.745" y1="142.933" x2="160.745" y2="182.379" gradientUnits="userSpaceOnUse">
<stop stop-color="#222D26"/>
<stop offset="0.494955" stop-color="white"/>
<stop offset="1" stop-color="#222D26" stop-opacity="0"/>
</linearGradient>
<linearGradient id="paint59_linear_17053_15987" x1="160.745" y1="142.933" x2="160.745" y2="182.379" gradientUnits="userSpaceOnUse">
<stop stop-color="#222D26"/>
<stop offset="0.494955" stop-color="white"/>
<stop offset="1" stop-color="#222D26" stop-opacity="0"/>
</linearGradient>
<linearGradient id="paint60_linear_17053_15987" x1="164.895" y1="108.581" x2="164.895" y2="145.707" gradientUnits="userSpaceOnUse">
<stop stop-color="#222D26" stop-opacity="0"/>
<stop offset="0.512772" stop-color="white"/>
<stop offset="1" stop-color="#222D26"/>
</linearGradient>
<linearGradient id="paint61_linear_17053_15987" x1="164.895" y1="108.581" x2="164.895" y2="145.707" gradientUnits="userSpaceOnUse">
<stop stop-color="#222D26" stop-opacity="0"/>
<stop offset="0.512772" stop-color="white"/>
<stop offset="1" stop-color="#222D26"/>
</linearGradient>
<linearGradient id="paint62_linear_17053_15987" x1="164.895" y1="108.581" x2="164.895" y2="145.707" gradientUnits="userSpaceOnUse">
<stop stop-color="#222D26" stop-opacity="0"/>
<stop offset="0.512772" stop-color="white"/>
<stop offset="1" stop-color="#222D26"/>
</linearGradient>
<linearGradient id="paint63_linear_17053_15987" x1="164.895" y1="108.581" x2="164.895" y2="145.707" gradientUnits="userSpaceOnUse">
<stop stop-color="#222D26" stop-opacity="0"/>
<stop offset="0.512772" stop-color="white"/>
<stop offset="1" stop-color="#222D26"/>
</linearGradient>
<linearGradient id="paint64_linear_17053_15987" x1="164.895" y1="108.581" x2="164.895" y2="145.707" gradientUnits="userSpaceOnUse">
<stop stop-color="#222D26" stop-opacity="0"/>
<stop offset="0.512772" stop-color="white"/>
<stop offset="1" stop-color="#222D26"/>
</linearGradient>
<linearGradient id="paint65_linear_17053_15987" x1="164.895" y1="108.581" x2="164.895" y2="145.707" gradientUnits="userSpaceOnUse">
<stop stop-color="#222D26" stop-opacity="0"/>
<stop offset="0.512772" stop-color="white"/>
<stop offset="1" stop-color="#222D26"/>
</linearGradient>
<linearGradient id="paint66_linear_17053_15987" x1="164.895" y1="108.581" x2="164.895" y2="145.707" gradientUnits="userSpaceOnUse">
<stop stop-color="#222D26" stop-opacity="0"/>
<stop offset="0.512772" stop-color="white"/>
<stop offset="1" stop-color="#222D26"/>
</linearGradient>
<linearGradient id="paint67_linear_17053_15987" x1="164.895" y1="108.581" x2="164.895" y2="145.707" gradientUnits="userSpaceOnUse">
<stop stop-color="#222D26" stop-opacity="0"/>
<stop offset="0.512772" stop-color="white"/>
<stop offset="1" stop-color="#222D26"/>
</linearGradient>
<linearGradient id="paint68_linear_17053_15987" x1="164.895" y1="108.581" x2="164.895" y2="145.707" gradientUnits="userSpaceOnUse">
<stop stop-color="#222D26" stop-opacity="0"/>
<stop offset="0.512772" stop-color="white"/>
<stop offset="1" stop-color="#222D26"/>
</linearGradient>
<linearGradient id="paint69_linear_17053_15987" x1="164.895" y1="108.581" x2="164.895" y2="145.707" gradientUnits="userSpaceOnUse">
<stop stop-color="#222D26" stop-opacity="0"/>
<stop offset="0.512772" stop-color="white"/>
<stop offset="1" stop-color="#222D26"/>
</linearGradient>
<linearGradient id="paint70_linear_17053_15987" x1="164.895" y1="108.581" x2="164.895" y2="145.707" gradientUnits="userSpaceOnUse">
<stop stop-color="#222D26" stop-opacity="0"/>
<stop offset="0.512772" stop-color="white"/>
<stop offset="1" stop-color="#222D26"/>
</linearGradient>
<linearGradient id="paint71_linear_17053_15987" x1="164.895" y1="108.581" x2="164.895" y2="145.707" gradientUnits="userSpaceOnUse">
<stop stop-color="#222D26" stop-opacity="0"/>
<stop offset="0.512772" stop-color="white"/>
<stop offset="1" stop-color="#222D26"/>
</linearGradient>
<linearGradient id="paint72_linear_17053_15987" x1="198.98" y1="73" x2="198.98" y2="112.446" gradientUnits="userSpaceOnUse">
<stop stop-color="#222D26"/>
<stop offset="0.494955" stop-color="white"/>
<stop offset="1" stop-color="#222D26" stop-opacity="0"/>
</linearGradient>
<linearGradient id="paint73_linear_17053_15987" x1="198.98" y1="73" x2="198.98" y2="112.446" gradientUnits="userSpaceOnUse">
<stop stop-color="#222D26"/>
<stop offset="0.494955" stop-color="white"/>
<stop offset="1" stop-color="#222D26" stop-opacity="0"/>
</linearGradient>
<linearGradient id="paint74_linear_17053_15987" x1="198.98" y1="73" x2="198.98" y2="112.446" gradientUnits="userSpaceOnUse">
<stop stop-color="#222D26"/>
<stop offset="0.494955" stop-color="white"/>
<stop offset="1" stop-color="#222D26" stop-opacity="0"/>
</linearGradient>
<linearGradient id="paint75_linear_17053_15987" x1="198.98" y1="73" x2="198.98" y2="112.446" gradientUnits="userSpaceOnUse">
<stop stop-color="#222D26"/>
<stop offset="0.494955" stop-color="white"/>
<stop offset="1" stop-color="#222D26" stop-opacity="0"/>
</linearGradient>
<linearGradient id="paint76_linear_17053_15987" x1="198.98" y1="73" x2="198.98" y2="112.446" gradientUnits="userSpaceOnUse">
<stop stop-color="#222D26"/>
<stop offset="0.494955" stop-color="white"/>
<stop offset="1" stop-color="#222D26" stop-opacity="0"/>
</linearGradient>
<linearGradient id="paint77_linear_17053_15987" x1="198.98" y1="73" x2="198.98" y2="112.446" gradientUnits="userSpaceOnUse">
<stop stop-color="#222D26"/>
<stop offset="0.494955" stop-color="white"/>
<stop offset="1" stop-color="#222D26" stop-opacity="0"/>
</linearGradient>
<linearGradient id="paint78_linear_17053_15987" x1="198.98" y1="73" x2="198.98" y2="112.446" gradientUnits="userSpaceOnUse">
<stop stop-color="#222D26"/>
<stop offset="0.494955" stop-color="white"/>
<stop offset="1" stop-color="#222D26" stop-opacity="0"/>
</linearGradient>
<linearGradient id="paint79_linear_17053_15987" x1="198.98" y1="73" x2="198.98" y2="112.446" gradientUnits="userSpaceOnUse">
<stop stop-color="#222D26"/>
<stop offset="0.494955" stop-color="white"/>
<stop offset="1" stop-color="#222D26" stop-opacity="0"/>
</linearGradient>
<linearGradient id="paint80_linear_17053_15987" x1="198.98" y1="73" x2="198.98" y2="112.446" gradientUnits="userSpaceOnUse">
<stop stop-color="#222D26"/>
<stop offset="0.494955" stop-color="white"/>
<stop offset="1" stop-color="#222D26" stop-opacity="0"/>
</linearGradient>
<linearGradient id="paint81_linear_17053_15987" x1="198.98" y1="73" x2="198.98" y2="112.446" gradientUnits="userSpaceOnUse">
<stop stop-color="#222D26"/>
<stop offset="0.494955" stop-color="white"/>
<stop offset="1" stop-color="#222D26" stop-opacity="0"/>
</linearGradient>
<linearGradient id="paint82_linear_17053_15987" x1="198.98" y1="73" x2="198.98" y2="112.446" gradientUnits="userSpaceOnUse">
<stop stop-color="#222D26"/>
<stop offset="0.494955" stop-color="white"/>
<stop offset="1" stop-color="#222D26" stop-opacity="0"/>
</linearGradient>
<linearGradient id="paint83_linear_17053_15987" x1="198.98" y1="73" x2="198.98" y2="112.446" gradientUnits="userSpaceOnUse">
<stop stop-color="#222D26"/>
<stop offset="0.494955" stop-color="white"/>
<stop offset="1" stop-color="#222D26" stop-opacity="0"/>
</linearGradient>
<linearGradient id="paint84_linear_17053_15987" x1="198.98" y1="142.933" x2="198.98" y2="182.379" gradientUnits="userSpaceOnUse">
<stop stop-color="#222D26"/>
<stop offset="0.494955" stop-color="white"/>
<stop offset="1" stop-color="#222D26" stop-opacity="0"/>
</linearGradient>
<linearGradient id="paint85_linear_17053_15987" x1="198.98" y1="142.933" x2="198.98" y2="182.379" gradientUnits="userSpaceOnUse">
<stop stop-color="#222D26"/>
<stop offset="0.494955" stop-color="white"/>
<stop offset="1" stop-color="#222D26" stop-opacity="0"/>
</linearGradient>
<linearGradient id="paint86_linear_17053_15987" x1="198.98" y1="142.933" x2="198.98" y2="182.379" gradientUnits="userSpaceOnUse">
<stop stop-color="#222D26"/>
<stop offset="0.494955" stop-color="white"/>
<stop offset="1" stop-color="#222D26" stop-opacity="0"/>
</linearGradient>
<linearGradient id="paint87_linear_17053_15987" x1="198.98" y1="142.933" x2="198.98" y2="182.379" gradientUnits="userSpaceOnUse">
<stop stop-color="#222D26"/>
<stop offset="0.494955" stop-color="white"/>
<stop offset="1" stop-color="#222D26" stop-opacity="0"/>
</linearGradient>
<linearGradient id="paint88_linear_17053_15987" x1="198.98" y1="142.933" x2="198.98" y2="182.379" gradientUnits="userSpaceOnUse">
<stop stop-color="#222D26"/>
<stop offset="0.494955" stop-color="white"/>
<stop offset="1" stop-color="#222D26" stop-opacity="0"/>
</linearGradient>
<linearGradient id="paint89_linear_17053_15987" x1="198.98" y1="142.933" x2="198.98" y2="182.379" gradientUnits="userSpaceOnUse">
<stop stop-color="#222D26"/>
<stop offset="0.494955" stop-color="white"/>
<stop offset="1" stop-color="#222D26" stop-opacity="0"/>
</linearGradient>
<linearGradient id="paint90_linear_17053_15987" x1="198.98" y1="142.933" x2="198.98" y2="182.379" gradientUnits="userSpaceOnUse">
<stop stop-color="#222D26"/>
<stop offset="0.494955" stop-color="white"/>
<stop offset="1" stop-color="#222D26" stop-opacity="0"/>
</linearGradient>
<linearGradient id="paint91_linear_17053_15987" x1="198.98" y1="142.933" x2="198.98" y2="182.379" gradientUnits="userSpaceOnUse">
<stop stop-color="#222D26"/>
<stop offset="0.494955" stop-color="white"/>
<stop offset="1" stop-color="#222D26" stop-opacity="0"/>
</linearGradient>
<linearGradient id="paint92_linear_17053_15987" x1="198.98" y1="142.933" x2="198.98" y2="182.379" gradientUnits="userSpaceOnUse">
<stop stop-color="#222D26"/>
<stop offset="0.494955" stop-color="white"/>
<stop offset="1" stop-color="#222D26" stop-opacity="0"/>
</linearGradient>
<linearGradient id="paint93_linear_17053_15987" x1="198.98" y1="142.933" x2="198.98" y2="182.379" gradientUnits="userSpaceOnUse">
<stop stop-color="#222D26"/>
<stop offset="0.494955" stop-color="white"/>
<stop offset="1" stop-color="#222D26" stop-opacity="0"/>
</linearGradient>
<linearGradient id="paint94_linear_17053_15987" x1="198.98" y1="142.933" x2="198.98" y2="182.379" gradientUnits="userSpaceOnUse">
<stop stop-color="#222D26"/>
<stop offset="0.494955" stop-color="white"/>
<stop offset="1" stop-color="#222D26" stop-opacity="0"/>
</linearGradient>
<linearGradient id="paint95_linear_17053_15987" x1="198.98" y1="142.933" x2="198.98" y2="182.379" gradientUnits="userSpaceOnUse">
<stop stop-color="#222D26"/>
<stop offset="0.494955" stop-color="white"/>
<stop offset="1" stop-color="#222D26" stop-opacity="0"/>
</linearGradient>
<linearGradient id="paint96_linear_17053_15987" x1="203.13" y1="108.581" x2="203.13" y2="145.707" gradientUnits="userSpaceOnUse">
<stop stop-color="#222D26" stop-opacity="0"/>
<stop offset="0.512772" stop-color="white"/>
<stop offset="1" stop-color="#222D26"/>
</linearGradient>
<linearGradient id="paint97_linear_17053_15987" x1="203.13" y1="108.581" x2="203.13" y2="145.707" gradientUnits="userSpaceOnUse">
<stop stop-color="#222D26" stop-opacity="0"/>
<stop offset="0.512772" stop-color="white"/>
<stop offset="1" stop-color="#222D26"/>
</linearGradient>
<linearGradient id="paint98_linear_17053_15987" x1="203.13" y1="108.581" x2="203.13" y2="145.707" gradientUnits="userSpaceOnUse">
<stop stop-color="#222D26" stop-opacity="0"/>
<stop offset="0.512772" stop-color="white"/>
<stop offset="1" stop-color="#222D26"/>
</linearGradient>
<linearGradient id="paint99_linear_17053_15987" x1="203.13" y1="108.581" x2="203.13" y2="145.707" gradientUnits="userSpaceOnUse">
<stop stop-color="#222D26" stop-opacity="0"/>
<stop offset="0.512772" stop-color="white"/>
<stop offset="1" stop-color="#222D26"/>
</linearGradient>
<linearGradient id="paint100_linear_17053_15987" x1="203.13" y1="108.581" x2="203.13" y2="145.707" gradientUnits="userSpaceOnUse">
<stop stop-color="#222D26" stop-opacity="0"/>
<stop offset="0.512772" stop-color="white"/>
<stop offset="1" stop-color="#222D26"/>
</linearGradient>
<linearGradient id="paint101_linear_17053_15987" x1="203.13" y1="108.581" x2="203.13" y2="145.707" gradientUnits="userSpaceOnUse">
<stop stop-color="#222D26" stop-opacity="0"/>
<stop offset="0.512772" stop-color="white"/>
<stop offset="1" stop-color="#222D26"/>
</linearGradient>
<linearGradient id="paint102_linear_17053_15987" x1="203.13" y1="108.581" x2="203.13" y2="145.707" gradientUnits="userSpaceOnUse">
<stop stop-color="#222D26" stop-opacity="0"/>
<stop offset="0.512772" stop-color="white"/>
<stop offset="1" stop-color="#222D26"/>
</linearGradient>
<linearGradient id="paint103_linear_17053_15987" x1="203.13" y1="108.581" x2="203.13" y2="145.707" gradientUnits="userSpaceOnUse">
<stop stop-color="#222D26" stop-opacity="0"/>
<stop offset="0.512772" stop-color="white"/>
<stop offset="1" stop-color="#222D26"/>
</linearGradient>
<linearGradient id="paint104_linear_17053_15987" x1="203.13" y1="108.581" x2="203.13" y2="145.707" gradientUnits="userSpaceOnUse">
<stop stop-color="#222D26" stop-opacity="0"/>
<stop offset="0.512772" stop-color="white"/>
<stop offset="1" stop-color="#222D26"/>
</linearGradient>
<linearGradient id="paint105_linear_17053_15987" x1="203.13" y1="108.581" x2="203.13" y2="145.707" gradientUnits="userSpaceOnUse">
<stop stop-color="#222D26" stop-opacity="0"/>
<stop offset="0.512772" stop-color="white"/>
<stop offset="1" stop-color="#222D26"/>
</linearGradient>
<linearGradient id="paint106_linear_17053_15987" x1="203.13" y1="108.581" x2="203.13" y2="145.707" gradientUnits="userSpaceOnUse">
<stop stop-color="#222D26" stop-opacity="0"/>
<stop offset="0.512772" stop-color="white"/>
<stop offset="1" stop-color="#222D26"/>
</linearGradient>
<linearGradient id="paint107_linear_17053_15987" x1="203.13" y1="108.581" x2="203.13" y2="145.707" gradientUnits="userSpaceOnUse">
<stop stop-color="#222D26" stop-opacity="0"/>
<stop offset="0.512772" stop-color="white"/>
<stop offset="1" stop-color="#222D26"/>
</linearGradient>
</defs>
</svg>
