<svg width="326" height="276" viewBox="0 0 326 276" fill="none" xmlns="http://www.w3.org/2000/svg">
<rect x="0.333496" width="325.333" height="276" rx="8" fill="#222D26"/>
<path fill-rule="evenodd" clip-rule="evenodd" d="M130 116C130 97.7746 144.775 83 163 83C181.225 83 196 97.7746 196 116V160C196 178.225 181.225 193 163 193C144.775 193 130 178.225 130 160V116ZM141 157.25C141 169.4 150.85 179.25 163 179.25C175.15 179.25 185 169.4 185 157.25V118.75C185 106.6 175.15 96.75 163 96.75C150.85 96.75 141 106.6 141 118.75V157.25Z" fill="url(#paint0_linear_17096_12150)"/>
<path fill-rule="evenodd" clip-rule="evenodd" d="M141 171C122.775 171 108 156.225 108 138C108 119.775 122.775 105 141 105L185 105C203.225 105 218 119.775 218 138C218 156.225 203.225 171 185 171H141ZM182.25 160C194.4 160 204.25 150.15 204.25 138C204.25 125.85 194.4 116 182.25 116H143.75C131.6 116 121.75 125.85 121.75 138C121.75 150.15 131.6 160 143.75 160H182.25Z" fill="url(#paint1_linear_17096_12150)"/>
<defs>
<linearGradient id="paint0_linear_17096_12150" x1="163" y1="123.74" x2="156.117" y2="194.241" gradientUnits="userSpaceOnUse">
<stop stop-color="white"/>
<stop offset="1" stop-color="white" stop-opacity="0"/>
</linearGradient>
<linearGradient id="paint1_linear_17096_12150" x1="193.465" y1="158.094" x2="201.69" y2="103.953" gradientUnits="userSpaceOnUse">
<stop stop-color="white"/>
<stop offset="1" stop-color="white" stop-opacity="0"/>
</linearGradient>
</defs>
</svg>
