<svg width="326" height="254" viewBox="0 0 326 254" fill="none" xmlns="http://www.w3.org/2000/svg">
<rect x="0.666016" width="325.333" height="254" rx="8" fill="#222D26"/>
<path d="M161.632 92.2632V67H166.368V92.2632H161.632Z" fill="url(#paint0_linear_17100_6201)"/>
<path d="M158.282 124.632L142.229 108.578L145.578 105.228L161.632 121.282V98.5789H166.368V121.282L182.422 105.228L185.771 108.578L169.718 124.632H192.421V129.368H169.718L185.771 145.422L182.422 148.771L166.368 132.718V155.421H161.632V132.718L145.578 148.771L142.229 145.422L158.282 129.368H135.579V124.632H158.282Z" fill="url(#paint1_linear_17100_6201)"/>
<path d="M104 124.632H129.263V129.368H104V124.632Z" fill="url(#paint2_linear_17100_6201)"/>
<path d="M198.737 124.632H224V129.368H198.737V124.632Z" fill="url(#paint3_linear_17100_6201)"/>
<path d="M161.632 161.737V187H166.368V161.737H161.632Z" fill="url(#paint4_linear_17100_6201)"/>
<path d="M137.763 149.888L119.899 167.752L123.248 171.101L141.112 153.237L137.763 149.888Z" fill="url(#paint5_linear_17100_6201)"/>
<path d="M186.888 100.763L204.752 82.8988L208.101 86.2482L190.237 104.112L186.888 100.763Z" fill="url(#paint6_linear_17100_6201)"/>
<path d="M190.237 149.888L208.101 167.752L204.752 171.101L186.888 153.237L190.237 149.888Z" fill="url(#paint7_linear_17100_6201)"/>
<path d="M141.112 100.763L123.248 82.8988L119.899 86.2482L137.763 104.112L141.112 100.763Z" fill="url(#paint8_linear_17100_6201)"/>
<defs>
<linearGradient id="paint0_linear_17100_6201" x1="125.316" y1="78.0526" x2="189.263" y2="187.789" gradientUnits="userSpaceOnUse">
<stop stop-color="white"/>
<stop offset="1" stop-color="white" stop-opacity="0.06"/>
</linearGradient>
<linearGradient id="paint1_linear_17100_6201" x1="125.316" y1="78.0526" x2="189.263" y2="187.789" gradientUnits="userSpaceOnUse">
<stop stop-color="white"/>
<stop offset="1" stop-color="white" stop-opacity="0.06"/>
</linearGradient>
<linearGradient id="paint2_linear_17100_6201" x1="125.316" y1="78.0526" x2="189.263" y2="187.789" gradientUnits="userSpaceOnUse">
<stop stop-color="white"/>
<stop offset="1" stop-color="white" stop-opacity="0.06"/>
</linearGradient>
<linearGradient id="paint3_linear_17100_6201" x1="125.316" y1="78.0526" x2="189.263" y2="187.789" gradientUnits="userSpaceOnUse">
<stop stop-color="white"/>
<stop offset="1" stop-color="white" stop-opacity="0.06"/>
</linearGradient>
<linearGradient id="paint4_linear_17100_6201" x1="125.316" y1="78.0526" x2="189.263" y2="187.789" gradientUnits="userSpaceOnUse">
<stop stop-color="white"/>
<stop offset="1" stop-color="white" stop-opacity="0.06"/>
</linearGradient>
<linearGradient id="paint5_linear_17100_6201" x1="125.316" y1="78.0526" x2="189.263" y2="187.789" gradientUnits="userSpaceOnUse">
<stop stop-color="white"/>
<stop offset="1" stop-color="white" stop-opacity="0.06"/>
</linearGradient>
<linearGradient id="paint6_linear_17100_6201" x1="125.316" y1="78.0526" x2="189.263" y2="187.789" gradientUnits="userSpaceOnUse">
<stop stop-color="white"/>
<stop offset="1" stop-color="white" stop-opacity="0.06"/>
</linearGradient>
<linearGradient id="paint7_linear_17100_6201" x1="125.316" y1="78.0526" x2="189.263" y2="187.789" gradientUnits="userSpaceOnUse">
<stop stop-color="white"/>
<stop offset="1" stop-color="white" stop-opacity="0.06"/>
</linearGradient>
<linearGradient id="paint8_linear_17100_6201" x1="125.316" y1="78.0526" x2="189.263" y2="187.789" gradientUnits="userSpaceOnUse">
<stop stop-color="white"/>
<stop offset="1" stop-color="white" stop-opacity="0.06"/>
</linearGradient>
</defs>
</svg>
