<svg width="326" height="254" viewBox="0 0 326 254" fill="none" xmlns="http://www.w3.org/2000/svg">
<rect x="0.333252" width="325.333" height="254" rx="8" fill="#222D26"/>
<path fill-rule="evenodd" clip-rule="evenodd" d="M162.96 138.324L173.658 132.311V121.013L162.96 115L152.263 121.013V132.311L162.96 138.324ZM163.345 137.226L172.889 131.861V121.887L163.345 127.252V137.226ZM162.96 126.586L172.481 121.234L162.96 115.883L153.44 121.234L162.96 126.586ZM153.032 121.887V131.861L162.576 137.226V127.252L153.032 121.887Z" fill="white"/>
<path fill-rule="evenodd" clip-rule="evenodd" d="M162.817 102.966L141.869 115.206V139.016L162.817 151.038L184.052 139.013V115.209L162.817 102.966ZM184.821 114.765L162.814 102.077L141.1 114.765V139.462L162.814 151.923L184.821 139.462V114.765Z" fill="white"/>
<path fill-rule="evenodd" clip-rule="evenodd" d="M162.96 91.8825L131.908 109.367L131.908 143.856L162.96 161.196L194.012 143.856V109.367L162.96 91.8825ZM194.782 108.917L162.96 90.9998L131.139 108.917L131.139 144.307L162.96 162.077L194.782 144.307V108.917Z" fill="white"/>
<path fill-rule="evenodd" clip-rule="evenodd" d="M131.991 109.03L141.759 114.641L141.371 115.306L131.604 109.694L131.991 109.03Z" fill="white"/>
<path fill-rule="evenodd" clip-rule="evenodd" d="M194.158 108.9L184.118 114.668L184.505 115.333L194.546 109.564L194.158 108.9Z" fill="white"/>
<path fill-rule="evenodd" clip-rule="evenodd" d="M162.576 161.323L162.576 151.248L163.345 151.248L163.345 161.323L162.576 161.323Z" fill="white"/>
<path fill-rule="evenodd" clip-rule="evenodd" d="M162.576 186.077L162.576 173.615L163.345 173.615L163.345 186.077L162.576 186.077Z" fill="white"/>
<path fill-rule="evenodd" clip-rule="evenodd" d="M214.396 97.2736L203.698 103.419L204.086 104.084L214.783 97.938L214.396 97.2736Z" fill="white"/>
<path fill-rule="evenodd" clip-rule="evenodd" d="M111.527 97.2753L122.225 103.421L121.837 104.085L111.14 97.9397L111.527 97.2753Z" fill="white"/>
<path fill-rule="evenodd" clip-rule="evenodd" d="M162.962 80.808L122.242 103.91V150.091L162.962 173.193L203.681 150.091V103.91L162.962 80.808ZM204.45 103.462L162.962 79.9236L121.473 103.462V150.539L162.962 174.077L204.45 150.539V103.462Z" fill="white"/>
<path fill-rule="evenodd" clip-rule="evenodd" d="M162.962 67.8902L111.769 97.7119L111.769 156.556L162.962 186.112L214.154 156.556V97.7119L162.962 67.8902ZM214.923 97.2697L162.962 67L111 97.2697L111 157L162.962 187L214.923 157V97.2697Z" fill="white"/>
</svg>
