<svg width="24" height="25" viewBox="0 0 24 25" fill="none" xmlns="http://www.w3.org/2000/svg">
<path fill-rule="evenodd" clip-rule="evenodd" d="M7.44576 14.0676C7.47977 14.078 7.51446 14.0862 7.54958 14.0919C7.7721 14.6163 7.99337 15.1411 8.21339 15.6665C8.60901 16.6119 9.00776 17.5856 9.09507 17.8656C9.20439 18.2101 9.31922 18.4445 9.44506 18.6049C9.51034 18.6867 9.58506 18.7591 9.67315 18.8141C9.7194 18.8422 9.76843 18.8654 9.81944 18.8834C10.0711 18.9777 10.3008 18.9384 10.4447 18.8904C10.5292 18.8617 10.6096 18.8221 10.6838 18.7725L10.6877 18.7709L12.9104 17.3851L15.4784 19.3529C15.5161 19.3817 15.557 19.4061 15.6011 19.426C15.9094 19.5598 16.2082 19.6069 16.4898 19.5692C16.7698 19.5299 16.9924 19.4127 17.1583 19.2798C17.3487 19.126 17.5006 18.9299 17.6019 18.7072L17.609 18.6899L17.6114 18.6836L17.6129 18.6804V18.6789L17.6137 18.6781C17.6266 18.644 17.6371 18.609 17.6452 18.5735L19.989 6.75619C19.9955 6.71823 19.9991 6.67985 20 6.64136C20 6.2953 19.8694 5.96575 19.5635 5.76676C19.3008 5.59609 19.009 5.58823 18.8242 5.60238C18.626 5.61811 18.4419 5.66688 18.3184 5.7062C18.2494 5.72848 18.1812 5.75314 18.114 5.78013L18.1053 5.78407L4.95961 10.9404L4.95804 10.9412C4.91346 10.9573 4.86963 10.9754 4.82669 10.9955C4.72241 11.0423 4.6224 11.098 4.52782 11.1622C4.34928 11.2841 3.93794 11.6192 4.00793 12.1729C4.06299 12.6133 4.36501 12.8847 4.54984 13.0152C4.65051 13.0868 4.74647 13.1379 4.81725 13.1717C4.84871 13.1875 4.91635 13.2142 4.94545 13.2268L4.95332 13.2292L7.44576 14.0676ZM18.5654 6.86945H18.5638L18.5434 6.8781L5.38196 12.0415L5.36151 12.0494L5.35365 12.0517C5.32955 12.0611 5.30593 12.0716 5.28286 12.0832C5.30485 12.0956 5.32743 12.1068 5.3505 12.117L7.82171 12.9492C7.86534 12.9653 7.90746 12.9853 7.94755 13.0089L16.1091 8.23089L16.117 8.22696C16.1489 8.20799 16.1814 8.19015 16.2145 8.17348C16.2712 8.14438 16.3616 8.10191 16.4639 8.07044C16.5346 8.04842 16.7446 7.98629 16.9712 8.05943C17.0915 8.09697 17.1988 8.16777 17.2806 8.26365C17.3624 8.35954 17.4155 8.4766 17.4336 8.60134C17.4629 8.71047 17.4637 8.82528 17.436 8.93482C17.3809 9.15111 17.2299 9.31942 17.0923 9.44841C16.9743 9.55852 15.4438 11.034 13.9345 12.4906L11.8793 14.4726L11.5136 14.8265L16.132 18.3674C16.1943 18.3935 16.262 18.4042 16.3294 18.3989C16.3633 18.3942 16.3952 18.38 16.4214 18.358C16.4532 18.331 16.4806 18.2991 16.5024 18.2636L16.504 18.2628L18.777 6.80102C18.7055 6.81862 18.6353 6.84123 18.567 6.86866L18.5654 6.86945ZM11.9108 16.6174L10.989 15.9111L10.7656 17.3308L11.9108 16.6174ZM10.1435 14.5096L11.0598 13.6248L13.1149 11.6412L13.8802 10.9034L8.75215 13.9055L8.77968 13.97C9.1031 14.7341 9.42295 15.4996 9.73922 16.2666L9.9618 14.8509C9.98212 14.7197 10.0461 14.5999 10.1435 14.5096Z" fill="#E8E8E8"/>
</svg>
