<svg width="19" height="16" viewBox="0 0 19 16" fill="none" xmlns="http://www.w3.org/2000/svg">
<path fill-rule="evenodd" clip-rule="evenodd" d="M14.2143 5.33333L15.7381 2.66667L14.2143 0H11.1667L9.64286 2.66667L8.11905 0H5.07143L3.54762 2.66667L5.07143 5.33333H2.02381L0.5 8L2.02381 10.6667H5.07143L3.54762 13.3333L5.07143 16H8.11905L9.64286 13.3333L11.1667 16H14.2143L15.7381 13.3333L14.2143 10.6667H17.2619L18.7857 8L17.2619 5.33333H14.2143ZM12.6905 8L14.2143 10.6667H11.1667L12.6905 8ZM11.1667 5.33333L12.6905 8L14.2143 5.33333H11.1667ZM8.11905 5.33333H11.1667L9.64286 2.66667L8.11905 5.33333ZM6.59524 8L5.07143 5.33333H8.11905L6.59524 8ZM8.11905 10.6667H5.07143L6.59524 8L8.11905 10.6667ZM8.11905 10.6667L9.64286 13.3333L11.1667 10.6667H8.11905Z" fill="#07130C"/>
</svg>
